<?xml version="1.0" encoding="UTF-8"?><svg id="Layer_1" xmlns="http://www.w3.org/2000/svg" viewBox="0 0 348.81 79.07"><defs><style>.cls-1{fill:none;}.cls-2{fill:#fff;}.cls-3{fill:#d80e29;}.cls-4{fill:#18223f;}</style></defs><g><path class="cls-1" d="M79.07,39.53c0,21.83-17.7,39.53-39.53,39.53S0,61.37,0,39.53,17.7,0,39.54,0s39.53,17.7,39.53,39.53Z"/><g><path class="cls-4" d="M5.89,31.58c.69,.15,.91,.07,1.02-.42l.17,.03-.45,2.03-.17-.04c.09-.41,.03-.68-.76-.85l-4.36-.98-.19,.83c-.17,.77-.03,1.17,.56,1.35l-.04,.17-1.3-.3,.04-.17c.09-.06,.16-.14,.23-.27,.06-.12,.12-.3,.17-.54l.67-2.99c.11-.5,.11-.74,0-.96l.04-.18,1.31,.29-.03,.11c-.5,0-.88,.12-1.09,1.02l-.19,.87,4.39,.98Z"/><path class="cls-4" d="M6.19,25.08l1.53,.75c.64,.31,.91,.25,1.13-.2l.15,.08-.93,1.91-.15-.08c.2-.41,.15-.66-.54-1.01l-3.29-1.6c-.62-.31-.89-.28-1.12,.19l-.16-.08,.93-1.91,.15,.08c-.2,.41-.13,.69,.54,1.01l1.5,.73,1.4-2.87-1.5-.73c-.64-.31-.9-.27-1.12,.18l-.16-.08,.92-1.89,.16,.08c-.22,.45-.08,.7,.54,1l3.28,1.6c.63,.3,.91,.26,1.13-.19l.16,.08-.92,1.89-.15-.08c.2-.41,.15-.65-.55-.99l-1.53-.75-1.4,2.87Z"/><path class="cls-4" d="M13.12,15.44l-.11,.13c-.46-.23-.57-.2-.95,.27l-.93,1.11,1.61,1.34c.22,.18,.37,.18,.58-.08l.66-.79c.55-.66,.65-.85,.29-1.61l.11-.13,.67,.9-2.7,3.24-.14-.11c.3-.36,.32-.6-.28-1.1l-2.81-2.34c-.56-.47-.82-.47-1.14-.09l-.13-.11,2.7-3.25,.76,.63-.08,.09c-.58-.31-.74-.19-1.16,.31l-1.08,1.29,1.93,1.61,1.05-1.26c.25-.31,.3-.47-.04-.86l.11-.13,1.09,.91Z"/><path class="cls-4" d="M24.1,8.84c-.17,.85-.55,1.41-1.23,1.8-1.24,.69-2.23,.1-2.73-.78l-1.42-2.51c-.38-.68-.63-.71-1.04-.49l-.08-.15,1.84-1.04,.08,.15c-.42,.23-.5,.48-.13,1.13l1.45,2.58c.44,.78,1.2,1.1,2.06,.61,.59-.33,.94-.92,.98-1.67l-1.73-3.08c-.33-.59-.58-.72-1-.5l-.09-.15,1.8-1.01,.09,.15c-.43,.24-.47,.52-.12,1.14l1.79,3.18c.38,.67,.65,.71,1.04,.48l.09,.15-1.26,.71-.4-.71Z"/><path class="cls-4" d="M33.4,6.52l-.17,.04-5.26-3.91h-.02l1.02,3.98c.15,.58,.43,.73,.94,.59l.04,.17-1.73,.44-.04-.17c.48-.12,.67-.33,.46-1.15l-.85-3.32c-.16-.63-.42-.95-1.11-.83l-.04-.17,1.46-.37,4.68,3.51h.02l-.85-3.32c-.19-.74-.43-.88-.93-.75l-.04-.17,1.71-.44,.04,.17c-.55,.14-.67,.42-.5,1.08l1.18,4.62Z"/><path class="cls-4" d="M38.17,4.96c.04,.71,.22,.92,.71,.89v.17l-2.1,.1v-.17c.47-.02,.65-.22,.61-.96l-.18-3.65c-.04-.74-.21-.92-.71-.9v-.17l2.09-.1v.17c-.48,.03-.65,.26-.61,.96l.18,3.65Z"/><path class="cls-4" d="M44.09,6.43l-.16-.02-1.17-4.96c-.18-.74-.29-1.04-.83-1.13l.02-.17,2.11,.28-.02,.17c-.41-.06-.65,.14-.54,.62l.92,3.94,1.83-3.44c.25-.47,.2-.8-.33-.87l.02-.17,1.7,.22-.03,.19c-.43-.06-.81,.23-1.2,.98l-2.32,4.36Z"/><path class="cls-4" d="M53.34,6.54l-.16-.06c.06-.52,0-.61-.57-.82l-1.37-.5-.72,1.97c-.1,.27-.04,.41,.27,.52l.96,.36c.8,.29,1.02,.33,1.61-.28l.16,.06-.63,.94-3.97-1.45,.06-.17c.43,.16,.67,.1,.94-.63l1.26-3.44c.25-.68,.17-.93-.3-1.1l.06-.16,3.97,1.45-.34,.92-.11-.04c.1-.65-.08-.77-.68-.99l-1.59-.58-.86,2.35,1.54,.56c.37,.14,.54,.12,.79-.32l.16,.06-.49,1.33Z"/><path class="cls-4" d="M59.99,6.15l.51,.34c.75,.49,.93,1.27,.51,1.92-.37,.57-1.07,.91-1.89,.37l-.6-.39,1.47-2.24Zm-1.61,2.44l.39,.26c.9,.59,.39,1.91,.58,3.62l1,.66,.1-.14c-.77-.59-.01-2.41-.54-3.6,.86,.26,1.45,0,1.8-.54,.43-.65,.31-1.63-.78-2.35l-2.01-1.32-.1,.14c.4,.26,.48,.49,.06,1.13l-2.02,3.06c-.43,.66-.69,.66-1.07,.41l-.09,.15,1.76,1.16,.09-.14c-.4-.26-.44-.54-.04-1.14l.88-1.34Z"/><path class="cls-4" d="M67.72,13.9l-.12-.12c.56-.67,.36-1.35-.05-1.77-.43-.44-.98-.51-1.36-.13-.78,.76,.07,2.03,.06,3.22,0,.57-.19,.91-.47,1.18-.66,.65-1.72,.63-2.36-.02-.44-.45-.59-1.03-.72-1.17-.08-.07-.17-.08-.32,0l-.12-.12,1.13-1.11,.12,.12c-.77,.77-.4,1.65-.04,2.02,.5,.5,1.12,.55,1.57,.11,.72-.71-.05-2.16-.04-3.09,0-.51,.2-.9,.52-1.22,.64-.63,1.53-.61,2.2,.08,.44,.44,.49,.81,.65,.97,.06,.07,.09,.07,.22,0l.12,.12-.98,.96Z"/><path class="cls-4" d="M68.22,20.17c-.59,.41-.67,.67-.39,1.07l-.14,.1-1.2-1.73,.15-.1c.27,.39,.53,.44,1.14,.02l3-2.08c.61-.42,.67-.66,.39-1.07l.14-.1,1.21,1.74-.14,.1c-.28-.4-.56-.42-1.15-.02l-3,2.08Z"/><path class="cls-4" d="M71.14,25.49c-.64,.3-.76,.49-.55,.95l-.16,.07-.87-1.89,.16-.07c.17,.38,.39,.55,1.12,.21l4.06-1.86-.35-.77c-.33-.72-.68-.95-1.26-.74l-.08-.16,1.22-.56,.07,.16c-.03,.1-.04,.21-.02,.36,.03,.13,.09,.31,.19,.53l1.28,2.79c.21,.47,.37,.65,.58,.76l.08,.17-1.22,.56-.05-.1c.4-.31,.64-.63,.25-1.48l-.37-.81-4.09,1.88Z"/><path class="cls-4" d="M73.45,32.61c-.69,.15-.88,.34-.78,.83l-.17,.04-.45-2.09,.17-.04c.09,.44,.24,.68,1.06,.51l1.8-.39,1.64-1.63c.54-.54,.64-.73,.56-1.19l.17-.04,.48,2.24-.17,.04c-.13-.63-.37-.65-.67-.35l-1.5,1.51,1.64,.6c.51,.18,.94,.12,.83-.37l.17-.04,.33,1.57-.17,.03c-.13-.43-.28-.56-.85-.77l-2.31-.85-1.8,.39Z"/><path class="cls-4" d="M3.93,47.48c1.63-.47,2.96,.06,3.35,1.39,.33,1.16-.39,2.39-2.16,2.9-1.36,.39-2.92,.05-3.33-1.37-.37-1.27,.5-2.44,2.14-2.92Zm-.24-.87c-1.67,.48-2.6,2.17-2.12,3.85,.48,1.68,2.17,2.63,3.84,2.15,1.64-.47,2.55-2.16,2.07-3.83-.5-1.72-2.13-2.66-3.8-2.17Z"/><path class="cls-4" d="M6.03,57.99c-.62,.36-.72,.61-.48,1.04l-.15,.09-1.05-1.83,.15-.08c.24,.42,.5,.48,1.13,.12l3.17-1.81c.64-.37,.72-.61,.48-1.04l.15-.09,1.99,3.5-.91,.52-.06-.12c.55-.48,.5-.65,.18-1.2l-.74-1.3-2.13,1.22,.75,1.32c.22,.38,.49,.41,.93,.22l.08,.14-1.43,.82-.08-.14c.35-.23,.46-.53,.26-.88l-.76-1.34-1.5,.86Z"/><path class="cls-4" d="M17.27,69.29l-.14-.11c.22-.46,.19-.57-.28-.95l-1.12-.92-1.33,1.62c-.18,.22-.17,.38,.08,.58l.79,.65c.66,.54,.86,.65,1.61,.27l.14,.11-.9,.68-3.27-2.68,.11-.13c.36,.29,.61,.31,1.1-.29l2.32-2.83c.46-.56,.46-.82,.08-1.14l.11-.13,3.27,2.68-.62,.76-.09-.07c.31-.58,.18-.75-.32-1.16l-1.31-1.07-1.59,1.94,1.26,1.04c.31,.25,.47,.3,.85-.04l.14,.11-.9,1.1Z"/><path class="cls-4" d="M23.94,69.48l1.01,.46c1.69,.77,1.73,2.35,1.15,3.62-.67,1.45-1.88,2-3.2,1.39l-.55-.25c-.49-.23-.61-.47-.23-1.3l1.81-3.93Zm-2.6,3.78c-.3,.66-.57,.76-.99,.57l-.07,.16,2.52,1.16c2.09,.96,3.51,.12,4.12-1.22,.64-1.38,.3-3.2-1.73-4.13l-2.46-1.13-.07,.15c.45,.21,.51,.48,.21,1.12l-1.53,3.32Z"/><path class="cls-4" d="M31.66,76.96c-.15,.7-.03,.95,.45,1.05l-.04,.17-2.06-.45,.04-.17c.47,.1,.69-.04,.85-.77l.79-3.57c.16-.72,.04-.94-.45-1.05l.04-.17,2.06,.45-.04,.17c-.48-.1-.7,.08-.85,.77l-.78,3.56Z"/><path class="cls-4" d="M42.25,78.86h-.18l-4.18-5.04h-.02l.04,4.11c0,.59,.24,.8,.77,.8v.18h-1.78v-.15c.48,0,.72-.16,.71-1.01l-.04-3.43c0-.65-.18-1.02-.88-1.08v-.17l1.5-.02,3.71,4.53h.02l-.04-3.43c0-.76-.21-.96-.73-.95v-.17l1.77-.02v.17c-.57,0-.75,.24-.74,.93l.05,4.77Z"/><path class="cls-4" d="M48.39,74.66l-.66-2.4,.56-.16c.92-.25,1.49,.13,1.68,.84,.2,.71-.18,1.33-1.01,1.55l-.58,.16Zm-.21,2.18c.19,.69,.08,.94-.39,1.07l.05,.17,2.6-.72c1.07-.29,1.67-1.03,1.44-1.88-.21-.76-.98-1.25-1.9-1.19v-.02c.7-.47,.95-.97,.78-1.6-.2-.72-.98-1.21-2.34-.84l-2.14,.58,.05,.17c.48-.13,.69,0,.89,.72l.97,3.52Zm.27-1.96l.53-.15c.99-.27,1.78,.12,2.01,.95,.23,.83-.21,1.36-.78,1.52l-.46,.13c-.44,.12-.63-.03-.84-.79l-.46-1.65Z"/><path class="cls-4" d="M60.3,72.04c-.15,.85-.53,1.42-1.2,1.81-1.23,.72-2.23,.14-2.73-.73l-1.46-2.49c-.39-.67-.64-.7-1.04-.47l-.09-.15,1.83-1.06,.09,.15c-.41,.24-.49,.49-.12,1.13l1.5,2.56c.45,.78,1.21,1.08,2.07,.58,.58-.34,.93-.93,.96-1.69l-1.78-3.05c-.34-.58-.59-.71-1.01-.49l-.09-.15,1.78-1.04,.09,.15c-.42,.25-.46,.53-.1,1.14l1.84,3.15c.38,.66,.65,.7,1.04,.47l.09,.15-1.24,.73-.42-.71Z"/><path class="cls-4" d="M62.67,64.09l.43-.44c.64-.64,1.44-.67,1.99-.12,.48,.48,.69,1.22-.01,1.93l-.5,.51-1.9-1.88Zm2.08,2.06l.33-.34c.76-.76,1.95,0,3.67,.14l.84-.85-.13-.13c-.73,.64-2.37-.45-3.64-.17,.42-.8,.28-1.42-.18-1.87-.56-.55-1.54-.63-2.46,.31l-1.69,1.71,.13,.12c.32-.33,.57-.37,1.11,.17l2.61,2.58c.56,.55,.51,.8,.2,1.12l.13,.12,1.48-1.5-.12-.12c-.34,.34-.62,.32-1.13-.19l-1.14-1.12Z"/><path class="cls-4" d="M74.38,57.99c-.09,.32-.59,1.24-.73,1.47-1.34,2.21-3.11,2.13-4.27,1.42-1.77-1.08-1.95-3.03-1.2-4.26,.43-.71,.83-.84,1.07-1.22,.1-.16,.1-.25,0-.38l.1-.16,1.47,.9-.08,.14c-1.03-.45-1.95,.15-2.37,.84-.62,1.03-.2,2.35,1.17,3.19,1.47,.89,3.08,.68,3.81-.51,.22-.36,.42-.89-.02-1.16l-.54-.33c-.61-.37-.92-.37-1.17,.04l-.12,.19-.15-.09,1.23-2.03,.15,.09c-.3,.49-.14,.76,.3,1.03l1.35,.82Z"/><path class="cls-4" d="M74.21,51.23l1.63,.47c.68,.2,.94,.1,1.08-.39l.17,.05-.59,2.03-.17-.05c.13-.43,.04-.68-.71-.9l-3.5-1.01c-.67-.19-.94-.12-1.08,.38l-.16-.05,.58-2.04,.17,.05c-.13,.44-.01,.7,.7,.91l1.61,.46,.88-3.06-1.6-.46c-.68-.2-.94-.11-1.08,.37l-.17-.05,.58-2.02,.17,.05c-.14,.48,.04,.71,.71,.9l3.51,1.01c.67,.19,.94,.1,1.08-.38l.17,.05-.58,2.02-.17-.05c.13-.44,.03-.67-.71-.88l-1.63-.48-.89,3.07Z"/><path class="cls-4" d="M3.41,40.07c0,.28-.24,.52-.52,.51-.29,0-.52-.23-.52-.51,0-.29,.24-.52,.52-.52,.29,0,.52,.23,.52,.52Z"/><path class="cls-4" d="M76.68,40.08c0,.28-.24,.52-.52,.51-.28,0-.51-.24-.51-.52,0-.28,.24-.51,.52-.51,.29,0,.52,.23,.51,.52Z"/></g><g><path class="cls-4" d="M54.56,66.67c.41-.21,.79-.5,1.19-.75,.34-.2,.67-.41,1.01-.62,.31-.23,.58-.48,.9-.7,.32-.24,.65-.47,.97-.71,.07-.07,.14-.13,.2-.2,.08-.04,.15-.08,.23-.13,.28-.21,.56-.46,.82-.7,.21-.19,.36-.41,.58-.61,.21-.2,.46-.37,.68-.57,.09-.09,.14-.18,.23-.26,.17-.17,.36-.34,.52-.53,.11-.14,.23-.28,.34-.42,.41-.39,.77-.82,1.11-1.25,.27-.32,.55-.66,.82-.98,.18-.25,.36-.51,.54-.76,.1-.1,.19-.21,.29-.3,.29-.41,.59-.83,.89-1.24,.09-.14,.14-.28,.22-.43,.06-.1,.13-.19,.19-.28,.06-.12,.12-.24,.17-.36,.2-.34,.38-.69,.57-1.03,.16-.27,.31-.53,.46-.8,.13-.27,.21-.55,.33-.83,.14-.28,.27-.56,.41-.85,.45-1.22,.9-2.44,1.27-3.71,.02-.15,.05-.3,.08-.45,.1-.46,.22-.94,.31-1.41,.03-.24,.06-.48,.08-.73,.07-.39,.15-.82,.2-1.22,.02-.32,.05-.65,.08-.98,.02-.12,.05-.25,.08-.38,.01-.27,.03-.54,.04-.81,.02-.14,.06-.26,.06-.41,0-.19,0-.38,0-.57,.08-1.22,.1-2.55,.04-3.77-.04-.63-.18-1.25-.25-1.87-.07-.66-.12-1.3-.26-1.92-.36-1.71-.84-3.39-1.44-4.99-.09-.23-.22-.44-.32-.67-.19-.47-.42-.91-.65-1.37-.08-.13-.15-.26-.23-.39-.19-.39-.32-.83-.53-1.21-.13-.24-.28-.44-.43-.67-.12-.25-.24-.49-.35-.74-.44-.67-.88-1.33-1.34-1.99-.17-.2-.34-.4-.51-.6-.19-.24-.38-.49-.56-.74-.18-.18-.39-.33-.54-.54-.1-.12-.15-.24-.24-.36-.14-.16-.28-.31-.43-.46-.08-.08-.17-.16-.25-.23-.22-.25-.42-.5-.64-.74-.2-.18-.39-.37-.58-.55-.19-.19-.38-.38-.57-.57-.26-.2-.52-.4-.78-.6-.26-.24-.54-.47-.81-.71-.18-.14-.37-.23-.55-.35-.23-.17-.46-.34-.69-.5-.17-.12-.32-.26-.49-.39-.12-.08-.25-.15-.37-.23-.17-.12-.33-.23-.5-.35-.55-.34-1.15-.59-1.72-.89-.21-.13-.42-.26-.63-.39-.36-.18-.72-.37-1.08-.55-.3-.14-.6-.24-.91-.36-.15-.08-.3-.16-.44-.24-.12-.04-.23-.08-.34-.12-.18-.08-.36-.16-.54-.24-.57-.21-1.16-.35-1.75-.53-.28-.08-.56-.2-.85-.28-.61-.18-1.22-.27-1.86-.41-.41-.09-.84-.21-1.25-.28-.27-.04-.54-.07-.8-.11-.45-.09-.95-.17-1.41-.23-.18,0-.36,0-.54-.01-.12-.02-.25-.03-.38-.05-.24,0-.49,0-.73-.01-.55-.04-1.12-.08-1.7-.08-.23,.06-.54,.02-.79,.02h-.89c-.08,.01-.16,.03-.25,.04-.2,0-.41,.01-.62,.02-.11,.02-.22,.05-.33,.08-.1,.02-.21,.03-.32,.04-.11,0-.21-.01-.3,.02-.06,.01-.12,.02-.19,.03-.13,0-.27,0-.38,.05-.29,0-.72,.03-.94,.16-.07,0-.13,.02-.19,.02-.19,0-.43,.02-.57,.11-.48,0-.87,.2-1.3,.3-.23,.06-.51,.08-.7,.2-.19,0-.39,.04-.54,.13-.3,0-.56,.17-.82,.28-.15,.05-.34,.06-.48,.15-.3,0-.57,.18-.82,.29-.17,.07-.35,.14-.52,.22-.93,.39-1.84,.83-2.73,1.3-.15,.1-.31,.19-.45,.29-1.07,.54-2.13,1.14-3.08,1.91-.28,.2-.56,.4-.84,.6-.15,.13-.3,.26-.44,.39-.27,.2-.56,.37-.82,.59-.54,.45-1.05,.96-1.54,1.46-.31,.28-.62,.56-.93,.84-.1,.12-.21,.24-.31,.36-.14,.13-.28,.26-.42,.39-.22,.23-.38,.5-.59,.72-.19,.19-.37,.36-.54,.57-.07,.11-.15,.21-.23,.32-.32,.36-.64,.72-.92,1.11-.19,.3-.38,.59-.57,.89-.27,.36-.59,.81-.8,1.2-.07,.13-.13,.26-.19,.38-.18,.31-.37,.62-.56,.92-.16,.32-.27,.67-.43,.99-.08,.13-.15,.25-.22,.37-.16,.29-.29,.58-.46,.87-.08,.19-.15,.37-.23,.56-.1,.19-.19,.38-.28,.58-.07,.22-.15,.44-.22,.66-.09,.24-.18,.47-.27,.72-.46,1.48-.85,2.97-1.16,4.54-.03,.3-.05,.59-.08,.89-.04,.34-.16,.72-.19,1.06-.03,.26-.02,.56-.09,.81-.02,.21-.04,.41-.06,.62-.05,1.27-.01,2.48,.02,3.71,.01,.59,.13,1.18,.19,1.76,0,.25,.02,.5,.03,.76,.08,.79,.21,1.6,.34,2.38,.05,.2,.11,.4,.17,.6,.13,.62,.27,1.22,.45,1.82,.06,.14,.11,.27,.16,.41,.03,.14,.06,.29,.1,.43,.23,.66,.47,1.32,.7,1.97,.12,.25,.23,.5,.34,.74,.07,.16,.11,.35,.18,.51,.18,.43,.44,.8,.65,1.21,.17,.33,.37,.65,.54,.98,.05,.12,.09,.24,.14,.36,.06,.07,.12,.14,.18,.21,.06,.14,.13,.28,.19,.42,.16,.28,.35,.55,.55,.8,.11,.15,.22,.32,.34,.48,.16,.21,.34,.39,.5,.6,.12,.17,.23,.35,.35,.52,.22,.26,.44,.53,.67,.79,.18,.23,.37,.47,.55,.7,.23,.24,.46,.48,.69,.72,.19,.22,.35,.48,.57,.68,.31,.28,.61,.57,.9,.86,.15,.15,.3,.31,.46,.46,.25,.22,.54,.38,.78,.6,.23,.22,.47,.45,.7,.67,.17,.13,.34,.26,.51,.39,.21,.18,.39,.38,.61,.55,.27,.18,.53,.4,.81,.56,.19,.11,.39,.17,.57,.29,.21,.15,.42,.3,.63,.45,.21,.14,.44,.24,.65,.37,.8,.49,1.61,.91,2.45,1.31,.37,.18,.72,.41,1.11,.54,.36,.14,.72,.28,1.08,.42,.13,.03,.27,.08,.4,.11,.36,.13,.71,.27,1.06,.41,.1,.03,.19,.06,.29,.08,.31,.12,.61,.26,.93,.35,.38,.08,.77,.15,1.16,.23,.57,.12,1.18,.3,1.76,.39,.22,.02,.43,.04,.65,.05,.29,.04,.57,.1,.87,.13,.23,.02,.45,.03,.67,.04,.15,.02,.29,.05,.43,.07,.15,0,.31,.01,.46,.01,.36,.05,.7,.1,1.05,.16,.18,0,.36,.02,.54,.03,.11-.01,.22-.03,.33-.04,.32,0,.7,.04,1.03,.05,.21,0,.4,0,.6,0,.41,.02,.8-.06,1.17-.11,.17,0,.34-.01,.51-.02,.23-.02,.48-.07,.71-.09,.83-.07,1.65-.17,2.46-.33,.27-.07,.55-.14,.82-.21,.34-.07,.68-.14,1.02-.21,.18-.05,.33-.14,.5-.21,.28-.08,.55-.16,.83-.25,.12-.05,.24-.08,.36-.13,.2-.05,.38-.08,.58-.14,.41-.14,.82-.29,1.23-.43,.24-.12,.49-.23,.73-.35,.24-.09,.48-.2,.7-.31,.07-.04,.13-.08,.2-.12,.25-.12,.5-.23,.74-.36,.28-.16,.56-.31,.84-.48,.14-.07,.3-.11,.45-.19Z"/><g><path class="cls-2" d="M39.21,67.93h-.02s0-.01,0-.02c-.04,0-.06-.05-.09-.08-.1-.17-.21-.34-.31-.5-.22-.25-.44-.51-.66-.77-.66-.63-1.42-1.16-2.23-1.51-.17-.06-.33-.12-.5-.19-.18-.08-.35-.19-.55-.26-.18-.07-.37-.09-.57-.12-.19-.04-.39-.09-.59-.14-.41-.08-.83-.21-1.25-.29-.41-.05-.81-.1-1.22-.15-.32-.02-.63-.01-.94-.04-1.47-.15-2.92-.29-4.34-.52-.48-.08-.95-.08-1.43-.17-.47-.08-.94-.22-1.39-.36-.25-.08-.5-.14-.74-.23-.24-.1-.47-.21-.71-.32-.16-.08-.33-.15-.49-.22-.11-.07-.22-.14-.34-.22-.06-.03-.11-.06-.16-.09-.39-.31-.69-.74-.99-1.11-.23-.29-.35-.63-.46-.98-.06-.18-.11-.35-.16-.53-.17-.81-.15-1.65-.16-2.54-.02-.17-.03-.34-.04-.52,.02-.66,.06-1.32,.08-1.98,0-.14-.01-.29-.01-.43,0-.66,0-1.32,.01-1.97,0-.43,.03-.86,.03-1.27-.02-1.77,.01-3.57,.05-5.36-.02-.25-.03-.5-.04-.76,0-.28,.02-.54,.02-.81,0-.13,0-.26-.01-.38,.04-.4,.07-.81,.1-1.22,0-.31-.02-.62-.02-.91,0-.22,.04-.45,.03-.68,0-.19-.05-.36-.05-.57,.01-.17,.02-.34,.03-.51,0-.34-.03-.72-.02-1.08,0-.21,.04-.43,.03-.65,0-.24-.05-.48-.05-.73,.03-.3,.06-.59,.08-.89,0-.29-.02-.57-.02-.84,0-.61,.03-1.26,.03-1.9,0-.12,.01-.25,.01-.38-.01-.27-.03-.54-.04-.81,.02-.23,.04-.47,.06-.7,.02-1.13,.02-2.28,.04-3.39v-1.13c0-.27-.05-.53-.04-.81,0-.18,.02-.36,.03-.54,0-.95-.02-1.91-.01-2.87,0-.35,.03-.67,.03-1,0-.38-.02-.79-.02-1.19,0-.26,.03-.51,.03-.78,0-.22-.04-.52,.03-.7,0-.06,.06-.04,.11-.05,.39-.06,.88-.11,1.3-.04,.52,.08,1.04,0,1.57,0,.48,0,.96,0,1.44,0,.29-.02,.57-.03,.87-.05,.54,0,1.04,.04,1.57,.03,.64,0,1.32-.02,1.98-.01,.19,0,.38,.02,.57,.03,.27-.02,.54-.03,.81-.04,.22,0,.44,.06,.68,.06,.3,0,.57-.03,.86-.02,.44,.01,.92,.01,1.39,.03,.21,.02,.43,.04,.65,.05,.64,0,1.3-.03,1.93-.04,.43,.01,.85,.02,1.27,.04,.36,0,.71-.08,1.08-.07,.26,0,.54,.02,.81,.03,.24,0,.49,0,.73-.01,.28,.02,.56,.04,.84,.07,.22,0,.43-.02,.65-.03,.43,.02,.85,.03,1.27,.04,.2-.01,.4-.03,.59-.04,1.16-.03,2.25,0,3.41-.01,.26-.02,.51-.03,.76-.05,.52-.02,1.07,.02,1.57-.02,.11,0,.22-.02,.33-.03,.44,.04,.94,0,1.41,0,.2,0,.35,.06,.54,.06,.21,0,.42,0,.62-.02,.33,.01,.72,.06,1.06,.05,.23,0,.46-.05,.71-.04,.17,.01,.34,.03,.51,.05,.24,0,.51-.03,.76,0,.17,.03,.34,.05,.52,.08,.14,0,.29-.01,.44-.02,.15,0,.3,.02,.45,.03,.15,0,.31-.02,.46-.03,.29,0,.56,.03,.84,.01,.44-.03,.88,.03,1.33,.03,.22-.01,.43-.03,.65-.04,.15,0,.29,.01,.43,.02,.14,0,.31-.02,.42,.03,0,.01,.02,.02,.03,.03,.09,.14,.05,.41,.05,.6,0,.62-.03,1.22,0,1.81,.01,.38,0,.81,.01,1.19,0,.13-.01,.25-.02,.38,.01,.27,.02,.54,.03,.81-.01,.27-.03,.54-.05,.81,.02,.35,.05,.71,.07,1.05-.02,.13-.03,.27-.05,.41,0,.23,.04,.45,.04,.68-.02,.23-.03,.47-.04,.71,0,.28,0,.57-.01,.86-.02,.22-.03,.44-.05,.65,.03,.36,.05,.7,.07,1.06,0,.13-.02,.26-.03,.38-.01,.3-.03,.59-.03,.87,0,.5,.05,1.06,.05,1.54-.01,.11-.02,.22-.04,.33,.01,.23,.02,.45,.03,.67-.01,.26-.04,.56-.04,.84,0,.21,.04,.39,.04,.6-.01,.11-.03,.22-.04,.33,0,.14,.01,.29,.01,.43,0,.54-.06,1.07-.05,1.63,.01,.27,.02,.54,.03,.81,.01,.11,.03,.22,.04,.32-.01,.18-.02,.36-.03,.54,0,.12,.01,.23,.02,.35-.01,.2-.03,.4-.04,.59,0,.27,.07,.56,.05,.84-.03,.79-.07,1.54-.08,2.33,0,.32,.05,.61,.04,.92-.02,.17-.03,.34-.05,.51,0,.37,0,.74,0,1.11-.02,.2-.04,.4-.05,.6,.01,.75,.02,1.5,.03,2.24,0,.52-.06,1.08-.05,1.6,.01,.28,.02,.56,.04,.84,0,.11-.02,.21-.02,.32,0,.2,0,.39,0,.59,0,.49,.02,.97,.02,1.44,0,.56,0,1.17-.01,1.76,0,.16-.01,.32-.02,.49,.01,.1,.02,.2,.04,.3-.02,.34-.04,.69-.05,1.03,0,.29,.03,.6,.01,.89-.03,.18-.07,.36-.1,.54-.03,.2-.05,.39-.08,.59-.07,.33-.31,.82-.49,1.11-.16,.25-.41,.38-.61,.58-.12,.12-.25,.19-.38,.3-.23,.2-.46,.41-.72,.54-.17,.06-.33,.13-.5,.19-.34,.14-.68,.29-1.02,.42-.32,.12-.65,.21-.97,.33-.08,.03-.16,.06-.24,.08-.17,0-.41,.08-.54,.16-.15,0-.31,.01-.44,.08-.23,0-.39,.07-.58,.13-.06,.02-.12,.04-.18,.05-.09,0-.2,.01-.27,.05-.18,0-.6,.08-.73,.16-.16,0-.36-.03-.49,.03-.09,0-.2,.01-.27,.05-.15,0-.31-.01-.43,.05-.07,0-.14,.01-.22,.02-.12,0-.24,0-.33,.06-.1,0-.21,0-.29,.05-.19,0-.47-.03-.62,.05-.07,0-.15,.01-.22,.02-.18,0-.41-.07-.57,.03-.11,0-.24-.02-.33,.02-.05,.01-.1,.02-.16,.03-.18,0-.4-.03-.54,.03-.07,0-.15,.01-.22,.03-.06,.01-.11,.01-.17,.02-.05,0-.11,.02-.16,.03-.08,.01-.17,.02-.25,.03-.11,0-.24,0-.33,.05-.07,0-.15,.02-.22,.03-.12,0-.26,0-.35,.05-.11,0-.24,0-.32,.05-.09,0-.2,0-.27,.05-.09,0-.18,.01-.24,.05-.05,0-.11,.01-.16,.03-.14,0-.32,.04-.44,.1-.09,0-.17,.02-.24,.06-.28,0-.53,.13-.77,.22-.19,.07-.37,.13-.56,.21-.36,0-.75,.34-1.01,.56-.23,.19-.54,.28-.77,.5-.64,.6-1.03,1.4-1.35,2.17Z"/><path class="cls-4" d="M42.23,64.08c.17-.07,.33-.14,.5-.21,.33-.1,.67-.16,1.02-.23,.65-.14,1.28-.31,1.93-.45,.16-.01,.32-.02,.48-.03,.25-.04,.5-.11,.77-.13,.34-.02,.68-.02,1.03-.04,.41-.03,.83-.12,1.25-.15,.37-.03,.74-.04,1.11-.09,.33-.05,.66-.1,.98-.16,.11,0,.21-.02,.32-.03,.51-.08,.99-.2,1.47-.31,.17-.04,.32-.06,.48-.1,.46-.14,.91-.32,1.36-.47,.38-.12,.74-.24,1.1-.4,.31-.14,.57-.34,.85-.51,.51-.32,1.07-.67,1.39-1.2,.14-.24,.27-.6,.32-.88,.01-.14,.02-.27,.03-.41,.1-.59,.09-1.22,.08-1.84,.01-.21,.02-.43,.03-.65,0-.12-.02-.24-.02-.36v-.7c-.02-.09-.02-.18-.04-.27,.01-.08,.02-.16,.03-.24-.01-.08-.02-.16-.03-.25,0-.16,.05-.29,.05-.46,0-.18-.05-.31-.05-.49,0-.21,.05-.36,.05-.57,.01-.72,0-1.42,.03-2.11,0-.17-.01-.34-.02-.51,0-.62,0-1.25,0-1.87,.04-1.7,.02-3.5,.05-5.2,0-.18-.02-.36-.03-.54,0-.06-.02-.11-.02-.16,0-.14,.04-.28,.03-.43,0-.1-.02-.2-.03-.3,0-.14,.04-.29,.04-.44,0-.31-.08-.58-.08-.9,0-.21,.03-.4,.05-.59,0-.1,0-.2-.01-.3,.02-.1,.03-.2,.04-.3-.01-.12-.03-.23-.04-.35,.02-.13,.03-.27,.05-.41,0-.12-.05-.22-.05-.35,0-.74,.01-1.48,.02-2.22,0-.17,.05-.3,.05-.46,0-.16-.05-.28-.04-.43,.02-.08,.03-.16,.04-.24,.01-.24,.02-.49,.04-.73,0-.37,0-.78-.02-1.16-.02-.12-.03-.25-.05-.38,0-.31,.05-.57,.05-.87-.01-.23-.02-.45-.04-.68,.01-1.74-.06-3.42,0-5.15,0-.94,.01-1.89,.02-2.84,.02-.51-.02-1.07-.02-1.57,0-.51,0-.97,0-1.49h-.03c0-.06-.26-.02-.3,0-.5,0-1.01-.01-1.51-.02-.33-.03-.65-.05-1-.04-.1,0-.22-.01-.3,.02-.12,.01-.25,.03-.37,.04-.18-.02-.36-.05-.55-.07-.63,0-1.26,0-1.9-.01-.18,0-.64-.06-.76,0-.32,0-.65,0-.97-.01-.25-.02-.6-.12-.84-.03-.07,0-.14,.02-.21,.03-.24,0-.47-.01-.71-.01-.35-.02-.69-.08-1.06-.08-.27,.08-.66-.05-.92,.05-.07,0-.15,.01-.21,.02h-.84c-.13,0-.32-.03-.43,.03-.09,0-.21-.01-.27,.03-.24,0-.43-.05-.65-.06-.56,0-1.12,0-1.68,0-.2,0-.5-.05-.67,.02-.06,0-.13,.02-.19,.03-.08,0-.17,.01-.25,.03-.32,0-.84-.17-1.11-.06-.05,0-.11,.01-.16,.03-.12,0-.26,0-.36,.05-.8,0-1.61-.01-2.38-.03-.21,0-.42,0-.63,0-.1,0-.24-.05-.33,0-.2,0-.4,0-.6-.01-.27-.02-.89-.13-1.13-.02-.18,0-.36-.01-.54-.01-.12-.01-.26-.04-.38,0-.16,0-.38-.03-.52,.03-.32,0-.61-.06-.95-.06-.1,0-.23-.01-.32,.02-.2,0-.48-.04-.65,.03-.3,0-.61,0-.92,0-.14,0-.35-.03-.46,.02-.39,0-.78,.01-1.17,.01-.24-.02-.72-.11-.95-.02-.24,0-.66-.08-.86,0-.51,0-.98-.03-1.49-.06-.18-.01-.45-.08-.62,0-.1,0-.21-.02-.3,.02-.2,0-.46-.04-.62,.02-.17,0-.43-.04-.56,.02-.64,0-1.32-.03-2-.03-.2,0-.49-.04-.65,.03-.25,0-.78-.06-.98,.02-.14,0-.39-.05-.48,.05-.15,.14-.07,.85-.06,1.08,0,.18-.02,.36-.02,.54,0,.16,.03,.34,.01,.51,0,.25,0,.51,0,.76-.03,.69-.03,1.36-.04,2.06,0,.19-.05,.33-.06,.51-.01,.19,.03,.37,.03,.54-.02,.17-.04,.34-.06,.52,0,.36,.01,.72,.02,1.08-.02,.62-.06,1.28-.04,1.92,0,.25,.01,.51,.02,.76,.01,.09,.02,.17,.03,.25-.02,.15-.04,.31-.06,.46,.01,1.1-.02,2.16-.03,3.27,0,.49,.03,.93,.01,1.41-.02,.24-.03,.47-.05,.71,0,.35,.01,.7,.02,1.06,0,.7-.03,1.42-.03,2.14,.02,.25,.03,.5,.04,.76-.01,.32-.04,.65-.05,.97,0,1.28,.01,2.61,.02,3.9,0,.32-.05,.59-.05,.92,0,.34,0,.69,0,1.03,.01,.16,.01,.31,.02,.46-.02,1.16-.06,2.28-.07,3.46,0,.54-.06,1-.06,1.52,0,.23,0,.45,0,.68,.01,.09,.03,.18,.04,.27-.01,.09-.03,.18-.04,.27-.01,.26-.03,.54-.03,.78,0,.32,0,.67,.02,1.01,0,.15,.05,.28,.05,.43s-.05,.28-.05,.43c0,.19,.05,.32,.05,.52,0,1.4,0,2.75,.64,3.82,.44,.73,1.25,1.19,1.98,1.5,.51,.22,1.03,.47,1.58,.6,.41,.09,.81,.14,1.24,.22,.32,.05,.66,.14,1,.17,.33,.03,.65,.05,.98,.07,.69,.09,1.38,.21,2.08,.3,.33,.01,.67,.03,1,.05,.14,.03,.29,.06,.43,.09,.26,0,.53,0,.78,.02,.28,.03,.56,.05,.84,.08,.15,0,.29,0,.43,.01,.13,.03,.25,.06,.38,.09,.36,.06,.69,.09,1.05,.16,.11,.03,.22,.07,.33,.11,.25,.07,.47,.13,.7,.22,.34,.12,.69,.25,1.02,.37,.25,.13,.49,.25,.74,.37,.13,.09,.27,.18,.4,.26,.28,.16,.54,.29,.79,.5,.31,.25,.51,.55,.78,.84,.09,.1,.13,.23,.25,.29,0,.04,.02,.03,.05,.03,0-.05,.14-.13,.17-.17,.06-.09,.11-.18,.17-.26,.59-.87,1.47-1.48,2.37-1.96,.14-.05,.27-.1,.41-.15Z"/><g><g><path class="cls-2" d="M42.38,22.84v.02h-.08c0-.09,0-.18,0-.27,.04-.27,.26-.39,.41-.6,.29,.25-.16,.65-.33,.84Z"/><path class="cls-2" d="M43.79,20.59c.12-.12,.18-.27,.28-.41,.08-.08,.17-.17,.26-.25,.19,.02,.38,.05,.6,.06v.08c-.29,0-1.06,.95-1.24,1.19-.08,.11-.19,.34-.32,.41-.08,.04-.17,0-.23-.04-.19-.11-.05-.31,0-.45,.03-.08,.04-.18,.11-.24,.08-.03,.14-.07,.22-.11,.1-.08,.21-.16,.31-.25Z"/><path class="cls-2" d="M41.95,21.24c.04-.14,.04-.29,.11-.42,.08-.16,.29-.2,.42-.33,.11-.1,.14-.25,.23-.37,.1-.12,.23-.14,.36-.21h.33c0,.14-.18,.28-.24,.38-.09,.15-.18,.3-.27,.45-.1,.14-.21,.28-.32,.42-.07,.11-.09,.24-.19,.34-.06,.05-.13,.1-.2,.15-.06,.07-.12,.14-.18,.2-.06,.06-.12,.12-.18,.17-.11,.14-.11,.33-.26,.45-.13,.1-.36,.17-.54,.11h-.05c0-.08,.36-.63,.44-.7,.07-.06,.18-.07,.24-.15,.05-.08,.04-.18,.09-.26,.06-.09,.16-.13,.2-.24Z"/><path class="cls-2" d="M39.9,20.86c.03-.14,.16-.22,.2-.36,.05-.16-.01-.29,.1-.42,.11-.13,.81-.03,1.04-.15,.15,0,.29,0,.43,0v.05s-.04,.02-.06,.05c-.21,.3-.32,.65-.47,.97-.07,.12-.14,.24-.21,.36-.05,.13-.11,.26-.16,.39-.14,.26-.49,.71-.8,.77v-.03s-.03-.25-.04-.29c-.02-.12-.07-.22-.05-.36,.01-.14,.09-.24,.09-.41,0-.2-.12-.39-.08-.59Z"/><path class="cls-2" d="M37.75,19.95c.1-.1,.49-.04,.65-.08,.17,.06,.61,.05,.81,.06,0,.12,.01,.23,.01,.36,.02,.09,.04,.18,.06,.27-.02,.1-.04,.2-.05,.3-.01,.43-.06,.86-.09,1.27,.01,.26,.03,.52,.04,.78h-.03v-.03c-.34,0-.74-1.05-.88-1.3-.08-.14-.19-.22-.29-.35-.19-.27-.55-.97-.25-1.29Z"/><path class="cls-2" d="M35.55,20.16s0-.01,0-.02c.06-.16,.48-.17,.64-.25,.16,0,.36-.03,.5,.03,.38,.19,.51,.75,.67,1.11,.1,.23,.23,.45,.34,.68,.08,.12,.14,.24,.22,.36,.05,.12,.07,.26,.07,.4,0,.1,.02,.29-.07,.34-.08,.04-.19,.02-.27,0-.14-.06-2.09-2.47-2.1-2.6v-.04Z"/><path class="cls-2" d="M34.49,19.9c.2,.03,.32,.1,.47,.24,.22,.21,.4,.46,.57,.7,.09,.12,.14,.26,.25,.38,.13,.15,.27,.29,.41,.43,.12,.16,.24,.3,.35,.45,.05,.07,.09,.13,.13,.2,.09,.08,.17,.15,.26,.22,.18,.18,.35,.4,.44,.62-.04,0-.04,.04-.05,.08-.15,0-.33-.05-.43-.14-.18-.18-.35-.36-.53-.53-.11-.11-.24-.16-.34-.28-.19-.25-.33-.55-.56-.77-.13-.13-.32-.15-.45-.28h-.01c-.14-.16-.19-.36-.31-.51-.14-.18-.34-.31-.46-.48,0-.01-.02-.03-.02-.04,0,0,0-.01,0-.02-.02-.15,.19-.22,.29-.27Z"/></g><g><path class="cls-2" d="M40.55,25.54c.08,.01,.16,.02,.23,.03,.23,.09,.43,.43,.35,.68-.05,.13-.2,.25-.31,.33-.08,.06-.19,.15-.31,.15-.16-.02-.09-.35-.05-.44,.05-.12,.2-.15,.21-.31,.01-.18-.12-.26-.12-.44Z"/><path class="cls-2" d="M40.93,24.43c-.09,.06-.2,.2-.32,.19-.17-.02-.23-.23-.35-.34-.11-.12-.37-.17-.33-.39,.01-.09,.09-.14,.17-.17v-.03c.18,.04,.31,.13,.47,.2,.19,.08,.38,.12,.57,.19,.04,.02,.06,.06,.04,.11-.04,.11-.17,.17-.26,.23Z"/><path class="cls-2" d="M40.58,27.78c-.04,.2-.48,.28-.64,.19-.23-.14,.21-.43,.31-.5,.11,.03,.37,.16,.33,.32Z"/><path class="cls-2" d="M39.4,27.61c-.08,.01-.12-.06-.17-.09-.06-.04-.13-.05-.19-.12-.14-.15-.1-.31-.1-.52,0-.1-.03-.24,.01-.33,.03-.09,.12-.13,.19-.18,.09,0,.16,0,.22,.05,.08,.05,.62,.58,.63,.64,.04,.2-.43,.52-.6,.55Z"/><path class="cls-2" d="M42.58,25.87c0,.2-.1,.41-.27,.49,0,.04-.09-.02-.14-.03,0-.2,.26-.34,.38-.46h.02Z"/><path class="cls-2" d="M42.07,25.52c-.07,.05-.13,.1-.22,.1-.1,0-.13-.06-.16-.14-.02-.07-.01-.95,.01-1.02,.03-.1,.18-.18,.24-.25,.2,.06,.19,.19,.26,.37,.13,.34,.22,.68-.13,.94Z"/><path class="cls-2" d="M41.74,27.09s.02,0,0,.03c0,.13-.35,.35-.46,.24-.15-.15,.04-.3,.14-.4,.14,.01,.25,.02,.33,.14Z"/><path class="cls-2" d="M39.26,24.23c.09,0,.19,.02,.28,.03,.17,.05,.71,.49,.65,.7-.05,.19-.23,.3-.37,.44-.14,.14-.31,.31-.52,.33-.2,.03-.49-.88-.46-1.04,.02-.07,.34-.4,.41-.43,0-.01,0-.02,0-.03Z"/><path class="cls-2" d="M38.63,26.43c-.11,.09-.24,.25-.39,.26-.11,0-.16-.07-.24-.13-.18-.15-.31-.47-.25-.73,.04-.08,.08-.15,.12-.23,.08-.22,.04-.26,.21-.42,.23,.11,.9,.6,.83,.92-.03,.13-.2,.25-.29,.34Z"/><path class="cls-2" d="M38.75,27.91h-.03s-.1,.02-.13,.01c-.41-.08-.85-.19-.51-.69,.06,0,.12,0,.17,.05,.1,.07,.12,.18,.19,.27,.11,.13,.26,.2,.31,.36Z"/><path class="cls-2" d="M36.88,24.46s.2-.24,.27-.27v-.03c.34,.22,.62,.62,.27,.98-.07,.07-.18,.17-.28,.18-.32,.05-.19-.34-.19-.51,0-.13-.04-.24-.07-.35Z"/><path class="cls-2" d="M37.5,23.95v-.08c.05-.02,.11-.03,.16-.05,.34-.05,.56-.1,.84-.25,.09,.02,.23,.02,.28,.11,.15,.24-.56,.72-.77,.7-.23-.02-.36-.3-.51-.44Z"/><path class="cls-2" d="M37.08,26.2c.05,.01,.1,.03,.15,.05,.13,.08,.6,.53,.61,.67,.02,.15-.38,.43-.51,.46-.11,.02-.14-.09-.17-.17-.12-.31-.21-.65-.08-1.01Z"/><path class="cls-2" d="M36.53,25.91c-.26,.07-.21-.45-.2-.61,.2,.07,.59,.51,.2,.61Z"/></g><g><path class="cls-2" d="M39.88,54.07c0-.08,.58-.93,.67-1.04,.04-.05,.11-.1,.17-.12v-.03c.13,0,.27,0,.41,0,0,.17-.64,1.11-.82,1.18-.11,.05-.27,.03-.42,.03v-.03h-.02Z"/><path class="cls-2" d="M35.75,53.99c-.15,.06-.38,.02-.56,.03,0-.24,.99-.96,1.2-1.16h.41c0,.2-.85,1.05-1.05,1.13Z"/><path class="cls-2" d="M43.14,59.33c-.17,.08-.41-.08-.51-.2-.11-.14-.14-.31-.2-.47-.09-.26-.17-.53-.27-.78-.06-.17-.2-.4-.17-.61,.02-.12,.14-.17,.22-.24,.08,.02,.14,.04,.18,.11,.05,.08,.07,.17,.1,.26,.09,.25,.17,.5,.24,.76,.08,.29,.21,.6,.33,.87,.02,.04,.15,.25,.07,.29Z"/><path class="cls-2" d="M42.23,52.85c.13,.18,.9,1.04,.85,1.2-.01,.04-.06,.04-.09,.05-.23,0-.47,0-.7,.01-.41,0-.83,0-1.24-.01,0,0,0-.02,0-.03h-.03c0-.09,.07-.18,.11-.24,.13-.24,.64-.93,.61-1.18-.01-.08-.07-.15-.15-.17-.32-.11-.72-.02-1.07-.03-.19-.01-.62-.1-.78-.03-.36,0-1.59-.18-1.74,.14-.04,.08,.01,.16,.04,.23,.15,.28,.37,.55,.56,.81,.11,.16,.21,.32,.31,.47v.03s-.05,.02-.08,.03c-.76,0-1.52-.04-2.27-.04v-.06s1.11-1.3,1.23-1.45c0-.03,0-.03-.03-.06-.13-.02-.27-.04-.41-.05-.22-.01-.45-.02-.68-.03-.64-.02-1.33,.02-1.94-.04,0-.08,.92-.97,1.05-1.09,.78-.83,1.6-1.62,2.42-2.42,.28-.29,.56-.58,.85-.87,.09-.09,.17-.19,.29-.22v-.06c.18,.09,.34,.28,.49,.43,.25,.25,.49,.5,.73,.76,.16,.14,.31,.29,.47,.43,.69,.73,1.44,1.41,2.15,2.13,.29,.3,.68,.6,.9,.94-.05,0-.1,.01-.16,.02-.23,0-.45,0-.68,0-.08,0-.19-.03-.26,0-.31,0-.68-.04-.93,.08,0,.12,.14,.24,.2,.34Z"/><path class="cls-2" d="M34.56,55.92c.11-.19,2.19-.03,2.54-.03,.54,0,1.02-.07,1.55-.07,.7,0,1.45,.06,2.16,.06,.37,0,.77-.01,1.14-.02,.85-.03,1.74,.01,2.57,.02v-.03s.05-.24,.05-.3c0-.54,.01-1.11,.02-1.68,0-.39-.01-.79,.06-1.13,.44,.23,.39,.79,.4,1.27,0,.3,.03,.65,.02,.97-.02,.17-.03,.34-.05,.52-.02,.26,.06,.55-.04,.78v.06h-.02s-.17-.03-.23-.03c-.43,0-.83,.02-1.27,.02-.19,0-.46-.04-.62,.02-.16,0-.37-.03-.51,.02-.5,0-.97,0-1.46-.04-.22-.02-.52-.12-.73-.03-.36,0-.72-.03-1.08-.02-.08,0-.18-.02-.24,0-.2,0-.66-.08-.81,0-.12,0-.25-.02-.35,.03-.34,0-.69-.01-1.03-.01-.21-.01-.43-.02-.65-.03-.07,0-.14,0-.22,0-.08,.01-.16,.02-.24,.03-.4,0-.72,.1-.91-.25-.02-.03-.06-.11-.03-.15Z"/><path class="cls-2" d="M44.88,62.68c-.08,.11-.32,.14-.45,.16,0-.68-.03-1.4,0-2.09,0-.19-.03-.43,.01-.61,.01-.07,.05-.1,.09-.14,.14,0,.27,0,.38,.06,.04,0,.05,.29,.04,.35-.02,.15,.01,.3,.01,.46,0,.24-.04,.46-.03,.7,.01,.25,.09,.92-.05,1.11Z"/><path class="cls-2" d="M53.02,61.8c-.09,0-.2,.01-.27,.06-.13,0-.41,.07-.52,.13-.25,0-.46,.1-.68,.14-.15,.03-.32,.06-.46,.09-.11,.01-.23,.01-.33,.06-.06,0-.12,.01-.19,.03-.06,0-.13,.02-.19,.02-.16,0-.36-.02-.48,.06-.07,0-.13,.01-.19,.02-.26,0-.58-.04-.78,.08-.1,0-.22-.01-.3,.02-.12,0-.22-.03-.32-.06,0,.06-.33,.1-.38,.13-.19,0-.41-.03-.57,.02-.06,.01-.13,.01-.19,.03-.18,0-.4-.02-.54,.05-.12,0-.25,0-.35,.05-.18,0-.62,.05-.73-.04-.18-.14-.08-1.86-.07-2.18,0-.16-.02-.33-.02-.49,0-.17,.05-.74-.24-.65-.17,0-.53-.04-.65,.02-.18,0-.65,.04-.76-.06-.19-.17-.29-.82-.38-1.08-.15-.38-.39-.76-.44-1.17,0-.04-.02-.11,.01-.15,.08-.09,.44-.08,.57-.08,.32,0,1.77,0,1.89-.2,.07-.13,.04-.56,.03-.73,.01-.25,.02-.52,.03-.78,.02-.41-.08-.87,.04-1.25,.92,1,1.97,1.91,2.92,2.9,.09,.11,.18,.22,.27,.33,.24,.23,.5,.45,.75,.69,.66,.65,1.27,1.35,1.91,1.99,.49,.5,1,.98,1.5,1.48,.09,.09,.25,.2,.29,.32,.04,.09-.12,.14-.17,.18Z"/><path class="cls-2" d="M51.23,36.09c.15-.17,.29-.35,.45-.53,.17-.18,.38-.32,.56-.5,.24-.24,.47-.49,.71-.73,.27-.25,.54-.51,.8-.77,.53-.54,1.05-1.08,1.57-1.62,.8-.77,1.62-1.53,2.36-2.35,.19-.21,.47-.39,.62-.63,.13,.18,.04,.67,.05,.92,.03,.6,0,1.25,.01,1.87,.01,.32,.03,.63,.04,.94-.02,.33-.03,.65-.05,.97,0,.19,.03,.38,.04,.57,0,.09-.01,.18-.01,.27,.01,.11,.02,.22,.03,.33-.01,.09-.02,.18-.04,.27-.04,.5-.05,1-.04,1.52,.03,.26,.05,.52,.07,.79,0,.15-.03,.28-.05,.43,0,.33,0,.65,0,.98,0,.11-.01,.21-.02,.32,0,.21,.05,.42,.05,.62,0,.29-.08,.59-.07,.89,.03,.37,.05,.74,.08,1.11-.02,.23-.04,.45-.05,.68,.01,.08,.02,.16,.03,.24,0,.24-.02,.49-.03,.73,.01,.17,.03,.34,.04,.52,0,.13-.03,.26-.04,.38-.02,.26,0,.52,.03,.76,.05,.37,.03,.86,0,1.24-.02,.09-.03,.18-.04,.27-.01,.23,.05,.43,.04,.65-.02,.13-.03,.25-.05,.38,0,.13,.02,.27,.02,.4,0,.19-.02,.37-.03,.55,0,.17,.1,1.14-.06,1.14-.1,0-.97-.95-1.11-1.09-1.08-1.09-2.17-2.2-3.24-3.28-.17-.17-.31-.37-.48-.54-.15-.15-.31-.29-.46-.44-.08-.09-.16-.19-.24-.27-1.03-1.02-2.09-2.06-3.13-3.07-.19-.18-1.53-1.53-1.54-1.62,0-.02,.01-.05,.01-.07,.1-.26,.53-.54,.74-.74,.23-.22,.4-.47,.62-.68,.19-.2,.41-.39,.6-.59,.07-.06,.14-.12,.22-.19,.17-.17,.33-.35,.5-.53,.17-.17,.33-.33,.5-.5Z"/><path class="cls-2" d="M45.01,21.01c.09-.07,.18-.09,.26-.17,.06-.08,.11-.16,.16-.25,.15-.21,.3-.39,.48-.58,.07-.06,.13-.12,.19-.17,.12-.06,.32-.03,.47-.03,.31,0,.61-.01,.89-.04,.14-.01,.26,0,.38-.06,.21,0,.41,0,.62,.01,.23,.03,.48,.08,.73,.08,.22,0,.41-.08,.62-.07,.07,.02,.15,.03,.22,.04,.26,.03,.58,.03,.81-.04v.03h.03s0,.03-.03,.03c0,.02-.01,.03-.01,.05-.27,.35-.65,.61-.96,.91-.58,.56-1.15,1.13-1.73,1.7-.13,.13-.28,.23-.41,.37-.52,.53-.99,1.11-1.52,1.62-.19,.19-.39,.38-.58,.56-.11,.09-.22,.18-.32,.27-.12,.14-.24,.28-.36,.42-.32,.34-.66,.67-1.01,1-.16,.19-.32,.38-.48,.57-.36,.35-.72,.69-1.07,1.04-.61,.6-1.21,1.21-1.82,1.8-.2,.19-.38,.43-.61,.58v.03h-.02s0-.02,0-.03h-.03c0-.08,.02-.16,.02-.25,0-.19-.03-.38-.01-.57,.02-.1,.05-.2,.07-.29,.02-.19-.06-.34,.04-.5,.06-.1,.18-.14,.26-.22,.16-.15,.25-.35,.44-.47,.2-.13,.45-.17,.66-.27,.13-.07,.24-.19,.37-.26,.29-.19,.62-.35,.84-.65,.05-.11,.11-.23,.17-.35,.07-.1,.15-.2,.22-.31,.06-.14,.05-.3,.09-.45,.05-.2,.16-.39,.16-.63-.02-.21-.05-.42-.08-.63-.03-.26-.18-.5-.34-.71-.07-.08-.15-.17-.19-.27-.05,0,0-.06,.02-.1,.04-.06,.08-.12,.13-.18,.19-.28,.38-.58,.66-.79,.14-.11,.16-.26,.27-.38,.13-.15,.32-.23,.45-.39,.07-.09,.14-.18,.21-.27,.06-.11,.09-.21,.17-.3,.09-.09,.19-.14,.28-.22,.07-.06,.14-.13,.22-.2Z"/><path class="cls-2" d="M29.32,19.82c.27,0,.6,.04,.84-.02,.19,.04,.41,.03,.62,.03,.17,.01,.32,.02,.49,.03h.67c.11,.02,.2,.04,.3,.06,.2,0,.45-.14,.65-.07,.24,.08,.45,.35,.63,.54,.29,.29,.58,.57,.87,.86,.19,.21,.37,.45,.57,.65,.24,.25,.51,.43,.75,.68,.14,.15,.23,.32,.37,.47,.08,.06,.16,.13,.25,.19,.15,.13,.3,.3,.38,.48-.09,0-.21,.19-.27,.25-.23,.23-.4,.47-.47,.78-.02,.12-.04,.25-.06,.37-.04,.2-.09,.4-.07,.62,.04,.14,.07,.29,.1,.43,.07,.15,.12,.3,.19,.45,.08,.17,.12,.34,.23,.49,.08,.11,.23,.15,.33,.23,.11,.07,.15,.2,.26,.28,.1,.05,.2,.1,.3,.14,.14,.09,.28,.19,.42,.28,.19,.12,.41,.19,.57,.35,.1,.14,.21,.29,.32,.44,.1,.11,.25,.2,.32,.34,.05,.1,.08,.23,.09,.34,0,.11-.02,.22,0,.33,.05,.24,.15,.58,.11,.84-.22,0-.67-.55-.84-.71-.33-.31-.67-.63-1-.94-.25-.26-.49-.52-.74-.78-.48-.5-1-.97-1.48-1.47-.26-.27-.51-.53-.77-.8-.11-.12-.22-.25-.33-.38-.89-.87-1.76-1.73-2.64-2.59-.23-.25-.47-.51-.7-.76-.5-.51-.97-1.02-1.5-1.5-.26-.24-.81-.57-.9-.91,.38,0,.75-.02,1.14-.02Z"/><path class="cls-2" d="M23.61,46.5c-.4,.37-.72,.8-1.1,1.17-.57,.56-1.15,1.12-1.71,1.68-.19,.19-.46,.4-.61,.61h-.02c0,.06-.06-.1-.07-.14,0-.19,0-.39,0-.59,.01-.6,.02-1.2,.04-1.79,0-.5,.01-.97,0-1.43,0-.17-.01-.33-.02-.49,.01-.44,.04-.94,.03-1.41,0-.2-.01-.39-.02-.6,0-.29,.03-.59,.03-.89,0-.19-.01-.36-.02-.54,0-.51,0-1.03,0-1.54,0-.16-.02-.31-.02-.46,.02-.19,.04-.38,.05-.57,.01-.43-.03-.83-.01-1.25,.01-.31,.03-.63,.05-.94-.01-.68-.04-1.35-.02-2.03,.02-.32,.04-.65,.06-.98-.01-.17-.03-.34-.04-.51,0-.69,.02-1.39,.01-2.06,0-.15-.01-.29-.02-.44,.01-.17,.02-.34,.03-.52,0-.2-.04-.39-.02-.59,.01-.12,.03-.24,.04-.36,0-.32-.02-.65-.02-.97,.28,.1,.5,.41,.71,.61,.47,.45,.94,.91,1.41,1.36,.16,.17,.32,.35,.48,.52,.35,.34,.71,.67,1.02,1.04,.11,.12,.21,.25,.33,.37,.23,.22,.48,.42,.7,.66,.1,.1,.15,.21,.25,.31,.54,.52,1.11,1,1.66,1.51,.52,.54,1.04,1.07,1.55,1.61,.33,.31,2.41,2.26,2.29,2.56-.04,.06-.08,.11-.12,.17-.24,.41-.81,.89-1.19,1.22-.13,.12-.21,.27-.33,.4-.31,.31-.61,.61-.92,.92-.42,.42-.86,.84-1.28,1.26-.28,.29-.56,.57-.84,.86-.07,.08-.14,.16-.22,.25-.71,.66-1.41,1.34-2.12,2Z"/><path class="cls-2" d="M35.11,59.4c-.23,0-1.01-.05-1.15,.04-.05,.04-.06,.11-.06,.17,0,.72-.02,1.45-.02,2.17,0,.31,.04,.77-.03,1.08-.01,.08-.06,.14-.12,.19v.03c-.22,0-.42-.1-.62-.13-.19-.03-.4,.02-.59,.02-.15-.03-.29-.04-.44-.06-.28-.03-.56-.05-.84-.08-.11-.01-.28-.02-.38,.02-.65,0-1.25-.13-1.87-.2-.29-.03-.57-.03-.83-.07-.23-.04-.46-.08-.68-.11-.09-.02-.2-.04-.3-.07-.15,0-.29-.01-.43-.02-.32-.06-.65-.12-.98-.17-.25-.03-.57-.04-.78-.14h-.03v-.06s.02,.01,.04-.02c.14-.23,.42-.48,.63-.67,.19-.19,.38-.38,.56-.57,.29-.29,.6-.55,.9-.84,.15-.14,.29-.29,.44-.43,.12-.13,.24-.27,.36-.4,.74-.71,1.5-1.4,2.23-2.15,.45-.46,.86-.94,1.33-1.38,.64-.62,1.27-1.22,1.88-1.86,.17-.18,.36-.36,.53-.55,.12,.16,.05,.79,.03,1-.03,.34-.03,.69-.04,1.06,0,.23-.03,.47,.04,.67,.06,.2,.2,.36,.32,.53,.06,.1,.09,.23,.21,.3,.17,.09,.69,.11,.9,.1,.38-.02,.78-.04,1.19-.04,0,.26-.17,.58-.26,.82-.16,.41-.33,.82-.48,1.23-.06,.15-.11,.37-.22,.49-.08,.09-.2,.03-.3,.07-.05,0-.11,.01-.16,.03Z"/><path class="cls-2" d="M36.95,64.22c-.28-.03-.54-.23-.79-.34-.2-.08-.43-.12-.61-.23h-.03v-.02h.03s0-.03,.03-.03c.39,0,2.26,.07,2.43-.1,.09-.08,.08-.43,.08-.57,0-.88-.09-2.05,.71-2.5,.12-.07,.24-.08,.37-.13,.22,0,.77,.08,.74,.38,0,.07-.09,.07-.15,.08-.53,.06-.64,.35-.85,.76-.18,.33-.15,.91-.16,1.35-.01,.43-.03,.84-.03,1.27h-.02s-.27,0-.33,.02c-.15,0-.28,.04-.4,.05-.34,0-.67,0-1-.01Z"/><path class="cls-2" d="M39.99,64.78c-.09,.12-.19,.22-.28,.34-.24,.24-.48,.46-.63,.75h-.03c-.17-.19-.33-.37-.5-.55-.16-.15-.49-.34-.68-.43v-.03h-.02v-.03h.02s.04-.03,.08-.03c.1-.02,.2-.05,.3-.06,.31,0,.63-.02,.95-.03,.02-.05,.03-.11,.04-.16,.01-.13,.03-.27,.04-.4-.01-.12-.02-.25-.04-.38,0-.13,.02-.25,.02-.38,0-.27-.04-.56-.01-.84,.03-.15,.06-.31,.1-.46,.03-.19,.09-.41,.21-.56,.13-.15,.31-.13,.48-.2,.06,.03,.12,.06,.14,.12,.06,.18,.02,.42,.01,.61,0,.47,.01,.94,.01,1.41,.02,.11,.09,.2,.14,.3,.06,.15,.13,.3,.19,.46,.03,0,.03,0,.02,.02-.11,.22-.36,.38-.55,.53Z"/><path class="cls-2" d="M41.06,64.04c-.13-.1-.22-.35-.24-.52,.14,0,.29,.01,.41-.02,.31,0,.62,.02,.92,.03v.05c-.1,0-.22,.08-.31,.12-.25,.11-.5,.23-.75,.33,0,.04-.02,.02-.04,0Z"/></g><g><g><path class="cls-2" d="M31.69,41.81c0-.24,.06-.5,.06-.75-.02-.28-.03-.56-.05-.84,0-.47,.05-.91,.06-1.35-.01-.28-.03-.54-.04-.82,0-.21,.02-.41,.02-.62-.02-.21-.03-.42-.05-.62,0-.34,.1-.63,.11-.98-.01-.19-.03-.38-.04-.57,.01-.11,.01-.21,.02-.32,.02-.4,.06-.78,.07-1.19,0-.28-.05-.7,.03-.94,.07-.26,.81-1.1,1.07-1.19v-.03c.06,.21,.03,.49,0,.7-.03,.26-.05,.54-.04,.81,.01,.18,.03,.36,.05,.54,0,.34,0,.69,0,1.03-.01,.16-.03,.31-.04,.47,0,.18,.01,.36,.02,.54-.01,.48-.04,1.03-.03,1.52,.01,.53-.06,1.09-.04,1.62,.02,.2,.03,.4,.05,.6,0,.4,0,.81,0,1.22-.01,.19-.03,.38-.04,.57,0,.32,0,.63,0,.95,0,.38,.05,1.05-.06,1.37-.04,.1-.16,.16-.22,.25-.09,.12-.18,.24-.26,.36-.09,.08-.17,.17-.26,.25-.09,.17-.18,.34-.27,.51h-.03v.03h-.02c0-.51-.08-1.06-.09-1.57,0-.3,.05-.63,.06-.91,.02-.23-.04-.42-.04-.63Z"/><path class="cls-2" d="M32.21,45.17c.13-.32,.24-.42,.5-.64,.14-.12,.26-.28,.42-.38,.69-.45,1.78-.45,2.64-.26,.16,.04,.33,.09,.49,.14,.55,.1,1.04,.17,1.5,.44,.3,.18,.56,.42,.83,.66,.07,.05,.15,.09,.22,.14,.13,.1,.26,.3,.44,.3,.26,0,.42-.33,.6-.46,.21-.16,.42-.32,.65-.43,.64-.31,1.27-.63,1.98-.8,.26-.06,.51-.12,.76-.18,.15-.03,.31-.01,.44-.06,.22,0,.43,0,.65,.01,.36,.06,.73,.23,1.01,.45,.13,.14,.25,.27,.37,.41,.2,.21,.42,.44,.45,.74h-.03c0,.06-.21,.03-.27,.03-.57,0-1.14,0-1.7,0-.21,0-.49-.04-.65,.05-.19,0-.45-.12-.62-.03-.06,0-.12,.02-.19,.03-.21,0-.48-.04-.65,.05-.09,0-.2,.02-.27,.06-.18,0-.56-.05-.7,.03-.08,0-.16,.01-.24,.02-.08,0-.16,.01-.24,.02-.13,0-.3,.02-.38,.11-.04,0-.01,.14,0,.19,.01,.48-.34,.92-.84,.91-.4,0-.72-.29-.79-.66-.02-.12,0-.3-.08-.4-.03-.04-.1-.07-.16-.06-.19,0-.37-.02-.57-.03-.04,.01-.09,.02-.13,.03-.45,0-.84-.06-1.3-.06-.12,0-.29-.03-.38,.02-.33,0-.64-.03-.98-.03-.16,0-.36-.02-.49,.05-.48,0-.96-.04-1.44-.04-.17,0-.4-.04-.54,.03-.15,0-.29,0-.41-.06,0-.11,.06-.21,.1-.3Z"/></g><g><path class="cls-2" d="M46.95,34.43c0-.25-.05-.51-.07-.76,0-.14-.01-.27-.02-.41,0-.05,.01-.3-.03-.3v-.03h-.08c-.06,.53-.03,1.12-.04,1.68,0,.22-.1,.38-.12,.57,0,.11,0,.21,0,.32,0,.1-.02,.2-.02,.3-.13,.02-.23-.02-.25-.14-.04-.18,.05-.34,.04-.51-.01-.12-.02-.24-.04-.36,0-.64,.05-1.32,.04-1.95-.01-.11-.02-.22-.03-.32-.02-.05-.03-.11-.04-.16h-.08v.02h-.03c-.01,.46-.07,.87-.09,1.33-.02,.08-.04,.16-.05,.25h-.08c-.15-.36-.1-.83-.1-1.25,0-.23,.02-.46-.05-.65-.08,.14-.08,.3-.1,.49-.02,.22-.03,.47-.02,.7,.02,.24,.06,.51,.04,.76-.14,1.55-.06,3.07-.08,4.65,0,.32-.01,.63-.02,.95-.02,.27-.07,.56-.07,.84,0,.39,.03,.81,.02,1.22,0,.39-.05,.82-.03,1.22,0,.06,.01,.19,.07,.19v.03h.02v-.03h.03c.07-.23,.05-.49,.06-.76,.02-.43,.07-.86,.06-1.3-.01-.28-.06-.63,.03-.89,.02-.05,.05-.06,.1-.05,.11,.03,.13,.19,.15,.28,.05,.33-.01,.65-.02,1,0,.27,0,.54,0,.81,0,.3-.02,.61,.01,.89,.01,.16-.02,.31,.03,.45,.03,.08,.04,.28,.17,.28,.03-.45,.05-.95,.05-1.41-.01-.22-.02-.43-.03-.65,.02-.21,.04-.43,.06-.65,.02-.15,.04-.29,.07-.44,0-.2-.06-.39-.08-.57-.04-.29-.03-.6-.03-.92,0-.17,0-.33,.05-.48,.01-.05,.09-.09,.09-.14h.02c.1,.08,.16,.17,.18,.3,.05,.33,.02,.74,0,1.08,0,.12-.05,.22-.04,.35,0,.3,.08,.61,.09,.92,0,.13-.01,.25-.02,.38,0,.55,0,1.04-.01,1.6,0,.4,.04,.82,.08,1.2-.01,.07-.02,.14-.03,.21h.11c.11-.24,.08-.53,.09-.81,.01-.3,.06-.66,.02-.97-.03-.21-.06-.41-.09-.63,0-.22,.07-.42,.08-.65,0-.34-.05-.64-.05-.98,.02-.35,.05-.7,.06-1.05v-.81c-.01-.11-.03-.22-.04-.32,0-.18,.04-.31,.05-.49-.01-.28-.01-.56-.02-.84,0-.43,.03-.86,.03-1.3,0-.46,.04-.89,.03-1.33Zm-.96,4.17s-.17,.25-.17,.1c-.04-.08-.03-.2-.03-.3,0-.25,0-.53,0-.78,0-.34,0-.69,0-1.03,0-.27-.02-.57,.09-.78,.08,.04,.14,.11,.17,.19,.08,.3,.02,.64,.02,.97,0,.45,.11,1.24-.06,1.63Zm.07-3.95v.02c-.21-.04-.25-.2-.13-.38,.11,.05,.24,.35,.13,.35Zm.41,3.33h-.05c-.09-.21-.06-.42-.06-.68,0-.32-.07-.65,.09-.92,.09,.02,.15,.04,.19,.12,.08,.19,.06,1.48-.17,1.48Z"/><path class="cls-2" d="M45.25,37.31c-.01-.16-.03-.32-.05-.49,0-.68,.03-1.38,.04-2.03,0-.21-.01-.42-.02-.63,0-.52,0-1.02-.02-1.52-.03-.15-.06-.31-.08-.46-.03-.18,.01-.38,.02-.56,0-.06,.01-.24-.06-.25-.13-.06-.28-.03-.43-.04-.17,0-.35-.05-.54-.05-.2,.08-.45,.05-.67,.09-1,.19-1.94,.33-2.81,.79-.21,.12-.44,.24-.61,.43-.12,.15-.13,.33-.16,.53-.07,.46-.07,.95-.08,1.46-.02,.25-.04,.5-.06,.76,0,.36,0,.74-.01,1.11-.02,.15-.03,.29-.05,.43-.04,.35-.03,.72-.04,1.06-.02,.52,.01,1.04,.02,1.54,.01,.47-.02,.99-.01,1.49,.01,.14,.02,.27,.03,.41-.01,.08-.02,.16-.03,.24,0,.23,.04,.45,.04,.71,0,.66-.02,1.52,.25,2.05,.02,.03,.1,.14,.1,.09,.3-.12,.56-.35,.84-.5,.25-.14,.52-.22,.77-.35,.3-.17,.46-.28,.85-.27,.11-.08,.45-.14,.6-.14,.06,0,.13-.01,.19-.02,.06-.01,.11-.02,.16-.03,.29-.14,.96-.01,1.25,.06,.14,.04,.29,.07,.43,.11,.07-.42,0-.89,0-1.3,.02-.23,.03-.47,.04-.71,0-.3-.02-.59-.01-.87,.01-.14,.03-.29,.04-.44,.02-.34,0-.67,.02-1,.01-.19,.04-.4,.05-.6,0-.37,.02-.75,0-1.14Zm-5.02,1.02c.65-.61,1.49-.9,2.29-1.23,.25-.1,.55-.29,.85-.29,.1-.08,.32-.19,.46-.19v-.03c.16,.03,.28,.09,.28,.27,0,.15-.07,.28-.19,.36-.24,.16-.52,.19-.8,.28-.31,.1-.62,.22-.94,.31-.21,.07-.42,.11-.62,.19-.37,.15-.73,.34-1.07,.54-.12,.07-.24,.19-.4,.19-.04,0-.08,0-.1-.03-.13-.13,.15-.32,.23-.39Zm3.78,2.21c-.22,.13-.51,.13-.77,.19-.24,.05-.47,.12-.71,.18-.8,.18-1.47,.51-2.16,.92-.09,.05-.32,.26-.4,.1-.06-.11,.11-.22,.17-.28,.27-.24,.54-.39,.84-.58,.32-.2,.64-.38,1-.52,.11-.06,.23-.12,.34-.19,.44-.18,.9-.28,1.35-.44,.13,0,.26,0,.37,.06,.22,.12,.16,.44-.03,.55Zm.05-6.62c-.1,.07-.26,.1-.38,.14-.31,.09-.61,.19-.92,.28-.42,.13-.85,.29-1.25,.49-.28,.16-.55,.32-.83,.48-.05,.03-.43,.22-.42,.12h-.03c.04-.28,.37-.48,.59-.61,.11-.08,.22-.16,.32-.24,.28-.17,.57-.34,.86-.48,.31-.15,.64-.22,.96-.33,.11-.05,.22-.1,.33-.15,.15-.05,.3-.1,.44-.15,.11,0,.24-.01,.35,.02,.21,.08,.1,.34-.03,.43Z"/><path class="cls-2" d="M39.03,33.7c-.04-.4,.02-.82-.21-1.12-.42-.57-1-.78-1.62-1.01-.16-.05-.33-.12-.49-.17-.18-.04-.37-.07-.56-.11-.29-.07-.62-.13-.93-.15-.43,0-.86,0-1.3-.01-.13,.06-.34,.04-.42,.17-.08,.12-.04,.62-.04,.81,0,.74-.04,1.46-.04,2.22,0,.44,0,.89,0,1.33-.02,.37-.05,.74-.07,1.11-.01,.26,.09,.51,.09,.78-.01,.54-.02,1.14-.03,1.71-.02,.24-.04,.47-.05,.7-.01,.48,.02,.93,.01,1.41-.01,.23-.04,.47-.06,.7,0,.23,.07,.42,.07,.63,0,.25-.04,.48-.05,.73,.1,0,.2,0,.3,0,.07-.04,.18-.06,.27-.06,.08-.03,.18-.05,.27-.05,.07-.02,.13-.02,.19-.03,.26-.11,.96,.03,1.22,.08,.33,.06,.65,.04,.97,.11,.38,.08,.96,.3,1.29,.5,.12,.07,.78,.58,.85,.58v-.03c.17-.29,.16-.56,.2-.92,.06-.4,.07-.81,.09-1.25,.02-.62,.06-1.26,.06-1.89,0-.27-.01-.54-.02-.81,.03-.78,.02-1.54,.04-2.3,.03-1.2,.1-2.47,0-3.66Zm-.98,8.22c-.46-.21-.96-.39-1.45-.55-.18-.05-.35-.07-.53-.11-.26-.06-.54-.13-.82-.17-.31-.05-.62-.06-.92-.12-.03-.01-.07-.03-.1-.04-.24-.14-.25-.61,.11-.61v-.03c.22,0,.38,.06,.57,.1,.19,.04,.39,.06,.59,.11,.17,.06,.33,.12,.49,.18,.48,.16,.92,.32,1.37,.53,.11,.04,.21,.08,.32,.12,.26,.12,.63,.39,.82,.61,.07,.08,.18,.13,.18,.25-.23,.03-.45-.17-.63-.26Zm.65-2.96s-.04,.02-.06,.02c-.01,0-.02,0-.03,0-.19,.03-.95-.6-1.18-.71-.27-.13-.56-.23-.84-.34-.38-.15-.74-.31-1.17-.37-.16-.02-.32-.04-.48-.06-.22-.01-.57,.04-.73-.09-.2-.16-.07-.6,.19-.6v-.02c1.19,.08,2.23,.63,3.2,1.18,.26,.15,.94,.56,1.08,.83,.01,.03,.07,.15,.01,.15Zm.11-3.38c-.03,.06-.13,.06-.19,.05-.16-.03-.29-.18-.42-.26-.16-.09-.32-.18-.47-.27-.84-.42-1.79-.67-2.7-.93-.27-.08-.61-.06-.84-.2-.19-.12-.19-.37-.03-.51,.4,0,.71,.13,1.06,.23,.1,.02,.21,.04,.31,.06,.23,.07,.45,.16,.66,.24,.19,.07,.38,.14,.57,.2,.09,.05,.19,.1,.27,.15,.27,.12,.53,.25,.8,.37,.16,.08,1.07,.64,.97,.85Z"/></g></g></g></g><g><path class="cls-3" d="M37.34,9.9c-.41,.05-.82,.1-1.23,.14-.35,.06-.7,.12-1.09,.14-.84,.16-1.68,.32-2.52,.49-1.18,.24-2.3,.74-3.39,1.19-2.03,.83-3.94,1.81-5.78,3.03-.44,.28-3.49,2.42-3.49,2.76,.5,.04,.99,.08,1.5,.11,1.19,.07,2.44,.02,3.63,.02,.74,.04,1.47,.08,2.21,.11,.29-.14,.75-.07,1.1-.07,1.01,0,1.96,.06,2.92,.06,.49-.21,1.29-.03,1.81,0h4.86c1.82,.04,3.63,.08,5.45,.12,3.35-.04,6.7-.09,10.06-.13,.25-.09,.62,0,.91,0,.58,.01,1.17,.03,1.75,.05,.31-.01,.61-.03,.91-.04,.57,.01,1.2,.07,1.81,.06,.13,0,.52,.02,.65,.02,.41,0-.33-.58-.46-.73-.42-.48-.89-.81-1.39-1.14-.3-.23-.6-.47-.9-.71-.61-.41-1.22-.81-1.84-1.22-3.83-2.31-7.53-3.68-12.29-4.15-.69-.01-1.38-.03-2.08-.04-1-.02-2.09-.04-3.11-.04Z"/><path class="cls-3" d="M18.21,19.12c-.41,.43-1.03,1.04-1.45,1.47-.86,1.16-1.73,2.33-2.59,3.49-1.82,3.06-2.93,6.25-3.71,9.83-.13,.57-.12,1.14-.18,1.74-.28,2.94-.36,6.26,.11,9.16,.13,.48,.26,.96,.38,1.44,.15,.79,.26,1.52,.51,2.26,.25,.61,.5,1.22,.75,1.83,.3,.89,.75,1.7,1.18,2.53,1.01,1.97,2.19,3.84,3.61,5.62,.21,.25,.73,.98,1.1,.98v-.07c.29-.54,.09-2.19,.07-2.86,0-1.12,0-2.24,0-3.37,0-1-.04-2.06,0-3.11,.1-2.24,.01-4.55,.05-6.81,.03-1.91,.12-3.88,.12-5.84,0-1.84-.11-3.86,.05-5.64-.02-.2-.03-.39-.05-.6,0-.56,0-1.12,0-1.68,.03-.78,.06-1.55,.09-2.33-.05-1.67-.04-3.37-.09-5.07-.04-1.19,.1-2.34,.06-2.98Z"/><path class="cls-3" d="M61,19.3c-.09,1.15,.1,2.92,.08,4.12-.04,2.59-.05,5.17-.05,7.85,0,4.38,0,8.36,.01,12.59,0,2.37-.12,4.73,0,7.13,0,.97-.01,1.95-.03,2.92,0,1.78,.21,3.66-.17,5.38-.03,.1-.26,.87-.07,.87,.62,0,3.43-4.06,3.82-4.71,.28-.52,.57-1.03,.85-1.55,.16-.35,.31-.7,.46-1.06,.55-.97,1.17-2.15,1.54-3.21,.77-2.25,1.23-4.57,1.55-7.05,.1-.81,.07-1.6,.09-2.46,.02-.45,.04-.9,.06-1.36-.04-2.43-.32-5-.95-7.16-.62-2.13-1.59-4.21-2.65-6.13-.37-.68-.83-1.29-1.25-1.94-.55-.87-2.94-4.51-3.3-4.23Z"/><path class="cls-3" d="M57.1,63.26c-1.66,1.25-5.12,1.38-7.32,1.65-.56,.07-1.13,.14-1.69,.21-2.74,.13-6.36,.39-7.34,3.2-.1,.31-.09,.37-.2,.67-.04,.27,1.23,.02,1.81,.02,.17-.08,.44-.06,.65-.06,.13-.02,.26-.05,.39-.07,.33-.17,.83-.19,1.23-.19,.27-.14,.64-.13,.98-.13,.36-.19,1.23-.33,1.68-.33,.78-.27,1.55-.53,2.33-.8,2.2-.89,4.53-1.79,6.41-3.29,.28-.22,.63-.29,1.07-.87Z"/><path class="cls-3" d="M22.92,63.81c.49,.59,1.18,.72,1.79,1.13,.35,.25,.85,.52,1.2,.77,1.33,.63,2.33,1.16,3.69,1.6,1.49,.5,2.95,.97,4.56,1.26,.54,.1,4.24,.78,4.38,.43,.23-.56-.98-1.94-1.4-2.29-.39-.33-.86-.54-1.29-.78-.42-.23-.9-.36-1.36-.48-.6-.17-1.19-.36-1.83-.47-.61-.1-1.22-.11-1.87-.17-.57-.09-1.13-.18-1.69-.27-.73-.1-1.46-.09-2.2-.18-1.34-.16-2.59-.47-3.96-.55Z"/></g></g></g><g><path class="cls-4" d="M105.49,22.52h-1.64v8.32c0,.65,.08,1.09,.24,1.32,.16,.23,.47,.34,.93,.34v.31h-3.83v-.31c.48,0,.8-.13,.97-.39,.17-.26,.26-.7,.26-1.33v-8.27h-1.57c-.75,0-1.3,.12-1.64,.36-.34,.24-.53,.64-.58,1.19h-.32v-2.48h.32c.29,.27,.83,.41,1.62,.41h5.68c.82,0,1.39-.13,1.72-.41h.34v2.48h-.21c-.14-.6-.38-1-.72-1.22-.35-.22-.87-.33-1.56-.33Z"/><path class="cls-4" d="M117.87,30.78v-3.14h-5.9v3.14c0,.64,.09,1.09,.27,1.34,.18,.25,.51,.38,.98,.38v.31h-3.91v-.31c.47,0,.8-.13,.97-.38,.17-.26,.26-.7,.26-1.33v-6.75c0-.67-.09-1.12-.26-1.36-.18-.24-.5-.36-.96-.36v-.31h3.91v.31c-.47,0-.8,.13-.98,.39-.18,.26-.27,.71-.27,1.33v3.08h5.9v-3.08c0-.66-.08-1.12-.25-1.36-.17-.24-.49-.36-.96-.36v-.31h3.88v.31c-.46,0-.78,.13-.96,.38-.18,.25-.27,.7-.27,1.35v6.75c0,.65,.09,1.09,.27,1.34,.18,.25,.5,.37,.96,.37v.31h-3.88v-.31c.48,0,.8-.12,.96-.37,.16-.25,.24-.7,.24-1.35Z"/><path class="cls-4" d="M128.99,26.09h.32v2.63h-.32c-.12-.46-.26-.75-.42-.87-.17-.12-.53-.18-1.09-.18h-2.69v3.88c0,.27,.06,.46,.18,.57,.12,.11,.32,.17,.61,.17h1.89c.68,0,1.14-.04,1.4-.11,.26-.07,.48-.21,.65-.41,.18-.2,.37-.52,.57-.97h.32l-.5,2.02h-7.8v-.31c.49,0,.81-.12,.98-.37,.17-.25,.25-.69,.25-1.33v-6.77c0-.66-.09-1.11-.26-1.36-.17-.25-.49-.37-.97-.37v-.31h7.8v1.81h-.2c-.11-.52-.27-.86-.48-1.03-.21-.17-.65-.25-1.34-.25h-3.12v4.63h3.03c.41,0,.69-.07,.84-.22,.15-.15,.26-.43,.33-.84Z"/><path class="cls-4" d="M144.4,30.55v-6.51c0-.63-.08-1.07-.25-1.32-.17-.25-.47-.38-.9-.4v-.31h3.82v.31c-.46,0-.78,.13-.96,.38-.18,.25-.27,.7-.27,1.35v6.75c0,.63,.09,1.08,.26,1.33,.18,.26,.5,.38,.96,.38v.31h-2.67v-1.51c-1.02,1.19-2.22,1.78-3.61,1.78-1.14,0-2.04-.34-2.7-1.02-.66-.68-.98-1.58-.98-2.7v-5.32c0-.65-.08-1.09-.25-1.35-.17-.25-.49-.38-.97-.38v-.31h3.91v.31c-.49,0-.81,.12-.99,.37-.17,.25-.26,.69-.26,1.34v5.48c0,.89,.24,1.58,.73,2.09,.49,.51,1.16,.76,2.03,.76,1.29,0,2.32-.6,3.09-1.8Z"/><path class="cls-4" d="M156.79,22.3v-.31h3.27v.31c-.52,0-.89,.12-1.09,.37-.2,.25-.3,.69-.3,1.34v8.8h-.33l-7.67-9.41v7.6c0,.54,.11,.92,.33,1.15,.22,.23,.58,.35,1.09,.35v.31h-3.29v-.31c.52,0,.88-.14,1.06-.41,.18-.27,.28-.76,.28-1.45v-6.34c0-.68-.12-1.17-.37-1.47-.25-.3-.66-.48-1.23-.53v-.31h2.78l6.8,8.43v-6.33c0-.66-.09-1.13-.28-1.39-.19-.26-.53-.39-1.04-.39Z"/><path class="cls-4" d="M165.49,21.99v.31c-.46,0-.78,.13-.96,.38-.18,.25-.27,.7-.27,1.35v6.75c0,.65,.09,1.09,.27,1.34,.18,.25,.5,.37,.96,.37v.31h-3.89v-.31c.47,0,.8-.12,.97-.37,.17-.25,.26-.7,.26-1.35v-6.75c0-.67-.08-1.12-.25-1.36-.17-.24-.49-.36-.97-.36v-.31h3.89Z"/><path class="cls-4" d="M177.43,21.99v.33c-.79,0-1.45,.7-1.97,2.1l-3.19,8.54h-.31l-3.35-8.79c-.31-.81-.58-1.32-.81-1.54-.23-.21-.55-.32-.98-.34v-.31h3.93v.31c-.63,0-.95,.24-.95,.73,0,.16,.04,.34,.12,.54l2.65,6.99,2.51-6.75c.1-.29,.16-.54,.16-.75,0-.51-.32-.77-.97-.77v-.31h3.16Z"/><path class="cls-4" d="M185.36,26.09h.32v2.63h-.32c-.12-.46-.26-.75-.42-.87-.17-.12-.53-.18-1.09-.18h-2.69v3.88c0,.27,.06,.46,.18,.57s.32,.17,.61,.17h1.89c.68,0,1.14-.04,1.4-.11,.26-.07,.48-.21,.65-.41,.18-.2,.37-.52,.57-.97h.32l-.5,2.02h-7.8v-.31c.49,0,.81-.12,.98-.37,.17-.25,.25-.69,.25-1.33v-6.77c0-.66-.09-1.11-.26-1.36-.17-.25-.49-.37-.97-.37v-.31h7.8v1.81h-.2c-.11-.52-.27-.86-.48-1.03-.21-.17-.65-.25-1.34-.25h-3.12v4.63h3.03c.41,0,.69-.07,.84-.22,.15-.15,.26-.43,.33-.84Z"/><path class="cls-4" d="M191.74,27.8h-.88v2.98c0,.64,.09,1.09,.27,1.34,.18,.25,.5,.38,.96,.38v.31h-3.89v-.31c.48,0,.8-.13,.97-.38,.17-.25,.25-.7,.25-1.34v-6.79c0-.64-.08-1.08-.25-1.32-.17-.24-.49-.36-.98-.36v-.31h4.44c1.1,0,1.97,.27,2.63,.8,.66,.53,.98,1.21,.98,2.04,0,1.33-.74,2.21-2.23,2.66,.33,.21,.65,.5,.96,.86,.31,.37,.72,.97,1.22,1.82,.57,.94,1.01,1.56,1.33,1.86,.32,.29,.65,.45,.99,.48v.31h-2.21c-.46-.55-1.01-1.35-1.65-2.41-.69-1.12-1.23-1.83-1.62-2.14-.39-.31-.82-.46-1.3-.46Zm.26-5.4h-1.14v4.95h1.33c.79,0,1.42-.23,1.87-.68,.45-.46,.68-1.06,.68-1.81s-.25-1.32-.75-1.78c-.5-.45-1.16-.68-1.99-.68Z"/><path class="cls-4" d="M204.93,21.83h.3v2.54h-.32c-.07-.7-.33-1.25-.76-1.64-.43-.39-.98-.59-1.64-.59-.58,0-1.06,.15-1.41,.44-.36,.3-.54,.69-.54,1.18,0,.46,.15,.87,.44,1.25s.93,.86,1.92,1.45c1.14,.68,1.91,1.28,2.31,1.79,.39,.51,.59,1.1,.59,1.75,0,.85-.3,1.58-.9,2.18s-1.33,.9-2.17,.9c-.49,0-1.12-.13-1.88-.41-.31-.11-.51-.17-.6-.17-.18,0-.32,.14-.41,.42h-.32v-2.93h.32c0,.81,.27,1.45,.79,1.94,.52,.49,1.13,.73,1.82,.73,.66,0,1.18-.18,1.58-.53,.4-.35,.59-.82,.59-1.4,0-.44-.16-.86-.49-1.26-.33-.4-1.01-.92-2.04-1.55-.84-.52-1.41-.93-1.69-1.23-.28-.3-.49-.63-.63-.99-.13-.36-.2-.76-.2-1.19,0-.83,.27-1.5,.82-2.02,.54-.52,1.25-.78,2.13-.78,.48,0,1,.1,1.57,.29,.26,.09,.45,.13,.55,.13,.09,0,.14-.02,.18-.05,.03-.04,.06-.12,.1-.25Z"/><path class="cls-4" d="M211.53,21.99v.31c-.46,0-.78,.13-.96,.38-.18,.25-.27,.7-.27,1.35v6.75c0,.65,.09,1.09,.27,1.34,.18,.25,.5,.37,.96,.37v.31h-3.89v-.31c.47,0,.8-.12,.97-.37,.17-.25,.26-.7,.26-1.35v-6.75c0-.67-.08-1.12-.25-1.36-.17-.24-.49-.36-.97-.36v-.31h3.89Z"/><path class="cls-4" d="M220.13,22.52h-1.64v8.32c0,.65,.08,1.09,.24,1.32,.16,.23,.47,.34,.93,.34v.31h-3.83v-.31c.48,0,.8-.13,.97-.39,.17-.26,.26-.7,.26-1.33v-8.27h-1.57c-.75,0-1.3,.12-1.64,.36-.34,.24-.53,.64-.58,1.19h-.32v-2.48h.32c.29,.27,.83,.41,1.62,.41h5.68c.82,0,1.39-.13,1.72-.41h.34v2.48h-.21c-.14-.6-.38-1-.72-1.22-.35-.22-.87-.33-1.56-.33Z"/><path class="cls-4" d="M231.75,23.53l-2.44,3.84v3.41c0,.66,.08,1.11,.25,1.35,.17,.24,.48,.36,.94,.36v.31h-3.95v-.31c.54,0,.89-.13,1.07-.39,.18-.26,.26-.7,.26-1.33v-3.41l-2.31-3.59c-.38-.6-.69-.99-.93-1.17-.24-.18-.57-.29-1-.3v-.31h4.24v.31c-.74,0-1.12,.17-1.12,.51,0,.15,.07,.34,.22,.57l2.14,3.28,1.71-2.72c.25-.41,.38-.75,.38-1.04,0-.4-.24-.6-.72-.6v-.31h2.97v.31c-.4,.02-.71,.11-.93,.26-.22,.15-.48,.47-.8,.96Z"/><path class="cls-4" d="M240.19,26.39c.5,0,.95,.21,1.33,.64,.38,.42,.57,.92,.57,1.5,0,1-.38,2-1.14,3-.76,1-1.65,1.5-2.69,1.5-.58,0-1.05-.21-1.42-.62-.37-.41-.55-.94-.55-1.58,0-1.12,.4-2.14,1.21-3.06,.81-.92,1.7-1.38,2.68-1.38Zm-1.51,6.08c.61,0,1.15-.38,1.61-1.14,.46-.76,.7-1.66,.7-2.71,0-.47-.12-.87-.37-1.19-.25-.32-.55-.48-.92-.48-.59,0-1.12,.38-1.59,1.13-.47,.76-.7,1.64-.7,2.66,0,.53,.12,.95,.35,1.26s.54,.47,.93,.47Z"/><path class="cls-4" d="M246.75,26.6l-.06,.52h-1.31l-1.05,5.52c-.28,1.49-.58,2.57-.92,3.25-.34,.68-.81,1.2-1.41,1.57-.61,.37-1.26,.56-1.95,.56-.93,0-1.66-.17-2.2-.51l.29-1.32h.32c.2,.97,.75,1.45,1.65,1.45,.67,0,1.27-.24,1.78-.73,.51-.49,.93-1.62,1.27-3.4l1.2-6.39h-1.33l.06-.52h1.33l.47-2.29c.25-1.22,.65-2.06,1.21-2.52,.56-.46,1.22-.69,1.99-.69,.36,0,.79,.08,1.29,.25l.05-.23h.38l-.36,1.71h-.38c-.08-.9-.48-1.35-1.19-1.35-.91,0-1.53,.77-1.85,2.31l-.59,2.81h1.34Z"/><path class="cls-4" d="M259.78,26.09h.32v2.63h-.32c-.12-.46-.26-.75-.42-.87-.17-.12-.53-.18-1.09-.18h-2.69v3.88c0,.27,.06,.46,.18,.57,.12,.11,.32,.17,.61,.17h1.89c.68,0,1.14-.04,1.4-.11,.26-.07,.48-.21,.65-.41,.18-.2,.37-.52,.57-.97h.32l-.5,2.02h-7.8v-.31c.49,0,.81-.12,.98-.37,.17-.25,.25-.69,.25-1.33v-6.77c0-.66-.09-1.11-.26-1.36-.17-.25-.5-.37-.97-.37v-.31h7.8v1.81h-.2c-.11-.52-.27-.86-.48-1.03-.21-.17-.65-.25-1.34-.25h-3.12v4.63h3.03c.41,0,.69-.07,.84-.22,.15-.15,.26-.43,.33-.84Z"/><path class="cls-4" d="M262.73,32.82v-.31c.46,0,.78-.13,.96-.38,.18-.26,.27-.7,.27-1.33v-6.75c0-.65-.09-1.1-.27-1.35-.18-.25-.5-.38-.96-.38v-.31h5.01c1.85,0,3.33,.53,4.44,1.58,1.11,1.05,1.66,2.39,1.66,4.01s-.53,2.86-1.58,3.81c-1.05,.95-2.51,1.42-4.39,1.42h-5.14Zm4.72-10.41h-2.06v7.99c0,.77,.09,1.29,.28,1.58,.18,.28,.55,.42,1.11,.42h1.12c1.33,0,2.37-.43,3.14-1.29,.76-.86,1.14-2.03,1.14-3.51,0-1.58-.42-2.83-1.25-3.78s-1.99-1.42-3.47-1.42Z"/><path class="cls-4" d="M279.17,21.99v.31c-.46,0-.78,.13-.96,.38-.18,.25-.27,.7-.27,1.35v6.75c0,.65,.09,1.09,.27,1.34,.18,.25,.5,.37,.96,.37v.31h-3.89v-.31c.47,0,.8-.12,.97-.37,.17-.25,.26-.7,.26-1.35v-6.75c0-.67-.08-1.12-.25-1.36-.17-.24-.49-.36-.97-.36v-.31h3.89Z"/><path class="cls-4" d="M288.78,22.3v-.31h3.27v.31c-.52,0-.89,.12-1.09,.37-.2,.25-.3,.69-.3,1.34v8.8h-.33l-7.67-9.41v7.6c0,.54,.11,.92,.33,1.15,.22,.23,.58,.35,1.09,.35v.31h-3.29v-.31c.52,0,.88-.14,1.06-.41,.18-.27,.28-.76,.28-1.45v-6.34c0-.68-.12-1.17-.37-1.47-.25-.3-.66-.48-1.23-.53v-.31h2.78l6.8,8.43v-6.33c0-.66-.09-1.13-.28-1.39-.19-.26-.53-.39-1.04-.39Z"/><path class="cls-4" d="M298.23,32.82h-4.99v-.31c.46,0,.78-.12,.96-.37,.18-.25,.27-.7,.27-1.34v-6.75c0-.66-.08-1.11-.25-1.36-.17-.25-.49-.37-.97-.37v-.31h4.08c1.17,0,2.09,.24,2.76,.72,.67,.48,1.01,1.12,1.01,1.91,0,1.16-.73,1.98-2.18,2.45v.05c.82,.17,1.5,.53,2.02,1.09,.52,.56,.78,1.21,.78,1.94,0,.8-.32,1.44-.96,1.93-.64,.48-1.48,.73-2.53,.73Zm-2.33-10.41v4.59h1.12c.78,0,1.41-.2,1.87-.61,.46-.41,.69-.96,.69-1.66,0-.73-.23-1.3-.68-1.71-.45-.41-1.09-.61-1.92-.61h-1.08Zm1.03,5h-1.03v3.17c0,.7,.08,1.18,.23,1.43,.15,.26,.45,.38,.89,.38h.9c.63,0,1.14-.21,1.54-.63,.4-.42,.6-.99,.6-1.69,0-.81-.29-1.45-.86-1.94-.57-.49-1.33-.73-2.27-.73Z"/><path class="cls-4" d="M311.36,30.55v-6.51c0-.63-.08-1.07-.25-1.32-.17-.25-.47-.38-.9-.4v-.31h3.82v.31c-.46,0-.78,.13-.96,.38-.18,.25-.27,.7-.27,1.35v6.75c0,.63,.09,1.08,.26,1.33,.18,.26,.5,.38,.96,.38v.31h-2.67v-1.51c-1.02,1.19-2.22,1.78-3.61,1.78-1.14,0-2.04-.34-2.7-1.02-.66-.68-.98-1.58-.98-2.7v-5.32c0-.65-.08-1.09-.25-1.35-.17-.25-.49-.38-.97-.38v-.31h3.91v.31c-.49,0-.81,.12-.99,.37-.17,.25-.26,.69-.26,1.34v5.48c0,.89,.24,1.58,.73,2.09,.49,.51,1.16,.76,2.03,.76,1.29,0,2.32-.6,3.09-1.8Z"/><path class="cls-4" d="M319.16,27.8h-.88v2.98c0,.64,.09,1.09,.27,1.34,.18,.25,.5,.38,.96,.38v.31h-3.89v-.31c.48,0,.8-.13,.97-.38,.17-.25,.25-.7,.25-1.34v-6.79c0-.64-.08-1.08-.25-1.32-.17-.24-.49-.36-.98-.36v-.31h4.44c1.1,0,1.97,.27,2.63,.8,.66,.53,.98,1.21,.98,2.04,0,1.33-.74,2.21-2.23,2.66,.33,.21,.65,.5,.96,.86,.31,.37,.72,.97,1.22,1.82,.57,.94,1.01,1.56,1.33,1.86,.32,.29,.65,.45,.99,.48v.31h-2.21c-.46-.55-1.01-1.35-1.65-2.41-.69-1.12-1.23-1.83-1.62-2.14-.39-.31-.82-.46-1.3-.46Zm.26-5.4h-1.14v4.95h1.33c.79,0,1.42-.23,1.87-.68,.45-.46,.68-1.06,.68-1.81s-.25-1.32-.75-1.78c-.5-.45-1.16-.68-1.99-.68Z"/><path class="cls-4" d="M336.7,28.13v.31c-.48,0-.82,.11-1.03,.33-.21,.22-.31,.6-.31,1.13v2.91c-.25,.07-.72,.13-1.42,.18-.69,.06-1.23,.08-1.61,.08-2,0-3.56-.49-4.67-1.48-1.12-.98-1.67-2.28-1.67-3.89,0-1.13,.24-2.14,.73-3.05,.49-.9,1.17-1.62,2.05-2.15,.88-.53,1.81-.79,2.79-.79,.59,0,1.23,.1,1.93,.31,.44,.13,.78,.19,1.01,.19,.31,0,.51-.12,.61-.36h.34v3.19h-.3c-.12-.89-.52-1.6-1.2-2.13-.68-.53-1.48-.8-2.39-.8-1.14,0-2.08,.46-2.81,1.37-.73,.91-1.1,2.09-1.1,3.54,0,1.59,.42,2.9,1.27,3.95,.85,1.05,1.91,1.57,3.19,1.57,1.21,0,1.82-.39,1.82-1.16v-1.17c0-.67-.09-1.13-.26-1.4-.18-.26-.48-.4-.93-.4h-.42v-.31h4.38Z"/><path class="cls-4" d="M346.14,30.78v-3.14h-5.9v3.14c0,.64,.09,1.09,.27,1.34,.18,.25,.51,.38,.98,.38v.31h-3.91v-.31c.47,0,.8-.13,.97-.38,.17-.26,.26-.7,.26-1.33v-6.75c0-.67-.09-1.12-.26-1.36-.18-.24-.5-.36-.96-.36v-.31h3.91v.31c-.47,0-.8,.13-.98,.39-.18,.26-.27,.71-.27,1.33v3.08h5.9v-3.08c0-.66-.08-1.12-.25-1.36-.17-.24-.49-.36-.96-.36v-.31h3.88v.31c-.46,0-.78,.13-.96,.38-.18,.25-.27,.7-.27,1.35v6.75c0,.65,.09,1.09,.27,1.34,.18,.25,.5,.37,.96,.37v.31h-3.88v-.31c.48,0,.8-.12,.96-.37,.16-.25,.24-.7,.24-1.35Z"/></g><g><path class="cls-4" d="M98.41,59.82v-16.88h2.31v14.75h8.41v2.13h-10.73Z"/><path class="cls-4" d="M110.72,45.29v-2.35h2.06v2.35h-2.06Zm0,14.53v-12.27h2.06v12.27h-2.06Z"/><path class="cls-4" d="M115.99,59.82v-16.88h2.02v6.31c.47-.7,1.04-1.22,1.71-1.58,.67-.36,1.42-.53,2.26-.53,1.63,0,2.93,.6,3.92,1.79,.99,1.19,1.48,2.79,1.48,4.79s-.49,3.54-1.46,4.72-2.28,1.76-3.91,1.76c-.86,0-1.62-.16-2.26-.47-.65-.31-1.22-.8-1.74-1.46v1.55h-2.02Zm1.95-6.22c0,1.53,.31,2.7,.94,3.53,.63,.82,1.52,1.24,2.68,1.24s2.02-.4,2.68-1.2c.65-.8,.98-1.9,.98-3.3,0-1.55-.31-2.75-.95-3.59s-1.53-1.27-2.69-1.27-2.13,.38-2.73,1.15c-.61,.77-.91,1.92-.91,3.44Z"/><path class="cls-4" d="M129.89,59.82v-12.27h1.99v2.2c.33-.83,.77-1.44,1.33-1.85s1.25-.61,2.07-.61c.15,0,.26,0,.33,0s.14,.01,.21,.03v2.18c-.05,0-.11-.01-.18-.02s-.17,0-.31,0c-1.1,0-1.94,.3-2.52,.9-.58,.6-.87,1.47-.87,2.62v6.83h-2.06Z"/><path class="cls-4" d="M145.26,58.18c-.64,.67-1.32,1.18-2.05,1.51-.72,.34-1.49,.5-2.3,.5-1.25,0-2.23-.33-2.93-.98-.7-.65-1.05-1.56-1.05-2.71s.35-1.99,1.04-2.62,1.74-1.04,3.16-1.23c.36-.04,.84-.09,1.46-.16,1.05-.11,1.69-.21,1.93-.31,.24-.09,.39-.21,.47-.36,.08-.15,.11-.47,.11-.97,0-.63-.23-1.1-.69-1.41-.46-.31-1.15-.47-2.07-.47s-1.68,.19-2.16,.57c-.49,.38-.73,.95-.73,1.7h-1.95v-.09c0-1.24,.44-2.22,1.31-2.93,.87-.72,2.07-1.08,3.6-1.08,1.64,0,2.85,.31,3.63,.92,.78,.62,1.16,1.58,1.16,2.88v6.14c0,.53,.06,.87,.17,1.02s.32,.23,.62,.23c.06,0,.14,0,.22-.02,.09-.01,.19-.03,.32-.05v1.59c-.25,.07-.47,.12-.66,.14-.19,.03-.36,.04-.53,.04-.69,0-1.2-.15-1.55-.45s-.52-.75-.52-1.35v-.07Zm-.19-4.61c-.55,.3-1.49,.53-2.83,.7-.47,.06-.83,.11-1.07,.15-.75,.12-1.29,.34-1.62,.66s-.49,.79-.49,1.4,.19,1.08,.57,1.41c.38,.33,.93,.49,1.64,.49,1.11,0,2.02-.28,2.73-.84,.71-.56,1.07-1.27,1.07-2.14v-1.83Z"/><path class="cls-4" d="M150.42,59.82v-12.27h1.99v2.2c.33-.83,.77-1.44,1.33-1.85s1.25-.61,2.07-.61c.15,0,.26,0,.33,0s.14,.01,.21,.03v2.18c-.05,0-.11-.01-.18-.02s-.17,0-.31,0c-1.1,0-1.94,.3-2.52,.9-.58,.6-.87,1.47-.87,2.62v6.83h-2.06Z"/><path class="cls-4" d="M165.98,47.55h2.3l-5.17,14.18c-.49,1.34-.98,2.21-1.48,2.62-.5,.41-1.21,.62-2.15,.62-.21,0-.41-.02-.61-.05-.2-.03-.41-.08-.61-.14v-1.97c.21,.06,.41,.11,.61,.14,.2,.03,.4,.05,.6,.05,.4,0,.72-.08,.96-.24,.24-.16,.43-.42,.56-.77l.54-1.46-4.65-12.97h2.3l3.4,9.92,3.4-9.92Z"/></g></svg>