<?xml version="1.0" encoding="UTF-8"?><svg id="Layer_1" xmlns="http://www.w3.org/2000/svg" viewBox="0 0 348.81 79.07"><defs><style>.cls-1{fill:#1d1d1b;}</style></defs><g><g><path class="cls-1" d="M54.55,66.67c.41-.22,.79-.5,1.19-.75,.34-.21,.68-.41,1.01-.62,.3-.22,.58-.48,.89-.7,.33-.24,.65-.47,.97-.71,.07-.06,.14-.13,.21-.19,.08-.04,.15-.09,.23-.13,.28-.21,.56-.46,.82-.7,.21-.2,.36-.41,.58-.61,.22-.19,.46-.37,.68-.57,.09-.08,.14-.18,.23-.26,.18-.18,.37-.34,.53-.53,.11-.14,.23-.28,.34-.42,.4-.39,.77-.82,1.11-1.25,.28-.33,.55-.66,.82-.99,.18-.25,.36-.51,.54-.77,.09-.1,.19-.2,.29-.3,.29-.41,.59-.82,.88-1.24,.09-.14,.14-.29,.22-.43,.07-.09,.13-.19,.2-.28,.06-.12,.11-.24,.17-.36,.2-.34,.39-.68,.57-1.03,.15-.26,.31-.53,.46-.8,.13-.27,.21-.55,.33-.82,.14-.28,.27-.57,.4-.85,.45-1.22,.9-2.44,1.26-3.7,.03-.15,.05-.3,.08-.45,.1-.46,.22-.94,.32-1.41,.03-.24,.05-.48,.08-.73,.07-.39,.15-.82,.2-1.22,.03-.32,.05-.65,.08-.97,.02-.13,.05-.25,.07-.38,.01-.27,.03-.54,.04-.81,.01-.14,.06-.26,.06-.4,0-.19,0-.38,0-.57,.08-1.22,.11-2.55,.04-3.76-.04-.63-.19-1.26-.25-1.87-.07-.65-.12-1.3-.25-1.92-.36-1.71-.83-3.39-1.44-4.98-.09-.23-.22-.44-.31-.67-.2-.48-.42-.91-.65-1.37-.07-.13-.15-.26-.23-.39-.19-.4-.32-.83-.52-1.21-.13-.24-.28-.44-.43-.67-.11-.25-.23-.49-.35-.74-.43-.67-.88-1.33-1.33-1.99-.17-.2-.34-.4-.51-.59-.19-.24-.38-.49-.57-.73-.18-.18-.38-.34-.54-.54-.09-.12-.15-.24-.24-.36-.14-.16-.28-.31-.42-.46-.09-.08-.17-.16-.25-.23-.22-.24-.42-.5-.64-.74-.2-.18-.39-.37-.59-.55-.19-.19-.38-.38-.56-.57-.26-.2-.52-.4-.78-.6-.27-.24-.54-.47-.81-.7-.18-.14-.37-.23-.55-.35-.23-.17-.46-.34-.69-.5-.17-.12-.32-.26-.49-.39-.13-.08-.25-.15-.37-.23-.17-.12-.34-.24-.51-.36-.55-.34-1.14-.6-1.72-.89-.21-.13-.42-.26-.63-.4-.36-.18-.72-.36-1.08-.54-.29-.14-.6-.24-.9-.36-.15-.08-.3-.16-.44-.24-.11-.04-.23-.08-.34-.12-.18-.08-.36-.16-.54-.24-.57-.21-1.17-.35-1.75-.53-.28-.08-.56-.2-.84-.28-.61-.18-1.23-.27-1.86-.42-.41-.09-.83-.21-1.25-.28-.27-.04-.54-.07-.81-.11-.45-.09-.95-.17-1.41-.23-.18,0-.36,0-.54-.02-.12-.02-.25-.03-.38-.05-.24,0-.49,0-.73-.01-.55-.04-1.13-.08-1.71-.09-.22,.07-.54,.03-.78,.03-.3,0-.6,0-.89,0-.08,.01-.17,.03-.25,.04-.21,0-.41,.01-.62,.02-.11,.03-.22,.05-.33,.08-.11,.02-.21,.03-.32,.04-.1,0-.21,0-.3,.03-.06,.01-.13,.02-.19,.03-.13,0-.28,0-.38,.05-.29,0-.72,.04-.95,.16-.06,0-.13,.02-.19,.03-.18,0-.43,.02-.57,.11-.48,0-.87,.2-1.3,.3-.23,.05-.5,.08-.7,.2-.19,0-.39,.05-.54,.13-.3,0-.56,.17-.82,.27-.15,.06-.34,.06-.48,.15-.3,0-.57,.17-.82,.28-.17,.07-.34,.15-.52,.22-.93,.39-1.84,.83-2.73,1.3-.15,.1-.3,.19-.45,.29-1.07,.54-2.13,1.14-3.08,1.91-.28,.2-.56,.4-.84,.6-.15,.13-.29,.26-.44,.39-.27,.2-.56,.37-.82,.59-.54,.45-1.05,.97-1.54,1.46-.31,.28-.62,.56-.92,.83-.11,.12-.21,.24-.31,.36-.14,.13-.28,.26-.42,.39-.22,.22-.37,.5-.59,.71-.19,.19-.37,.36-.54,.57-.08,.11-.16,.21-.23,.31-.32,.36-.64,.72-.92,1.11-.19,.3-.38,.6-.57,.89-.28,.36-.59,.81-.8,1.2-.06,.13-.13,.25-.19,.38-.19,.31-.37,.62-.56,.92-.16,.32-.27,.67-.43,.99-.07,.13-.15,.25-.22,.37-.16,.29-.29,.58-.46,.87-.08,.19-.15,.37-.23,.56-.09,.19-.19,.38-.28,.58-.07,.22-.15,.44-.22,.66-.09,.24-.18,.48-.27,.71-.46,1.48-.84,2.97-1.16,4.54-.03,.3-.05,.59-.08,.89-.04,.34-.16,.71-.19,1.06-.02,.26-.01,.57-.09,.81-.02,.21-.04,.41-.06,.62-.05,1.27-.01,2.48,.02,3.71,.02,.59,.13,1.18,.19,1.76,.01,.25,.02,.5,.04,.76,.08,.79,.21,1.59,.34,2.38,.06,.2,.11,.4,.17,.6,.13,.62,.27,1.22,.45,1.82,.05,.14,.11,.27,.16,.41,.03,.14,.07,.28,.1,.43,.23,.66,.47,1.32,.7,1.98,.12,.25,.23,.5,.35,.74,.07,.17,.1,.35,.17,.51,.18,.42,.44,.8,.65,1.21,.17,.33,.37,.64,.54,.98,.05,.12,.1,.24,.15,.36,.06,.07,.12,.14,.17,.22,.06,.14,.13,.28,.19,.41,.16,.28,.35,.54,.55,.8,.12,.15,.22,.32,.34,.48,.16,.21,.34,.39,.5,.6,.12,.17,.23,.35,.35,.52,.22,.26,.44,.53,.67,.79,.18,.23,.37,.46,.55,.69,.23,.24,.46,.48,.69,.72,.19,.22,.35,.48,.57,.67,.31,.28,.61,.57,.9,.86,.15,.16,.31,.31,.46,.46,.25,.22,.54,.37,.78,.6,.23,.22,.46,.45,.7,.68,.17,.13,.34,.26,.51,.39,.21,.18,.39,.39,.61,.54,.27,.19,.53,.4,.81,.57,.19,.11,.39,.17,.57,.28,.21,.15,.42,.3,.63,.45,.21,.13,.44,.24,.66,.37,.8,.49,1.6,.91,2.44,1.31,.37,.18,.72,.4,1.11,.54,.36,.14,.72,.28,1.09,.42,.13,.04,.27,.07,.4,.11,.36,.14,.71,.27,1.06,.41,.1,.03,.19,.06,.29,.08,.31,.12,.61,.26,.93,.35,.39,.08,.77,.15,1.16,.22,.57,.12,1.17,.3,1.76,.39,.22,.02,.43,.03,.65,.05,.28,.04,.57,.11,.87,.13,.23,.01,.45,.03,.67,.04,.15,.02,.29,.04,.44,.07,.15,0,.31,0,.46,.01,.35,.05,.7,.11,1.06,.16,.18,0,.36,.01,.54,.02,.11-.01,.22-.03,.33-.04,.32,0,.7,.04,1.03,.05,.21,0,.4,0,.6,0,.4,.02,.79-.06,1.17-.11,.17,0,.34-.01,.51-.02,.23-.03,.48-.07,.7-.09,.84-.08,1.65-.17,2.46-.33,.27-.07,.55-.14,.82-.21,.34-.07,.68-.14,1.02-.21,.18-.05,.34-.14,.5-.21,.28-.08,.56-.17,.83-.25,.12-.04,.24-.08,.36-.13,.2-.06,.38-.08,.58-.14,.41-.14,.82-.28,1.23-.43,.24-.12,.49-.23,.73-.35,.24-.09,.47-.2,.7-.3,.07-.04,.13-.08,.2-.12,.25-.11,.5-.23,.74-.36,.28-.16,.56-.32,.84-.48,.14-.07,.3-.11,.44-.19Zm7.36-7.9c-.27,0-.75,.07-.92-.11-.05,0,0-.08,.01-.11,.04-.17-.04-.45,.12-.57,.07-.03,.13-.05,.2-.08,.19,0,1.08,.02,1.14,.14,.1,.19-.42,.62-.55,.73Zm.97-1.26c-.12,.01-.25,.03-.37,.05-.5,0-.95-.03-1.46-.03,0-.27-.07-.57,.03-.81,.4,0,.79,0,1.19,0,.17,.02,.34,.03,.52,.05,.24,0,.49,0,.73,0,0,.21-.43,.67-.64,.73Zm1.37-1.76c-.05,0-.07,.07-.08,.11-.06,.14-.29,.47-.43,.53-.09,.02-.17,.04-.25,.06-.19,0-.6-.13-.73-.09-.25,0-.58-.1-.81,0-.17,0-.76,0-.83-.13-.04-.07-.03-.19-.03-.28,0-.1-.01-.25,.03-.33,0-.06,.12-.06,.16-.08,.8,0,1.55,.02,2.3,.07,.23,.02,.45,.04,.68,.06v.08Zm.87-1.29s-.42,.77-.69,.81c-.36,.05-.88-.05-1.24-.06-.47-.02-.93-.04-1.38-.06-.21-.01-.49,.06-.66-.06-.11-.08-.07-.39-.06-.52,.02-.28,.12-.21,.32-.3,.16,.01,.32,.02,.49,.03,.15,0,.3-.01,.46-.02,.36,.01,.71,.06,1.08,.05,.36,0,.78,0,1.14,0,.18,0,.38,0,.51,.09,.04,0,.03,0,.03,.03Zm.14-.53c-.19,.03-.45-.03-.62,.04-.31,0-1-.11-1.25,.02-.52,0-1.05,0-1.54-.04-.25-.03-.5-.07-.76-.1,0-.05-.02-.09-.03-.14,0-.16-.01-.32-.02-.49h.03s.34-.07,.4-.08c.21-.01,.37,.02,.57,.02,.19-.02,.38-.04,.57-.06,.31,.02,.61,.04,.92,.06,.24,0,.48-.03,.7-.04,.31-.02,.66,.05,.95-.03,.21,0,.38,.05,.6,.06,0,.23-.27,.75-.52,.79Zm.85-1.38c-.06,.08-.13,.12-.2,.18-.19,0-.38,0-.57,0-.21,0-.66-.11-.84-.02-.19,0-.59-.05-.73,.02-.18,0-.45-.04-.6,.02-.18,0-.43-.07-.6,0-.49,0-1.03-.02-1.51,.02v-.03s-.03-.02-.03-.05c0-.23,0-.47,0-.7,.19,0,.33-.08,.51-.1,.3-.03,.6,0,.89-.01,.13-.01,.25-.03,.38-.04,.61,0,1.25,0,1.84,0,.28,0,.59,0,.86,0,.16,0,.34,.01,.49-.03,.1,0,.23,0,.29,.08,.07,.1-.15,.58-.21,.67Zm.63-1.41c-.06,.14-.12,.32-.31,.33-.07,0-.15-.01-.22,.01-.16-.02-.32-.03-.49-.05-.31-.02-.68-.01-.98,0-.12,0-.25,0-.35,.03-.23,0-.66-.07-.84,.02-.05,.01-.11,.02-.16,.03-.18,0-.36,0-.54,0-.12,0-.27-.05-.38,0-.46,0-.92,0-1.38,0v-.03s-.04-.25-.04-.3c-.01-.13-.01-.36,.06-.45,.08-.1,.91-.07,1.1-.14,.14,.02,.26,0,.4,0,.31,.01,.66,.05,.97,.04,.2-.01,.4-.02,.6-.03,.2,0,.35,.05,.54,.05,.32,0,.64,0,.97-.01,.25,0,.86-.1,1.08,.01,.01,.01,.03,.02,.04,.03,.06,.07-.05,.37-.08,.45Zm.4-1.04c-.09,.03-.18,.06-.27,.09-.29,0-.57,.03-.84,.04-.12,0-.27-.04-.38,0-.11,0-.26-.02-.35,.03-.06,0-.11,.02-.16,.02-.27,0-.56-.02-.84-.03-.15,0-.33-.05-.46,0-.08,0-.17,.02-.25,.03-.26,0-.52,0-.78-.01-.2-.01-.5-.12-.7-.02-.1,0-.22-.01-.3,.02-.14,0-.64,.03-.71-.05-.05-.07-.05-.19-.05-.28,0-.16,0-.31-.05-.43v-.03c.21,0,.41-.08,.62-.08,.68,0,1.35,0,2.03,0,.16-.01,.33-.03,.49-.05,.34,0,.7-.02,1.03-.02,.16,0,.34,.02,.49-.03,.28,0,.55,.04,.81,.05,.11-.01,.22-.02,.33-.03,.22-.01,.43,.02,.62,.05,0,.15-.16,.64-.28,.72Zm.6-1.53c-.04,.12-.1,.25-.18,.35-.13,0-.29-.02-.41,.02-.11,0-.26-.02-.35,.03-.06,.01-.11,.02-.16,.03-.2,0-.68-.06-.81,0-.12,.01-.24,.02-.35,.03-.36-.03-.73-.04-1.11-.04-.13,0-.32-.03-.43,.02-.19,0-.44-.05-.6,.02-.27,0-2.23-.03-2.3-.12-.1-.12-.05-.63-.05-.82h1.22c.35,.03,.71,.09,1.08,.09,.6,0,1.22,0,1.81-.02,.17-.01,.34-.03,.52-.04,.12,.01,.23,.02,.35,.03,.11-.01,.22-.02,.32-.03,.26,0,1.35-.02,1.47,.13,.06,.07,0,.23-.02,.31Zm.42-1.3c-.04,.18-.12,.38-.24,.52-.53,0-1.12-.06-1.63,0-.09,.01-.18,.02-.27,.03-.24,0-1-.09-1.16,0-.25,0-.5,0-.76,0-.17,0-.41-.07-.57,0-.21,0-.49-.08-.68,0-.62,0-1.23-.09-1.87-.09,0-.19-.04-.62,.03-.76,0-.07,.26-.06,.32-.08,.1,.04,.23,.03,.35,.03,.33,.01,.69,.04,1.03,.03,.3,0,.62,.03,.91,.03,.27-.01,.54-.02,.81-.04,.47,.02,.97,.1,1.46,.08,.31-.03,.62-.06,.92-.09,.22-.02,1.2-.05,1.32,.07,.06,.07,.03,.21,0,.28Zm.23-.92c-.03,.09-.06,.19-.09,.28-.24,0-.48,0-.73,0-.21,0-.42,0-.62-.01-.27-.01-.54-.02-.81-.03-.21,0-.42,0-.62,.01-.2,0-.52-.08-.71,0-.11,0-.26-.02-.35,.03-.31,0-.59-.04-.87-.06-.86-.05-1.69-.07-2.57-.07,0,0,0-.02,0-.03-.06,0-.03-.61-.03-.73,.31,0,.6-.02,.89-.02,.17,0,.34,.02,.52,.03,.53,0,1.09,0,1.62,0,.44,0,1.05,.11,1.44-.03,.27,.01,.54,.02,.81,.03,.13,0,.27-.01,.4-.02,.13,.01,.25,.03,.38,.04,.46,0,.92,0,1.38,.04,0,.18,0,.37-.05,.54Zm.16-1.02s-.08,.03-.11,.05c-.23,0-.98-.06-1.14,.02-.17,0-.52-.04-.65,.02-.26,0-.52,0-.79,0-.13,0-.28-.05-.4,0-.14,0-.32-.01-.43,.05-.16-.02-.32-.04-.49-.06-.28,0-.56,0-.84,0-.13,0-.32-.05-.43,0-.15-.02-.31-.03-.46-.05-.45,0-.9,0-1.35-.01-.15,0-.29-.02-.43-.03,0-.24-.03-.54,.03-.76,.07,0,.14-.01,.22-.02,.39,0,.78,0,1.16,0,.18,0,.36,.01,.54,.02,.13,0,.23,.05,.38,.05,.19,0,.36-.05,.57-.05,.35,0,1,.06,1.27-.05,.13,.01,.25,.03,.38,.04,.25,0,.49-.04,.76-.03,.46,0,.92,.02,1.38,.03,.23,0,.69-.01,.87,.06,.14,0-.02,.65-.03,.73Zm.22-1.27c-.07,.07-.16,.06-.24,.11-.08,.01-.16,.02-.25,.03-.49,0-.99,0-1.49-.01-.23,0-.55-.1-.76,0-.18,0-.56-.05-.7,.02-.57,0-1.16-.04-1.76-.04-.16,0-.32,0-.49,0-.12,0-.3-.05-.4,0-.57,0-1.07-.06-1.65-.06v-.03h-.03c0-.12,0-.61,.06-.68,.09-.09,.59-.05,.76-.05,.55,0,1.1,0,1.65,0,.34,.01,.86,.02,1.14-.1,.4,0,.76,.05,1.14,.07,.32,.02,.68,0,1,0,.34,0,.69,.02,1.03,.02,.3,0,.73-.1,1,.04,.16,0,.05,.59-.01,.67Zm.08-1.15c-.09,.03-.17,.05-.26,.07-.17,0-.6-.09-.73-.03-.11,0-.24-.01-.33,.03-.07,0-.14,.01-.22,.02-.76,0-1.5-.06-2.27-.07-.23,0-.54-.05-.73,.02-.19,0-.62-.05-.76,.02-.62,0-1.24-.02-1.87-.03-.21-.01-.42-.04-.65-.04,0-.07,.01-.15,.02-.22,0-.18-.04-.39,.06-.54,0-.05,.16-.03,.21-.03,.48,0,.94,0,1.44,0,.17,0,.39,.03,.54-.02,.79,0,1.57,.06,2.36,.07,.32-.01,.63-.03,.95-.04,.65,.01,1.3,.03,1.95,.04,.13,0,.24,.04,.38,.05,0,.16,0,.6-.1,.69Zm.16-1.2s-.23,.03-.27,.05c-.06,0-.13,.02-.19,.03-.42,0-.83,0-1.25,0-.13,0-.33-.03-.44,.02-.4,0-.81,0-1.22,0-.11,0-.22-.02-.32-.03-.11,.01-.22,.02-.33,.03-.13-.01-.25-.02-.38-.04-.26,0-.52,0-.78-.01-.15,0-.34-.06-.49,0-.68,0-1.35,0-2.03-.01h-.27c0-.23,.04-.62-.02-.81v-.03h.03s.09-.03,.13-.03c.23,0,.44-.02,.65-.02,.22,.01,.43,.02,.65,.03,.39,0,.75-.03,1.11-.04,.16,.01,.32,.02,.49,.03,.27,0,.54,0,.81,0,.09,.01,.18,.02,.27,.04,.16,0,.33-.01,.49-.01,.12,0,.23,0,.35,.01,.1-.02,.2-.03,.3-.05,.21,0,.46,.03,.65-.03,.27,0,.53,.03,.78,.03,.23,0,1.16-.06,1.29,.05,.11,.1,.03,.67-.02,.8Zm.11-1.27c-.13,0-.26,.05-.41,.05-.24,0-.67-.09-.86,0-.16,0-.41-.04-.54,.03-.17,0-.55-.04-.68,.02-.46,0-.88-.03-1.35-.03-.11,0-.26-.02-.35,.03-.51,0-1.03,0-1.54-.01-.17,0-.53-.09-.68-.03-.23,0-.47,0-.71,0-.15,0-.34-.06-.49,0-.11,0-.25,0-.34-.03-.17-.07-.14-.62-.14-.81h.03v-.03c.09,.01,.18,.02,.27,.03,.26,0,.52-.02,.76-.01,.15,0,.3,.01,.46,.02,.28-.02,.56-.03,.84-.05,.94,0,1.89,.01,2.87,.02,.44,0,.86,0,1.3,0,.25,0,.52,.03,.73-.05h.49c.11,.02,.22,.05,.33,.03,0,.01,0,.02,0,.03,.09,0,.05,.71,.02,.81Zm.06-1.71c0,.13,.01,.29-.03,.4,0,.06-.15,.05-.19,.08-.13,0-.29-.02-.4,.02-.19,0-.47-.05-.62,.02-.82,0-1.64,0-2.46-.01-.19,0-.56-.09-.73,0-.21,0-.69-.05-.84,.02-.17,0-.41-.09-.57-.03-.3,.01-.6,.02-.89,.03-.46,0-.92-.01-1.38-.02v-.03s-.03-.01-.03-.05c0-.21,0-.42,0-.62h.03s.11-.03,.16-.03c.54-.03,1.07-.06,1.6-.09,.39,0,.77,0,1.16,0,.17,0,.32,.05,.49,.05,.14-.01,.27-.03,.41-.04,.62-.02,1.22-.02,1.84-.02,.43,0,.89,0,1.3-.02,.15,0,.3,.01,.44-.03,.15,0,.64-.03,.7,.08,.03,.07,.03,.19,.03,.28Zm-.11-.77c-.08,.02-.16,.04-.24,.06-.19,0-.44-.03-.6,.05-.3,0-.63-.04-.95-.03-.1,0-.22,0-.3,.03-.13,0-.29-.02-.41,.02-.28,0-.74-.1-.97,0-.28,0-.64-.1-.89,.02h-.73c-.18-.02-.59-.1-.76-.04-.18,0-.57-.04-.7,.02-.14,0-.27,0-.41,0-.19,0-.87,.04-.95-.08-.07-.09-.04-.24-.05-.36,0-.13-.11-.39,.05-.46,.21-.09,.81-.05,1.07-.03,.19,0,.38-.01,.57-.02,.43,0,.83,.01,1.24,0,.21,0,.49,.04,.68-.02,.44,0,.85,.04,1.3,.03,.72,0,1.52-.04,2.27-.01,.26,.02,.52,.04,.78,.06,0,.19,.15,.63,0,.75Zm-.09-1.22c-.15,.15-.86-.01-1.06,.06-.09,0-.2,0-.27,.03-.3,0-.61,0-.92-.01-.19-.01-.47-.07-.65,0-.22,0-.82-.08-.97,0-.23,0-.52-.09-.73,0-.5,0-.96,0-1.46-.01-.11,0-.28-.04-.38,0-.18,0-.36,0-.54,0-.13,0-.33-.03-.43,.02-.13,0-.27,0-.4,0v-.03s-.03-.27-.03-.33c-.01-.08-.02-.16-.03-.24,0-.31,.33-.23,.53-.32,.31,0,.56,.08,.87,.09,.26,0,.52,0,.78,0,.3-.02,.6-.04,.89-.06,1.09,.02,2.24,.03,3.36,.04,.24,0,1.32-.05,1.42,.08,.06,.07,.04,.24,.05,.34,0,.08,.06,.3,0,.37Zm-.03-1.18s-.01,0-.03,0c0,.05-.09,.03-.14,.03-.2,0-.4,0-.59,0-.2-.01-.5-.09-.68,0-.18,0-.45-.04-.6,.02-.1,0-.21-.01-.3,.03-.37,0-.71-.05-1.05-.06-.4,0-.79,0-1.19,0-.1,.01-.2,.03-.3,.04-.15,0-.32-.04-.46,0-.28,0-.56,0-.84,0-.13,0-.29-.05-.41,0-.25,0-1.04,0-1.18-.1-.07-.05-.06-.14-.06-.23,0-.15-.08-.4,.09-.46,.15-.05,.36-.02,.53-.02,.18,0,.36-.01,.54-.02,.2,0,.38,.02,.57,.02,.16,0,.32,0,.49-.02,.62,0,1.24,0,1.84,0,.12,0,.25-.01,.38-.02,.5,.01,1.07,.05,1.57,.01,.17-.02,.35,.01,.52-.03,.2,0,1.03,0,1.13,.1,.11,.09,.16,.55,.16,.72Zm-.21-1.19h-.03s-.15,.03-.19,.05c-.43,0-.87,0-1.3-.01-.12,0-.29-.06-.41-.03-.16,0-.32,0-.49,.01-.23,0-.72-.07-.92,0-.16,0-.42-.03-.57,.02-.75,0-1.5,0-2.25-.01-.17,0-.39-.05-.54,0-.19,0-.85,0-.93-.12-.05-.07-.04-.18-.04-.27,0-.15-.03-.36,.14-.39,.12,0,.24-.02,.35-.02,.47-.05,.96-.04,1.46-.04,.69,0,1.36-.02,2.03-.01,.4,0,.91,.11,1.27-.02,.35,0,2.2-.01,2.32,.15,.12,.16,.09,.47,.08,.68Zm-.26-1.25s-.08,.03-.11,.05c-.15,0-.36-.03-.49,.02-.18,0-.45-.04-.6,.03-.7,0-1.39,0-2.08-.01-.26,0-.52,0-.79,0-.2-.01-.86-.06-1,.01-.51,0-1.01,0-1.52-.01-.14,0-.35-.03-.46,.03-.1,0-.22,0-.3-.03-.04,0-.04-.02-.04-.06-.02-.12-.04-.64,.04-.7,.05-.05,.14-.06,.22-.07,.2-.02,.4,.01,.6,.02,.37,0,.74,0,1.11,0,.27-.01,.54-.03,.81-.04,.21,0,.44,.02,.65,.02,.29,0,.58-.01,.87-.01,.26,0,.56,.03,.84,.03,.21,0,.42-.02,.62-.02,.25,0,.59,.05,.81-.02,.2,0,.45,0,.6,.09,.13,.07,.2,.52,.21,.67Zm-.32-1.19h-.03s-.22,.03-.27,.03v.03s-.07,.02-.11,.03c-.11,0-.24-.01-.32,.03-.41,0-.8-.03-1.22-.03-.14,0-.32-.03-.44,.03-.1,0-.22-.01-.3,.03-.36,0-.72,0-1.08-.01-.19-.01-.41-.1-.6,0-.18,0-.57-.05-.7,.02-.31,0-.64-.03-.97-.03-.28,0-.81,.03-1.03-.06-.08,0-.05-.61-.05-.73h.03s-.01-.03,.03-.03c.19-.01,.38-.03,.57-.05,.32,0,.63,0,.95,0,.59,0,1.22,0,1.79-.02,.11,0,.22,0,.32,.01,.09,0,.18-.02,.27-.03,.3,0,.61,0,.92,0,.14,0,.29,.02,.43,.03,.18,0,.36-.01,.54-.02,.21,0,.41,.04,.6-.03,.12,0,.3,0,.4,.07,.18,.11,.23,.55,.28,.75Zm-.56-1.9c.1,.09,.3,.63,.12,.7-.18,.07-.46,.03-.67,.03-.56,0-1.12,0-1.68,0-.17,0-.44-.04-.57,.02-.13,0-.33-.03-.44,.02-.21,0-.83-.05-.97,.02-.16,0-.38-.03-.51,.03-.19,0-.46-.05-.62,.02-.42,0-.78-.08-1.19-.09,0-.13-.02-.67,.06-.72,.17-.11,.98-.06,1.25-.05,.42,0,.82-.02,1.22-.02,.26,0,.54,.04,.78,.02,.21,0,.42-.02,.62-.03,.18,.02,.36,.03,.54,.05,.42,0,.86,0,1.25-.06,.09-.01,.18-.02,.27-.03,.18,0,.41,0,.54,.11Zm-.3-.7c.09,.25,.06,.19-.13,.29-.42,0-.85,0-1.27,0-.18,0-.46-.08-.62,0-.24,0-.49,0-.73,0-.11,0-.26-.04-.35,0-.15,0-.39-.04-.51,.03-.21,0-.42,0-.62,0-.1,0-.24-.04-.32,0-.26,0-.69-.1-.92,0-.23,0-.49,.02-.68-.06-.05,0-.04-.02-.04-.06,0-.11-.01-.22-.01-.32,0-.18-.04-.34,.17-.37,.19,0,.38,0,.56,0,.16,0,.31-.01,.46-.02,.16,0,.33,.02,.49,.03,.65,0,1.25-.04,1.92-.04,.42,0,1.02,.07,1.38-.05,.26,.05,.9-.1,1.05,.12,.1,.14,.12,.33,.18,.49Zm-.72-1.75c.06,.05,.35,.71,.26,.78-.18,.14-.69-.05-.91,.04-.12,0-.29-.02-.38,.02-.07,0-.15,.02-.22,.03-.16,0-.31,0-.46,0-.2-.02-.62-.15-.81-.05-.1,0-.22,0-.3,.05-.34,0-.68,0-1.03,0-.13,0-.32-.03-.43,.03-.17,0-.41-.08-.57,0-.16,0-.51,.01-.61-.07-.08-.07-.06-.65-.06-.8h.03s.49-.05,.57-.08h1.03c.27,.02,.52,.06,.81,.06,.25,0,.46-.04,.7-.05,.48-.01,1,.03,1.46,.03,.16,0,.32-.01,.49-.02,.13,0,.33-.03,.42,.04Zm-.57-1.24c.14,.08,.29,.54,.33,.71,.13,0-.22,.11-.22,.11-.18,0-.59-.05-.73,.02-.19,0-.56-.08-.71,0-.32,0-.64-.05-.95-.02-.07,0-.14,.01-.21,.01-.22,0-.82-.08-.97,0-.25,0-1.4,.05-1.49-.09-.03,0,0-.29,0-.35,0-.09,0-.23,.06-.29,.14-.14,.67-.13,.89-.14,.04,0,.08-.01,.11-.02,.36,.06,.77,.03,1.17,.03,.74,0,1.46,0,2.19,.03,.18,0,.36-.08,.52,.01Zm-.31-.73c.05,.12,.08,.19-.02,.29-.1,0-.24-.01-.32,.03-.18,0-.47-.05-.63,.02-.1,0-.21-.01-.3,.03-.21,0-.59-.1-.76-.03-.29,0-.58,0-.87,0-.09,0-.2,0-.27,.03-.23,0-.45,0-.68,0-.11,0-.25-.04-.35,0-.14,0-.26,0-.38-.06-.05,0-.03-.02-.03-.05,0-.15-.07-.65,.06-.72,.1-.06,.31-.03,.44-.03,.26,0,.52,0,.78,0,.15,0,.33,.02,.46-.02,.63,0,1.25,.03,1.89,.04,.18,0,.57-.03,.7,.04,.15,.09,.2,.3,.27,.46Zm-.91-1.65c.11,.07,.13,.19,.19,.29,.05,.07,.09,.13,.14,.2,.04,.08,.09,.17,.13,.25v.03c-.07,.02-.15,.04-.22,.05-.27,0-.8-.15-1.03-.06-.06,0-.13,.02-.19,.03-.16-.01-.32-.02-.48-.03-.46,0-.89,0-1.35-.01-.16,0-.36-.03-.49,.03-.11,0-.27,.01-.34-.07-.09-.1-.04-.64-.04-.8,.87,0,1.76,.06,2.62,.07,.22,0,.88-.09,1.05,.02Zm-.84-1.24c.15,.08,.43,.62,.5,.78-.04,0-.08,.03-.11,.06-.16,0-.69-.05-.79,0-.17,0-.34,0-.52,0-.22-.02-.54-.13-.76-.03-.06,0-.13,.02-.19,.03-.33,0-.64-.06-.97-.09,0-.22-.12-.67,.09-.81v-.03c.61,0,1.21,0,1.81,.01,.3,0,.69-.05,.93,.09Zm-1.09-1.26c.09,0,.22-.03,.29,.02,.13,.08,.22,.26,.29,.39,.05,.09,.16,.2,.14,.33-.01,.06-.08,.07-.13,.07-.45,0-.9-.01-1.35-.02-.12,0-.28-.02-.38,.03-.12,0-.46-.01-.54-.07-.1-.08-.06-.62-.06-.77,.57,0,1.18-.01,1.73,.03Zm-.24-.43v.03c-.05,.01-.11,.02-.16,.03-.16,0-1.24-.03-1.29-.08-.08-.07-.06-.25-.06-.36,0-.17,0-.33,.06-.46,.27,0,.59-.03,.83,.05,.2,.07,.57,.6,.62,.79Zm-1.53-2.04c.1,.08,.63,.56,.56,.67-.04,.08-.2,.07-.27,.11-.07,0-.19,0-.24-.04-.1-.08-.06-.6-.05-.74Zm-.74,41.32c.09-.12,.17-.24,.25-.36,.13-.24,.22-.53,.29-.8,.22,0,.43,0,.65,0v.03h.03c0,.25-1,1.05-1.22,1.18,0-.02,0-.04,0-.05ZM17.62,19.85s.46-.55,.52-.62c.1,.09,.13,.54,.04,.65-.09,.1-.42,.09-.53,.03h-.03v-.05Zm-.98,1.21c0-.19,.27-.29,.36-.42,.09-.14,.18-.26,.29-.39,.22,0,.76,0,.92,.09,.04,0,.03,.02,.03,.05,0,.23,0,.47,0,.7h-.03s.01,.03-.02,.03c-.22,0-.51-.08-.71,0-.06,0-.13,.02-.19,.02-.22,0-.47,.02-.65-.06h-.03s0-.03,.03-.03Zm-.82,.83c.07-.1,.15-.26,.26-.33,.08-.05,.21-.02,.31-.02,.3,0,.65-.02,.97-.02,.17,0,.37,.03,.51-.02,.11,0,.22,0,.33,0,.01,.07,.03,.14,.04,.21,0,.19,0,.38,0,.57h-.02s-.23,.03-.27,.05c-.29,0-.58-.02-.86-.03-.11,0-.24,0-.33,.03-.23,0-.63-.05-.81,.02-.11,0-.22-.02-.33-.03,0-.16,.11-.31,.19-.44Zm-.94,1.47c.08-.15,.26-.49,.42-.57,.11-.07,.26-.05,.39-.11,.22,0,.43,0,.65,0,.32,.01,.66,.04,.98,.05,.15-.01,.29-.02,.43-.03,.16,0,.33,.04,.52,.05,0,.17,.03,.61-.05,.73-.05,.03-.1,.06-.15,.09-.17,0-.38-.03-.51,.05-.14,0-.27-.01-.41-.01-.18-.03-.44-.09-.62-.02-.05,0-.11,.02-.16,.03-.07,0-.14,.02-.22,.02-.15,0-.29-.02-.43-.03-.27,0-.62,.04-.87-.03-.09,0,.02-.18,.04-.21Zm-.43,.64c.18-.08,.62-.03,.85-.02,.41,0,.83-.02,1.22-.02,.23,0,.49,.03,.73,.02,.12-.01,.24-.03,.35-.04,.16,0,.34,.01,.49-.03h.14v.03s.03-.01,.03,.03c0,.12-.02,.76-.09,.8-.08,.05-.22,.04-.32,.04-.18,0-.36,0-.54,0-.2-.01-.66-.09-.84,0-.23,0-.5-.09-.7,0-.27,0-.76-.12-.97,0-.11,0-.29-.02-.38,.03-.14-.01-.27-.02-.4-.03,0-.13,.34-.73,.45-.78Zm-1,1.83c0-.14,.19-.52,.29-.61,.05-.05,.12-.07,.18-.09,.46,0,.89,.04,1.33,.03,.54,0,1.13-.02,1.71-.02,.31,0,.97-.04,1.21,.08,.11,.05,.11,.24,.11,.36,0,.11,0,.38-.11,.41-.07,0-.14,.02-.21,.03-.21,0-.48-.08-.68,0-.4,0-.81-.02-1.22-.04-.17,0-.57-.07-.7,0-.08,0-.17,.02-.25,.03-.34,0-.67-.04-1-.06-.2-.01-.45,.01-.62-.06-.04,0-.03-.01-.03-.05Zm-.27,.48c.2,0,.38,.05,.57,.05,.49-.03,1-.04,1.52-.04,.13,0,.25,.01,.37,.02,.55-.01,1.15-.03,1.71,0,.3,.01,.59,.1,.89,.11,0,.16,.03,.57-.04,.67-.1,.14-1.17,.09-1.4,.07-.19-.01-.47-.08-.65,0-.21,0-.43,0-.65,0-.13,0-.29-.05-.41,0-.51,0-1.06,0-1.6-.01-.21,0-.4-.05-.62-.06,0-.3,.16-.58,.3-.81Zm-.7,1.59c.04-.09,.03-.19,.09-.27,.04-.06,.11-.07,.16-.1,.35,0,.67,.03,1.03,.03,.19,0,.38-.01,.57-.02,.47,0,.99,.05,1.46,.05,.3,0,.6-.03,.89-.04,.5-.01,1.01,.01,1.49,.06,.01,.07,.03,.14,.05,.22,.02,.21,0,.43-.02,.62-.12,0-.25-.01-.35,.03-.46,0-.92,0-1.38,0-.36-.01-.72-.03-1.08-.04-.22-.02-.66-.08-.87,0-.11,0-.24,0-.33,.05-.25-.03-.5-.05-.76-.08-.38,0-.75,0-1.13-.01v-.03h-.03c0-.17,.15-.32,.21-.46Zm-.65,1.63c.02-.21,.15-.62,.3-.76v-.03c.51,0,.99,.06,1.49,.05,.44,0,.94-.02,1.41-.01,.14,.02,.29,.03,.43,.05,.19,.01,.39-.01,.57-.02,.15,0,.29,.02,.43,.02,.38,0,.78,0,1.16,0,.16,0,.38-.03,.5,.05,.08,.05,.06,.56,.07,.69h-.03s-.13,.03-.16,.05c-.13,0-.3-.03-.41,.03-.26,0-.67-.11-.89,0-.14,0-.34-.05-.46,0-.1,0-.22-.01-.3,.03-.37-.03-.74-.05-1.11-.08-.15,0-.28,.05-.43,.04-.2-.01-.41-.02-.62-.03-.1,0-.21-.03-.3,0-.12,0-.26-.02-.35,.02-.33,0-1.02,.05-1.27-.06-.04,0-.03-.01-.03-.05Zm-.27,.51c.07-.07,.2-.08,.29-.11,.34,0,.66,.07,.97,.08,.34,0,.68,0,1.03,0,.12-.01,.23-.02,.35-.04,.2,0,.38,.05,.6,.05,.23,0,.47-.01,.7-.02,.3,0,.63,.05,.95,.04,.56-.02,1.19-.02,1.73,.03,0,.14,.07,.59,0,.68-.05,.03-.11,.05-.16,.08-.28,0-.59-.03-.81,.08-.18,0-.33-.05-.49-.05-.18,0-.36,0-.54,0-.09,0-.18,.01-.27,.02-.21-.01-.42-.03-.62-.04-.09-.01-.18-.03-.27-.05-.63-.02-1.24-.04-1.89-.04-.23,0-.63-.05-.81,.02-.19,0-.78,0-.9-.07-.11-.07,.07-.59,.15-.66Zm-.29,1.16c.06-.05,.17-.05,.25-.08,.13,.02,.26,.03,.38,.05,.15,0,.31-.01,.46-.02,.19,.01,.38,.02,.57,.03,.23-.01,.45-.03,.68-.05,.5,0,1.03,.07,1.54,.08,.59,0,1.21,0,1.81,0,.22,0,1.15,0,1.25,.11,.06,.07,.04,.23,.04,.33,0,.18,0,.3-.11,.41-.21,0-.43,0-.65,.01-.13,0-.31-.05-.43,0-.52,0-1.05,0-1.57-.01-.2,0-.46-.1-.65,0-.64,0-1.26-.02-1.86-.05-.17-.01-.6-.05-.73,.01-.05,0-.11,.02-.16,.03-.38,0-.72-.09-1.08-.12,0-.17,.14-.63,.27-.73Zm-.44,1.29c.06-.04,.11-.08,.17-.12,.61,0,1.22,.04,1.81,.06,.23,0,.47,0,.7,0,.14-.01,.28-.05,.43-.04,.81,.01,1.6,.06,2.44,.07,.25,0,.5,0,.76,0,.27,0,.73-.08,.97,.05,.13,.07,.09,.59,.06,.74-.1,0-.27-.02-.35,.02-.17,0-.34-.02-.51-.03-.47-.02-.92-.01-1.41-.01-.15,0-.36-.06-.49,0-1.01,0-1.98-.04-3-.04-.42,0-.87,0-1.27-.03-.17-.01-.32,0-.46-.06,0-.14,.08-.51,.16-.6Zm-.46,1.79c0-.17,.02-.59,.17-.65,.19-.07,.47-.05,.7-.05,.32,0,.67,0,.97-.02,.1-.01,.2-.02,.3-.03,.78,.08,1.66,.06,2.49,.07,.23,.01,.45,.02,.68,.03,.35,0,.69-.03,1.06-.02,.16,.01,.32,.02,.49,.03,.29,0,.68-.05,.9,.12,.08,.06,.04,.51,.05,.65h-.03c0,.06-.32,0-.38,.03-.4,0-.81,0-1.22,0-.19,0-.44-.04-.6,.02-.13,0-.44-.05-.54,0-.23,0-.52-.09-.73,0-.45-.02-.9-.04-1.35-.06-.12,0-.28-.02-.38,.03-.23,0-.68-.09-.86,0-.56,0-1.12,0-1.68-.01v-.03s-.03-.05-.03-.08Zm-.21,1.08c.1-.53,.08-.6,.67-.62,.13,0,.26,0,.38-.03,.17,.03,.36,.02,.54,.04,.36,.02,.72,.04,1.08,.05,.18,0,.36-.02,.54-.02,1.62,.01,3.22-.03,4.76,.08,0,.25,0,.5-.09,.7,0,.11-.54,0-.65,.05-.78,0-1.55,0-2.33-.01-.29-.01-.9-.14-1.17-.03-.13,0-.31-.06-.43,0-.05,.01-.11,.02-.16,.03-.34,0-.69,0-1.03,0-.37-.03-.76-.07-1.14-.06-.09,0-.21,0-.3,.03-.23,0-.48,.04-.68-.06-.05,0-.02-.1-.01-.13Zm.17,.6c.42-.05,.85,0,1.27,0,.2,0,.4-.01,.6-.02,.48,.01,.98,0,1.49,.01,.3,0,.58,.01,.87,0,.12,0,.24,0,.35-.03,.22,.02,.43,.04,.65,.05,.84,0,1.68,.01,2.52,.02,0,.27,.01,.55,.02,.84h-.03s0,.02,0,.03c-.07,0-.14-.02-.22-.03-.14,0-.29,0-.43-.01-.12-.01-.32-.07-.43-.02-.22,0-.52-.07-.7,.02-.37,0-.71-.04-1.06-.06-.14,0-.27,0-.41,.01-.15,0-.35-.05-.48,0-.18,0-.51-.06-.65,0-.26,0-.52,0-.78,0-.15,0-.34-.03-.46,.02-.31,0-.62,0-.92,0-.13-.01-.32-.07-.44-.03-.3,0-.68,.05-.95-.03-.04,0-.03-.02-.04-.06-.03-.22-.01-.69,.24-.72Zm-.21,1.21c.14,0,.28-.02,.42-.03,.12,0,.24,0,.35-.03,.14,.04,.29,0,.43,0,.34,0,.69,0,1.03,0,.27,0,.53,.03,.78,.03,.36,0,.68-.03,1.03-.02,.6,.01,1.25,.03,1.87,.04,.36,0,1.82-.06,2.01,.09,.14,.11,.09,.59,.09,.79-.12,0-.25,.05-.38,.05-.18,0-.36,0-.54,0-.13,0-.32-.05-.43,0-.38,0-.79-.03-1.19-.04-.13,0-.3-.02-.41,.03-.37,0-.74-.03-1.08-.03-.55,0-1.1,0-1.65,0-.17,0-.64-.09-.76-.03-.19,0-.46-.04-.62,.02-.37,0-.74-.09-1.11-.11,0-.19-.03-.69,.15-.75Zm-.15,1.16c1.11,0,2.23,.05,3.33,.09,.14,0,.27,0,.4-.01,.32,0,.66,.06,.98,.07,.13-.01,.25-.03,.38-.04,.33,0,.65-.01,.98,0,.28,.01,1.95,.04,2.04,.14,.06,.06,.04,.22,.04,.31-.01,.6-.3,.22-.65,.37-.92,0-1.8-.04-2.71-.04-.19,0-.68-.06-.81,0-1.06,0-2.13-.01-3.2-.02-.26-.02-.52-.04-.78-.06-.02-.09-.05-.18-.07-.27-.02-.18,.02-.38,.07-.54Zm.03,1.28c.05-.06,.14-.06,.21-.09,.81,0,1.67,.05,2.44,.06,.21,0,.41-.01,.62-.02,.69,.01,1.4,.03,2.08,.03,.14,0,.27-.02,.41-.03,.11,.01,.22,.03,.32,.04,.47,0,.94,.02,1.41,.02,.15,0,.38-.04,.5,.04,.13,.08,.04,.63,.03,.79h-.03c0,.06-.5-.01-.6,.02-.4,0-.81,0-1.22,0-.16,0-.36-.03-.49,.03-.17,0-.38-.07-.54,0-.6,0-1.17-.05-1.76-.03-.1,0-.21-.03-.3,.01-.54,0-1.04-.03-1.6-.04-.17,0-.38-.08-.54-.03-.08,0-.16,.02-.24,.03-.23,0-.53,.02-.69-.1-.12-.09-.12-.63-.03-.73Zm.01,1.24c.18-.02,.36-.03,.54-.05,.28,0,.86,.06,1.08-.02,.13,0,.26,0,.38,0,.09,.02,.18,.03,.27,.05,.23,0,.45,0,.68,0,.18,0,.34-.05,.54-.05h.51c.13,.02,.26,.06,.41,.06,1.23,.03,2.41,0,3.6,.05v.03s.03,.02,.03,.06c0,.22,.03,.51-.03,.7,0,.04,0,.03-.03,.04-.15,0-.3,0-.46,.01-.25,0-.5,0-.76,0-.13,0-.28-.02-.38,.02-.19,0-.38,0-.57,0-.16-.02-.4-.06-.54,0-.22,0-.52-.05-.7,.02-1.09,0-2.18-.01-3.28-.02-.2,0-.4,0-.6,0-.1-.02-.2-.03-.3-.05-.11,0-.23,0-.31-.06-.13-.1-.14-.62-.09-.79Zm.07,1.35h.03s.09-.03,.13-.03c.12-.01,.24-.04,.38-.04,.35,0,.9,.07,1.19-.05,.16,.05,.5,.01,.68,.01,.25,.02,.51,.03,.76,.05,.16,0,.32,0,.49,0,.09,0,.18-.02,.27-.03,.55,0,1.1,0,1.65,0,.15,.01,.31,.03,.46,.04,.15-.01,.31-.02,.46-.03,.15,.02,.31,.03,.46,.05,.27,.02,.71-.08,.95,.01,.06,0,.05,.09,.05,.13,.01,.16,.08,.4,.02,.56-.05,.13-.88,.01-1.05,.09-.24,0-.7-.05-.89,.02-.2,0-.68-.09-.84-.03-.17-.01-.34-.02-.51-.03-.39,0-.78,0-1.16,0-.18,0-.44-.05-.6,.02-.24,0-.67-.05-.87,.02-.31,0-.59-.05-.89-.06-.06,0-.13,0-.19,0-.12,0-.26-.02-.35,.02-.61,0-.62-.12-.62-.71Zm.14,1.46c-.02-.11-.04-.29,.07-.34,.21-.09,.56-.03,.81-.03,.72,0,1.47,.02,2.17,0,.19-.01,.42,.02,.6-.03,.24,0,.47,.01,.7,.01,.09,.01,.18,.03,.27,.04,.34,0,.67,0,1,.01,.13,0,.25,.01,.38,.02,.4,0,.83-.01,1.25-.01,.18,0,.42-.01,.57,.06,.11,0,.04,.64,0,.73-.13,0-.28-.05-.41,0-.15,0-.37-.04-.49,.02-.32,0-.63,0-.95,0-.15,0-.34-.03-.46,.02-.15,0-.75-.05-.84,0-.16,0-.41-.04-.54,.03-.15,0-.32-.06-.46,0-.47,0-.94-.06-1.43-.06-.14,0-.29,.02-.43,.03-.18,0-.63-.04-.76,.02-.19,0-.84-.04-.93-.15-.06-.08-.09-.25-.11-.34Zm.2,.87h.03s-.01-.03,.03-.03c.52,0,1.07-.02,1.63-.02,.3,0,.68,.06,.95-.02,.41,.03,.88,.06,1.3,.06,.22,0,.43-.01,.65-.02,.26,.02,.52,.05,.79,.07,.14,0,.25-.06,.41-.06,.24,0,.49,0,.73,0,.08,0,.16,.01,.25,.02,.28-.02,.65-.06,.89,.07,.04,0,.03,.02,.03,.06,0,.21,0,.41,0,.62h-.03s-.46,.02-.54,.05c-.34,0-.68,0-1.03,0-.17,0-.38-.03-.51,.05-.11,0-.26-.04-.35,0-.3,0-1.16-.07-1.36,.05-.26,0-.46-.05-.7-.06-.85-.02-1.74,0-2.57-.07-.15-.01-.37,.04-.47-.05-.13-.11-.09-.52-.09-.71Zm.32,1.96c-.09-.07-.1-.23-.12-.34-.02-.09-.08-.26-.04-.35,0-.04,.02-.04,.05-.05,.18-.05,.39-.03,.59-.03,.49-.02,1.03-.01,1.54-.01,.19,0,.43,.03,.6-.02,1.13,.08,2.3,.04,3.49,.05,.23,0,1-.04,1.14,.06,.05,.04,.02,.54,.02,.65-.05,0-.09,.01-.14,.02-.06,0-.13,.02-.19,.03-.22,0-.61-.05-.78,.02-.19,0-.38,0-.57,0-.07,.01-.15,.02-.22,.03-.27,0-.8-.06-1,.05-.16,0-.33,0-.49,0-.27-.02-.77-.13-1.03-.03-.26,0-.69-.1-.92,0-.25,0-.81-.05-1,.02-.23,0-.8,.05-.94-.07Zm.32,1.14c-.15-.11-.2-.56-.22-.75,.16,0,.34,0,.49-.05,.39,.01,.8,.03,1.19,.07,.12,.01,.22,.04,.35,.05,.33,0,.67,0,1,0,.26-.01,.54-.06,.81-.06,.2,.01,.4,.03,.6,.04,.15,0,.31-.01,.46-.02,.33,0,.67,0,1,0,.25,0,1.09-.08,1.24,.04,.08,.06,.08,.24,.08,.34,0,.09,.02,.27-.04,.34-.1,.1-.44,0-.58,.07-.11,0-.24-.01-.32,.03-.15,0-.37-.04-.49,.02-.37,0-.73,0-1.11,0-.19,0-.44-.05-.6,.03-.22,0-.44,0-.65-.01-.23-.01-.66-.09-.87,0-.29,0-.56-.05-.84-.06-.3-.01-1.34,.05-1.51-.07Zm.2,.79c-.02-.06-.08-.17-.05-.23,.06-.14,.74-.09,.9-.15,.24,.01,.47,.02,.7,.03,.46,0,.92,0,1.38,.01,.12,.02,.24,.04,.36,.05,.27,.01,.55-.01,.81-.01,.19,0,.38,.02,.57,.03,.18,0,.32-.04,.49-.05,.35-.01,.71-.03,1.08-.02,.17,0,.36-.01,.52,.03v.05s.02,.03,0,.06c-.02,.12,.01,.64-.07,.69-.08,.01-.16,.03-.24,.04-.33,0-.65,0-.98,0-.16,0-.37-.03-.51,.02-.39,0-.78-.02-1.19-.04-.14,0-.36-.06-.49,0-.28,0-.56,0-.84,0-.21,0-.81-.1-.97-.02-.18-.02-.36-.04-.54-.05-.19-.01-.64,0-.77-.08-.11-.07-.12-.25-.15-.36Zm.63,1.66c-.09-.07-.35-.64-.23-.74,.27-.21,.95,.01,1.3-.11,.38,0,.76,.05,1.13,.06,.27,0,.54,0,.81,.01,.14,.01,.27,.03,.41,.05,.68,.01,1.33-.03,1.98,0,.18,0,.5,0,.64,.08,.1,.07,.08,.58,.02,.68-.09,.15-1.69-.04-1.99,.08-.3,0-.62-.04-.92-.04-.37,0-.74,.01-1.11,.02-.21-.02-.42-.04-.62-.06-.13,0-.25,0-.38,0-.14,0-.33-.05-.46,0-.08,0-.16,.02-.24,.03-.12,0-.25,0-.34-.07Zm.49,1.26c-.03-.07-.06-.13-.09-.2-.06-.11-.19-.38-.1-.51,.05-.03,.09-.06,.14-.09,.33,0,.65,.02,.95,.04h.65c.13,0,.25,.01,.38,.02,.12-.01,.24-.03,.35-.04,.27,0,.54,.02,.81,.03,.44,0,.87-.04,1.33-.02,.39,.01,.76,.07,1.16,.09,0,.15,.03,.67-.05,.74-.03,.01-.06,.02-.09,.03-.35,0-.7,0-1.05,0-.35,0-.7,0-1.05,0-.16-.02-.32-.04-.49-.06h-.92c-.19-.01-.48-.1-.65-.01-.42,0-.85,0-1.27,0Zm.56,1.19c-.15-.09-.28-.53-.32-.7h.03v-.03c.19,0,.37-.02,.57-.02,.17,0,.34,.01,.49-.03,.32,0,.65,0,.97,0,.13,.01,.25,.02,.38,.03,.14,0,.27-.01,.41-.02,.34,0,.69,.04,1.03,.05,.15,0,.31,0,.46-.01,.35,.02,.66,.1,1.03,.11,0,.23-.03,.45-.03,.7h-.02s-.15,.03-.19,.05c-1.03,0-2.06-.02-3.06-.05-.14-.02-.27-.03-.41-.05-.19,0-.38,0-.57-.01-.12,0-.25-.01-.35,.03-.15,0-.29,0-.4-.06Zm.19,.44s.1-.03,.13-.05c.38,.05,.76,.09,1.17,.11,.11,0,.21,0,.32-.01,.1,.01,.2,.03,.3,.05,.21,0,.42,0,.62,0,.25,0,.46-.06,.7-.05,.17,.03,.34,.05,.52,.08,.28,0,.76-.09,.98,.07,.09,.06,.06,.49,.07,.62h-.03c0,.09-.64,.03-.76,.08-.11,0-.24-.01-.32,.02-.4,0-.79,0-1.19,0-.13-.02-.25-.03-.38-.05-.2,0-.4,0-.6,0-.11,0-.26-.01-.35,.03-.12,0-.28-.02-.38,.02-.12,0-.24,0-.34-.05-.21-.13-.4-.62-.47-.84Zm1.53,2.23c-.1,0-.2,0-.27-.06-.07-.09-.14-.18-.21-.27-.15-.22-.32-.4-.35-.67,.25,0,.44,.06,.7,.06,.19,0,.38-.01,.57-.02,.32,0,.67,.03,1,.03,.17-.02,.34-.03,.52-.05,.35,0,.73,.07,1.05-.02,.07,.02,.14,.05,.21,.07,.1,.09,.06,.61,.06,.77,0,.05-.07,.04-.11,.05-.27,0-.54,0-.81,0-.11,0-.27-.02-.35,.03-.18,0-.47-.05-.62,.02-.25,0-.76-.06-.95,.05-.14,0-.32-.02-.43,.02Zm.52,1.09c-.1-.04-.49-.58-.42-.67,.08-.1,.68-.06,.85-.12,.79,0,1.52,0,2.3,.01,0,.21-.03,.46,.02,.65-.02,0-.34,.07-.35,.08-.13,.01-.25,.03-.38,.04-.14-.01-.29-.03-.43-.04-.17,0-.31,.02-.46,.03-.09,0-.19-.01-.27,.02-.11,0-.24,0-.32,.05-.18,0-.38,0-.53-.06Zm.23,.41h.03v-.03c.08,0,.15,.05,.24,.05,.18,0,.35-.02,.52-.04,.23-.02,.49,.01,.7-.06,.28,0,.79-.05,1,.06,.03,0,.03,0,.03,.03,0,.17,.05,.57-.01,.68-.05,.03-.1,.05-.15,.08-.1,0-.21,0-.3,.03-.14,0-.48-.06-.57-.03-.06,.01-.13,.02-.19,.03-.23,0-.46,.04-.67-.02-.17-.05-.57-.61-.62-.77Zm1.62,1.99c-.11-.03-.68-.61-.69-.72-.01-.06,.01-.09,.04-.13,.16,0,.32,.02,.49,.03,.23,0,.91-.08,1.07,.05,.09,.08,.1,.61,.06,.74,0,.05-.07,.04-.11,.05-.25,.02-.63,.05-.86-.02Zm1.13,1.25v-.03c-.18,0-.67-.61-.78-.76v-.03h.03s.17-.04,.22-.05c.12,0,.31,0,.41,.07,.1,.07,.14,.65,.16,.8h-.03Zm38.01,3.97c-.26,0-.73,.05-.95-.03h-.05v-.03c.11-.05,.22-.1,.33-.15,.43-.15,.91-.24,1.3-.5,.25,.16-.53,.63-.63,.7ZM33.41,10.55c.29,0,.51-.13,.76-.18,.43-.08,.84-.16,1.27-.23,.28-.05,.59-.02,.89-.04,.41-.03,.83-.14,1.25-.17,.17-.01,.33-.05,.49-.04,.2,0,.39,0,.57-.06,.4,0,.79,0,1.19,.01,.24,.02,.5,.03,.76,.06,.18,.03,.36,.05,.54,.07,.27,0,.54,0,.81,.01,.13,.02,.25,.03,.38,.05,.18,0,.36,0,.54,.02,.23,.04,.45,.08,.68,.12,.09,0,.18,0,.27,0,.1,.01,.19,.07,.28,.1,.12,.05,.24,.07,.37,.09,.5,.09,1.06,.09,1.56,.19,.02,0,.07,.01,.08,.04-.04,.08-.86,0-1,.03-.12,0-.23,.02-.35,.03-.23,0-.48-.03-.73-.04-.07,0-.2-.03-.27,0-.14,0-.31-.05-.43,0-.12,.01-.23,.03-.35,.05-.3,0-.8-.15-1.08,0-.34,0-.62-.04-.95-.07-.15-.01-.37-.05-.52,0-.15,0-.26,.04-.41,.04-.17,0-.33-.07-.48,0-.1,0-.2,.01-.27,.05-.71,0-1.42-.01-2.14-.01-.13-.02-.27-.03-.41-.05-.32,0-.65,0-.97,0-.2,0-.73-.06-.87,0-.5,0-.95-.03-1.46-.04v-.03Zm-3.93,1.19c.1,0,.33-.17,.44-.21,.11-.03,.22-.07,.32-.11,.09-.05,.18-.1,.28-.15,.33-.13,.7-.22,1.06-.28,.24-.05,.52,0,.75,.01,.32,.01,.62-.02,.92-.02,.17,0,.39,.02,.54-.02,.27,.02,.55,0,.84,0,.37,0,.75,.02,1.14,.04,1.28,.05,2.64,.09,3.95,.07,.21-.01,.41-.03,.62-.05,.31,0,.62,.02,.92,.03,1.51-.02,3.05-.06,4.58,0,.5,0,1.01,0,1.52-.01,.22,0,.43,0,.64,.01,.43,.07,.77,.38,1.19,.47,.24,.05,.82,.12,.97,.28-.04,0-.07,.02-.11,.03-.06,0-.13,.02-.19,.03-.21,0-.42,0-.62-.01-.19-.03-.38-.06-.57-.09h-.57c-.11-.01-.26-.03-.35,.01-.17,0-.52-.04-.65,.02-.13,0-.3-.02-.41,.03-.19,0-.44-.04-.6,.02-.3,0-1.06-.07-1.27,.05-.14,0-.34-.06-.46,0-.18,0-.33-.04-.49-.05-.2,0-.4,0-.6,0-.13,0-.29-.02-.41,.02-.17,0-.37-.03-.51,.03-.17,0-.39-.03-.54,.02-.47,0-.92-.03-1.41-.03-.15,0-.34-.03-.46,.02-.1,0-.21,0-.3,.03-.09,0-.2,0-.27,.03-.44,0-.85-.05-1.27-.06-.47,0-.94,0-1.4,0-.18,0-.57-.06-.71,0-.38,0-.76,0-1.14,0-.14,0-.31-.02-.43,.03-.05,0-.11,.02-.16,.03-.5,0-1.01,0-1.52-.01-.08-.02-.16-.03-.24-.04-.19,0-.38,0-.57-.01-.11,0-.25-.04-.35,0-.72,0-1.41-.04-2.11-.04v-.06Zm-2.15,.86c.08-.05,.16-.11,.24-.16,.67-.44,1.63-.22,2.45-.21,.47,0,.94,0,1.4,0,.15,0,.29,.02,.44,.03,.25,0,.51-.02,.78-.02,1.02,0,1.99,.04,3,.01,.19-.01,.38-.03,.57-.05,.26,0,.52,.01,.78,.02,.09,0,.18,0,.27-.01,.1,.01,.2,.03,.3,.04,.13-.01,.27-.03,.4-.04,.48,.03,.95,.1,1.46,.08,.25,0,.47-.07,.73-.07,.65,0,1.24,.07,1.87,.06,.3,0,.61-.06,.92-.07,.49,0,1,.03,1.52,.03,.26,0,.51-.05,.78-.05,1.12,0,2.24,.01,3.36,.02,.19,0,.35,.05,.54,.05,.25-.02,.51-.05,.76-.07,.31-.02,.85,.06,1.11-.03,.39,.04,.67,.26,1.01,.39,.28,.11,.7,.21,.94,.4,.04,0,.03,.02,.03,.05-.04,.01-.07,.02-.11,.03-.17,0-.34,0-.52,0-.21,0-.48-.04-.65,.05-.08,0-.16,.02-.24,.03-.25,0-.87-.09-1.06,0-.12,0-.28-.02-.38,.02-.25-.01-.5-.03-.75-.04-.17-.02-.43-.11-.6-.05-.17,0-.52-.04-.65,.03-.31,0-.61,0-.92,0-.27,0-.86-.08-1.08,0-.05,0-.11,.02-.16,.03-.23,0-.47,0-.71,0-.1,0-.23-.04-.32,0-.19,0-.55-.08-.7,0-.19,0-.46-.04-.62,.03-.12,0-.29-.02-.38,.02-.34,0-.69,0-1.03,0-.14,0-.34-.03-.46,.02-.37,0-.73-.03-1.11-.03-.13,0-.29-.02-.41,.03l-.95-.03h-1.08c-.1-.03-.2-.04-.3-.06h-.92c-.13-.01-.3-.03-.41,.02-.06,0-.13,.01-.19,.03-.09,0-.22-.01-.3,.02-1.2,0-2.39-.08-3.57-.1-.16,0-.32,0-.49,0-.14,0-.3-.05-.44,0-.21,0-.52-.05-.7,.03-.51-.01-1.01-.03-1.52-.04-.21-.02-.77-.08-.95,0-.2,0-.6-.05-.76,.03-.07,0-.15,.02-.22,.03-.28,0-.51-.06-.78-.06,0-.14,.62-.36,.75-.42Zm-2.76,1.58h.03c0-.06,.17-.15,.22-.18,.12-.1,.26-.16,.39-.24,.15-.09,.28-.19,.45-.24,.43-.13,1.08-.07,1.54-.06,.45,0,.92-.03,1.38-.02,.35,0,.73,0,1.08-.01,.14,0,.27,0,.4,.01,.72-.07,1.55,0,2.28,.01,.36,0,.75-.03,1.13,0,.47,.03,.91,.11,1.38,.11,.28,0,.56,0,.84,0,.36-.03,.72-.1,1.11-.09,.79,0,1.6,.06,2.38,.06,.1,0,.2,0,.3-.01,.13,.01,.25,.03,.38,.05,.21-.01,.42-.03,.62-.04,.25-.01,.51,.02,.76,.02,.26-.01,.52-.03,.78-.04,.52,.01,1.06,.07,1.6,.05,.22,0,.45-.06,.68-.07,.16,0,.32,0,.48,0,.06,0,.13-.01,.19-.02,.14,0,.26,.07,.41,.07,.21-.01,.41-.03,.62-.04,.27,0,.58,.03,.87,.03,.21,0,.41-.05,.63-.05,.31,0,.61,0,.92,0,.15,0,.32,.02,.46-.02,.6,.04,1.21,.03,1.81,.04,.25,0,.52,.04,.79,.02,.54-.03,1.12-.04,1.71-.04,.27,0,.57-.03,.81,.03,.11,.03,.18,.1,.27,.16,.24,.16,.49,.31,.73,.47,0,.13-.4,.11-.49,.16-.13,0-.33-.03-.43,.02-.13,0-.3-.03-.41,.03-.17,0-.34,0-.51-.01-.09-.01-.18-.03-.27-.05-.37-.02-.79,0-1.14,.02-.12,.01-.27-.03-.37,.02-.15,0-.29,0-.43,0-.06,0-.13,.02-.19,.03-.91,0-1.83-.04-2.76-.04-.25,0-.59-.09-.81,.02-.17,0-.34,0-.52,0-.2-.01-.61-.08-.78,0-.13,0-.3-.03-.41,.02-.18,0-.54-.07-.68,0-.18,0-.36,0-.54,0-.16,0-.4-.07-.54,0l-.19,.03c-.4,0-.8,0-1.19,0-.16,0-.38-.03-.51,.02-.25,0-.66-.09-.87,0-.11,0-.22,0-.33,.01-.19-.01-.44-.09-.62-.02-.12,0-.29-.02-.38,.03-.61,0-1.23-.01-1.84-.01-.28-.01-.86-.14-1.14-.03-.07,0-.15,.01-.22,.03-.25,0-.47-.05-.7-.06-.59,0-1.17-.01-1.76-.01-.19,0-.35-.05-.54-.05-.39,0-.77,0-1.16,0-.09,.01-.18,.03-.27,.04h-1.73c-.31,0-.61-.01-.92-.02-.24-.03-.6-.12-.84-.02-.09,0-.22-.01-.3,.03-.12,0-.26-.02-.35,.02-.29,0-.56-.03-.84-.03-.13,0-.25,0-.38,0-.1,0-.19,.04-.3,.04-.32-.02-.65-.03-.97-.05-.25-.01-.54,.03-.76-.03v-.03s-.03,0-.03-.03Zm-1.74,1.18s.17-.13,.21-.17c.27-.17,.53-.35,.8-.52,.17-.07,.45-.05,.64-.06,.25,.02,.51,.03,.76,.05,.47,.01,.94,.02,1.41,.03,.24-.01,.49-.03,.73-.04,.25,0,.5,0,.76,0,.19,0,.38-.02,.57-.03,.33,.01,.65,.06,.97,.07,.5,.01,.98-.05,1.46-.04,.14,.01,.27,.02,.41,.03,.38,0,.77-.02,1.14-.02,.7,0,1.41,0,2.11,.01,.53,0,1.06,.03,1.6,.03,.38,0,.76,0,1.14,0l.43-.02c.3,.03,.6,.05,.89,.08,.43,0,.8-.07,1.22-.07,.32,.02,.65,.04,.98,.05,.34,0,.68-.03,1.03-.02,.15,.02,.3,.03,.46,.05,.13-.01,.25-.03,.38-.04,.31-.02,.65-.01,.95-.03,.53-.02,1.06,.04,1.57,.03,.3-.02,.6-.05,.89-.07,.72,0,1.44,0,2.17,0,.15,.01,.31,.02,.46,.03,.74,0,1.54,0,2.3-.01,.32,0,.68-.05,1-.04,.37,.03,.74,.06,1.11,.09,.33,0,.68-.07,1-.08,.21-.01,.44,.02,.62-.06,.27,0,.56,0,.8,.08,.12,.04,.21,.16,.32,.24,.06,.03,.12,.07,.18,.1,.19,.13,.35,.26,.54,.38,0,.05-.05,.05-.08,.08-.2,0-.4,0-.59-.01-.17-.02-.44-.09-.6-.02-.06,.01-.13,.02-.19,.03-.45,0-.9,0-1.35,0-.41,0-.83,0-1.25,0-.13,0-.3-.02-.41,.02-.12,0-.25-.02-.35,.03-.2,0-.48-.04-.65,.02-.16,0-.58-.03-.7,.02-.19,0-.46-.04-.62,.02-.16,0-.34-.06-.49,0-.51,0-.97-.03-1.49-.04-.17,0-.4-.03-.54,.03-.12-.01-.23-.02-.35-.03-.38,0-.76,0-1.14,0-.12,0-.3-.05-.41,0-.37,0-1.03-.06-1.32,.05-.23-.01-.47-.02-.7-.03-.57,0-1.19,.02-1.79,.02-.23,0-.65-.05-.84,.02-.09,0-.21,0-.27,.03-.3-.01-.6-.02-.89-.03-.86,0-1.71-.01-2.57-.02-.42-.02-.87-.03-1.32-.03-.13,0-.3-.05-.41,0-.15,0-.31,0-.46,0-.27,0-.52-.03-.79-.02-.07,0-.18-.02-.24,.02-.27,0-.54,0-.81,0-.12,0-.28-.02-.38,.03-.41,0-.83,0-1.24,0-.13,0-.29-.05-.41,0-.56,0-1.13-.03-1.7-.04-.13,0-.32-.05-.43,0-.1,0-.22-.01-.3,.03-.71,0-1.43,0-2.11-.05-.3-.02-1.01-.13-1.27,0-.05,0-.11,.02-.16,.03-.36,0-.71-.03-1.08-.03-.4,0-.89,.05-1.22-.09h-.05v-.03Zm-1.71,1.24c.05-.04,.11-.09,.16-.13,.19-.15,.73-.64,.95-.64,.42,0,.82,.05,1.24,.05,.25-.01,.49-.03,.73-.05,.26,0,.5,.02,.76,.03,.39,0,.81-.01,1.19,0,.77,0,1.49,.09,2.27,.08,.18,0,.32-.04,.49-.05,.4-.02,.83,0,1.22-.02,.22,.02,.43,.03,.65,.05,.23-.01,.45-.03,.68-.04,.25,.01,.5,.02,.76,.03,.57-.03,1.17-.06,1.76-.05,.27,0,.54,0,.81,.01,.14,.01,.28,.05,.44,.05,.3,0,.57-.04,.87-.05,.45,0,.9,.07,1.35,.08,.22,0,.45-.01,.68-.02,.28,0,.56,.03,.87,.03,.14,0,.29-.01,.43-.02,.12,.01,.23,.03,.35,.04,.13-.01,.25-.03,.38-.04,.35,0,.7,0,1.06,0,.12-.01,.23-.03,.35-.04,.19,.02,.38,.04,.57,.07,.27,0,.54,0,.81,.01,.16,0,.32-.02,.48-.03h.9c.21-.01,.41-.03,.62-.05,.37,0,.74,0,1.11,0,.17-.01,.34-.03,.52-.04,.15,.02,.29,.03,.43,.05,.23,.01,.48-.02,.7-.01,.5,.03,1.01,.05,1.52,.07,.88-.02,1.74-.1,2.63-.11,.28,0,.57,.04,.87,.03,.17,0,.31-.05,.49-.05,.45,0,.9,0,1.35,0,.29,.02,.58,.03,.87,.05,.18-.02,.36-.04,.54-.06,.17-.01,.36,.01,.52-.03,.33,.02,.66,.04,.99,.06,.14,.04,.78,.54,.85,.68-.04,0-.07,.02-.11,.03-.17,0-.43-.04-.57,.03-.4,0-.88-.11-1.22,.07-.06,0-.12,.02-.19,.03-.13,0-.3-.02-.41,.02-.27,0-.79-.06-1,.05-.19-.02-.38-.04-.57-.06-.4,0-.79,0-1.19-.01-.22-.02-.66-.08-.86,0-.82,0-1.64-.01-2.46-.02-.35-.01-.74-.03-1.11-.03-.14,0-.32-.02-.43,.02-.31,0-.61,0-.92,0-.16,0-.36-.06-.51,0-.29,0-.58,0-.87,0-.12,0-.26-.02-.35,.03-.06,0-.13,.02-.19,.03-.35,0-.7,0-1.06,0-.13,0-.3-.03-.41,.02-.24,0-.89-.05-1.06,.02-.22,0-.69-.05-.87,.02-.05,0-.11,.02-.16,.03-.35,0-.65-.06-1-.06-.09,0-.19,0-.27,.03-.28,0-.74-.1-.97,0-.07,0-.14,0-.22,0-.22-.01-.65-.16-.84-.07-.32-.01-.65-.02-.97-.03-.12,0-.25-.01-.35,.03-.21,0-.6-.1-.78,0-.06,0-.11,.02-.17,.03-.4,0-.79,0-1.19-.01-.15-.02-.31-.03-.46-.05-.24,0-.49,0-.73,0-.14,0-.32-.02-.44,.03-.12,0-.25-.01-.35,.03-.13,0-.27,0-.38,.05-.15,0-.31,0-.46-.01-.25-.03-.58-.18-.84-.08-.35,0-.69-.03-1.06-.03-.12,0-.26-.02-.35,.03-.09,0-.2-.01-.27,.03-.08,0-.16,.02-.25,.03-.49,0-.92-.05-1.38-.09-.1-.02-.2-.03-.3-.05h-1.33c-.23-.01-.65-.06-.84,.01-.12,0-.27-.05-.38,0-.14,0-.43-.05-.54,0-.07,0-.15,.02-.22,.03-.41,0-.83,0-1.22,.02-.13,0-.3-.02-.4,.03-.58,0-1.16,0-1.73,0v-.05Zm-1.36,1.21c0-.1,.15-.25,.22-.32,.16-.15,.37-.35,.57-.41,.32-.11,.74-.03,1.1-.05,.45-.02,.96,0,1.43-.02,.43-.01,.9-.04,1.33-.04,.28,0,.56,.01,.84,.02,.98-.01,2.01-.02,3,.02,.12,.01,.23,.03,.35,.05,.2,0,.4,0,.6,0,.6,0,1.19-.05,1.81-.04,.71,.02,1.42,.07,2.17,.07,.41,0,.83-.06,1.27-.05,.26,0,.5,.06,.78,.06,.72,0,1.41-.05,2.14-.04,.48,0,.96,0,1.44,0,.13,0,.25,.02,.38,.03,.22,0,.46-.02,.7-.02,.13,.02,.25,.03,.38,.05,.09-.01,.18-.02,.27-.03,.16,0,.32,0,.49,0,.23,0,.41,.05,.65,.06,.19-.02,.38-.03,.57-.05,.77,0,1.58,0,2.33-.01,.26,.01,.52,.02,.78,.03,.48-.01,.97-.05,1.46-.05,.48,0,.94,.06,1.43,.04,.25-.01,.51-.03,.76-.04,.15,0,.31,.01,.46,.02,.7-.02,1.49-.02,2.19,0,.62,.02,1.29-.04,1.92,0,.14,.02,.27,.03,.41,.05,.52,.03,1.06,.06,1.6,.04,.23-.03,.45-.06,.68-.1,.2-.02,.4-.04,.6-.06,.43,0,.85,.04,1.3,.03,.21,0,.46-.06,.67,0,.09,.03,.18,.12,.26,.19,.05,.04,.38,.34,.28,.4-.15,.1-.48,.01-.65,.09-.29,0-1.04-.06-1.24,.05h-2.14c-.2,0-.4,0-.6,0-.09,0-.18,0-.27,.01-.1,0-.22-.01-.3,.03-.2,0-.6-.05-.76,.02-.4,0-.79-.02-1.19-.03-.13,0-.3-.02-.41,.03-.1,0-.22-.01-.3,.03-.08,0-.16,.02-.24,.03-.11,0-.22,0-.32,0-.17-.01-.47-.12-.63-.05-.19,0-.44-.04-.59,.02-.08,.01-.16,.02-.24,.03-.12,0-.3-.05-.4,0-.51,0-1.01,0-1.52-.01-.16,0-.38-.03-.52,.02-.05,.01-.11,.02-.16,.03-.27,0-.52-.05-.78-.05-.45,0-.9,0-1.35-.01-.21,0-.62-.05-.78,.02-.1,0-.22-.01-.3,.03-.26,0-.52,0-.79,0-.18,0-.44-.07-.59,0-.74,0-1.42-.04-2.14-.04-.18,0-.45-.04-.6,.03-.7,0-1.41-.01-2.11-.01-.19,0-.45-.08-.62,0-.23,0-.45-.01-.68-.01-.14-.01-.32-.08-.46-.02-.16,0-.4-.06-.54,0-.13,0-.5-.01-.6,.02-.1,0-.22,0-.3,.05-.09,0-.2,0-.27,.03-.35,0-.7,0-1.05,0-.14,0-.32-.03-.44,.03-.23,0-.49-.12-.7-.03-.62-.02-1.23-.04-1.84-.07-.17,0-.41-.07-.57,0-.27,0-.54,0-.81,0-.14,0-.35-.06-.49,0-.21,0-.41-.02-.62-.03-.49,0-.97,0-1.46,0-.22,0-.43,0-.65,0-.18,0-.51-.06-.65,0-.26,0-.88-.06-1.08,.02-.62,0-1.21-.03-1.84-.04-.14,0-.46-.02-.57,.02-.19,0-.42-.07-.6,0-.15,0-.3,.02-.46,.02-.15,.01-.29,.02-.43,.03,0-.04,0-.03,.03-.03Zm3.69,46.23c-.42,0-.68-.12-.97-.35-.1-.08-.22-.14-.27-.26,.47,.13,.94,.24,1.43,.34,.38,.08,.75,.22,1.17,.24v.03c-.19,0-.4,.03-.6,.02-.18-.01-.36-.03-.54-.04-.07,0-.15,.02-.22,.03Zm.59,.64c-.11-.06-.3-.14-.32-.28,.62,.02,1.3,.05,1.92,.06,.43,0,.88,0,1.32,.01,.58,.03,1.14,.13,1.7,.16,.42,.03,.81,.02,1.22,.07,.67,.09,1.34,.19,2.01,.29,.49,.08,.99,.12,1.46,.21,0,.04-.04,.03-.08,.03,0,.04-.09,0-.14,0-.38-.03-.76-.04-1.16-.04-.12,0-.28-.02-.38,.02-.09,0-.2,0-.27,.03-.37,0-.72-.04-1.08-.03-.25,0-.5,.02-.76,.02-.17,0-.42-.04-.57,.02-.46,0-.93-.03-1.41-.03-.15,0-.37-.04-.49,.02-.24,0-.49,0-.73-.01-.16-.02-.32-.05-.49-.07-.35-.02-.71,.01-1.02-.08-.27-.09-.49-.26-.74-.41Zm2.81,1.65c-.45-.14-.8-.51-1.24-.67v-.05c.43,0,.86,0,1.3,.01,.23,.01,.46,.06,.7,.05,.31,0,.6-.05,.92-.05,.25,0,.5,0,.76,0,.13,0,.29,.01,.4-.02,.24,.02,.46,0,.7,0,.67,.01,1.41,.03,2.11,.04,.54,0,1.12,0,1.63,.05,.08,0,.16-.01,.24-.01,.17,.02,.34,.03,.51,.05,.49,.14,.96,.36,1.38,.64,.03,.02,.11,.08,.1,.12-.05,.02-.1,.05-.15,.07-.08,0-.2,0-.27,.02-.3,0-.6-.05-.92-.06-.09,0-.21-.03-.3,0-.15,0-.35-.07-.49,0-.35-.01-.7-.02-1.05-.03-.14,0-.32-.02-.43,.02-.33,0-.67,0-1-.01-.2-.02-.5-.13-.7-.05-.17,0-.36-.03-.49,.05-.18,0-.54-.04-.68,.03-.74,0-1.49-.02-2.19-.09-.28-.03-.58-.03-.83-.11Zm4.16,1.34c-.14,0-.29-.01-.43-.02-.18-.03-.37-.06-.54-.11-.13-.05-.25-.1-.39-.13-.2-.05-.4-.07-.59-.11-.22-.05-.42-.14-.62-.22-.11-.04-.23-.06-.33-.13h-.03v-.03c.1,0,.2-.02,.3-.02,.4,0,.83,.03,1.24,.03,.3,0,.63,.02,.89-.08,.42,.01,.85,.03,1.28,.04,.18,.02,.36,.03,.54,.05,.33,0,.62-.08,.95-.07,.45,.01,.91,.08,1.35,.08,.52,0,1.05,0,1.57,0,.23,0,.49-.04,.73-.02,.32,.03,.65,.44,.81,.7,.02,.03,.05,.09,.02,.12-.11,.09-.47,0-.62,.07-.18,0-.44-.07-.6,0-.45,0-.9,0-1.35,0-.16,0-.35-.06-.49,0-.46,0-.86-.06-1.3-.06-.6,0-1.19-.01-1.79-.01-.21-.03-.41-.05-.62-.08Zm7.49,1.5s-.15,.02-.19,.01c-.35-.06-.71-.11-1.06-.17-.17,0-.34-.01-.51-.02-.22-.03-.45-.07-.68-.1-.21-.01-.4,.01-.6-.01-1.15-.16-2.3-.34-3.41-.58-.17-.04-.6-.12-.7-.25,.5,.1,1.08,.06,1.62,.09,.46,.02,.93,.07,1.4,.07,.15,.01,.29,.03,.44,.04,.15,0,.29-.01,.43-.02,.2,.02,.4,.03,.6,.05,.13,0,.27-.02,.4-.01,.16,.03,.33,.07,.49,.1,.4,.02,1.06-.13,1.4,0,.21,.08,.36,.58,.38,.79h-.03Zm.71-1.24h-.03v-.03s-.06-.05-.09-.08c-.1-.17-.21-.33-.31-.5-.22-.25-.44-.51-.66-.77-.66-.63-1.43-1.16-2.23-1.51-.17-.06-.33-.12-.5-.18-.19-.08-.36-.19-.55-.26-.18-.07-.38-.09-.57-.12-.19-.04-.39-.09-.59-.14-.41-.08-.83-.21-1.25-.28-.41-.05-.81-.1-1.22-.15-.32-.02-.64-.01-.95-.04-1.46-.15-2.92-.29-4.33-.52-.48-.08-.95-.09-1.43-.17-.47-.08-.94-.22-1.39-.36-.25-.08-.5-.14-.74-.23-.24-.11-.47-.21-.71-.32-.16-.07-.32-.15-.48-.22-.11-.07-.23-.15-.34-.22-.05-.03-.11-.06-.16-.09-.39-.31-.69-.74-.99-1.12-.23-.29-.35-.63-.46-.98-.05-.18-.11-.35-.16-.53-.17-.81-.15-1.65-.17-2.54-.01-.17-.03-.34-.04-.52,.02-.66,.07-1.33,.08-1.97,0-.15,0-.29-.02-.43,0-.66,0-1.32,.01-1.98,0-.43,.04-.86,.03-1.27-.02-1.77,.01-3.57,.05-5.36-.01-.25-.03-.5-.04-.76,0-.28,.03-.55,.03-.81,0-.13,0-.25-.01-.38,.03-.4,.07-.81,.1-1.22,0-.32-.02-.63-.02-.92,0-.22,.04-.45,.03-.68,0-.19-.05-.36-.05-.57,0-.17,.02-.34,.03-.52,0-.34-.03-.72-.02-1.08,0-.21,.03-.43,.03-.65,0-.24-.05-.48-.05-.73,.03-.3,.05-.6,.08-.89,0-.29-.02-.57-.02-.84,0-.61,.03-1.26,.03-1.9,0-.13,.01-.25,.01-.38-.01-.27-.03-.54-.04-.81,.02-.23,.04-.47,.07-.7,.02-1.13,.02-2.28,.04-3.38,0-.38,0-.76,0-1.13-.01-.27-.05-.53-.04-.81,0-.18,.02-.36,.03-.54,0-.95-.02-1.9-.01-2.87,0-.35,.03-.67,.03-1,0-.38-.02-.79-.02-1.19,0-.26,.03-.51,.03-.78,0-.22-.04-.52,.03-.7,0-.05,.06-.05,.11-.05,.39-.05,.88-.11,1.3-.04,.51,.08,1.03,0,1.57,0,.48,0,.95,0,1.43,0,.29-.01,.58-.03,.87-.05,.54,0,1.04,.04,1.57,.03,.63,0,1.32-.01,1.98-.01,.19,0,.38,.02,.57,.02,.27-.01,.54-.03,.81-.04,.23,0,.44,.05,.68,.05,.3,0,.58-.03,.86-.02,.44,0,.92,.01,1.38,.04,.21,.02,.43,.03,.65,.05,.64,0,1.3-.03,1.93-.04,.42,.01,.85,.02,1.27,.03,.36,0,.72-.07,1.08-.07,.26,0,.54,.03,.81,.03h.73c.28,.01,.56,.03,.84,.06,.22-.01,.43-.02,.65-.03,.43,.02,.85,.03,1.27,.05,.2-.01,.4-.03,.6-.05,1.15-.03,2.25,0,3.41-.01,.25-.02,.51-.03,.76-.05,.52-.01,1.07,.02,1.57-.01,.11,0,.22-.02,.33-.03,.43,.04,.94,0,1.41,0,.19,0,.35,.05,.54,.05,.21,0,.42-.01,.62-.02,.33,.01,.72,.05,1.05,.05,.23,0,.46-.05,.71-.04,.17,.01,.34,.03,.51,.05,.24,0,.51-.03,.76-.01,.17,.03,.34,.05,.52,.08,.14,0,.29-.01,.43-.02,.15,0,.3,.02,.46,.03,.15,0,.31-.01,.46-.02,.29,0,.57,.03,.84,0,.44-.03,.87,.03,1.32,.03,.22-.01,.43-.03,.65-.04,.15,0,.29,.01,.43,.02,.14,0,.31-.02,.42,.03,0,0,.02,.02,.03,.03,.1,.14,.06,.41,.06,.6,0,.62-.03,1.22,0,1.81,.01,.38,0,.81,.01,1.19,0,.13-.01,.25-.02,.38,0,.27,.02,.54,.03,.81-.01,.27-.03,.54-.05,.81,.02,.35,.05,.7,.07,1.06-.02,.13-.03,.27-.05,.4,0,.24,.04,.45,.04,.68-.01,.23-.03,.47-.04,.7,0,.29,0,.58-.01,.87-.01,.22-.03,.43-.05,.65,.03,.35,.05,.71,.07,1.06,0,.13-.02,.25-.03,.38-.01,.29-.03,.59-.03,.87,0,.5,.05,1.06,.05,1.54-.01,.11-.03,.22-.04,.32,0,.23,.02,.45,.03,.67-.01,.26-.04,.55-.04,.84,0,.21,.05,.39,.04,.6-.01,.11-.03,.22-.04,.33,0,.14,.01,.29,.02,.43-.01,.54-.06,1.07-.05,1.63,0,.27,.02,.54,.03,.81,.01,.11,.03,.21,.04,.32,0,.18-.02,.36-.03,.54,0,.12,.01,.24,.02,.35-.02,.2-.03,.4-.05,.6,0,.27,.07,.55,.06,.84-.03,.79-.07,1.54-.08,2.33,0,.32,.05,.6,.05,.92-.02,.17-.03,.34-.05,.52,0,.37,0,.74-.01,1.11-.02,.2-.04,.4-.05,.6,0,.75,.02,1.5,.03,2.25,0,.52-.06,1.07-.05,1.59,.01,.28,.03,.56,.04,.84,0,.11-.01,.21-.02,.32,0,.2,0,.4,0,.6,0,.48,.02,.97,.02,1.43,0,.56,0,1.17-.01,1.76,0,.16-.01,.32-.02,.49,.01,.1,.02,.2,.04,.3-.02,.34-.03,.69-.05,1.03,0,.29,.03,.59,.01,.89-.03,.18-.07,.36-.1,.54-.03,.2-.05,.39-.07,.59-.07,.33-.31,.82-.49,1.1-.15,.25-.41,.38-.61,.58-.12,.12-.25,.19-.38,.3-.23,.2-.46,.41-.72,.54-.17,.06-.33,.12-.5,.19-.34,.14-.68,.29-1.02,.42-.32,.12-.66,.21-.97,.33-.08,.03-.16,.06-.24,.09-.17,0-.41,.08-.54,.16-.15,0-.31,.02-.43,.08-.23,0-.4,.07-.58,.14-.06,.02-.12,.03-.18,.05-.09,0-.2,0-.27,.05-.18,0-.6,.08-.73,.16-.16,0-.35-.03-.49,.02-.09,0-.2,0-.27,.05-.15,0-.32-.02-.43,.05-.07,.01-.15,.02-.22,.03-.12,0-.24,0-.33,.05-.1,0-.22,.01-.3,.05-.19,0-.47-.03-.62,.05-.07,0-.15,.02-.22,.03-.19,0-.41-.07-.57,.02-.11,0-.24-.02-.32,.03-.05,0-.11,.02-.16,.03-.17,0-.39-.03-.54,.03-.07,0-.15,.02-.22,.02-.05,0-.11,.02-.16,.03-.05,.01-.11,.02-.16,.03l-.25,.03c-.11,0-.24,0-.32,.05-.07,0-.15,.02-.22,.02-.12,0-.26,0-.35,.05-.11,0-.24,0-.32,.05-.09,0-.2,.01-.27,.05-.09,0-.18,.01-.24,.05-.05,0-.11,.02-.16,.03-.14,0-.32,.04-.44,.11-.09,0-.18,.01-.24,.05-.28,0-.53,.13-.77,.22-.19,.07-.37,.14-.56,.21-.36,0-.75,.34-1.01,.56-.23,.19-.54,.29-.77,.5-.64,.6-1.03,1.4-1.35,2.17Zm7.69,.31c-.31,0-.66,.19-.95,.25-.21,.05-.44,.01-.62,.12-.3,0-.6,.14-.87,.22-.07,.01-.14,.03-.21,.04-.18,0-.34,0-.49,.08-.13,0-.49,.06-.6,.1-.17,0-.35-.01-.49,.05-.19,0-.59-.05-.73,.02-.05,.01-.11,.02-.16,.03-.42,0-.85,0-1.28,0v-.03s-.03,0-.03-.03c.01-.25,.11-.71,.39-.74,.56-.08,1.16-.04,1.73-.03,.49,0,1.02-.02,1.49-.07,.2-.02,.4,.01,.57-.06,.39,0,.76,.03,1.14,.03,.37,0,.74-.01,1.11-.02v.03Zm3.47-1.22h-.03s-.05,.04-.09,.05c-.26,.1-.52,.2-.78,.3-.14,.07-.28,.13-.41,.19-.19,.07-.38,.13-.57,.2-.2,0-.64-.05-.79,.02-.17,0-.34,0-.51,0-.12,0-.27-.04-.38,0-.12,0-.28-.02-.38,.03-.05,.01-.11,.02-.16,.03-.26,0-.5,0-.76,0-.15,0-.36-.1-.51-.03-.13,0-.3-.02-.4,.03-.17,0-.42-.04-.57,.02-.09,0-.2,0-.27,.03-.15,0-.34-.03-.46,.02-.06,0-.13,.02-.19,.03-.21,0-.84-.07-.97,0-.14,0-.29,0-.43,0-.27,0-.5-.05-.76-.08,0-.25,.39-.75,.63-.81,.21-.06,.47,0,.7-.03,.75-.09,1.57,.01,2.33,.02,.39,0,.78-.05,1.19-.04,.27,0,.5,0,.76,0,.14,0,.28,.01,.41-.03,.23,.08,.67,.03,.95,.03,.38,0,.77,.06,1.16,.06,.18-.02,.36-.03,.54-.05,.25,0,.51,0,.76,0v.03Zm2.9-1.37c-.1,0-.34,.19-.44,.24-.31,.15-.61,.29-.92,.43-.19,.08-.37,.19-.57,.23-.37,.07-.81,0-1.21,.01-.17,0-.3,.04-.46,.05-.16,0-.4-.04-.54,.03-.19,0-.38,0-.57,0-.24-.01-.47-.15-.7-.01-.41,0-.83,0-1.22-.03-.18-.02-.46-.05-.63,.01-.11,0-.28-.02-.38,.03-.23,0-.47,0-.7,0-.24,0-.86-.1-1.06,0-.63,0-1.19-.11-1.84-.12v-.05c.08,0,.35-.23,.43-.28,.27-.16,.57-.27,.87-.37,.18-.06,.36-.14,.57-.16,.47,0,.94,0,1.41,0,.4-.01,.79-.03,1.19-.05,.99,0,2.02,.05,3.01,.02,.32,0,.66-.02,.97-.02,.17,0,.35,.01,.49-.05,.76,0,1.49,.04,2.28,.04v.03h.03v.03Zm.41-.43c-.67,0-1.34-.01-2-.01-.25,0-.71-.1-.95,0-.26,0-.63-.06-.84,.05-.18,0-.48-.05-.62,.02-.38-.03-.76-.06-1.14-.09-.08,0-.17-.03-.25,0-.49,0-.93,0-1.41,0v-.03h.03s-.01-.02,.02-.03c.23-.08,.53-.06,.79-.07,.42-.03,.83-.05,1.25-.08,.58-.04,1.18-.15,1.76-.2,.3-.03,.6-.05,.89-.09,.28-.04,.57-.14,.87-.17,.3-.02,.58-.04,.87-.06,.23-.02,.46-.07,.71-.07,.19,0,.38,.02,.57,.02,.12-.01,.24-.03,.35-.04,.14,0,.28,0,.41-.03h.38s0,.04,0,.05c-.01,0-.03,.01-.04,.02-.17,.16-.41,.29-.6,.4-.14,.08-.26,.19-.4,.26-.12,.04-.25,.08-.37,.12-.08,0-.2,0-.27,.03Z"/><path class="cls-1" d="M40.68,35.31c.28-.16,.56-.32,.83-.48,.39-.19,.82-.35,1.24-.48,.31-.09,.61-.19,.92-.28,.12-.04,.27-.07,.38-.14,.13-.1,.24-.36,.03-.43-.1-.03-.23-.02-.34-.03-.15,.05-.29,.1-.44,.15-.11,.05-.22,.1-.33,.15-.32,.11-.65,.19-.96,.33-.29,.13-.59,.3-.86,.48-.11,.08-.22,.15-.32,.23-.22,.13-.55,.33-.59,.61h.03c0,.1,.38-.1,.42-.12Z"/><path class="cls-1" d="M35.01,34.18c.92,.25,1.87,.5,2.71,.93,.16,.09,.32,.18,.47,.26,.14,.08,.26,.23,.42,.26,.06,.01,.16,0,.19-.05,.1-.21-.81-.77-.97-.85-.27-.12-.53-.25-.79-.37-.09-.05-.18-.1-.27-.15-.19-.07-.38-.13-.58-.2-.21-.09-.43-.18-.66-.24-.1-.02-.21-.04-.31-.07-.35-.1-.66-.23-1.06-.23-.17,.14-.16,.39,.03,.51,.23,.14,.57,.13,.84,.2Z"/><g><path class="cls-1" d="M58.83,33.64c0-.37,0-.77-.02-1.16-.01-.13-.03-.25-.05-.38,0-.3,.05-.57,.05-.87-.01-.22-.03-.45-.04-.68,0-1.74-.06-3.42,0-5.15,0-.95,.01-1.89,.02-2.84,.02-.52-.02-1.07-.03-1.57,0-.51,0-.97,.01-1.49h-.03c0-.06-.25-.02-.3,0-.5,0-1.01-.01-1.51-.02-.33-.03-.65-.05-1-.05-.1,0-.22,0-.3,.03-.12,.01-.25,.03-.38,.04-.18-.02-.36-.05-.54-.07-.63,0-1.26,0-1.89-.01-.18,0-.64-.06-.76,0-.32,0-.65,0-.97-.01-.25-.02-.6-.12-.84-.03-.07,0-.14,.02-.21,.03-.23,0-.47,0-.7,0-.35-.02-.69-.08-1.05-.08-.27,.08-.66-.05-.92,.05-.07,0-.15,.02-.22,.03-.28,0-.56,0-.84,0-.14,0-.32-.03-.43,.03-.09,0-.2,0-.27,.03-.23,0-.43-.05-.65-.06-.56,0-1.12,0-1.68-.01-.2,0-.5-.05-.68,.03-.06,0-.13,.02-.19,.03-.08,0-.16,.02-.24,.03-.32,0-.84-.17-1.11-.06-.05,0-.11,.02-.16,.03-.12,0-.26,0-.35,.05-.81,0-1.61,0-2.38-.03-.2,0-.42,0-.62,0-.1,0-.24-.04-.33,0-.2,0-.4,0-.6,0-.28-.02-.89-.13-1.14-.03-.18,0-.36,0-.54,0-.12,0-.26-.04-.38,0-.16,0-.38-.03-.51,.03-.32,0-.61-.06-.95-.06-.11,0-.23-.01-.32,.03-.2,0-.48-.05-.65,.02-.31,0-.62,0-.92,0-.14,0-.34-.03-.46,.02-.39,0-.78,0-1.16,0-.25-.02-.72-.11-.95-.02-.25,0-.67-.08-.87,0-.51,0-.98-.03-1.49-.07-.18-.01-.45-.07-.62,0-.1,0-.21-.01-.3,.03-.19,0-.46-.04-.62,.02-.17,0-.43-.04-.57,.02-.64,0-1.32-.03-2-.04-.2,0-.48-.04-.65,.02-.25,0-.79-.05-.97,.02-.14,0-.39-.04-.49,.05-.15,.15-.07,.85-.06,1.09,0,.18-.01,.36-.02,.54,0,.17,.03,.34,.01,.51,0,.25,0,.5,0,.76-.03,.69-.03,1.35-.04,2.06,0,.19-.05,.33-.05,.51,0,.19,.03,.37,.03,.54-.02,.17-.04,.34-.06,.52,0,.36,.02,.72,.03,1.08-.03,.61-.05,1.27-.05,1.92,0,.25,.02,.51,.03,.75,.01,.08,.02,.17,.03,.24-.02,.15-.04,.31-.06,.46,.01,1.1-.02,2.16-.03,3.27,0,.49,.02,.93,.01,1.41-.02,.23-.03,.47-.05,.7,0,.35,.01,.71,.02,1.06,0,.7-.03,1.42-.03,2.14,.01,.25,.02,.5,.03,.76-.01,.32-.03,.65-.05,.97,0,1.28,.01,2.61,.03,3.9,0,.32-.05,.59-.05,.92,0,.34,0,.68,0,1.03,0,.16,.01,.31,.02,.46-.03,1.16-.06,2.28-.07,3.46,0,.53-.06,1-.06,1.51,0,.22,0,.45,0,.67,.01,.09,.03,.18,.04,.27-.01,.09-.03,.18-.04,.27-.01,.26-.03,.53-.03,.78,0,.32,0,.67,.02,1,0,.15,.05,.28,.05,.43,0,.16-.05,.28-.05,.43,0,.19,.05,.32,.05,.52,0,1.4,0,2.75,.64,3.81,.44,.73,1.24,1.18,1.97,1.5,.51,.22,1.03,.47,1.58,.6,.41,.1,.81,.15,1.24,.22,.32,.06,.66,.14,1,.18,.32,.03,.65,.05,.97,.07,.7,.08,1.38,.21,2.09,.29,.33,.02,.67,.04,1,.05,.15,.03,.29,.06,.43,.1,.26,0,.52,0,.79,.01,.28,.03,.56,.05,.84,.08,.15,0,.29,0,.43,.01l.38,.09c.36,.05,.69,.09,1.05,.16,.11,.04,.22,.07,.33,.11,.24,.07,.47,.13,.7,.22,.34,.12,.68,.25,1.02,.37,.25,.12,.49,.25,.74,.37,.13,.09,.27,.18,.4,.27,.27,.15,.54,.29,.79,.49,.3,.25,.51,.55,.78,.84,.09,.1,.13,.22,.25,.29,0,.04,.01,.03,.05,.03,0-.05,.14-.13,.17-.18,.06-.09,.11-.18,.17-.26,.59-.86,1.47-1.48,2.36-1.96,.14-.05,.27-.1,.41-.15,.17-.07,.33-.14,.5-.21,.33-.1,.68-.16,1.02-.24,.65-.14,1.28-.31,1.93-.45,.16-.01,.32-.02,.48-.03,.25-.05,.5-.11,.76-.13,.34-.01,.69-.03,1.03-.04,.41-.03,.83-.12,1.25-.15,.37-.03,.74-.04,1.11-.09,.33-.05,.65-.11,.98-.16,.11,0,.22-.01,.32-.02,.5-.08,.99-.2,1.47-.32,.17-.04,.32-.06,.48-.1,.46-.13,.91-.32,1.36-.46,.38-.12,.74-.24,1.1-.4,.31-.14,.57-.34,.85-.52,.51-.32,1.07-.66,1.39-1.2,.14-.24,.27-.59,.32-.88,0-.13,.02-.27,.03-.4,.1-.58,.08-1.23,.08-1.84,0-.22,.02-.44,.03-.65,0-.12-.01-.23-.02-.35,0-.23,0-.47,0-.7-.01-.09-.02-.18-.04-.27,0-.08,.02-.16,.03-.24,0-.08-.02-.16-.03-.24,0-.16,.05-.29,.05-.46,0-.18-.05-.32-.05-.49,0-.21,.05-.36,.06-.57,.01-.71,0-1.41,.03-2.11,0-.17-.01-.34-.02-.51,0-.62,0-1.25,0-1.87,.04-1.7,.01-3.5,.05-5.2-.01-.18-.02-.36-.03-.54,0-.06-.01-.11-.02-.16,0-.13,.04-.28,.03-.43-.01-.1-.02-.2-.03-.3,0-.14,.04-.28,.04-.43,0-.31-.08-.58-.08-.89,0-.21,.03-.4,.05-.6,0-.1,0-.2,0-.3,.01-.1,.03-.2,.04-.3-.01-.12-.03-.23-.04-.35,.02-.13,.03-.27,.05-.4,0-.12-.04-.22-.04-.35,0-.74,0-1.48,.01-2.22,0-.17,.05-.3,.05-.46,0-.16-.05-.28-.04-.43,.01-.08,.03-.17,.04-.25,.01-.24,.02-.49,.04-.73Zm-13.83-12.61c.09-.06,.18-.08,.26-.17,.06-.08,.11-.17,.17-.25,.15-.21,.3-.39,.47-.58l.19-.17c.12-.06,.32-.03,.47-.03,.31,0,.62-.01,.89-.04,.14-.01,.26,0,.38-.06h.62c.23,.04,.48,.09,.73,.09,.22,0,.41-.08,.62-.07,.07,.01,.15,.02,.22,.03,.26,.03,.59,.03,.81-.04v.03h.03s0,.03-.03,.03c0,.01-.01,.03-.01,.04-.26,.35-.65,.62-.95,.91-.58,.57-1.16,1.14-1.74,1.7-.13,.13-.28,.24-.41,.37-.52,.53-.99,1.11-1.52,1.62-.19,.19-.39,.37-.58,.56-.11,.09-.21,.18-.32,.27-.12,.14-.24,.28-.36,.43-.32,.34-.66,.67-1.01,.99-.16,.19-.32,.38-.48,.57-.36,.35-.72,.69-1.07,1.04-.61,.6-1.21,1.21-1.83,1.81-.2,.19-.38,.43-.6,.58v.03h-.03v-.03h-.03c0-.08,.02-.16,.03-.24,0-.19-.03-.38-.01-.57,.02-.1,.05-.2,.07-.3,.01-.19-.05-.34,.03-.5,.05-.1,.18-.14,.26-.22,.16-.16,.25-.35,.44-.48,.2-.13,.45-.17,.66-.27,.14-.07,.24-.18,.37-.26,.29-.19,.62-.35,.84-.65,.06-.12,.12-.24,.18-.35,.07-.1,.15-.21,.22-.31,.06-.14,.05-.3,.09-.45,.06-.21,.16-.39,.16-.63-.03-.21-.05-.41-.08-.62-.03-.27-.18-.51-.34-.71-.07-.09-.15-.17-.19-.27-.05,0,0-.07,.01-.1,.04-.06,.09-.12,.13-.18,.19-.28,.38-.58,.66-.79,.14-.11,.16-.25,.27-.38,.13-.15,.32-.23,.45-.39,.07-.09,.14-.18,.21-.27,.06-.11,.08-.21,.17-.3,.09-.09,.18-.13,.28-.21,.07-.07,.15-.14,.22-.21Zm1.89,16.88c0,.18-.05,.32-.05,.49,.01,.11,.03,.22,.04,.32,0,.27,0,.54,0,.81-.02,.35-.04,.71-.06,1.06,0,.33,.06,.63,.05,.97,0,.23-.07,.43-.08,.65,.03,.21,.06,.42,.09,.63,.04,.31,0,.67-.02,.97-.01,.29,.02,.58-.09,.81h-.11c.01-.07,.02-.14,.03-.21-.04-.37-.08-.8-.07-1.2,0-.56,0-1.05,0-1.59,0-.13,.01-.25,.02-.38,0-.31-.09-.62-.09-.92,0-.13,.04-.23,.05-.35,.02-.34,.05-.75,0-1.08-.02-.13-.08-.22-.18-.3h-.02s-.08,.09-.09,.14c-.05,.15-.05,.32-.05,.48,0,.32,0,.63,.03,.92,.02,.18,.09,.37,.09,.57-.02,.15-.05,.29-.07,.44-.02,.22-.04,.43-.06,.65,.01,.22,.02,.43,.03,.65,0,.46-.02,.96-.05,1.41-.12,0-.14-.19-.17-.28-.04-.14-.01-.3-.03-.45-.03-.28-.01-.6-.01-.89,0-.27,0-.54,0-.81,.02-.35,.08-.67,.03-1-.01-.09-.04-.25-.14-.28-.05-.01-.08,0-.1,.04-.09,.26-.04,.61-.03,.89,.01,.44-.04,.87-.06,1.3-.01,.26,.01,.53-.06,.76h-.03v.03h-.03v-.03c-.06,0-.07-.14-.08-.19-.02-.4,.02-.83,.03-1.22,0-.41-.02-.83-.02-1.22,0-.28,.05-.57,.07-.84,0-.32,.01-.63,.02-.95,0-1.58-.06-3.1,.07-4.65,.02-.25-.03-.52-.04-.76-.01-.23,0-.49,.02-.71,.01-.19,0-.34,.09-.48,.07,.19,.05,.42,.05,.65,0,.42-.04,.89,.1,1.25h.08c.02-.08,.03-.16,.05-.24,.02-.46,.07-.87,.09-1.33h.03v-.03h.08c.01,.06,.03,.11,.04,.17,.01,.11,.02,.21,.03,.32,0,.63-.05,1.31-.05,1.95,.01,.12,.03,.24,.04,.35,0,.17-.09,.33-.04,.51,.03,.13,.12,.16,.25,.14,0-.1,.02-.2,.03-.3,0-.11,0-.21,0-.32,.02-.19,.11-.35,.12-.57,.01-.56-.02-1.15,.04-1.68h.08v.03s.03,.24,.03,.3c0,.14,.01,.27,.02,.41,.02,.24,.07,.5,.07,.76,0,.44-.03,.87-.03,1.32,0,.44-.03,.87-.03,1.3,0,.28,.01,.56,.02,.84Zm-1.92,18.39v.05h-.03s-.17-.03-.22-.03c-.43,0-.83,.02-1.27,.02-.19,0-.46-.04-.62,.02-.16,0-.38-.03-.52,.02-.5,0-.97,0-1.46-.04-.22-.01-.52-.11-.73-.03-.36,0-.72-.03-1.08-.02-.08,0-.18-.02-.24,0-.21,0-.66-.08-.81,0-.12,0-.25-.01-.35,.03-.34,0-.69,0-1.03-.01-.2-.01-.43-.02-.65-.03-.07,0-.15,0-.22,0-.08,0-.16,.02-.24,.03-.4,0-.72,.09-.91-.25-.02-.03-.05-.11-.03-.15,.11-.19,2.19-.03,2.54-.02,.54,0,1.02-.07,1.55-.07,.7,0,1.45,.06,2.16,.06,.36,0,.76,0,1.14-.02,.85-.02,1.74,.02,2.57,.02,0,0,0-.02,0-.03,.04,0,.05-.24,.05-.3,0-.54,.01-1.11,.02-1.68,0-.39-.01-.79,.06-1.14,.44,.23,.39,.79,.4,1.28,0,.3,.03,.65,.02,.97-.02,.17-.03,.34-.05,.51-.01,.26,.06,.55-.04,.78Zm-2.76-3.44c.13,.18,.9,1.04,.86,1.2-.01,.04-.06,.04-.1,.05-.23,0-.47,0-.7,0-.41,0-.83,0-1.24,0,0,0,0-.02,0-.03h-.03c0-.09,.07-.17,.11-.24,.13-.24,.64-.94,.6-1.19,0-.08-.07-.15-.15-.17-.33-.11-.72-.02-1.07-.03-.19,0-.62-.1-.78-.03-.36,0-1.59-.18-1.74,.14-.04,.07,.01,.16,.05,.22,.14,.29,.37,.55,.56,.81,.1,.16,.21,.32,.31,.48v.03l-.08,.03c-.76,0-1.52-.04-2.27-.04v-.05s1.11-1.31,1.23-1.46c0-.04,0-.04-.03-.05-.13-.02-.27-.03-.4-.05-.23-.01-.45-.02-.68-.03-.65-.01-1.33,.02-1.95-.04,0-.07,.92-.96,1.05-1.09,.78-.82,1.6-1.61,2.42-2.42,.28-.29,.56-.58,.84-.86,.09-.09,.17-.19,.29-.22,0-.02,0-.04,0-.06,.18,.09,.34,.28,.49,.43,.25,.25,.49,.5,.73,.75,.15,.14,.31,.29,.46,.43,.7,.72,1.44,1.41,2.15,2.13,.29,.29,.68,.6,.9,.94-.05,0-.11,.02-.16,.03-.22,0-.45,0-.68,0-.08,0-.19-.03-.27,0-.31,0-.68-.04-.92,.07,0,.12,.14,.25,.2,.34Zm-2.35,1.22c0-.08,.59-.93,.68-1.04,.04-.05,.11-.1,.17-.12v-.03c.14,0,.27,0,.41,0,0,.17-.64,1.11-.81,1.18-.12,.05-.28,.03-.42,.03v-.03h-.03Zm-4.13-.08c-.15,.06-.38,.02-.56,.03,0-.24,.99-.96,1.2-1.16,.13,0,.27,0,.41,0,0,.2-.85,1.05-1.05,1.13Zm8.4-8.75c-.21,0-.49-.04-.65,.05-.19,0-.45-.12-.62-.03-.06,0-.13,.02-.19,.03-.21,0-.48-.03-.65,.05-.09,0-.2,.02-.27,.05-.18,0-.57-.05-.71,.02-.08,0-.16,.02-.24,.03-.08,.01-.16,.02-.24,.03-.13,0-.3,.02-.38,.11-.05,0-.01,.14,0,.19,.01,.48-.34,.91-.84,.91-.4,0-.71-.29-.79-.65-.03-.13,0-.3-.07-.4-.03-.04-.1-.07-.16-.06-.19,0-.38-.02-.57-.03-.05,0-.09,.02-.14,.03-.44,0-.84-.06-1.3-.06-.12,0-.29-.02-.38,.03-.33,0-.64-.03-.97-.03-.16,0-.36-.02-.49,.05-.48,0-.96-.04-1.44-.04-.17,0-.4-.04-.54,.03-.15,0-.29,0-.4-.06,0-.11,.06-.21,.1-.3,.13-.32,.24-.42,.5-.64,.14-.13,.26-.28,.42-.38,.69-.45,1.78-.45,2.64-.27,.17,.05,.33,.09,.49,.14,.55,.1,1.04,.17,1.5,.44,.3,.18,.55,.42,.83,.65,.07,.05,.15,.09,.22,.14,.13,.1,.26,.3,.44,.3,.25,0,.41-.33,.6-.46,.21-.15,.42-.32,.65-.43,.64-.31,1.28-.63,1.98-.8,.25-.06,.51-.12,.76-.18,.15-.02,.3,0,.43-.06,.22,0,.43,0,.65,.01,.36,.06,.73,.23,1.01,.44,.13,.14,.25,.27,.37,.41,.2,.21,.41,.44,.45,.74h-.03s-.21,.03-.27,.03c-.57,0-1.14,0-1.7-.01Zm-12.46-3.43c0-.24,.05-.5,.05-.76-.02-.28-.03-.56-.05-.84,0-.46,.05-.91,.06-1.35-.01-.27-.03-.54-.04-.81,0-.21,.02-.41,.02-.62-.02-.21-.03-.42-.05-.62,0-.34,.1-.63,.11-.97-.01-.19-.03-.38-.05-.57,0-.11,.01-.22,.02-.32,.01-.4,.06-.78,.07-1.19,0-.28-.04-.7,.03-.94,.07-.25,.81-1.09,1.07-1.19v-.03c.05,.21,.02,.49,0,.7-.03,.26-.04,.53-.03,.81,.01,.18,.03,.36,.05,.54,0,.34,0,.69,0,1.03-.01,.15-.03,.31-.04,.46,0,.18,.01,.36,.02,.54,0,.48-.04,1.03-.02,1.52,.01,.53-.06,1.1-.05,1.62,.02,.2,.03,.4,.05,.6,0,.4,0,.81,0,1.22-.01,.19-.03,.38-.04,.57,0,.32,0,.63,0,.95,0,.38,.05,1.05-.06,1.37-.03,.1-.16,.17-.22,.25-.09,.12-.18,.24-.26,.36-.09,.08-.18,.17-.26,.25-.09,.17-.18,.34-.27,.52h-.03v.03h-.03c0-.51-.08-1.06-.08-1.57,0-.3,.05-.63,.06-.92,.01-.22-.05-.41-.04-.62Zm1.63-1.86c.02-.23,.04-.47,.06-.7,.01-.57,.02-1.16,.03-1.71,0-.28-.1-.52-.09-.78,.03-.37,.05-.74,.07-1.11,0-.44,0-.88,.01-1.33,0-.75,.04-1.49,.04-2.22,0-.19-.04-.68,.04-.81,.09-.13,.3-.11,.42-.17,.44,0,.87,0,1.3,.01,.31,.01,.64,.07,.92,.15,.19,.04,.38,.07,.56,.11,.17,.06,.33,.11,.49,.17,.62,.23,1.2,.44,1.62,1.01,.23,.3,.17,.72,.21,1.12,.11,1.19,.03,2.46,0,3.65-.02,.77,0,1.52-.04,2.3,0,.27,.01,.54,.02,.81,0,.63-.04,1.27-.06,1.89-.02,.44-.03,.85-.08,1.25-.05,.35-.03,.63-.21,.92v.03c-.06,0-.73-.52-.84-.59-.33-.19-.91-.41-1.29-.5-.32-.07-.64-.06-.97-.11-.26-.04-.96-.19-1.22-.08-.06,0-.12,.02-.19,.03-.09,0-.19,.01-.27,.05-.09,0-.2,.02-.27,.05-.1,0-.2,0-.3,0,0-.26,.05-.49,.05-.73,0-.21-.07-.4-.07-.62,.02-.23,.04-.47,.05-.7,.01-.48-.03-.93-.02-1.41Zm5.61-13.07c0-.11-.03-.24,.01-.34,.03-.09,.12-.13,.19-.17,.09,0,.16,0,.23,.05,.08,.05,.62,.58,.64,.63,.04,.21-.44,.52-.6,.55-.08,.01-.12-.06-.17-.09-.06-.04-.13-.05-.19-.11-.14-.15-.1-.32-.11-.52Zm-.31-.46c-.11,.09-.24,.25-.39,.26-.11,0-.17-.07-.24-.13-.18-.16-.31-.47-.25-.73,.04-.08,.08-.15,.12-.23,.07-.22,.04-.26,.21-.42,.23,.11,.9,.6,.83,.92-.03,.13-.2,.25-.29,.34Zm.12,1.48h-.03s-.1,.02-.13,.01c-.41-.09-.85-.19-.51-.69,.07,0,.12,.01,.17,.05,.09,.07,.12,.18,.19,.27,.1,.13,.26,.2,.31,.36Zm-1.87-3.45s.2-.24,.27-.27v-.03c.34,.22,.62,.62,.27,.98-.07,.07-.18,.17-.28,.18-.32,.05-.18-.34-.19-.51,0-.13-.04-.24-.07-.35Zm.63-.51v-.08c.05-.01,.11-.03,.16-.04,.34-.05,.56-.1,.84-.25,.09,.03,.23,.03,.28,.11,.15,.24-.56,.72-.77,.7-.23-.03-.35-.3-.51-.44Zm-.42,2.24c.05,.01,.1,.03,.15,.05,.13,.08,.6,.53,.62,.67,.02,.15-.38,.43-.51,.46-.11,.02-.14-.09-.17-.17-.13-.31-.22-.65-.09-1.01Zm3.47-.66c.08,0,.16,.02,.23,.03,.24,.09,.44,.43,.35,.68-.05,.13-.2,.25-.31,.34-.08,.06-.19,.15-.3,.14-.16-.02-.09-.35-.05-.44,.06-.13,.19-.16,.2-.31,.01-.18-.12-.26-.12-.43Zm.38-1.11c-.09,.06-.2,.2-.32,.19-.16-.02-.23-.24-.34-.34-.12-.11-.37-.17-.34-.39,.01-.09,.09-.14,.17-.17v-.03c.18,.03,.31,.13,.47,.2,.19,.08,.38,.12,.58,.2,.04,.01,.06,.06,.04,.11-.04,.11-.16,.17-.26,.23Zm-.35,3.35c-.04,.2-.49,.28-.64,.18-.23-.14,.21-.43,.3-.5,.11,.03,.36,.16,.34,.32Zm4.53,4.41c.03,.16,.06,.31,.09,.46,.03,.5,.02,1,.03,1.52,0,.21,.01,.42,.02,.63,0,.65-.04,1.35-.03,2.03,.02,.16,.03,.32,.05,.49,.01,.38,0,.76,0,1.14,0,.2-.04,.4-.05,.6-.02,.33,0,.66-.02,1-.01,.14-.03,.29-.05,.43,0,.28,.02,.57,.01,.87-.02,.24-.03,.47-.05,.7,0,.41,.08,.88,0,1.3-.15-.04-.29-.07-.43-.11-.29-.07-.96-.21-1.25-.06-.05,.01-.11,.02-.17,.03-.06,0-.12,.02-.19,.03-.15,0-.48,.06-.6,.13-.39,0-.55,.11-.85,.27-.25,.13-.52,.22-.77,.35-.28,.15-.55,.38-.85,.5,0,.06-.08-.06-.1-.09-.26-.53-.25-1.39-.25-2.05,0-.25-.04-.48-.04-.7,.01-.08,.02-.16,.03-.24-.01-.14-.02-.27-.03-.41,0-.5,.03-1.01,.01-1.49-.01-.5-.04-1.03-.02-1.55,.01-.33,0-.71,.04-1.05,.02-.15,.03-.29,.05-.43,0-.37,0-.74,0-1.11,.02-.25,.04-.5,.05-.76,.02-.51,.01-1,.09-1.46,.03-.2,.03-.38,.16-.53,.16-.19,.39-.32,.6-.43,.87-.46,1.8-.6,2.81-.79,.22-.04,.47-.02,.67-.09,.19,0,.37,.03,.54,.05,.15,0,.3-.02,.43,.04,.08,0,.06,.18,.06,.25-.01,.18-.05,.38-.02,.56Zm-2.72-9.35v.03s-.05,0-.08,0c0-.09,0-.18,0-.27,.04-.27,.26-.39,.42-.6,.29,.25-.16,.65-.33,.84Zm.2,3.03c0,.2-.1,.41-.27,.49,0,.04-.09-.02-.14-.03,0-.2,.26-.34,.38-.46h.03Zm-.51-.35c-.07,.05-.13,.11-.22,.11-.09,0-.13-.06-.16-.14-.02-.07-.01-.94,0-1.02,.03-.09,.17-.17,.24-.25,.21,.06,.19,.19,.26,.37,.13,.34,.22,.67-.13,.93Zm-.34,1.56s.02,0,0,.03c0,.12-.35,.34-.46,.24-.15-.15,.04-.3,.13-.4,.15,.01,.25,.02,.33,.14Zm2.05-6.5c.11-.12,.18-.27,.28-.4,.09-.08,.17-.17,.26-.25,.19,.02,.38,.05,.59,.06v.08c-.29,0-1.06,.95-1.24,1.19-.09,.11-.18,.34-.31,.41-.08,.04-.17,0-.24-.03-.18-.11-.05-.32,0-.45,.03-.08,.04-.18,.11-.24,.08-.04,.15-.07,.22-.11,.11-.08,.21-.16,.32-.25Zm-1.84,.65c.05-.14,.04-.29,.11-.42,.09-.17,.29-.21,.42-.32,.11-.11,.14-.25,.23-.37,.1-.13,.23-.15,.36-.21,.11,0,.22,0,.32,0,0,.13-.18,.27-.24,.38-.09,.15-.18,.3-.27,.44-.1,.14-.21,.28-.32,.43-.07,.11-.1,.24-.19,.34-.07,.05-.13,.1-.2,.15-.06,.07-.12,.13-.18,.2-.06,.06-.12,.12-.18,.17-.11,.13-.11,.33-.26,.45-.13,.1-.36,.17-.54,.11h-.05c0-.08,.36-.63,.44-.7,.07-.06,.18-.07,.24-.15,.05-.08,.05-.17,.09-.26,.05-.1,.16-.13,.2-.24Zm-2.07,.61c.01-.15,.09-.24,.09-.4,0-.2-.12-.39-.07-.59,.03-.13,.16-.22,.2-.36,.05-.16-.01-.29,.1-.42,.11-.13,.81-.03,1.04-.15,.15,0,.29,0,.43,0v.05s-.04,.02-.06,.05c-.21,.3-.32,.64-.47,.97-.07,.12-.14,.24-.21,.36-.05,.13-.11,.26-.17,.39-.14,.26-.49,.71-.79,.77v-.03s-.03-.25-.04-.3c-.02-.12-.07-.22-.05-.35Zm.31,3.11c-.05,.19-.23,.3-.37,.44-.14,.14-.32,.3-.52,.33-.2,.03-.49-.88-.45-1.04,.02-.07,.34-.4,.4-.44,0,0,0-.02,0-.03,.1,0,.19,.02,.28,.03,.17,.06,.71,.49,.65,.7Zm-2.45-5.02c.1-.11,.49-.04,.65-.08,.17,.06,.6,.05,.81,.06,0,.12,0,.24,.01,.36,.02,.09,.04,.18,.06,.27-.02,.1-.03,.2-.05,.3,0,.43-.07,.85-.09,1.27,.01,.26,.03,.52,.04,.79h-.03v-.03c-.34,0-.74-1.05-.88-1.3-.08-.13-.2-.22-.29-.35-.19-.27-.55-.97-.25-1.29Zm-2.19,.23v-.04c.06-.16,.49-.17,.64-.25,.16,0,.37-.03,.5,.04,.38,.19,.51,.75,.67,1.1,.1,.23,.23,.45,.34,.68,.07,.12,.15,.24,.22,.36,.05,.12,.06,.26,.07,.4,0,.1,.02,.29-.08,.34-.08,.04-.19,.02-.27,0-.14-.05-2.09-2.47-2.1-2.59v-.02Zm-1.06-.28c.2,.03,.32,.09,.47,.24,.21,.21,.4,.46,.57,.7,.09,.12,.14,.26,.24,.38,.13,.14,.27,.29,.4,.43,.12,.15,.24,.3,.36,.45,.04,.07,.09,.13,.13,.2,.09,.08,.17,.15,.26,.22,.18,.17,.35,.39,.44,.62-.04,0-.04,.04-.05,.08-.15,0-.33-.05-.43-.13-.17-.18-.35-.36-.52-.54-.11-.11-.24-.15-.34-.28-.19-.25-.33-.55-.56-.77-.13-.13-.32-.15-.45-.28h-.01c-.14-.16-.19-.36-.31-.52-.14-.18-.33-.3-.46-.48,0-.01-.01-.02-.02-.03,0,0,0-.01,0-.02-.02-.15,.19-.22,.29-.26Zm-5.17-.08c.27,0,.6,.04,.84-.02,.19,.04,.41,.03,.62,.03,.17,0,.32,.02,.49,.03h.68c.1,.02,.2,.03,.3,.05,.21,0,.45-.14,.65-.07,.24,.08,.45,.35,.63,.54,.29,.29,.58,.57,.87,.86,.19,.21,.38,.44,.57,.65,.24,.25,.51,.43,.75,.68,.15,.15,.23,.32,.37,.47,.08,.07,.16,.13,.25,.19,.16,.13,.3,.3,.39,.48-.09,0-.21,.19-.27,.24-.22,.23-.4,.47-.47,.78-.02,.13-.04,.25-.06,.37-.04,.2-.09,.4-.07,.62,.04,.15,.07,.29,.11,.43,.06,.15,.12,.3,.19,.45,.08,.17,.11,.34,.22,.49,.08,.11,.23,.15,.33,.23,.11,.08,.15,.21,.25,.28,.1,.05,.2,.1,.3,.14,.14,.09,.28,.19,.42,.28,.19,.12,.41,.2,.57,.35,.11,.15,.21,.29,.32,.44,.1,.12,.25,.2,.32,.34,.05,.1,.08,.23,.09,.34,0,.11-.02,.22,0,.33,.06,.24,.15,.58,.11,.84-.22,0-.67-.55-.83-.71-.34-.32-.68-.63-1.01-.94-.25-.26-.49-.52-.73-.78-.48-.5-1-.97-1.48-1.47-.25-.27-.52-.53-.77-.8-.11-.13-.22-.25-.33-.38-.89-.87-1.76-1.72-2.64-2.59-.23-.25-.47-.51-.7-.76-.5-.51-.97-1.02-1.5-1.5-.26-.24-.81-.57-.91-.91,.38,0,.76-.02,1.14-.02Zm7.21,6.09c-.26,.07-.21-.44-.2-.61,.19,.07,.59,.52,.2,.61Zm-12.92,20.58c-.4,.37-.72,.8-1.1,1.17-.57,.56-1.14,1.11-1.71,1.67-.19,.19-.46,.4-.6,.61h-.03c0,.05-.06-.1-.07-.14,0-.2,0-.39,0-.59,.01-.6,.02-1.19,.04-1.78,0-.49,0-.97,0-1.44,0-.16-.01-.33-.02-.49,.01-.45,.04-.94,.03-1.41,0-.2-.01-.4-.02-.6,0-.29,.03-.59,.03-.89,0-.18-.01-.36-.02-.54,0-.52,0-1.03,0-1.54,0-.15-.01-.31-.02-.46,.02-.19,.04-.38,.05-.57,.01-.43-.03-.83-.01-1.24,.02-.32,.03-.63,.05-.95,0-.68-.04-1.35-.02-2.03,.02-.32,.04-.65,.06-.97-.01-.17-.03-.34-.04-.51,0-.69,.02-1.4,.01-2.06l-.02-.43c.01-.17,.02-.34,.03-.51,0-.2-.04-.39-.03-.6,.01-.12,.03-.23,.04-.35,0-.32-.01-.65-.01-.97,.28,.1,.5,.41,.71,.61,.47,.46,.94,.91,1.4,1.36,.16,.17,.32,.34,.48,.52,.35,.33,.7,.67,1.02,1.04,.11,.12,.21,.25,.33,.37,.23,.22,.48,.42,.7,.66,.1,.1,.15,.21,.25,.31,.54,.51,1.11,.99,1.66,1.51,.52,.54,1.04,1.07,1.56,1.61,.33,.31,2.41,2.26,2.28,2.56-.04,.06-.07,.11-.11,.17-.24,.42-.81,.89-1.19,1.22-.13,.12-.21,.27-.33,.4-.31,.31-.61,.61-.92,.92-.42,.42-.86,.84-1.29,1.26-.28,.29-.56,.58-.84,.86-.07,.08-.14,.16-.21,.24-.71,.66-1.41,1.34-2.12,1.99Zm11.5,12.9c-.23,0-1.01-.05-1.15,.04-.05,.04-.06,.11-.06,.17,0,.72-.01,1.45-.02,2.16,0,.31,.04,.77-.03,1.08-.02,.08-.06,.14-.12,.19v.03c-.22,0-.42-.1-.62-.13-.2-.03-.4,.01-.59,.01-.15-.02-.29-.04-.44-.06-.28-.03-.56-.05-.84-.08-.11-.01-.28-.03-.38,.02-.65,0-1.25-.13-1.87-.19-.29-.03-.57-.03-.84-.07-.23-.04-.45-.07-.68-.11-.1-.02-.2-.05-.3-.07-.14,0-.28-.01-.43-.02-.32-.06-.65-.12-.98-.17-.25-.03-.57-.04-.78-.15h-.03v-.05s.02,.01,.04-.02c.14-.23,.42-.48,.63-.67,.19-.19,.38-.38,.57-.57,.29-.29,.6-.54,.9-.83,.15-.14,.29-.29,.44-.43,.12-.13,.24-.27,.36-.4,.75-.71,1.51-1.41,2.23-2.15,.45-.46,.86-.94,1.32-1.38,.64-.62,1.27-1.21,1.88-1.86,.18-.18,.36-.36,.53-.55,.12,.17,.05,.79,.03,1-.03,.34-.03,.69-.04,1.05,0,.23-.03,.47,.04,.67,.07,.19,.2,.36,.32,.53,.06,.1,.1,.23,.21,.29,.17,.09,.69,.11,.91,.1,.38-.01,.78-.04,1.19-.04,0,.26-.17,.59-.26,.82-.16,.41-.33,.82-.48,1.24-.06,.15-.11,.36-.22,.49-.08,.09-.19,.03-.3,.07-.05,.01-.11,.02-.16,.03Zm1.84,4.82c-.28-.03-.54-.23-.79-.33-.2-.09-.43-.12-.61-.23h-.03v-.03h.03s0-.03,.03-.03c.4,0,2.27,.07,2.44-.09,.08-.08,.08-.43,.08-.57,0-.87-.1-2.04,.7-2.49,.12-.07,.24-.08,.37-.13,.22,0,.77,.08,.74,.38,0,.07-.09,.07-.15,.08-.53,.06-.63,.35-.85,.77-.18,.33-.15,.91-.16,1.34-.01,.43-.03,.84-.03,1.27h-.03c0,.05-.27,0-.33,.03-.15,0-.27,.04-.4,.05-.34,0-.67,0-1,0Zm3.59,.02c-.12,.22-.36,.38-.55,.53-.09,.11-.19,.22-.28,.34-.24,.24-.48,.46-.63,.75h-.03c-.17-.18-.33-.37-.5-.55-.16-.15-.49-.33-.69-.43v-.03h-.02v-.03h.02s.05-.03,.08-.04c.1-.02,.2-.04,.3-.06,.32,0,.63-.02,.95-.03l.04-.16c.01-.13,.03-.27,.04-.4-.01-.13-.03-.25-.04-.38,0-.13,.01-.25,.02-.38,0-.27-.04-.57-.01-.84,.03-.15,.07-.31,.1-.46,.03-.19,.09-.42,.21-.55,.13-.14,.31-.13,.48-.2,.05,.03,.11,.05,.14,.12,.06,.18,.01,.42,.01,.61,0,.47,.01,.94,.01,1.41,.02,.11,.09,.21,.14,.31,.07,.15,.13,.3,.2,.46,.03,0,.03,0,.02,.02Zm1.61-.66c-.1,0-.23,.08-.31,.12-.25,.11-.5,.22-.75,.34,0,.03-.01,.02-.04,0-.13-.11-.22-.35-.23-.52,.14,0,.29,.01,.41-.02,.31,0,.62,.02,.92,.03v.06Zm.98-4.26c-.17,.08-.41-.07-.5-.2-.11-.14-.14-.3-.2-.47-.09-.26-.17-.53-.27-.78-.07-.17-.2-.4-.17-.6,.02-.13,.14-.18,.22-.24,.08,.02,.13,.04,.18,.11,.05,.08,.07,.17,.1,.26,.09,.25,.17,.5,.24,.76,.08,.29,.21,.6,.34,.87,.02,.05,.15,.25,.06,.29Zm1.75,3.35c-.08,.11-.32,.14-.45,.16,0-.68-.03-1.4,0-2.09,0-.2-.03-.42,.01-.62,.01-.06,.05-.09,.09-.14,.14,0,.27,0,.38,.05,.04,0,.05,.29,.04,.35-.02,.15,.01,.29,.01,.46,0,.24-.04,.46-.03,.7,.02,.25,.09,.92-.04,1.11Zm8.13-.88c-.09,0-.2,.01-.27,.05-.13,0-.41,.07-.52,.13-.25,0-.46,.1-.68,.14-.15,.03-.31,.06-.46,.08-.11,.02-.23,.01-.32,.06-.06,0-.13,.02-.19,.03-.06,0-.13,.02-.19,.03-.16,0-.36-.03-.48,.05-.07,0-.13,.02-.19,.03-.26,0-.58-.04-.78,.08-.1,0-.21-.01-.3,.03-.13,0-.22-.03-.32-.06,0,.06-.32,.1-.38,.13-.18,0-.41-.03-.57,.02-.06,0-.13,.02-.19,.03-.18,0-.4-.02-.54,.05-.12,0-.26,0-.35,.05-.18,0-.62,.05-.73-.04-.18-.14-.08-1.86-.07-2.18,0-.16-.01-.33-.02-.49,0-.17,.05-.75-.24-.65-.17,0-.52-.04-.65,.02-.18,0-.65,.03-.76-.06-.19-.18-.29-.82-.38-1.08-.15-.38-.38-.75-.44-1.17,0-.04-.02-.11,.01-.15,.08-.1,.44-.08,.57-.08,.32,0,1.77,0,1.89-.2,.07-.13,.04-.56,.03-.73,.01-.26,.02-.52,.03-.79,.01-.4-.08-.87,.04-1.24,.92,1,1.97,1.91,2.92,2.9,.09,.11,.18,.22,.27,.33,.24,.24,.5,.45,.75,.69,.66,.64,1.26,1.34,1.91,1.99,.49,.5,1,.98,1.5,1.48,.09,.09,.25,.2,.29,.32,.04,.09-.12,.14-.17,.18Zm5.31-25.16c.02,.26,.05,.52,.07,.78-.01,.15-.03,.29-.05,.43,0,.32,0,.65-.01,.98,0,.11-.01,.21-.02,.32,0,.21,.06,.42,.05,.62,0,.29-.08,.59-.07,.89,.03,.37,.05,.74,.07,1.11-.02,.23-.03,.45-.05,.67,.01,.08,.02,.17,.03,.25,0,.24-.02,.49-.03,.73,0,.17,.02,.35,.03,.52,0,.13-.03,.26-.04,.38-.02,.26,0,.52,.03,.76,.05,.37,.03,.86,0,1.24-.01,.09-.03,.18-.04,.27-.01,.23,.04,.43,.04,.65-.02,.13-.03,.25-.05,.38,0,.14,.01,.27,.02,.41,0,.18-.02,.36-.03,.54,0,.17,.11,1.14-.06,1.14-.11,0-.97-.94-1.11-1.09-1.08-1.09-2.17-2.2-3.24-3.28-.17-.17-.32-.38-.48-.54-.15-.15-.3-.29-.46-.44-.07-.09-.16-.19-.23-.28-1.04-1.02-2.09-2.06-3.13-3.07-.19-.18-1.53-1.53-1.54-1.62,0-.02,0-.05,.01-.07,.1-.26,.53-.54,.74-.74,.23-.22,.4-.46,.62-.68,.19-.2,.4-.39,.6-.59,.07-.06,.15-.13,.22-.19,.17-.17,.33-.35,.5-.52,.17-.17,.33-.33,.5-.5,.15-.17,.3-.35,.45-.53,.18-.18,.38-.32,.56-.5,.24-.24,.47-.48,.71-.73,.27-.26,.54-.51,.8-.77,.52-.54,1.04-1.08,1.57-1.63,.8-.77,1.62-1.52,2.36-2.35,.19-.21,.47-.39,.62-.63,.13,.18,.04,.67,.05,.92,.04,.6,0,1.25,.01,1.87,.02,.31,.03,.63,.04,.94-.02,.33-.03,.65-.05,.98,.01,.19,.03,.38,.04,.57,0,.09-.01,.18-.01,.27,.01,.11,.02,.22,.03,.33-.01,.09-.02,.18-.04,.27-.04,.5-.05,1-.04,1.52Z"/><path class="cls-1" d="M45.92,34.3c-.11,.17-.08,.34,.13,.38v-.03c.11,0-.02-.3-.13-.35Z"/><path class="cls-1" d="M46.02,36.01c-.03-.09-.09-.16-.17-.2-.11,.22-.08,.51-.09,.79,0,.34,0,.69,0,1.03,0,.26,0,.54,0,.78,0,.09,0,.22,.03,.3,0,.15,.16-.08,.17-.1,.17-.39,.05-1.18,.06-1.63,0-.33,.07-.67-.01-.97Z"/><path class="cls-1" d="M46.45,36.39c-.16,.27-.09,.6-.09,.92,0,.26-.03,.46,.05,.68h.05c.24,0,.25-1.29,.17-1.48-.04-.08-.1-.1-.19-.12Z"/></g><path class="cls-1" d="M40.1,38.76c.15,0,.28-.12,.4-.19,.34-.21,.7-.39,1.07-.54,.2-.08,.41-.13,.62-.19,.31-.09,.63-.21,.93-.31,.27-.09,.56-.12,.79-.28,.12-.08,.19-.2,.19-.36,0-.18-.12-.25-.28-.27v.03c-.13,0-.36,.11-.46,.19-.3,0-.59,.18-.84,.29-.8,.32-1.64,.62-2.29,1.22-.08,.07-.36,.25-.23,.39,.02,.03,.06,.03,.1,.03Z"/><path class="cls-1" d="M37.6,37.98c-.97-.54-2-1.09-3.2-1.18v.03c-.27,0-.4,.43-.19,.59,.16,.13,.51,.08,.73,.09,.16,.02,.32,.04,.48,.06,.42,.06,.79,.22,1.17,.37,.28,.11,.56,.21,.83,.34,.23,.11,1,.73,1.19,.71,.01,0,.02,0,.03,0,.02,0,.04-.01,.06-.02,.05,0,0-.13-.01-.15-.14-.27-.82-.68-1.08-.83Z"/><path class="cls-1" d="M43.66,39.94c-.45,.15-.91,.26-1.35,.44-.11,.06-.23,.12-.34,.19-.36,.14-.68,.32-1,.52-.29,.18-.57,.34-.84,.57-.07,.06-.23,.17-.17,.28,.09,.16,.31-.06,.4-.11,.69-.41,1.36-.74,2.16-.92,.24-.05,.47-.13,.71-.17,.26-.06,.55-.06,.78-.19,.19-.11,.24-.44,.03-.55-.1-.05-.24-.05-.36-.05Z"/><path class="cls-1" d="M38.49,41.94c-.19-.22-.56-.5-.82-.61-.11-.04-.22-.08-.32-.12-.45-.21-.89-.37-1.38-.53-.16-.06-.33-.12-.49-.18-.19-.05-.39-.07-.59-.11-.19-.04-.35-.1-.57-.1v.03c-.35,0-.35,.47-.1,.61,.03,.01,.07,.02,.1,.04,.3,.07,.61,.08,.92,.13,.28,.04,.55,.12,.81,.17,.18,.04,.36,.06,.53,.11,.5,.16,.99,.33,1.46,.55,.18,.09,.4,.29,.63,.26,0-.12-.11-.17-.19-.25Z"/></g><g><path class="cls-1" d="M5.89,31.6c.69,.15,.91,.07,1.02-.42l.17,.04-.45,2.03-.17-.04c.09-.41,.03-.67-.76-.85l-4.36-.98-.19,.83c-.17,.77-.03,1.17,.56,1.35l-.04,.17-1.31-.29,.04-.17c.09-.06,.16-.14,.23-.27,.06-.12,.12-.3,.17-.54l.67-2.99c.11-.5,.1-.74,0-.95l.04-.18,1.31,.29-.03,.11c-.5,0-.89,.12-1.09,1.03l-.19,.87,4.39,.98Z"/><path class="cls-1" d="M6.2,25.1l1.52,.74c.64,.31,.91,.25,1.13-.2l.16,.08-.93,1.9-.16-.08c.2-.4,.15-.66-.54-1.01l-3.28-1.6c-.62-.3-.9-.28-1.13,.19l-.16-.08,.93-1.9,.16,.08c-.2,.42-.13,.69,.54,1.02l1.5,.73,1.4-2.87-1.5-.73c-.64-.31-.91-.27-1.13,.18l-.16-.08,.92-1.88,.16,.08c-.22,.45-.08,.7,.55,1.01l3.28,1.6c.62,.3,.91,.26,1.13-.19l.16,.08-.92,1.88-.16-.08c.2-.42,.15-.66-.55-1l-1.53-.74-1.4,2.87Z"/><path class="cls-1" d="M13.12,15.47l-.11,.13c-.46-.23-.57-.2-.96,.27l-.93,1.11,1.61,1.34c.22,.18,.37,.18,.58-.07l.66-.79c.55-.66,.66-.85,.29-1.61l.11-.13,.67,.91-2.7,3.24-.13-.11c.29-.35,.32-.6-.28-1.1l-2.81-2.34c-.56-.46-.82-.47-1.14-.08l-.13-.11,2.7-3.24,.75,.63-.07,.09c-.58-.31-.75-.19-1.16,.31l-1.08,1.3,1.93,1.6,1.05-1.26c.26-.31,.3-.47-.03-.85l.11-.13,1.09,.91Z"/><path class="cls-1" d="M24.1,8.86c-.17,.85-.55,1.41-1.23,1.8-1.24,.7-2.23,.11-2.73-.78l-1.42-2.51c-.38-.68-.64-.71-1.04-.48l-.09-.15,1.85-1.04,.09,.15c-.42,.24-.5,.48-.14,1.13l1.45,2.58c.44,.78,1.2,1.1,2.06,.61,.59-.33,.94-.92,.98-1.67l-1.73-3.07c-.33-.59-.58-.72-1-.5l-.09-.15,1.8-1.01,.09,.15c-.43,.24-.47,.52-.12,1.14l1.79,3.18c.38,.67,.64,.71,1.04,.48l.09,.15-1.26,.71-.4-.71Z"/><path class="cls-1" d="M33.39,6.55l-.17,.04-5.27-3.91h-.02l1.02,3.99c.15,.58,.43,.73,.94,.59l.04,.17-1.72,.44-.04-.17c.48-.12,.67-.33,.46-1.15l-.85-3.32c-.16-.63-.42-.95-1.11-.83l-.04-.17,1.46-.37,4.68,3.51h.02l-.85-3.32c-.19-.74-.44-.88-.93-.75l-.04-.17,1.72-.44,.04,.17c-.55,.14-.67,.42-.5,1.08l1.18,4.62Z"/><path class="cls-1" d="M38.17,4.99c.04,.71,.22,.92,.71,.9v.17l-2.1,.11v-.17c.47-.03,.64-.22,.61-.96l-.18-3.64c-.04-.73-.21-.92-.71-.9v-.17l2.1-.1v.17c-.48,.02-.64,.26-.61,.96l.18,3.64Z"/><path class="cls-1" d="M44.09,6.46l-.16-.02-1.17-4.95c-.18-.75-.29-1.04-.83-1.13l.02-.17,2.11,.28-.02,.17c-.42-.06-.65,.14-.54,.62l.92,3.94,1.83-3.44c.25-.47,.2-.8-.33-.87l.02-.17,1.69,.23-.02,.18c-.44-.06-.81,.23-1.2,.99l-2.32,4.35Z"/><path class="cls-1" d="M53.33,6.57l-.16-.06c.06-.51,0-.6-.58-.81l-1.36-.5-.72,1.97c-.1,.27-.04,.41,.26,.52l.96,.35c.81,.29,1.02,.33,1.61-.27l.17,.06-.63,.93-3.97-1.45,.06-.16c.43,.16,.67,.09,.94-.64l1.26-3.44c.25-.68,.17-.93-.3-1.1l.06-.16,3.97,1.45-.34,.92-.11-.04c.1-.65-.08-.77-.68-.99l-1.58-.58-.86,2.35,1.54,.56c.38,.14,.54,.12,.79-.32l.16,.06-.49,1.34Z"/><path class="cls-1" d="M59.99,6.17l.51,.34c.75,.5,.93,1.28,.51,1.93-.37,.56-1.07,.91-1.89,.37l-.6-.39,1.47-2.24Zm-1.61,2.44l.39,.26c.9,.59,.39,1.91,.58,3.62l1,.66,.09-.15c-.77-.59-.02-2.41-.54-3.6,.86,.26,1.44,0,1.8-.54,.43-.65,.32-1.63-.79-2.36l-2.01-1.32-.09,.15c.39,.26,.48,.48,.05,1.12l-2.02,3.07c-.44,.66-.69,.66-1.07,.41l-.09,.14,1.76,1.16,.1-.15c-.4-.26-.44-.54-.04-1.14l.88-1.34Z"/><path class="cls-1" d="M67.72,13.93l-.12-.12c.56-.67,.36-1.35-.05-1.77-.43-.44-.98-.51-1.37-.13-.77,.76,.07,2.02,.06,3.21,0,.58-.2,.91-.47,1.18-.66,.64-1.71,.64-2.36-.02-.44-.44-.58-1.03-.72-1.17-.07-.07-.17-.07-.32,0l-.12-.13,1.13-1.11,.12,.12c-.76,.77-.4,1.65-.04,2.02,.5,.5,1.12,.55,1.57,.11,.72-.71-.05-2.16-.04-3.09,0-.51,.19-.89,.52-1.22,.64-.63,1.53-.6,2.2,.07,.44,.44,.49,.81,.64,.97,.07,.07,.09,.07,.23,0l.11,.12-.98,.96Z"/><path class="cls-1" d="M68.22,20.19c-.59,.41-.67,.67-.39,1.08l-.14,.1-1.2-1.73,.14-.1c.27,.4,.53,.44,1.14,.02l3-2.08c.61-.42,.67-.66,.39-1.08l.14-.1,1.2,1.73-.14,.1c-.28-.4-.56-.42-1.14-.02l-3,2.08Z"/><path class="cls-1" d="M71.13,25.51c-.64,.29-.76,.5-.56,.95l-.16,.07-.86-1.89,.16-.07c.17,.38,.39,.55,1.13,.22l4.06-1.86-.36-.77c-.32-.71-.68-.95-1.26-.74l-.07-.16,1.22-.56,.07,.16c-.03,.11-.04,.21-.02,.36,.03,.13,.09,.31,.19,.53l1.28,2.79c.21,.46,.37,.65,.58,.76l.08,.17-1.22,.56-.05-.1c.4-.31,.64-.63,.25-1.47l-.37-.81-4.09,1.87Z"/><path class="cls-1" d="M73.44,32.63c-.69,.15-.88,.33-.78,.83l-.17,.04-.45-2.09,.17-.04c.09,.44,.24,.68,1.06,.51l1.8-.39,1.64-1.63c.54-.53,.64-.73,.56-1.18l.17-.04,.48,2.24-.17,.04c-.14-.63-.37-.65-.67-.35l-1.5,1.5,1.63,.6c.51,.18,.94,.11,.83-.37l.17-.04,.34,1.57-.17,.04c-.12-.43-.28-.56-.85-.77l-2.3-.85-1.8,.38Z"/><path class="cls-1" d="M3.93,47.49c1.63-.47,2.97,.06,3.35,1.39,.33,1.16-.39,2.39-2.16,2.9-1.36,.39-2.92,.04-3.33-1.37-.36-1.27,.5-2.44,2.14-2.91Zm-.24-.87c-1.67,.48-2.6,2.17-2.12,3.85,.48,1.68,2.17,2.63,3.84,2.15,1.64-.47,2.55-2.16,2.07-3.83-.5-1.72-2.13-2.65-3.8-2.17Z"/><path class="cls-1" d="M6.03,58c-.62,.35-.72,.61-.48,1.04l-.15,.09-1.05-1.83,.15-.09c.24,.43,.51,.48,1.14,.12l3.17-1.81c.64-.36,.72-.61,.48-1.04l.15-.09,1.99,3.49-.91,.52-.07-.12c.55-.48,.5-.65,.19-1.2l-.74-1.3-2.13,1.22,.76,1.32c.22,.38,.49,.41,.93,.22l.08,.14-1.43,.81-.08-.14c.35-.22,.46-.52,.26-.88l-.76-1.34-1.5,.86Z"/><path class="cls-1" d="M17.27,69.29l-.13-.11c.22-.46,.19-.57-.28-.95l-1.12-.92-1.33,1.62c-.18,.22-.17,.37,.08,.58l.79,.65c.66,.54,.86,.65,1.61,.28l.13,.11-.9,.68-3.27-2.68,.11-.13c.36,.29,.6,.31,1.1-.29l2.32-2.83c.46-.56,.46-.82,.08-1.14l.11-.14,3.27,2.68-.62,.76-.09-.07c.31-.58,.18-.75-.32-1.16l-1.3-1.07-1.59,1.94,1.26,1.04c.31,.25,.47,.3,.85-.04l.13,.11-.9,1.1Z"/><path class="cls-1" d="M23.94,69.48l1.01,.47c1.68,.77,1.73,2.35,1.15,3.62-.67,1.45-1.88,1.99-3.2,1.39l-.55-.25c-.49-.23-.6-.47-.22-1.3l1.81-3.93Zm-2.6,3.79c-.3,.66-.57,.76-.99,.57l-.07,.16,2.53,1.16c2.09,.96,3.5,.12,4.12-1.22,.64-1.38,.3-3.19-1.73-4.13l-2.46-1.13-.07,.16c.45,.21,.51,.48,.21,1.12l-1.53,3.31Z"/><path class="cls-1" d="M31.65,76.96c-.16,.7-.03,.95,.45,1.05l-.04,.17-2.06-.45,.04-.17c.47,.1,.69-.04,.85-.77l.79-3.57c.16-.72,.04-.95-.45-1.05l.04-.17,2.06,.45-.04,.17c-.48-.11-.7,.08-.85,.77l-.78,3.57Z"/><path class="cls-1" d="M42.25,78.85h-.17l-4.19-5.04h-.02l.05,4.11c0,.59,.24,.8,.77,.8v.17l-1.78,.02v-.17c.49,0,.72-.16,.71-1.01l-.04-3.43c0-.65-.19-1.02-.88-1.07v-.17l1.5-.02,3.71,4.52h.02l-.04-3.43c0-.77-.22-.96-.73-.95v-.17l1.77-.02v.17c-.57,0-.75,.24-.74,.93l.05,4.76Z"/><path class="cls-1" d="M48.38,74.65l-.66-2.4,.56-.15c.92-.25,1.49,.13,1.68,.84,.2,.71-.18,1.32-1.01,1.55l-.58,.16Zm-.21,2.18c.19,.69,.08,.94-.39,1.07l.05,.17,2.6-.71c1.07-.29,1.67-1.03,1.43-1.88-.21-.76-.98-1.25-1.9-1.19v-.02c.7-.47,.95-.97,.78-1.59-.2-.72-.98-1.22-2.34-.84l-2.13,.59,.05,.17c.48-.13,.69,0,.89,.72l.97,3.52Zm.27-1.96l.53-.15c.99-.27,1.78,.11,2.01,.94,.23,.83-.21,1.36-.78,1.52l-.46,.13c-.44,.12-.64-.03-.84-.79l-.46-1.66Z"/><path class="cls-1" d="M60.3,72.03c-.16,.85-.53,1.42-1.2,1.82-1.23,.71-2.23,.14-2.74-.73l-1.45-2.49c-.39-.67-.65-.7-1.04-.47l-.09-.15,1.83-1.07,.09,.15c-.41,.24-.5,.49-.12,1.14l1.5,2.56c.45,.78,1.21,1.08,2.07,.58,.58-.34,.93-.93,.96-1.68l-1.78-3.05c-.34-.58-.59-.71-1.01-.49l-.09-.15,1.78-1.04,.09,.15c-.42,.25-.46,.53-.11,1.14l1.84,3.15c.38,.66,.65,.69,1.04,.47l.09,.15-1.25,.73-.41-.71Z"/><path class="cls-1" d="M62.66,64.1l.43-.44c.63-.64,1.44-.67,1.99-.12,.48,.47,.69,1.22,0,1.93l-.5,.51-1.91-1.88Zm2.08,2.05l.33-.33c.75-.76,1.95-.01,3.67,.14l.84-.85-.12-.12c-.73,.64-2.37-.45-3.64-.17,.42-.79,.28-1.42-.18-1.87-.55-.55-1.54-.63-2.46,.31l-1.69,1.71,.13,.12c.33-.34,.57-.37,1.11,.17l2.62,2.58c.56,.55,.51,.81,.2,1.12l.12,.12,1.48-1.5-.13-.12c-.34,.34-.62,.32-1.13-.18l-1.14-1.13Z"/><path class="cls-1" d="M74.37,58c-.09,.33-.59,1.24-.73,1.47-1.34,2.2-3.12,2.12-4.27,1.42-1.77-1.08-1.95-3.03-1.2-4.26,.43-.71,.83-.83,1.07-1.22,.09-.16,.09-.25,0-.38l.1-.16,1.48,.9-.09,.14c-1.03-.45-1.95,.15-2.36,.84-.63,1.03-.2,2.35,1.17,3.19,1.47,.89,3.08,.68,3.81-.51,.22-.36,.42-.89-.02-1.16l-.54-.33c-.61-.37-.91-.36-1.16,.05l-.12,.19-.15-.09,1.24-2.03,.15,.09c-.3,.49-.14,.76,.29,1.03l1.34,.82Z"/><path class="cls-1" d="M74.21,51.23l1.63,.47c.68,.2,.94,.09,1.08-.39l.17,.05-.59,2.03-.17-.05c.13-.43,.04-.68-.71-.89l-3.51-1.01c-.67-.19-.93-.12-1.08,.38l-.17-.05,.59-2.03,.17,.05c-.13,.44-.01,.7,.71,.91l1.6,.46,.89-3.06-1.6-.46c-.69-.2-.94-.11-1.07,.37l-.17-.05,.58-2.01,.17,.05c-.14,.48,.04,.7,.71,.9l3.51,1.01c.67,.19,.94,.1,1.08-.38l.17,.05-.58,2.01-.17-.05c.13-.44,.04-.67-.71-.89l-1.63-.47-.88,3.06Z"/><path class="cls-1" d="M3.41,40.08c0,.28-.23,.51-.52,.51-.28,0-.51-.23-.51-.52,0-.28,.23-.51,.52-.51s.51,.23,.51,.52Z"/><path class="cls-1" d="M76.68,40.09c0,.28-.24,.52-.52,.51-.29,0-.51-.23-.51-.52,0-.28,.23-.51,.52-.51,.29,0,.52,.23,.52,.52Z"/></g></g><g><path class="cls-1" d="M105.49,22.52h-1.64v8.32c0,.65,.08,1.09,.24,1.32,.16,.23,.47,.34,.93,.34v.31h-3.83v-.31c.48,0,.8-.13,.97-.39,.17-.26,.26-.7,.26-1.33v-8.27h-1.57c-.75,0-1.3,.12-1.64,.36-.34,.24-.53,.64-.58,1.19h-.32v-2.48h.32c.29,.27,.83,.41,1.62,.41h5.68c.82,0,1.39-.13,1.72-.41h.34v2.48h-.21c-.14-.6-.38-1-.72-1.22-.35-.22-.87-.33-1.56-.33Z"/><path class="cls-1" d="M117.87,30.78v-3.14h-5.9v3.14c0,.64,.09,1.09,.27,1.34,.18,.25,.51,.38,.98,.38v.31h-3.91v-.31c.47,0,.8-.13,.97-.38,.17-.26,.26-.7,.26-1.33v-6.75c0-.67-.09-1.12-.26-1.36-.18-.24-.5-.36-.96-.36v-.31h3.91v.31c-.47,0-.8,.13-.98,.39-.18,.26-.27,.71-.27,1.33v3.08h5.9v-3.08c0-.66-.08-1.12-.25-1.36-.17-.24-.49-.36-.96-.36v-.31h3.88v.31c-.46,0-.78,.13-.96,.38-.18,.25-.27,.7-.27,1.35v6.75c0,.65,.09,1.09,.27,1.34,.18,.25,.5,.37,.96,.37v.31h-3.88v-.31c.48,0,.8-.12,.96-.37,.16-.25,.24-.7,.24-1.35Z"/><path class="cls-1" d="M128.99,26.09h.32v2.63h-.32c-.12-.46-.26-.75-.42-.87-.17-.12-.53-.18-1.09-.18h-2.69v3.88c0,.27,.06,.46,.18,.57,.12,.11,.32,.17,.61,.17h1.89c.68,0,1.14-.04,1.4-.11,.26-.07,.48-.21,.65-.41,.18-.2,.37-.52,.57-.97h.32l-.5,2.02h-7.8v-.31c.49,0,.81-.12,.98-.37,.17-.25,.25-.69,.25-1.33v-6.77c0-.66-.09-1.11-.26-1.36-.17-.25-.49-.37-.97-.37v-.31h7.8v1.81h-.2c-.11-.52-.27-.86-.48-1.03-.21-.17-.65-.25-1.34-.25h-3.12v4.63h3.03c.41,0,.69-.07,.84-.22,.15-.15,.26-.43,.33-.84Z"/><path class="cls-1" d="M144.4,30.55v-6.51c0-.63-.08-1.07-.25-1.32-.17-.25-.47-.38-.9-.4v-.31h3.82v.31c-.46,0-.78,.13-.96,.38-.18,.25-.27,.7-.27,1.35v6.75c0,.63,.09,1.08,.26,1.33,.18,.26,.5,.38,.96,.38v.31h-2.67v-1.51c-1.02,1.19-2.22,1.78-3.61,1.78-1.14,0-2.04-.34-2.7-1.02-.66-.68-.98-1.58-.98-2.7v-5.32c0-.65-.08-1.09-.25-1.35-.17-.25-.49-.38-.97-.38v-.31h3.91v.31c-.49,0-.81,.12-.99,.37-.17,.25-.26,.69-.26,1.34v5.48c0,.89,.24,1.58,.73,2.09,.49,.51,1.16,.76,2.03,.76,1.29,0,2.32-.6,3.09-1.8Z"/><path class="cls-1" d="M156.79,22.3v-.31h3.27v.31c-.52,0-.89,.12-1.09,.37-.2,.25-.3,.69-.3,1.34v8.8h-.33l-7.67-9.41v7.6c0,.54,.11,.92,.33,1.15,.22,.23,.58,.35,1.09,.35v.31h-3.29v-.31c.52,0,.88-.14,1.06-.41,.18-.27,.28-.76,.28-1.45v-6.34c0-.68-.12-1.17-.37-1.47-.25-.3-.66-.48-1.23-.53v-.31h2.78l6.8,8.43v-6.33c0-.66-.09-1.13-.28-1.39-.19-.26-.53-.39-1.04-.39Z"/><path class="cls-1" d="M165.49,21.99v.31c-.46,0-.78,.13-.96,.38-.18,.25-.27,.7-.27,1.35v6.75c0,.65,.09,1.09,.27,1.34,.18,.25,.5,.37,.96,.37v.31h-3.89v-.31c.47,0,.8-.12,.97-.37,.17-.25,.26-.7,.26-1.35v-6.75c0-.67-.08-1.12-.25-1.36-.17-.24-.49-.36-.97-.36v-.31h3.89Z"/><path class="cls-1" d="M177.43,21.99v.33c-.79,0-1.45,.7-1.97,2.1l-3.19,8.54h-.31l-3.35-8.79c-.31-.81-.58-1.32-.81-1.54-.23-.21-.55-.32-.98-.34v-.31h3.93v.31c-.63,0-.95,.24-.95,.73,0,.16,.04,.34,.12,.54l2.65,6.99,2.51-6.75c.1-.29,.16-.54,.16-.75,0-.51-.32-.77-.97-.77v-.31h3.16Z"/><path class="cls-1" d="M185.36,26.09h.32v2.63h-.32c-.12-.46-.26-.75-.42-.87-.17-.12-.53-.18-1.09-.18h-2.69v3.88c0,.27,.06,.46,.18,.57s.32,.17,.61,.17h1.89c.68,0,1.14-.04,1.4-.11,.26-.07,.48-.21,.65-.41,.18-.2,.37-.52,.57-.97h.32l-.5,2.02h-7.8v-.31c.49,0,.81-.12,.98-.37,.17-.25,.25-.69,.25-1.33v-6.77c0-.66-.09-1.11-.26-1.36-.17-.25-.49-.37-.97-.37v-.31h7.8v1.81h-.2c-.11-.52-.27-.86-.48-1.03-.21-.17-.65-.25-1.34-.25h-3.12v4.63h3.03c.41,0,.69-.07,.84-.22,.15-.15,.26-.43,.33-.84Z"/><path class="cls-1" d="M191.74,27.8h-.88v2.98c0,.64,.09,1.09,.27,1.34,.18,.25,.5,.38,.96,.38v.31h-3.89v-.31c.48,0,.8-.13,.97-.38,.17-.25,.25-.7,.25-1.34v-6.79c0-.64-.08-1.08-.25-1.32-.17-.24-.49-.36-.98-.36v-.31h4.44c1.1,0,1.97,.27,2.63,.8,.66,.53,.98,1.21,.98,2.04,0,1.33-.74,2.21-2.23,2.66,.33,.21,.65,.5,.96,.86,.31,.37,.72,.97,1.22,1.82,.57,.94,1.01,1.56,1.33,1.86,.32,.29,.65,.45,.99,.48v.31h-2.21c-.46-.55-1.01-1.35-1.65-2.41-.69-1.12-1.23-1.83-1.62-2.14-.39-.31-.82-.46-1.3-.46Zm.26-5.4h-1.14v4.95h1.33c.79,0,1.42-.23,1.87-.68,.45-.46,.68-1.06,.68-1.81s-.25-1.32-.75-1.78c-.5-.45-1.16-.68-1.99-.68Z"/><path class="cls-1" d="M204.93,21.83h.3v2.54h-.32c-.07-.7-.33-1.25-.76-1.64-.43-.39-.98-.59-1.64-.59-.58,0-1.06,.15-1.41,.44-.36,.3-.54,.69-.54,1.18,0,.46,.15,.87,.44,1.25s.93,.86,1.92,1.45c1.14,.68,1.91,1.28,2.31,1.79,.39,.51,.59,1.1,.59,1.75,0,.85-.3,1.58-.9,2.18s-1.33,.9-2.17,.9c-.49,0-1.12-.13-1.88-.41-.31-.11-.51-.17-.6-.17-.18,0-.32,.14-.41,.42h-.32v-2.93h.32c0,.81,.27,1.45,.79,1.94,.52,.49,1.13,.73,1.82,.73,.66,0,1.18-.18,1.58-.53,.4-.35,.59-.82,.59-1.4,0-.44-.16-.86-.49-1.26-.33-.4-1.01-.92-2.04-1.55-.84-.52-1.41-.93-1.69-1.23-.28-.3-.49-.63-.63-.99-.13-.36-.2-.76-.2-1.19,0-.83,.27-1.5,.82-2.02,.54-.52,1.25-.78,2.13-.78,.48,0,1,.1,1.57,.29,.26,.09,.45,.13,.55,.13,.09,0,.14-.02,.18-.05,.03-.04,.06-.12,.1-.25Z"/><path class="cls-1" d="M211.53,21.99v.31c-.46,0-.78,.13-.96,.38-.18,.25-.27,.7-.27,1.35v6.75c0,.65,.09,1.09,.27,1.34,.18,.25,.5,.37,.96,.37v.31h-3.89v-.31c.47,0,.8-.12,.97-.37,.17-.25,.26-.7,.26-1.35v-6.75c0-.67-.08-1.12-.25-1.36-.17-.24-.49-.36-.97-.36v-.31h3.89Z"/><path class="cls-1" d="M220.13,22.52h-1.64v8.32c0,.65,.08,1.09,.24,1.32,.16,.23,.47,.34,.93,.34v.31h-3.83v-.31c.48,0,.8-.13,.97-.39,.17-.26,.26-.7,.26-1.33v-8.27h-1.57c-.75,0-1.3,.12-1.64,.36-.34,.24-.53,.64-.58,1.19h-.32v-2.48h.32c.29,.27,.83,.41,1.62,.41h5.68c.82,0,1.39-.13,1.72-.41h.34v2.48h-.21c-.14-.6-.38-1-.72-1.22-.35-.22-.87-.33-1.56-.33Z"/><path class="cls-1" d="M231.75,23.53l-2.44,3.84v3.41c0,.66,.08,1.11,.25,1.35,.17,.24,.48,.36,.94,.36v.31h-3.95v-.31c.54,0,.89-.13,1.07-.39,.18-.26,.26-.7,.26-1.33v-3.41l-2.31-3.59c-.38-.6-.69-.99-.93-1.17-.24-.18-.57-.29-1-.3v-.31h4.24v.31c-.74,0-1.12,.17-1.12,.51,0,.15,.07,.34,.22,.57l2.14,3.28,1.71-2.72c.25-.41,.38-.75,.38-1.04,0-.4-.24-.6-.72-.6v-.31h2.97v.31c-.4,.02-.71,.11-.93,.26-.22,.15-.48,.47-.8,.96Z"/><path class="cls-1" d="M240.19,26.39c.5,0,.95,.21,1.33,.64,.38,.42,.57,.92,.57,1.5,0,1-.38,2-1.14,3-.76,1-1.65,1.5-2.69,1.5-.58,0-1.05-.21-1.42-.62-.37-.41-.55-.94-.55-1.58,0-1.12,.4-2.14,1.21-3.06,.81-.92,1.7-1.38,2.68-1.38Zm-1.51,6.08c.61,0,1.15-.38,1.61-1.14,.46-.76,.7-1.66,.7-2.71,0-.47-.12-.87-.37-1.19-.25-.32-.55-.48-.92-.48-.59,0-1.12,.38-1.59,1.13-.47,.76-.7,1.64-.7,2.66,0,.53,.12,.95,.35,1.26s.54,.47,.93,.47Z"/><path class="cls-1" d="M246.75,26.6l-.06,.52h-1.31l-1.05,5.52c-.28,1.49-.58,2.57-.92,3.25-.34,.68-.81,1.2-1.41,1.57-.61,.37-1.26,.56-1.95,.56-.93,0-1.66-.17-2.2-.51l.29-1.32h.32c.2,.97,.75,1.45,1.65,1.45,.67,0,1.27-.24,1.78-.73,.51-.49,.93-1.62,1.27-3.4l1.2-6.39h-1.33l.06-.52h1.33l.47-2.29c.25-1.22,.65-2.06,1.21-2.52,.56-.46,1.22-.69,1.99-.69,.36,0,.79,.08,1.29,.25l.05-.23h.38l-.36,1.71h-.38c-.08-.9-.48-1.35-1.19-1.35-.91,0-1.53,.77-1.85,2.31l-.59,2.81h1.34Z"/><path class="cls-1" d="M259.78,26.09h.32v2.63h-.32c-.12-.46-.26-.75-.42-.87-.17-.12-.53-.18-1.09-.18h-2.69v3.88c0,.27,.06,.46,.18,.57,.12,.11,.32,.17,.61,.17h1.89c.68,0,1.14-.04,1.4-.11,.26-.07,.48-.21,.65-.41,.18-.2,.37-.52,.57-.97h.32l-.5,2.02h-7.8v-.31c.49,0,.81-.12,.98-.37,.17-.25,.25-.69,.25-1.33v-6.77c0-.66-.09-1.11-.26-1.36-.17-.25-.5-.37-.97-.37v-.31h7.8v1.81h-.2c-.11-.52-.27-.86-.48-1.03-.21-.17-.65-.25-1.34-.25h-3.12v4.63h3.03c.41,0,.69-.07,.84-.22,.15-.15,.26-.43,.33-.84Z"/><path class="cls-1" d="M262.73,32.82v-.31c.46,0,.78-.13,.96-.38,.18-.26,.27-.7,.27-1.33v-6.75c0-.65-.09-1.1-.27-1.35-.18-.25-.5-.38-.96-.38v-.31h5.01c1.85,0,3.33,.53,4.44,1.58,1.11,1.05,1.66,2.39,1.66,4.01s-.53,2.86-1.58,3.81c-1.05,.95-2.51,1.42-4.39,1.42h-5.14Zm4.72-10.41h-2.06v7.99c0,.77,.09,1.29,.28,1.58,.18,.28,.55,.42,1.11,.42h1.12c1.33,0,2.37-.43,3.14-1.29,.76-.86,1.14-2.03,1.14-3.51,0-1.58-.42-2.83-1.25-3.78s-1.99-1.42-3.47-1.42Z"/><path class="cls-1" d="M279.17,21.99v.31c-.46,0-.78,.13-.96,.38-.18,.25-.27,.7-.27,1.35v6.75c0,.65,.09,1.09,.27,1.34,.18,.25,.5,.37,.96,.37v.31h-3.89v-.31c.47,0,.8-.12,.97-.37,.17-.25,.26-.7,.26-1.35v-6.75c0-.67-.08-1.12-.25-1.36-.17-.24-.49-.36-.97-.36v-.31h3.89Z"/><path class="cls-1" d="M288.78,22.3v-.31h3.27v.31c-.52,0-.89,.12-1.09,.37-.2,.25-.3,.69-.3,1.34v8.8h-.33l-7.67-9.41v7.6c0,.54,.11,.92,.33,1.15,.22,.23,.58,.35,1.09,.35v.31h-3.29v-.31c.52,0,.88-.14,1.06-.41,.18-.27,.28-.76,.28-1.45v-6.34c0-.68-.12-1.17-.37-1.47-.25-.3-.66-.48-1.23-.53v-.31h2.78l6.8,8.43v-6.33c0-.66-.09-1.13-.28-1.39-.19-.26-.53-.39-1.04-.39Z"/><path class="cls-1" d="M298.23,32.82h-4.99v-.31c.46,0,.78-.12,.96-.37,.18-.25,.27-.7,.27-1.34v-6.75c0-.66-.08-1.11-.25-1.36-.17-.25-.49-.37-.97-.37v-.31h4.08c1.17,0,2.09,.24,2.76,.72,.67,.48,1.01,1.12,1.01,1.91,0,1.16-.73,1.98-2.18,2.45v.05c.82,.17,1.5,.53,2.02,1.09,.52,.56,.78,1.21,.78,1.94,0,.8-.32,1.44-.96,1.93-.64,.48-1.48,.73-2.53,.73Zm-2.33-10.41v4.59h1.12c.78,0,1.41-.2,1.87-.61,.46-.41,.69-.96,.69-1.66,0-.73-.23-1.3-.68-1.71-.45-.41-1.09-.61-1.92-.61h-1.08Zm1.03,5h-1.03v3.17c0,.7,.08,1.18,.23,1.43,.15,.26,.45,.38,.89,.38h.9c.63,0,1.14-.21,1.54-.63,.4-.42,.6-.99,.6-1.69,0-.81-.29-1.45-.86-1.94-.57-.49-1.33-.73-2.27-.73Z"/><path class="cls-1" d="M311.36,30.55v-6.51c0-.63-.08-1.07-.25-1.32-.17-.25-.47-.38-.9-.4v-.31h3.82v.31c-.46,0-.78,.13-.96,.38-.18,.25-.27,.7-.27,1.35v6.75c0,.63,.09,1.08,.26,1.33,.18,.26,.5,.38,.96,.38v.31h-2.67v-1.51c-1.02,1.19-2.22,1.78-3.61,1.78-1.14,0-2.04-.34-2.7-1.02-.66-.68-.98-1.58-.98-2.7v-5.32c0-.65-.08-1.09-.25-1.35-.17-.25-.49-.38-.97-.38v-.31h3.91v.31c-.49,0-.81,.12-.99,.37-.17,.25-.26,.69-.26,1.34v5.48c0,.89,.24,1.58,.73,2.09,.49,.51,1.16,.76,2.03,.76,1.29,0,2.32-.6,3.09-1.8Z"/><path class="cls-1" d="M319.16,27.8h-.88v2.98c0,.64,.09,1.09,.27,1.34,.18,.25,.5,.38,.96,.38v.31h-3.89v-.31c.48,0,.8-.13,.97-.38,.17-.25,.25-.7,.25-1.34v-6.79c0-.64-.08-1.08-.25-1.32-.17-.24-.49-.36-.98-.36v-.31h4.44c1.1,0,1.97,.27,2.63,.8,.66,.53,.98,1.21,.98,2.04,0,1.33-.74,2.21-2.23,2.66,.33,.21,.65,.5,.96,.86,.31,.37,.72,.97,1.22,1.82,.57,.94,1.01,1.56,1.33,1.86,.32,.29,.65,.45,.99,.48v.31h-2.21c-.46-.55-1.01-1.35-1.65-2.41-.69-1.12-1.23-1.83-1.62-2.14-.39-.31-.82-.46-1.3-.46Zm.26-5.4h-1.14v4.95h1.33c.79,0,1.42-.23,1.87-.68,.45-.46,.68-1.06,.68-1.81s-.25-1.32-.75-1.78c-.5-.45-1.16-.68-1.99-.68Z"/><path class="cls-1" d="M336.7,28.13v.31c-.48,0-.82,.11-1.03,.33-.21,.22-.31,.6-.31,1.13v2.91c-.25,.07-.72,.13-1.42,.18-.69,.06-1.23,.08-1.61,.08-2,0-3.56-.49-4.67-1.48-1.12-.98-1.67-2.28-1.67-3.89,0-1.13,.24-2.14,.73-3.05,.49-.9,1.17-1.62,2.05-2.15,.88-.53,1.81-.79,2.79-.79,.59,0,1.23,.1,1.93,.31,.44,.13,.78,.19,1.01,.19,.31,0,.51-.12,.61-.36h.34v3.19h-.3c-.12-.89-.52-1.6-1.2-2.13-.68-.53-1.48-.8-2.39-.8-1.14,0-2.08,.46-2.81,1.37-.73,.91-1.1,2.09-1.1,3.54,0,1.59,.42,2.9,1.27,3.95,.85,1.05,1.91,1.57,3.19,1.57,1.21,0,1.82-.39,1.82-1.16v-1.17c0-.67-.09-1.13-.26-1.4-.18-.26-.48-.4-.93-.4h-.42v-.31h4.38Z"/><path class="cls-1" d="M346.14,30.78v-3.14h-5.9v3.14c0,.64,.09,1.09,.27,1.34,.18,.25,.51,.38,.98,.38v.31h-3.91v-.31c.47,0,.8-.13,.97-.38,.17-.26,.26-.7,.26-1.33v-6.75c0-.67-.09-1.12-.26-1.36-.18-.24-.5-.36-.96-.36v-.31h3.91v.31c-.47,0-.8,.13-.98,.39-.18,.26-.27,.71-.27,1.33v3.08h5.9v-3.08c0-.66-.08-1.12-.25-1.36-.17-.24-.49-.36-.96-.36v-.31h3.88v.31c-.46,0-.78,.13-.96,.38-.18,.25-.27,.7-.27,1.35v6.75c0,.65,.09,1.09,.27,1.34,.18,.25,.5,.37,.96,.37v.31h-3.88v-.31c.48,0,.8-.12,.96-.37,.16-.25,.24-.7,.24-1.35Z"/></g><g><path class="cls-1" d="M98.41,59.82v-16.88h2.31v14.75h8.41v2.13h-10.73Z"/><path class="cls-1" d="M110.72,45.29v-2.35h2.06v2.35h-2.06Zm0,14.53v-12.27h2.06v12.27h-2.06Z"/><path class="cls-1" d="M115.99,59.82v-16.88h2.02v6.31c.47-.7,1.04-1.22,1.71-1.58,.67-.36,1.42-.53,2.26-.53,1.63,0,2.93,.6,3.92,1.79,.99,1.19,1.48,2.79,1.48,4.79s-.49,3.54-1.46,4.72-2.28,1.76-3.91,1.76c-.86,0-1.62-.16-2.26-.47-.65-.31-1.22-.8-1.74-1.46v1.55h-2.02Zm1.95-6.22c0,1.53,.31,2.7,.94,3.53,.63,.82,1.52,1.24,2.68,1.24s2.02-.4,2.68-1.2c.65-.8,.98-1.9,.98-3.3,0-1.55-.31-2.75-.95-3.59s-1.53-1.27-2.69-1.27-2.13,.38-2.73,1.15c-.61,.77-.91,1.92-.91,3.44Z"/><path class="cls-1" d="M129.89,59.82v-12.27h1.99v2.2c.33-.83,.77-1.44,1.33-1.85s1.25-.61,2.07-.61c.15,0,.26,0,.33,0s.14,.01,.21,.03v2.18c-.05,0-.11-.01-.18-.02s-.17,0-.31,0c-1.1,0-1.94,.3-2.52,.9-.58,.6-.87,1.47-.87,2.62v6.83h-2.06Z"/><path class="cls-1" d="M145.26,58.18c-.64,.67-1.32,1.18-2.05,1.51-.72,.34-1.49,.5-2.3,.5-1.25,0-2.23-.33-2.93-.98-.7-.65-1.05-1.56-1.05-2.71s.35-1.99,1.04-2.62,1.74-1.04,3.16-1.23c.36-.04,.84-.09,1.46-.16,1.05-.11,1.69-.21,1.93-.31,.24-.09,.39-.21,.47-.36,.08-.15,.11-.47,.11-.97,0-.63-.23-1.1-.69-1.41-.46-.31-1.15-.47-2.07-.47s-1.68,.19-2.16,.57c-.49,.38-.73,.95-.73,1.7h-1.95v-.09c0-1.24,.44-2.22,1.31-2.93,.87-.72,2.07-1.08,3.6-1.08,1.64,0,2.85,.31,3.63,.92,.78,.62,1.16,1.58,1.16,2.88v6.14c0,.53,.06,.87,.17,1.02s.32,.23,.62,.23c.06,0,.14,0,.22-.02,.09-.01,.19-.03,.32-.05v1.59c-.25,.07-.47,.12-.66,.14-.19,.03-.36,.04-.53,.04-.69,0-1.2-.15-1.55-.45s-.52-.75-.52-1.35v-.07Zm-.19-4.61c-.55,.3-1.49,.53-2.83,.7-.47,.06-.83,.11-1.07,.15-.75,.12-1.29,.34-1.62,.66s-.49,.79-.49,1.4,.19,1.08,.57,1.41c.38,.33,.93,.49,1.64,.49,1.11,0,2.02-.28,2.73-.84,.71-.56,1.07-1.27,1.07-2.14v-1.83Z"/><path class="cls-1" d="M150.42,59.82v-12.27h1.99v2.2c.33-.83,.77-1.44,1.33-1.85s1.25-.61,2.07-.61c.15,0,.26,0,.33,0s.14,.01,.21,.03v2.18c-.05,0-.11-.01-.18-.02s-.17,0-.31,0c-1.1,0-1.94,.3-2.52,.9-.58,.6-.87,1.47-.87,2.62v6.83h-2.06Z"/><path class="cls-1" d="M165.98,47.55h2.3l-5.17,14.18c-.49,1.34-.98,2.21-1.48,2.62-.5,.41-1.21,.62-2.15,.62-.21,0-.41-.02-.61-.05-.2-.03-.41-.08-.61-.14v-1.97c.21,.06,.41,.11,.61,.14,.2,.03,.4,.05,.6,.05,.4,0,.72-.08,.96-.24,.24-.16,.43-.42,.56-.77l.54-1.46-4.65-12.97h2.3l3.4,9.92,3.4-9.92Z"/></g></svg>