<?xml version="1.0" encoding="UTF-8"?><svg id="Layer_1" xmlns="http://www.w3.org/2000/svg" viewBox="0 0 348.81 79.07"><defs><style>.cls-1{fill:#fff;}</style></defs><g><path class="cls-1" d="M69.17,39.14c0,.06-.15,.05-.19,.08-.13,0-.29-.02-.4,.02-.19,0-.47-.05-.63,.02-.82,0-1.64-.01-2.46-.01-.2,0-.57-.08-.73,0-.21,0-.69-.06-.84,.02-.18,0-.41-.09-.57-.03-.3,.01-.6,.02-.89,.03-.44,0-.88-.01-1.31-.02,0,.12,0,.24,0,.36,.07,0,.13,.01,.2,.02,.26,0,.52-.02,.76-.02,.15,.01,.31,.02,.46,.02,.28-.01,.56-.03,.84-.05,.95,0,1.89,.01,2.87,.02,.43,0,.86,0,1.3,0,.25,0,.52,.02,.73-.05,.17,0,.33,0,.49,.01,.1,0,.22,.04,.33,.02v.03c.09,0,.04,.71,.02,.81-.13,0-.26,.05-.41,.05-.24,0-.67-.09-.86,0-.16,0-.41-.04-.54,.03-.17,0-.55-.05-.68,.02-.46,0-.88-.03-1.35-.03-.11,0-.26-.02-.35,.02-.51,0-1.03,0-1.54,0-.17,0-.53-.09-.67-.03-.24,0-.47,0-.71,0-.15,0-.34-.06-.49,0-.11,0-.25,0-.34-.03-.02,0-.03-.04-.04-.06v.49s.04,0,.06,0c.23,0,.44-.02,.65-.02,.21,0,.43,.02,.65,.03,.39,0,.75-.03,1.11-.04,.16,0,.32,.02,.49,.02,.27,0,.54,0,.81,0,.09,.01,.18,.02,.27,.03,.16,.01,.33-.01,.49,0,.12,0,.23,0,.35,.02,.1-.02,.2-.03,.3-.05,.21,0,.46,.03,.65-.03,.27,0,.53,.03,.79,.03,.23,0,1.16-.06,1.29,.05,.11,.1,.03,.67-.02,.8,0,.05-.23,.03-.27,.05-.06,0-.12,.02-.19,.03-.41,0-.83,0-1.24,0-.13,0-.33-.03-.44,.02-.41,0-.81,0-1.22,0-.11,0-.22-.02-.32-.03-.11,.01-.22,.02-.33,.03-.13-.01-.26-.02-.38-.04-.26,0-.52,0-.78-.01-.15,0-.34-.06-.49,0-.68,0-1.36,0-2.03-.01h-.19v.4s.17-.02,.21-.02c.48,0,.94,0,1.44,0,.17,0,.39,.03,.54-.02,.8,0,1.57,.06,2.36,.07,.32-.01,.63-.03,.95-.04,.65,.01,1.3,.02,1.94,.04,.13,0,.24,.04,.38,.05,0,.17,0,.59-.1,.69-.09,.02-.17,.05-.26,.07-.17,0-.6-.09-.73-.03-.11,0-.24-.02-.32,.03-.07,0-.14,0-.22,.02-.76,0-1.5-.06-2.27-.07-.23,0-.54-.06-.74,.02-.19,0-.61-.05-.76,.03-.62-.01-1.25-.02-1.87-.03-.18-.01-.37-.03-.56-.04,0,.15,0,.31,0,.46,.15-.06,.55-.03,.7-.03,.55,0,1.1,0,1.65,0,.34,.01,.86,.02,1.14-.09,.4,0,.76,.05,1.14,.07,.32,.02,.68,0,1,0,.34,0,.69,.02,1.03,.02,.3,0,.73-.1,1,.04,.16,0,.05,.59,0,.67-.07,.07-.16,.06-.24,.11-.08,.01-.16,.02-.25,.03-.49,0-.99,0-1.48,0-.22-.01-.55-.1-.76,0-.18,0-.56-.05-.7,.02-.57,0-1.16-.04-1.76-.04h-.49c-.12,0-.3-.05-.4,0-.54,0-1.02-.05-1.56-.06,0,.15,0,.3,0,.45,.05,0,.1-.01,.15-.01,.39,0,.78,0,1.16,0,.18,0,.36,.01,.55,.02,.13,.01,.23,.05,.38,.05,.19,0,.36-.05,.57-.05,.35,0,1,.06,1.27-.05,.13,.01,.25,.02,.38,.04,.25,0,.49-.04,.76-.03,.46,.01,.92,.02,1.38,.03,.22,0,.69-.01,.87,.07,.14,0-.03,.64-.03,.73-.04,0-.08,.03-.11,.05-.24,0-.98-.05-1.14,.02-.17,0-.52-.04-.65,.03-.26,0-.52,0-.79-.01-.13,0-.28-.05-.4,0-.14,0-.32-.01-.44,.05-.16-.02-.32-.04-.49-.06-.28,0-.56,0-.84,0-.13,0-.32-.05-.43,0-.15-.02-.31-.04-.46-.05-.45,0-.9,0-1.35-.01-.12,0-.23-.01-.34-.02v.43c.26,0,.52-.02,.77-.02,.17,0,.34,.02,.52,.03,.53,0,1.09,0,1.62,0,.44,0,1.05,.11,1.43-.03,.27,.01,.54,.02,.82,.03,.13,0,.26-.01,.4-.02,.13,.02,.25,.03,.38,.04,.46,.01,.92,0,1.38,.05,0,.18,0,.37-.05,.53-.03,.09-.06,.18-.09,.27-.24,0-.48,.01-.73,.01-.21,0-.41-.01-.62-.02-.27,0-.54-.02-.81-.03-.21,0-.41,0-.62,.01-.2-.01-.52-.07-.7,0-.11,0-.27-.02-.36,.03-.3,0-.59-.05-.86-.06-.83-.04-1.63-.06-2.47-.07,0,.14,0,.28,0,.41,.08-.02,.19-.02,.22-.03,.1,.04,.23,.03,.35,.03,.33,0,.69,.03,1.03,.02,.31,0,.63,.03,.92,.03,.27-.01,.54-.03,.81-.04,.47,.02,.98,.1,1.46,.08,.3-.03,.61-.06,.92-.09,.22-.02,1.2-.05,1.31,.07,.06,.07,.03,.21,0,.28-.04,.18-.12,.38-.25,.52-.53,0-1.12-.06-1.63,0-.09,.02-.18,.02-.26,.03-.24,0-1-.09-1.17,0-.25,0-.5,0-.76,0-.17,0-.41-.07-.57,0-.21,0-.49-.08-.68,0-.58,0-1.15-.07-1.74-.09,0,.13,0,.25,0,.37,.37,0,.73,0,1.09,0,.35,.02,.71,.08,1.08,.08,.6,0,1.22,0,1.81-.02,.17-.01,.34-.03,.52-.04,.12,0,.23,.02,.35,.03,.11,0,.22-.02,.32-.03,.27,0,1.35-.02,1.47,.13,.06,.07,0,.23-.02,.31-.04,.12-.09,.25-.18,.35-.13,0-.29-.02-.41,.02-.11,0-.26-.01-.35,.03-.06,0-.11,.02-.16,.03-.19,0-.68-.06-.81,0-.12,.01-.23,.02-.36,.03-.36-.03-.73-.04-1.11-.04-.13,0-.32-.03-.43,.03-.19,0-.44-.05-.6,.02-.24,0-1.87-.02-2.22-.1v.53c.17-.02,.34-.07,.51-.07,.68,0,1.36,0,2.03,0,.17-.01,.33-.03,.49-.05,.34,0,.7-.02,1.03-.02,.15,0,.35,.02,.49-.02,.28,0,.55,.04,.81,.04,.11,0,.22-.02,.33-.03,.22,0,.43,.02,.62,.06,0,.14-.16,.64-.28,.72-.09,.03-.18,.06-.27,.09-.3,0-.58,.02-.84,.04-.12,0-.27-.04-.38,0-.11,0-.27-.02-.35,.03-.05,0-.11,.02-.16,.03-.27,0-.55-.03-.84-.03-.14,0-.32-.05-.46,0-.08,0-.17,.02-.25,.03-.26,0-.52,0-.78-.01-.2-.02-.5-.12-.7-.02-.1,0-.22-.01-.3,.02-.14,0-.64,.02-.7-.05v.56s0-.03,.01-.04c.08-.1,.9-.07,1.09-.14,.13,.02,.26,0,.41,0,.31,.01,.66,.05,.97,.04,.2-.01,.4-.02,.59-.03,.2,0,.35,.05,.54,.05,.32,0,.64,0,.97-.01,.25,0,.86-.1,1.08,0,.02,.02,.03,.03,.04,.03,.06,.08-.05,.38-.08,.45-.06,.14-.12,.33-.31,.33-.08,0-.15-.01-.22,0-.16-.02-.32-.03-.48-.05-.31-.02-.68,0-.98,0-.12,.01-.25-.01-.35,.03-.23,0-.66-.07-.84,.02-.05,0-.11,.02-.16,.03-.18,0-.36,0-.54,0-.12,0-.27-.05-.38,0-.45,0-.92,0-1.38,0,0,.17,0,.32,0,.48,.16-.01,.3-.07,.45-.09,.3-.03,.61,0,.9-.01,.13-.01,.25-.03,.38-.04,.61,0,1.25-.01,1.85,0,.27,0,.59,0,.86,0,.16,0,.34,.01,.49-.03,.1,0,.23,0,.29,.08,.07,.09-.15,.57-.21,.66-.06,.07-.13,.12-.2,.18-.19,0-.38,0-.57,.01-.22,0-.66-.11-.84-.02-.19,0-.59-.05-.73,.02-.18,0-.45-.05-.6,.02-.18,0-.43-.07-.6,0-.48,0-1.01-.02-1.48,.02,0,.13,0,.26,0,.39,.16-.02,.33-.03,.37-.03,.21-.01,.37,.02,.57,.02,.19-.02,.38-.04,.57-.06,.31,.02,.61,.04,.92,.06,.24,0,.48-.03,.7-.05,.31-.02,.65,.05,.95-.03,.21,0,.38,.05,.6,.06,0,.23-.27,.75-.52,.79-.19,.03-.45-.03-.62,.04-.31,0-1-.11-1.25,.02-.52,0-1.05,0-1.54-.04-.19-.03-.5-.05-.75-.08,0,.15,0,.28,0,.42h.05c.16,0,.6,0,.76,.01,.15,0,.31,0,.46-.02,.36,.01,.71,.06,1.09,.05,.36,0,.77,0,1.13,0,.18,0,.38,0,.51,.09,.04,0,.03,0,.03,.03-.03,0-.42,.76-.69,.81-.36,.05-.88-.05-1.24-.06-.47-.02-.93-.03-1.38-.06-.15,0-.48,.03-.72,0v.4c.78,0,1.75,.02,2.48,.07,.22,.02,.45,.03,.67,.05v.08c-.05,0-.07,.07-.08,.11-.06,.14-.28,.47-.43,.53-.08,.02-.17,.04-.26,.06-.18,0-.59-.13-.73-.09-.25,0-.58-.1-.81,0-.12,0-.57,0-.86-.05,0,.15,0,.28,0,.4,.38,0,.81,0,1.18,.01,.17,.02,.34,.03,.52,.05,.24,0,.49,0,.73,.01,0,.21-.43,.67-.64,.73-.12,.01-.25,.03-.37,.05-.47,0-.96-.03-1.43-.03,0,.15-.03,.28-.04,.43,.11-.02,.24-.03,.28-.05,.19,0,1.08,.02,1.14,.14,.1,.2-.42,.62-.55,.73-.21,0-.69,.04-.97-.03-.03,.15-.06,.3-.1,.43,.25,0,.56,0,.71,0v.03h.03c0,.25-.81,.9-1.03,1.04,0,0-.07,0-.15,0-.4,.64-.96,1.15-1.73,1.77-.65,.53-1.3,.94-1.99,1.28,.02,0,.04,0,.06,0,.43-.01-.47,.57-.57,.65-.26,0-.73,.05-.95-.03h-.05c-.63,.19-1.3,.35-2,.48,.2,0,.39,0,.48,0,.19,0,.38,.02,.57,.02,.12-.01,.24-.02,.35-.04,.14,0,.28,0,.41-.03h.38v.05l-.04,.02c-.16,.16-.4,.29-.6,.4-.14,.08-.26,.19-.4,.26-.12,.04-.25,.08-.37,.12-.09,0-.2,0-.27,.03-.67,0-1.34-.01-2-.01-.25,0-.71-.1-.95,0-.26,0-.63-.06-.84,.05-.18,0-.48-.05-.62,.03-.38-.03-.76-.06-1.14-.09-.08,0-.17-.03-.24,0-.35,0-1.16,0-1.78,0-.25,.03-.49,.05-.74,.09-.69,.08-1.27,.22-1.77,.39,.5,0,1.29,0,1.72,0,.4-.01,.8-.03,1.19-.05,.99,0,2.03,.05,3,.02,.33,0,.67-.02,.98-.02,.17,0,.35,.02,.48-.05,.76,0,1.49,.04,2.28,.04v.03h.03v.03c-.1,0-.35,.19-.44,.24-.3,.15-.61,.29-.93,.42-.18,.08-.37,.19-.57,.23-.37,.07-.8,0-1.22,.01-.17,0-.3,.04-.46,.05-.16,0-.4-.03-.54,.03-.19,0-.38,0-.57,0-.25-.01-.47-.15-.7-.02-.41,0-.83,0-1.21-.03-.18-.02-.46-.05-.63,.02-.11,0-.28-.02-.37,.02-.24,0-.47,0-.7,0-.24,0-.86-.1-1.06,0-.53,0-1.3-.08-1.92-.11-.2,.16-.36,.32-.51,.49,.29,0,.68,0,.83-.03,.75-.09,1.57,.02,2.33,.02,.4,0,.78-.05,1.19-.05,.27,0,.5,0,.76,0,.14,0,.28,0,.41-.03,.23,.08,.67,.03,.95,.03,.38,0,.77,.06,1.16,.06,.18-.02,.36-.03,.54-.05,.26,0,.51,0,.76,0v.03h-.03s-.05,.04-.08,.05c-.26,.1-.52,.21-.78,.3-.14,.07-.28,.13-.41,.2-.19,.07-.38,.14-.56,.2-.2,0-.64-.05-.79,.03-.17,0-.34,0-.52,0-.12,0-.26-.04-.38,0-.12,0-.29-.02-.38,.02-.05,.01-.11,.02-.16,.03-.26,0-.5,0-.76,0-.15,0-.36-.1-.51-.03-.13,0-.3-.03-.4,.03-.18,0-.42-.04-.57,.03-.09,0-.2,0-.27,.03-.15,0-.34-.02-.46,.02-.07,0-.13,.02-.19,.03-.21,0-.84-.07-.97,0-.14,0-.29,0-.43,0-.2,0-.56,0-.84-.02-.07,.15-.13,.3-.18,.44,.57-.05,1.38-.03,1.91-.02,.49,.01,1.02-.02,1.49-.06,.2-.02,.39,.01,.57-.06,.39,0,.77,.03,1.14,.03,.37-.01,.74-.01,1.1-.02v.03c-.31,0-.66,.18-.95,.25-.21,.05-.44,.01-.62,.12-.3,0-.61,.14-.87,.22-.07,.01-.14,.03-.21,.05-.18,0-.34,0-.48,.08-.13,0-.5,.06-.6,.1-.17,0-.35-.02-.49,.05-.19,0-.59-.05-.73,.02-.05,.01-.11,.02-.16,.03-.42,0-.85,0-1.27,0-.66,.05-1.21,.11-2.01,.05,0,0,0-.01,0-.02-.03,.02-.14,0-.17,0-.35-.06-.71-.11-1.06-.17-.17,0-.34-.01-.51-.02-.22-.03-.45-.07-.67-.1-.21,0-.4,.02-.6,0-1.15-.16-2.3-.34-3.41-.58-.17-.04-.6-.13-.7-.25,.51,.11,1.09,.07,1.63,.09,.46,.02,.93,.07,1.41,.07,.15,.01,.29,.03,.43,.04,.14,0,.29-.01,.43-.02,.2,.01,.39,.03,.6,.05,.13,0,.27-.02,.4-.01,.17,.03,.33,.07,.49,.1,.32,.02,1.04-.01,1.46-.02-.07-.17-.17-.34-.29-.53-.25,.01-.65-.04-.76,0-.18,0-.45-.08-.6,0-.45,0-.9,0-1.35,0-.16,0-.35-.06-.49,0-.45,0-.85-.06-1.3-.06-.6,0-1.19,0-1.79-.01-.2-.03-.41-.05-.62-.08-.14,0-.29-.01-.43-.02-.18-.03-.37-.06-.53-.12-.13-.05-.25-.1-.39-.13-.2-.04-.4-.07-.59-.11-.22-.05-.42-.14-.62-.22-.11-.04-.23-.06-.33-.13h-.03v-.03c.1,0,.2-.01,.3-.02,.4,0,.83,.03,1.24,.03,.31,0,.63,.02,.89-.08,.42,.01,.85,.03,1.27,.04,.18,.02,.36,.03,.54,.05,.34,0,.63-.09,.95-.07,.45,.01,.91,.08,1.35,.09,.52,0,1.05,0,1.57,0,.17,0,.62,.04,.9-.01-.15-.12-.31-.25-.5-.38-.16-.01-.36-.03-.39-.01-.08,0-.2,0-.27,.02-.3,0-.6-.05-.92-.06-.09,0-.21-.03-.3,0-.15,0-.35-.07-.49,0-.35-.01-.7-.02-1.06-.03-.14,0-.32-.02-.43,.02-.33,0-.67-.01-1-.01-.2-.02-.5-.13-.7-.05-.17,0-.36-.03-.49,.05-.18,0-.54-.04-.68,.02-.74,0-1.49-.02-2.19-.09-.29-.03-.58-.02-.84-.11-.45-.14-.8-.51-1.24-.67v-.05c.43,0,.86,0,1.3,0,.23,.02,.47,.06,.71,.05,.31,0,.6-.05,.92-.05,.25,0,.5,0,.76,0,.13,0,.29,.01,.4-.02,.24,.02,.45,0,.7,0,.67,.01,1.41,.03,2.11,.04,.54,0,1.12,0,1.63,.05,.08,0,.16-.01,.24-.01,.07,0,.23,0,.4,.01-.44-.15-.91-.3-1.46-.44-.09,0-.17,0-.19,0-.38-.03-.76-.04-1.16-.04-.12,0-.28-.02-.38,.02-.09,0-.21,0-.27,.02-.38,0-.72-.03-1.08-.03-.25,0-.5,.02-.76,.02-.17,0-.42-.04-.57,.02-.46,0-.93-.03-1.41-.03-.15,0-.37-.04-.49,.02-.24,0-.49,0-.73-.01-.16-.03-.32-.05-.49-.07-.35-.02-.71,.01-1.02-.08-.27-.09-.49-.27-.74-.41-.11-.06-.3-.14-.32-.28,.62,.02,1.3,.05,1.92,.06,.43,0,.88,0,1.33,.01,.22,0,.4,0,.57,0-1.13-.13-2.08-.27-2.9-.44-.14,0-.28,.02-.42,.02-.18-.02-.36-.03-.54-.04-.07,0-.15,.02-.21,.03-.42,0-.68-.13-.97-.35-.1-.08-.15-.07-.2-.19,.11,0,.22,0,.33,.01-1.24-.43-2.12-.98-2.93-1.7-.53-.47-.97-1.11-1.27-1.83-.11,0-.22,0-.22-.01-.18,0-.7-.64-.81-.79v-.03h.03s.17-.04,.22-.05c.09,0,.32,0,.49,0-.03-.12-.05-.24-.07-.36-.3,.01-.81,.03-1.01-.03-.11-.03-.68-.61-.69-.72-.01-.06,.01-.09,.04-.13,.16,0,.33,.02,.48,.02,.17,0,.71-.04,1.07-.02,0-.08,0-.22,0-.41-.08,0-.15,.02-.17,.03-.1,0-.21,0-.3,.03-.14,0-.48-.06-.57-.03-.06,0-.13,.02-.19,.03-.23,0-.47,.03-.67-.02-.17-.06-.57-.61-.62-.77h.03v-.03c.08,0,.15,.04,.24,.05,.18,0,.35-.02,.52-.04,.23-.02,.49,.01,.7-.06,.2,0,.69-.03,1.02,0v-.42c-.16,.02-.34,.04-.35,.05-.12,.02-.25,.03-.38,.04-.15-.01-.29-.03-.43-.04-.17,0-.31,.02-.46,.03-.08,0-.19-.01-.27,.02-.11,0-.24,0-.33,.06-.18,0-.38,0-.53-.06-.1-.04-.49-.58-.42-.67,.07-.1,.68-.06,.85-.12,.7,0,1.58,0,2.32,.01,0-.14,0-.28,0-.44-.29,0-.69,0-.91,0-.11,0-.27-.02-.35,.03-.18,0-.47-.05-.62,.02-.25,0-.76-.06-.94,.05-.14,0-.32-.02-.44,.03-.1,0-.2-.01-.27-.06-.07-.09-.14-.18-.21-.27-.15-.22-.32-.4-.36-.67,.25,0,.44,.06,.71,.06,.19,0,.38-.01,.57-.02,.32,0,.67,.03,1,.03,.17-.02,.34-.03,.52-.05,.35,0,.73,.07,1.06-.02,.04,.01,.15,.02,.26,.04,0-.13,0-.27,0-.4-.26,.02-.7,0-.77,.03-.11,0-.24-.02-.33,.02-.4,0-.79,0-1.19,0-.12-.02-.25-.03-.38-.05-.2,0-.4,0-.59,0-.11,0-.26-.02-.35,.03-.12,0-.28-.02-.38,.02-.12,0-.24,0-.34-.05-.21-.13-.4-.62-.47-.84,.04,0,.1-.04,.13-.06,.38,.05,.76,.09,1.16,.11,.11,0,.21,0,.32-.01,.1,.01,.2,.03,.3,.05,.21,0,.42,0,.62,0,.25,0,.46-.06,.7-.05,.17,.03,.35,.05,.52,.08,.24,0,.75-.05,1.04,.02,0-.14,0-.3,0-.46-.09,0-.19,0-.21,.01-1.03,0-2.06-.03-3.06-.05-.13-.02-.27-.03-.41-.05-.19,0-.38,0-.56-.02-.12,0-.25-.01-.36,.03-.15,0-.29,0-.4-.06-.15-.09-.28-.52-.32-.7h.03v-.03c.19,0,.37-.02,.57-.02,.16,0,.34,.01,.49-.03,.32,0,.65,0,.97,0,.13,.01,.25,.02,.38,.03,.14-.01,.28-.01,.41-.02,.35,0,.69,.04,1.03,.05,.15,0,.31-.01,.46-.01,.27,.01,.66,.06,.99,.09,0-.16,0-.33,0-.5-.06,0-.11,0-.13,.01-.35,0-.7,0-1.05,0-.35,0-.7,0-1.05,0-.16-.02-.33-.04-.49-.06-.3,0-.61,0-.92,0-.19,0-.48-.09-.65,0-.42,0-.85,0-1.27-.01-.03-.07-.06-.13-.09-.2-.06-.12-.19-.38-.1-.51,.05-.03,.09-.06,.14-.09,.33,0,.65,.02,.95,.04,.22,0,.43,0,.65,0,.13,0,.25,.01,.38,.02,.12-.01,.23-.03,.35-.04,.27,0,.54,.02,.81,.03,.43,0,.87-.04,1.33-.02,.32,.01,.77,.05,1.15,.07,0-.15,0-.31,0-.46-.5,.04-1.75-.07-1.99,.03-.3,0-.61-.04-.92-.04-.37,0-.74,.01-1.11,.02-.21-.02-.42-.04-.63-.06-.12,0-.25,0-.38,0-.14,0-.33-.05-.46,0-.08,0-.16,.02-.24,.02-.12,0-.25,0-.34-.07-.08-.07-.35-.64-.23-.74,.27-.22,.95,.01,1.3-.11,.38,0,.76,.05,1.14,.06,.27,0,.54,0,.81,.01,.13,.02,.27,.03,.41,.05,.68,.01,1.33-.03,1.97,.01,.13,0,.45,0,.67,.03,0-.15,0-.32,0-.48-.1,0-.21,.02-.26,.02-.33,0-.65,0-.98,0-.16,0-.37-.03-.51,.02-.4,0-.78-.02-1.19-.04-.14-.01-.36-.06-.48,0-.28,0-.56,0-.84,0-.21,0-.81-.1-.97-.02-.18-.02-.36-.04-.54-.06-.19,0-.64,0-.77-.08-.11-.07-.12-.25-.15-.36-.02-.06-.08-.17-.05-.23,.06-.14,.74-.09,.9-.15,.24,.01,.47,.02,.7,.03,.46,0,.92,.01,1.38,.01,.12,.02,.24,.04,.35,.05,.27,.02,.55-.01,.81-.01,.19,0,.38,.02,.57,.03,.18,0,.32-.04,.49-.05,.35-.02,.71-.03,1.08-.02,.11,0,.31,0,.48,0,0-.14,0-.27,0-.41-.19,0-.44-.02-.53,.02-.11,0-.24-.02-.33,.02-.15,0-.37-.04-.49,.02-.37,0-.72,0-1.1,0-.19,0-.44-.05-.6,.03-.22,0-.44,0-.65,0-.23-.01-.65-.09-.87,0-.3,0-.56-.05-.84-.06-.3-.01-1.34,.06-1.51-.07-.15-.11-.2-.56-.22-.75,.16,0,.35,0,.49-.05,.39,.01,.8,.03,1.19,.07,.12,0,.22,.04,.35,.05,.34,0,.67,0,1,0,.26-.02,.54-.06,.81-.06,.2,.01,.4,.03,.6,.04,.16,0,.31-.01,.46-.02,.33,0,.67,0,1,0,.21,0,.91-.05,1.24,0,0-.15,0-.29,0-.44-.09,0-.24,.01-.29,.02-.22,0-.61-.05-.79,.02-.19,0-.38,0-.57,0-.07,0-.15,.02-.22,.02-.27,0-.79-.06-1,.05-.16,0-.32,0-.49,0-.27-.02-.77-.13-1.03-.03-.26,0-.69-.09-.92,0-.25,0-.81-.05-1,.02-.23,0-.8,.05-.94-.07-.09-.07-.1-.23-.12-.34-.02-.09-.08-.25-.04-.35,0-.05,.01-.04,.05-.05,.18-.05,.39-.03,.59-.03,.49-.02,1.03,0,1.54-.01,.2,0,.43,.03,.6-.03,1.14,.07,2.3,.04,3.49,.05,.19,0,.82-.03,1.13,.02,0-.15,0-.29,0-.44-.18,0-.43,0-.48,.02-.34,0-.68,0-1.03,0-.17,0-.38-.03-.51,.05-.11,0-.26-.05-.35,0-.3,0-1.16-.07-1.36,.05-.25,0-.46-.05-.7-.06-.85-.02-1.74-.01-2.57-.07-.15-.01-.37,.04-.47-.06-.13-.12-.09-.52-.09-.71h.02s0-.03,.03-.03c.53,0,1.08-.02,1.63-.02,.29,0,.68,.06,.95-.02,.42,.03,.88,.06,1.3,.06,.21,0,.43-.01,.64-.02,.26,.02,.52,.05,.78,.07,.14,0,.25-.06,.41-.06,.25,0,.49,0,.73,0,.08,0,.16,.01,.24,.02,.22-.01,.57-.04,.84,0,0-.15,0-.29,0-.44-.14-.01-.29-.02-.37,.01-.15,0-.37-.04-.49,.02-.32,0-.63,0-.95,0-.15,0-.33-.02-.46,.03-.15,0-.75-.05-.84,0-.16,0-.41-.04-.54,.03-.15,0-.32-.06-.46,0-.47,0-.94-.06-1.44-.07-.14,.01-.29,.02-.43,.03-.18,0-.63-.05-.76,.02-.19,0-.84-.04-.94-.15-.06-.08-.09-.25-.1-.34-.02-.11-.03-.29,.07-.34,.2-.09,.56-.04,.81-.03,.72,0,1.47,.02,2.17-.01,.19-.01,.42,.02,.59-.03,.23,0,.47,0,.7,.01,.09,.01,.18,.03,.27,.05,.33,0,.67,0,1,0,.12,0,.25,.01,.38,.02,.39,0,.83-.01,1.24,0,.13,0,.36,0,.54,.02,0-.14,0-.28,0-.43-.31,.02-.87-.02-1,.03-.24,0-.7-.06-.89,.02-.21,0-.69-.09-.84-.03-.17-.01-.34-.02-.51-.03-.39,0-.78,0-1.16,0-.18,0-.45-.05-.6,.02-.24,0-.67-.05-.87,.02-.31,0-.59-.05-.89-.06-.06,0-.13,0-.19,0-.12,0-.26-.02-.35,.03-.61,0-.62-.13-.62-.71h.03s.09-.04,.14-.04c.12-.01,.24-.04,.38-.04,.35,0,.9,.07,1.19-.05,.16,.05,.49,.01,.67,.01,.26,.02,.51,.03,.76,.05,.16,0,.32,0,.49,0,.09-.01,.18-.02,.27-.03,.55,0,1.1,0,1.65,0,.15,.02,.31,.02,.46,.04,.15-.01,.31-.02,.46-.03,.15,.02,.31,.03,.46,.05,.23,.02,.7-.04,.97,0,0-.14,0-.28,0-.43-.16,0-.37,0-.49,0-.25,0-.5,0-.76,0-.13,0-.28-.02-.38,.03-.19,0-.38,0-.57,0-.15-.02-.39-.06-.54,0-.21,0-.52-.05-.7,.02-1.09,0-2.18-.01-3.28-.02-.2,0-.39,0-.59,0-.1-.02-.2-.03-.3-.05-.1,0-.23,0-.31-.05-.13-.1-.14-.62-.09-.79,.18-.02,.36-.03,.54-.05,.28,0,.86,.06,1.08-.02,.13,0,.25,0,.38,0,.09,.02,.18,.03,.27,.05,.23,0,.45,0,.68,0,.18,0,.34-.05,.54-.05,.17,0,.34,0,.51,0,.13,.01,.26,.05,.41,.05,1.18,.03,2.45,.01,3.6,.05,0-.14,0-.27,0-.4-.18,0-.56-.03-.63,0-.4,0-.81,0-1.22,0-.16,0-.36-.03-.49,.02-.17,0-.38-.07-.54,0-.6,0-1.17-.05-1.76-.02-.1,0-.21-.02-.3,.01-.54,0-1.04-.03-1.6-.04-.17,0-.39-.08-.54-.03-.08,.01-.16,.02-.24,.03-.23,0-.53,.02-.69-.1-.12-.09-.12-.63-.03-.73,.05-.06,.14-.06,.21-.09,.82,0,1.67,.05,2.44,.06,.21,0,.42,0,.62-.02,.69,.02,1.4,.03,2.08,.03,.13,0,.27-.02,.41-.03,.11,.02,.22,.03,.32,.04,.47,0,.94,.01,1.41,.02,.13,0,.39-.03,.55,.01,0-.14,0-.27,0-.41-.16,.02-.37-.06-.57,.03-.92,0-1.8-.03-2.71-.04-.19,0-.68-.05-.81,0-1.06,0-2.13-.01-3.2-.02-.26-.02-.52-.04-.78-.06-.02-.09-.05-.18-.07-.27-.02-.18,.02-.39,.07-.54,1.12,0,2.23,.06,3.33,.1,.14,0,.27,0,.41-.01,.32,.01,.66,.06,.98,.06,.13-.01,.25-.02,.38-.04,.33,0,.65,0,.97,0,.24,.01,1.56,.03,2.01,.1,0-.15,0-.31,0-.47-.1,.02-.21,.03-.28,.03-.18,0-.36,0-.54,0-.13,0-.32-.05-.43,0-.38,0-.79-.03-1.19-.03-.13,0-.3-.02-.4,.03-.37,0-.74-.03-1.08-.03-.55,0-1.1,0-1.65-.01-.17,0-.64-.08-.76-.03-.19,0-.46-.04-.62,.02-.37,0-.74-.09-1.11-.11,0-.19-.02-.69,.15-.75,.14-.01,.28-.02,.42-.03,.12,0,.24,0,.35-.03,.14,.04,.29,0,.43,0,.34,0,.69,0,1.03,0,.27,0,.53,.03,.78,.03,.36,0,.69-.03,1.03-.02,.61,.01,1.25,.03,1.87,.04,.32,0,1.59-.05,2.01,.04,0-.12,0-.25,0-.37-.08,0-.16-.01-.2-.02-.14,0-.29,0-.43-.02-.12-.01-.33-.07-.44-.02-.22,0-.52-.07-.7,.02-.37,0-.71-.04-1.06-.06-.13,0-.27,0-.41,.01-.15,0-.35-.05-.48,0-.18,0-.51-.06-.65,0-.26,0-.53,0-.79,0-.15,0-.34-.02-.46,.03-.31,0-.61-.01-.92-.01-.12-.01-.31-.06-.43-.03-.3,0-.68,.05-.95-.03-.04,0-.03-.02-.04-.06-.03-.22-.01-.69,.24-.72,.42-.05,.85,0,1.27,0,.2,0,.4-.02,.6-.02,.48,.01,.98,0,1.49,0,.3,0,.57,.01,.87,0,.12,0,.24,0,.35-.03,.21,.02,.43,.04,.65,.06,.79,0,1.7,0,2.5,.02,0-.13,0-.26,0-.39-.19,.02-.58-.04-.66,0-.78,0-1.55,0-2.33-.01-.29-.01-.9-.14-1.17-.03-.13,0-.31-.06-.43,0-.06,.01-.11,.02-.17,.03-.34,0-.68,0-1.03,0-.37-.03-.76-.07-1.14-.06-.09,0-.21,0-.3,.02-.22,0-.48,.04-.67-.06-.05,0-.02-.1-.02-.14,.1-.53,.08-.59,.67-.61,.13-.01,.26,0,.38-.03,.17,.03,.36,.02,.54,.04,.36,.02,.72,.04,1.08,.05,.18,0,.36-.01,.54-.02,1.56,.01,3.2-.02,4.7,.07,0-.14,0-.28,0-.42-.14,0-.28-.01-.32,0-.4,0-.81,0-1.22,0-.19,0-.44-.04-.6,.02-.13,0-.44-.05-.54,0-.23,0-.52-.09-.73,0-.45-.02-.9-.04-1.35-.06-.12,0-.28-.02-.38,.03-.22,0-.68-.1-.86,0-.56,0-1.12,0-1.68-.01v-.03s-.02-.05-.02-.08c0-.17,.02-.59,.17-.65,.19-.07,.47-.05,.7-.05,.33,0,.67,0,.97-.02,.1-.01,.2-.02,.3-.03,.78,.08,1.66,.06,2.49,.07,.23,.01,.45,.02,.67,.03,.35,0,.69-.03,1.06-.02,.16,.01,.32,.02,.49,.03,.22,0,.59-.02,.86,.03,0-.15,0-.29,0-.43-.11,0-.22,.01-.26,.03-.17,0-.34-.02-.51-.03-.47-.02-.92,0-1.41-.01-.15,0-.36-.06-.49,0-1.01,0-1.98-.04-3-.05-.41,0-.87,0-1.27-.03-.16-.01-.32,0-.46-.06,0-.14,.08-.51,.16-.6,.06-.05,.12-.08,.17-.13,.61,0,1.22,.04,1.81,.06h.7c.14-.01,.28-.05,.43-.04,.81,.01,1.6,.06,2.44,.06,.25,0,.51,0,.76,0,.21,0,.65-.05,.94,0,0-.13,0-.26,0-.39-.21,0-.44,0-.6,0-.13,0-.31-.05-.43,.01-.52,0-1.05,0-1.57-.01-.2-.01-.46-.1-.65,0-.65,0-1.26-.02-1.87-.06-.17-.01-.59-.05-.73,.02-.05,0-.11,.02-.16,.03-.38,0-.72-.09-1.09-.12,0-.18,.14-.63,.27-.73,.06-.06,.17-.05,.25-.08,.13,.02,.25,.03,.38,.05,.15,0,.31-.01,.46-.02,.19,.01,.38,.02,.57,.03,.23-.02,.45-.03,.67-.05,.51,.01,1.03,.07,1.55,.08,.59,0,1.21-.01,1.81,0,.16,0,.77,0,1.14,.04,0-.14,0-.28,0-.42-.28,0-.7-.02-.89,.08-.18,0-.33-.05-.49-.05-.18,0-.36,0-.54,0-.09,.01-.18,.02-.27,.02-.21-.01-.42-.02-.62-.04l-.27-.04c-.63-.03-1.24-.04-1.9-.04-.22,0-.63-.05-.81,.02-.19,0-.78,0-.9-.07-.11-.06,.07-.59,.14-.66,.07-.07,.2-.07,.3-.11,.34,0,.65,.06,.97,.08,.34,0,.68,0,1.03,0,.11-.01,.23-.03,.35-.04,.2,0,.38,.05,.59,.05,.24,0,.47-.01,.71-.02,.3,0,.63,.05,.95,.04,.48-.02,1.13-.02,1.66,.01,0-.14,0-.28,0-.42-.15,0-.43-.02-.52,.03-.25,0-.67-.1-.89,0-.14,0-.34-.05-.46,0-.1,0-.22-.01-.3,.03-.37-.03-.74-.06-1.11-.08-.15,0-.28,.05-.43,.03-.2-.01-.41-.02-.62-.02-.1,0-.21-.03-.3,0-.12,0-.25-.02-.35,.02-.33,0-1.02,.05-1.27-.06-.04,0-.04-.01-.03-.05,.02-.21,.15-.62,.3-.76v-.03c.51,0,.99,.06,1.49,.05,.45,0,.94-.02,1.41-.01,.14,.02,.29,.03,.43,.05,.19,.01,.39-.02,.57-.02,.15,.01,.29,.02,.44,.03,.38,0,.77,0,1.16,0,.11,0,.33,0,.49,0,0-.14,0-.27,0-.41-.09,0-.2,0-.28,.03-.46,0-.92,0-1.38,0-.36-.01-.72-.03-1.08-.04-.22-.01-.66-.08-.87,0-.1,0-.24,0-.33,.05-.25-.02-.5-.05-.76-.08-.38,0-.76,0-1.14,0v-.03h-.03c0-.17,.15-.33,.21-.47,.04-.09,.03-.19,.09-.27,.04-.06,.11-.07,.16-.1,.35,0,.67,.03,1.03,.03,.19,0,.38-.01,.57-.02,.47,.01,.99,.05,1.46,.06,.29,0,.6-.03,.89-.04,.49-.02,.98,.01,1.44,.06,0-.15,0-.31,0-.46-.23,.09-1.13,.05-1.34,.04-.19-.01-.47-.08-.65,0-.21,0-.43,0-.65,0-.12,0-.28-.05-.41,0-.51,0-1.06,0-1.6-.01-.21-.01-.4-.05-.62-.06,0-.3,.16-.58,.3-.81,.2,0,.38,.06,.57,.05,.49-.03,1-.03,1.52-.03,.13,0,.25,0,.38,.02,.54-.02,1.15-.03,1.71,0,.28,.01,.53,.08,.8,.1,0-.15,0-.29,0-.44-.08,0-.17,0-.21,.01-.21,0-.48-.08-.68,0-.4,0-.81-.02-1.22-.04-.17-.01-.57-.07-.71,0-.08,0-.16,.02-.24,.03-.35,0-.68-.04-1-.06-.21-.01-.45,.01-.62-.06-.04,0-.03-.02-.03-.05,0-.14,.19-.52,.29-.61,.05-.05,.12-.06,.18-.09,.46,0,.89,.04,1.33,.03,.54,0,1.13-.02,1.71-.02,.26,0,.88-.02,1.21,.04,0-.13,0-.26,0-.39-.12,0-.25,0-.32,0-.18,0-.36,0-.54,0-.2-.02-.66-.09-.84,0-.23,0-.5-.09-.71,0-.27,0-.76-.11-.97,0-.12,0-.29-.02-.38,.02-.14-.01-.27-.02-.41-.03,0-.13,.34-.73,.45-.78,.18-.08,.62-.02,.85-.02,.41,0,.83-.02,1.22-.02,.23,0,.49,.03,.73,.02,.12-.01,.24-.03,.35-.04,.16,0,.34,.01,.49-.03h.08v-.38s-.09,.02-.11,.03c-.17,0-.38-.03-.51,.05-.14,0-.27-.01-.41-.01-.18-.03-.44-.09-.62-.02-.06,0-.11,.02-.16,.03-.07,0-.14,.02-.22,.02-.14,0-.29-.02-.43-.03-.28,0-.62,.04-.87-.03-.09,0,.02-.18,.04-.21,.08-.15,.26-.49,.42-.57,.11-.06,.26-.05,.39-.1,.22,0,.43,0,.65,0,.32,0,.66,.04,.98,.05,.15-.02,.28-.02,.43-.04,.11,0,.28,.02,.43,.03,0-.13,0-.28,0-.41-.1,0-.2,0-.22,.02-.29-.01-.58-.02-.86-.03-.11,0-.24-.01-.33,.03-.22,0-.63-.05-.81,.02-.11,0-.22-.02-.33-.03,0-.16,.11-.31,.19-.44,.07-.1,.15-.26,.26-.33,.08-.05,.21-.02,.32-.02,.31,0,.65-.02,.98-.02,.16,0,.37,.03,.51-.03,.07,0,.19,0,.31,0,0-.13,0-.26,0-.39-.23-.02-.55-.05-.71,0-.07,.01-.13,.02-.19,.03-.22,0-.47,.02-.65-.06h-.03s-.01-.02,.03-.02c0-.19,.27-.29,.36-.42,.09-.14,.18-.27,.29-.39,.17,0,.63,0,.9,.04,0-.13,0-.24,0-.36-.19,.03-.47,0-.55-.03h-.03v-.05s.5-.61,.59-.71h0c.26-.4,1.5-1.48,1.76-1.65,.16-.14,.37-.35,.57-.41,.32-.11,.74-.03,1.1-.05,.45-.02,.96,0,1.44-.02,.43-.01,.9-.04,1.33-.04,.28,0,.56,.02,.84,.02,.98-.01,2.01-.02,3,.02,.12,.01,.23,.03,.35,.05,.2,0,.4,0,.6,0,.6,0,1.19-.05,1.82-.04,.71,.02,1.42,.07,2.17,.07,.41,0,.83-.05,1.27-.04,.26,0,.5,.05,.78,.05,.72,0,1.41-.05,2.14-.04,.48,0,.96,0,1.43,0,.13,.01,.25,.02,.38,.03,.22,0,.46-.02,.7-.02,.13,.02,.25,.03,.38,.04,.09,0,.18-.02,.27-.03,.17,0,.32,0,.49,0,.23,0,.41,.05,.65,.05,.19-.02,.38-.03,.57-.05,.77,0,1.58,0,2.33-.01,.26,.01,.52,.02,.79,.03,.48-.01,.97-.05,1.46-.05,.48,0,.94,.06,1.43,.04,.25-.02,.51-.03,.76-.04,.15,0,.31,.01,.46,.02,.7-.02,1.49-.02,2.19,0,.62,.02,1.29-.03,1.92,0,.14,.01,.27,.03,.41,.05,.52,.03,1.06,.06,1.59,.04,.23-.03,.46-.06,.68-.1,.2-.02,.4-.04,.6-.06,.43,0,.85,.04,1.3,.03,.22,0,.46-.06,.67,0,.09,.03,.18,.12,.25,.19,.44,.33,1.36,1.12,2.03,1.84,0,.02,0,.07,0,.09,.04,0,.07-.01,.11-.01,.16,.06,.49,.41,.43,.53-.04,.08-.21,.07-.27,.11-.05,0-.17,0-.26,0,0,.12,0,.26,0,.41,.27,0,.65-.02,.87,.05,.21,.07,.57,.6,.63,.79v.03c-.06,0-.11,.02-.17,.02-.14,0-1.05-.02-1.33-.06,0,.13,0,.26,0,.41,.55,0,1.22,0,1.74,.03,.09,0,.21-.02,.29,.02,.13,.08,.22,.26,.29,.39,.05,.09,.16,.2,.14,.33-.01,.06-.08,.07-.13,.07-.45,0-.9-.01-1.35-.02-.12,0-.28-.02-.38,.03-.1,0-.44-.01-.59-.05v.4c.59,0,1.31,0,1.89,.01,.3,0,.69-.05,.93,.09,.15,.08,.43,.62,.5,.78-.04,0-.07,.03-.11,.06-.16,0-.69-.05-.78,0-.17,0-.34,0-.52,0-.22-.01-.54-.13-.76-.03-.06,0-.12,.02-.19,.03-.28,0-.65-.04-.96-.07v.39c.83,0,1.8,.06,2.61,.06,.22,0,.88-.09,1.05,.02,.11,.07,.14,.18,.19,.29,.05,.06,.09,.13,.14,.2,.04,.09,.09,.17,.13,.26v.03c-.07,.02-.15,.03-.21,.05-.27,0-.81-.15-1.03-.06-.07,0-.13,.02-.19,.03-.16-.01-.32-.02-.49-.03-.46,0-.89,0-1.35-.01-.16,0-.36-.03-.49,.03-.07,0-.23,0-.36-.02,0,.12,0,.25,0,.37,.16-.01,.37,0,.46,0,.26,0,.52,0,.79,0,.15,0,.33,.02,.46-.02,.63,0,1.25,.03,1.89,.04,.18,0,.57-.03,.7,.04,.16,.09,.2,.3,.27,.45,.05,.12,.08,.19-.02,.29-.1,0-.24-.01-.32,.03-.18,0-.48-.05-.63,.02-.1,0-.21-.01-.3,.03-.21,0-.59-.1-.76-.03-.29,0-.58,0-.87,0-.09,0-.2,0-.27,.03-.22,0-.45,0-.68,0-.11,0-.25-.04-.35,0-.09,0-.24,0-.37-.02v.41c.27-.06,.72-.06,.89-.07,.04,0,.07-.01,.11-.02,.36,.06,.77,.03,1.17,.03,.75,0,1.46,0,2.2,.03,.18,0,.36-.08,.52,0,.15,.08,.29,.54,.34,.71,.12,0-.22,.11-.22,.11-.18,0-.59-.05-.73,.03-.19,0-.56-.08-.7,0-.33,0-.64-.05-.95-.02-.07,0-.14,.01-.21,.02-.22,0-.82-.08-.97,0-.19,0-1.01,.03-1.42-.02v.41c.19-.02,.47-.02,.53-.05,.34,0,.69,0,1.03,.01,.27,.01,.52,.05,.82,.06,.25,0,.46-.05,.7-.05,.48-.01,1,.03,1.46,.03,.16,0,.33-.01,.49-.02,.13,0,.33-.03,.42,.04,.06,.05,.35,.71,.27,.78-.19,.15-.7-.05-.91,.04-.11,0-.28-.02-.38,.02-.07,0-.14,.02-.21,.03-.16,0-.31,0-.46,0-.2-.02-.62-.15-.81-.05-.1,0-.22,0-.3,.05-.34,0-.69,0-1.03,0-.13,0-.32-.03-.43,.03-.17,0-.41-.08-.57,0-.12,0-.42,0-.61-.03v.39c.19,0,.5,0,.68,0,.16,0,.3-.01,.46-.02,.16,0,.33,.02,.49,.03,.65,0,1.25-.05,1.92-.04,.42,0,1.02,.07,1.38-.05,.26,.05,.9-.1,1.05,.11,.1,.15,.12,.33,.18,.49,.1,.25,.06,.18-.13,.29-.42,0-.85,0-1.27,0-.18,0-.46-.08-.63,0-.24,0-.49,0-.73,0-.1,0-.25-.04-.35,0-.15,0-.39-.04-.52,.02-.21,0-.41,0-.62,0-.1,0-.23-.04-.32,0-.26,0-.69-.1-.92,0-.18,0-.48,0-.68-.03v.43c.27-.07,1-.02,1.25-.02,.41,0,.82-.03,1.22-.03,.26,0,.54,.04,.78,.03,.21-.01,.41-.03,.62-.04,.18,.02,.36,.04,.54,.05,.42,0,.86,0,1.25-.06,.09-.01,.18-.02,.27-.04,.18,0,.42,0,.54,.11,.1,.09,.3,.63,.12,.7-.18,.06-.46,.02-.67,.02-.56,0-1.12,0-1.68-.01-.17,0-.44-.05-.57,.02-.14,0-.32-.03-.43,.02-.21,0-.83-.05-.97,.02-.16,0-.38-.03-.51,.02-.19,0-.46-.05-.62,.02-.37,0-.76-.06-1.13-.08v.41c.18-.01,.4-.02,.53-.03h.95c.59,0,1.21,0,1.78-.01,.11,0,.21,0,.33,.01,.09,0,.18-.02,.27-.03,.3,0,.61,0,.92,0,.15,0,.29,.02,.43,.02,.19,0,.37-.01,.54-.02,.21,0,.41,.04,.6-.03,.12,0,.3,0,.4,.07,.18,.11,.23,.55,.27,.75h-.03s-.22,.03-.27,.02v.03s-.08,.02-.11,.03c-.11,0-.24-.01-.33,.02-.41,0-.8-.03-1.21-.03-.14,0-.32-.02-.44,.03-.1,0-.22-.01-.3,.03-.36,0-.72,0-1.08-.01-.19-.01-.41-.1-.6,0-.18,0-.57-.05-.7,.02-.31,0-.64-.03-.97-.03-.22,0-.69,.02-.99-.02,0,.13,0,.27,0,.4,.09-.01,.19-.02,.23-.02,.2-.02,.4,.01,.59,.02,.37,0,.74,0,1.11,0,.27-.02,.54-.03,.81-.04,.22-.01,.45,.02,.65,.02,.29,0,.58-.01,.86-.01,.26,0,.56,.03,.84,.03,.21-.01,.42-.02,.62-.03,.25,0,.59,.05,.81-.02,.2,0,.45,0,.6,.09,.13,.07,.2,.51,.21,.68-.04,0-.08,.02-.11,.05-.15,0-.36-.03-.49,.02-.18,0-.45-.04-.6,.03-.7,0-1.39,0-2.08-.01-.26,0-.52,0-.79,0-.2-.02-.86-.06-1,0-.51,0-1.01,0-1.51,0-.15,0-.35-.03-.46,.02-.06,0-.19,0-.31,0v.4c.12,0,.33-.02,.44-.02,.47-.05,.96-.04,1.46-.03,.69,0,1.36-.02,2.03-.02,.4,0,.91,.11,1.28-.02,.35,0,2.2-.01,2.32,.15,.12,.16,.09,.47,.08,.68h-.03s-.15,.03-.19,.05c-.43,0-.87-.01-1.3-.01-.12,0-.3-.06-.41-.02-.16,0-.33,.01-.49,.01-.23,0-.72-.07-.92,0-.16,0-.42-.04-.57,.02-.75,0-1.5,0-2.25-.02-.17,0-.39-.05-.54,0-.15,0-.68,0-.92-.06,0,.15,0,.29,0,.44,.21-.01,.5,0,.63,0,.18,0,.36-.01,.55-.02,.2,0,.39,.02,.57,.02,.16,0,.32-.01,.49-.02,.62,0,1.24,0,1.84,0,.12,0,.25-.01,.38-.02,.5,.01,1.06,.05,1.57,.01,.17-.02,.35,.01,.51-.03,.2,0,1.03,0,1.13,.1,.11,.09,.16,.55,.16,.72,0,0-.02,0-.03,0,0,.05-.09,.03-.14,.03-.2,0-.39,0-.59,0-.2-.01-.5-.09-.68,0-.18,0-.45-.04-.6,.02-.1,0-.21,0-.3,.03-.37,0-.71-.05-1.05-.06-.4,0-.79,0-1.19,0-.1,.01-.2,.02-.3,.04-.15,.01-.32-.04-.46,.01-.28,0-.56,0-.84,0-.13,0-.28-.05-.41,0-.19,0-.88,0-1.24-.05v.47c.14-.07,.35-.06,.49-.13,.31,0,.56,.08,.87,.08,.26,0,.52,0,.78,0,.3-.02,.59-.04,.89-.06,1.09,.02,2.24,.03,3.36,.04,.23,0,1.32-.05,1.42,.07,.06,.08,.04,.24,.05,.34,.01,.08,.06,.3,0,.37-.15,.15-.86-.01-1.06,.06-.09,0-.2,0-.27,.03-.31,0-.62,0-.92,0-.19-.02-.47-.07-.65,0-.23,0-.82-.09-.97,0-.23,0-.52-.09-.73,0-.51,0-.96,0-1.46-.01-.11,0-.28-.04-.38,0-.18,0-.36,0-.54,0-.13,0-.33-.03-.43,.02h-.43v.36c.27-.06,.87-.03,1.1-.01,.19,0,.38-.01,.57-.02,.43,0,.83,0,1.24,0,.22,0,.49,.04,.68-.03,.44,0,.85,.04,1.3,.03,.72,0,1.52-.04,2.27-.01,.26,.02,.53,.04,.78,.06,0,.19,.15,.64,0,.75-.08,.02-.16,.04-.24,.06-.19,0-.44-.03-.59,.05-.31,0-.63-.04-.95-.03-.1,0-.21,0-.3,.03-.13,0-.29-.02-.41,.02-.27,0-.74-.1-.98,0-.28,0-.65-.1-.89,.02-.25,0-.49,0-.73-.01-.19-.01-.59-.09-.76-.03-.18,0-.57-.04-.7,.02-.14,0-.27,0-.41,0-.16,0-.76,.03-.99-.03,0,.15,0,.3,0,.46,.03,0,.07,0,.09,0,.53-.03,1.07-.06,1.6-.09,.39,0,.78,0,1.16,0,.17,0,.31,.05,.49,.05,.13-.01,.27-.03,.41-.04,.62-.02,1.22-.02,1.84-.02,.44,0,.89,0,1.3-.02,.15,0,.3,.01,.43-.03,.15,0,.64-.03,.7,.08,.03,.07,.03,.19,.03,.28,0,.13,.02,.29-.03,.41M21.11,16.6c.06-.04,.11-.09,.17-.13,.19-.15,.73-.64,.95-.63,.42,0,.82,.05,1.24,.05,.25-.01,.49-.03,.74-.05,.26,0,.5,.02,.76,.03,.39,0,.81-.01,1.19,0,.77,0,1.49,.09,2.28,.08,.17,0,.32-.04,.49-.05,.4-.02,.83,0,1.22-.02,.22,.02,.44,.03,.65,.05,.23-.02,.45-.03,.68-.04,.25,.01,.51,.02,.76,.03,.57-.02,1.17-.05,1.76-.05,.27,0,.54,0,.81,.01,.13,.01,.28,.05,.43,.05,.3,0,.58-.05,.87-.05,.45,0,.9,.07,1.35,.09,.23,0,.45-.02,.68-.02,.28,0,.56,.03,.87,.03,.14,0,.29-.01,.43-.02,.11,.02,.23,.03,.35,.04,.13-.01,.25-.02,.38-.04,.35,0,.7,0,1.06,0,.12-.01,.24-.02,.35-.04,.19,.02,.38,.04,.57,.07,.27,0,.54,0,.81,0,.16,0,.32-.01,.48-.02h.89c.21-.02,.42-.03,.62-.05,.37,0,.74,0,1.11,0,.17-.01,.34-.03,.52-.04,.14,.01,.29,.03,.43,.05,.23,.01,.48-.02,.7-.01,.51,.03,1.01,.05,1.52,.07,.88-.02,1.74-.1,2.63-.11,.28,0,.57,.04,.86,.03,.17,0,.31-.05,.49-.05,.45,0,.9,0,1.35,0,.29,.02,.58,.03,.87,.05,.18-.02,.36-.04,.54-.06,.17-.01,.36,.01,.52-.03,.33,.02,.66,.04,.99,.06,.15,.04,.78,.54,.85,.68-.04,0-.07,.02-.11,.03-.17,0-.43-.04-.57,.02-.4,0-.88-.11-1.22,.07-.07,0-.13,.02-.19,.03-.13,0-.29-.02-.41,.03-.27,0-.79-.06-1,.05-.19-.02-.38-.03-.57-.06-.39,0-.79,0-1.19-.01-.23-.02-.66-.08-.86,0-.82,0-1.64-.01-2.46-.02-.35-.01-.74-.03-1.11-.03-.14,0-.31-.02-.43,.03-.31,0-.62,0-.92,0-.16,0-.36-.06-.51,0-.29,0-.58,0-.87,0-.12,0-.26-.02-.35,.03-.06,0-.12,.02-.19,.03-.35,0-.7,0-1.06,0-.13,0-.3-.03-.4,.03-.24,0-.89-.05-1.06,.02-.22,0-.69-.06-.87,.02-.05,0-.11,.02-.16,.03-.35,0-.65-.07-1-.06-.09,0-.19,0-.27,.02-.28,0-.74-.09-.97,0-.07,0-.14,0-.22,0-.22-.01-.65-.16-.84-.06-.32-.01-.65-.02-.97-.03-.12,0-.25-.02-.35,.02-.21,0-.6-.1-.78,0-.06,0-.11,.02-.16,.03-.4,0-.79,0-1.19-.01-.15-.01-.31-.03-.46-.05-.24,0-.48,0-.73,0-.14,0-.32-.02-.43,.03-.12,0-.25-.02-.35,.02-.14,0-.27,0-.38,.05-.16,0-.31,0-.46-.01-.25-.03-.58-.18-.84-.08-.35,0-.69-.03-1.06-.03-.11,0-.26-.01-.35,.02-.09,0-.2,0-.27,.03-.08,0-.16,.02-.25,.02-.48,0-.92-.05-1.38-.09-.1-.02-.2-.03-.3-.05-.44,0-.88,0-1.33-.01-.24,0-.65-.05-.84,.02-.11,0-.27-.05-.38,0-.14,0-.43-.05-.54,0-.08,0-.15,.02-.22,.03-.41,0-.83,0-1.22,.02-.13,0-.3-.02-.41,.03-.58,0-1.16,0-1.73,0v-.05Zm1.71-1.23s.17-.14,.21-.17c.27-.17,.53-.35,.8-.52,.17-.07,.45-.05,.64-.06,.25,.02,.51,.03,.76,.05,.47,.01,.94,.02,1.41,.03,.25-.01,.49-.03,.73-.04,.26,0,.5,0,.76,0,.19,0,.38-.02,.57-.03,.34,.01,.66,.06,.98,.06,.5,.01,.98-.05,1.46-.04,.14,.01,.27,.02,.41,.03,.38,0,.77-.02,1.14-.02,.7,0,1.41,0,2.11,.01,.53,0,1.06,.03,1.6,.04,.38,0,.76,0,1.14,0,.14,0,.29-.01,.43-.02,.3,.03,.6,.05,.89,.08,.43,0,.8-.07,1.22-.07,.33,.02,.65,.04,.97,.05,.34,.01,.68-.03,1.03-.01,.15,.01,.3,.03,.46,.04,.13-.01,.25-.02,.38-.04,.31-.02,.65-.01,.95-.03,.53-.02,1.06,.04,1.57,.03,.3-.02,.6-.05,.9-.07,.72,0,1.44,0,2.17,0,.15,.01,.3,.02,.46,.03,.74,0,1.54,0,2.3-.01,.32,0,.68-.05,1-.04,.37,.03,.74,.06,1.11,.09,.34,0,.68-.07,1.01-.08,.21-.01,.44,.02,.62-.05,.27,0,.56,0,.8,.08,.12,.04,.21,.15,.32,.24,.06,.03,.12,.06,.18,.09,.19,.13,.35,.26,.54,.38,0,.05-.05,.05-.08,.08-.2,0-.4,0-.59-.01-.17-.02-.44-.09-.6-.02-.06,0-.13,.02-.19,.03-.45,0-.9,0-1.35,0-.41,0-.83,0-1.24,0-.13,0-.31-.02-.41,.02-.12,0-.25-.02-.35,.03-.2,0-.48-.04-.65,.02-.16,0-.58-.03-.7,.02-.2,0-.46-.04-.62,.03-.15,0-.34-.06-.48,0-.51,0-.98-.03-1.49-.04-.18,0-.4-.03-.54,.03-.12-.01-.23-.02-.35-.03-.38,0-.76,0-1.14,0-.12,0-.3-.05-.41,0-.37,0-1.03-.07-1.33,.05-.23-.01-.47-.02-.7-.03-.57,0-1.18,.02-1.78,.02-.23,0-.65-.05-.84,.02-.08,0-.2-.01-.27,.03-.3-.01-.59-.02-.89-.03-.86,0-1.72-.01-2.57-.02-.42-.02-.87-.03-1.32-.03-.13,0-.3-.05-.41,0-.15,0-.31,0-.46,0-.27,0-.52-.03-.79-.02-.08,0-.18-.02-.24,.02-.28,0-.54,0-.81,0-.13,0-.28-.02-.38,.02-.41,0-.83,0-1.24,0-.13,0-.29-.05-.41,0-.56,0-1.13-.03-1.71-.04-.13,0-.33-.05-.43,0-.1,0-.22-.01-.3,.03-.71,0-1.43,0-2.12-.05-.3-.02-1.01-.13-1.27,0-.05,0-.11,.02-.16,.03-.36,0-.71-.03-1.08-.03-.39,0-.89,.05-1.22-.09h-.05v-.03Zm1.74-1.18h.03c0-.05,.17-.15,.22-.18,.12-.1,.26-.16,.39-.24,.14-.09,.28-.19,.45-.24,.44-.12,1.08-.06,1.54-.06,.45,0,.92-.03,1.38-.02,.35,0,.73,0,1.08-.01,.14,0,.27,0,.4,0,.72-.07,1.55,0,2.28,.01,.35,0,.76-.03,1.13,0,.47,.03,.91,.11,1.38,.11,.28,0,.56,0,.84,0,.36-.03,.72-.09,1.11-.09,.79,0,1.6,.06,2.38,.06,.1,0,.2-.01,.29-.02,.13,.02,.25,.03,.38,.05,.21-.01,.42-.03,.62-.04,.25-.01,.51,.02,.76,.02,.26,0,.52-.03,.78-.03,.52,0,1.06,.07,1.6,.05,.22-.01,.45-.07,.68-.07,.16,0,.32,0,.49,0,.06,0,.12-.01,.19-.02,.14,0,.26,.07,.41,.06,.21-.01,.41-.03,.62-.04,.27,0,.58,.03,.87,.03,.21,0,.4-.05,.63-.05,.3,0,.61,0,.92,0,.16,0,.33,.02,.46-.02,.6,.04,1.2,.03,1.81,.04,.25,0,.52,.04,.79,.03,.54-.03,1.12-.04,1.71-.04,.27,0,.57-.03,.81,.03,.1,.03,.18,.11,.27,.16,.25,.16,.49,.31,.73,.47,0,.13-.39,.11-.49,.16-.13,0-.32-.03-.43,.03-.13,0-.3-.03-.41,.03-.17,0-.34,0-.51-.01-.09-.02-.18-.03-.27-.05-.38-.02-.79,0-1.14,.02-.12,.01-.27-.03-.37,.02-.15,0-.29,0-.43,0-.06,0-.13,.02-.19,.03-.91,0-1.83-.04-2.76-.05-.26,0-.59-.09-.81,.03-.17,0-.34,0-.52-.01-.2-.01-.61-.07-.78,0-.12,0-.3-.03-.41,.02-.18,0-.54-.06-.68,0-.18,0-.36,0-.54,0-.16,0-.39-.07-.54,0-.07,0-.13,.02-.19,.03-.4,0-.8,0-1.19,0-.16,0-.39-.04-.51,.02-.25,0-.66-.09-.87,0-.11,0-.21,0-.32,.01-.19-.01-.44-.09-.62-.01-.12,0-.29-.02-.38,.02-.61,0-1.23,0-1.84-.01-.29-.02-.86-.14-1.14-.03-.07,.01-.15,.02-.22,.03-.26,0-.47-.05-.71-.06-.59,0-1.17,0-1.76-.01-.19,0-.35-.05-.54-.06-.39,0-.78,0-1.16,0-.09,.01-.18,.03-.28,.04-.58,0-1.16,0-1.73,0-.3,0-.62-.01-.92-.02-.24-.03-.6-.12-.84-.02-.09,0-.22-.01-.3,.03-.12,0-.26-.02-.35,.02-.29,0-.56-.03-.84-.03-.13,0-.25,0-.38,0-.1,0-.19,.04-.3,.04-.32-.02-.65-.03-.98-.05-.24-.01-.53,.03-.76-.03v-.03s-.03,0-.03-.03m2.76-1.57c.08-.06,.16-.11,.24-.16,.67-.44,1.63-.22,2.45-.21,.47,0,.94,0,1.4,.01,.15,0,.29,.02,.44,.03,.25,0,.51-.02,.78-.02,1.02,0,1.99,.04,3,.02,.19-.02,.38-.03,.57-.05,.26,0,.52,.02,.78,.02,.09,0,.18,0,.27-.01,.1,.01,.2,.03,.3,.04,.13-.01,.27-.03,.41-.04,.48,.03,.95,.1,1.46,.08,.25,0,.47-.07,.73-.07,.64-.01,1.24,.06,1.87,.06,.3,0,.61-.06,.92-.06,.49,0,.99,.03,1.52,.02,.27,0,.51-.05,.79-.05,1.12,0,2.23,.01,3.36,.02,.19,0,.35,.06,.54,.05,.25-.02,.51-.04,.76-.07,.31-.02,.85,.06,1.11-.02,.39,.04,.67,.25,1.01,.39,.28,.11,.7,.21,.94,.41,.04,0,.02,.01,.02,.05-.04,.01-.07,.02-.11,.03-.17,0-.34,0-.51,0-.2,0-.49-.04-.65,.05-.08,0-.16,.02-.24,.03-.26,0-.88-.09-1.06,0-.11,0-.28-.02-.38,.02-.25,0-.51-.02-.76-.04-.17-.02-.43-.11-.6-.05-.17,0-.52-.04-.65,.02-.31,0-.61,0-.92,0-.26,0-.86-.08-1.08,0-.05,0-.11,.02-.16,.03-.24,0-.47,0-.7,0-.1,0-.23-.04-.32,0-.19,0-.55-.08-.7,0-.2,0-.46-.04-.63,.03-.12,0-.28-.03-.38,.02-.34,0-.68,0-1.03,0-.14,0-.34-.03-.46,.02-.37,0-.73-.03-1.11-.03-.13,0-.29-.02-.41,.02-.31-.01-.63-.02-.94-.03-.36,0-.72,0-1.08-.01-.1-.02-.2-.03-.3-.05-.3,0-.61-.01-.92-.01-.13,0-.3-.02-.41,.03-.07,0-.13,.02-.19,.03-.09,0-.22-.01-.3,.02-1.2,0-2.39-.08-3.57-.1-.16,0-.33,0-.48,0-.14,0-.3-.05-.44,0-.21,0-.52-.05-.7,.03-.51-.01-1.01-.03-1.52-.04-.21-.02-.77-.08-.95,0-.2,0-.6-.05-.76,.02-.07,.01-.15,.02-.22,.03-.28,0-.51-.06-.79-.06,0-.14,.62-.36,.75-.42m2.15-.86c.1,0,.33-.17,.43-.21,.11-.04,.22-.07,.33-.11,.09-.05,.18-.1,.27-.15,.33-.13,.7-.22,1.06-.29,.24-.05,.51,0,.75,.01,.32,.01,.62-.02,.92-.02,.17,0,.39,.02,.54-.03,.27,.02,.55,0,.84,0,.37,0,.74,.02,1.13,.04,1.28,.05,2.64,.09,3.95,.07,.21-.01,.41-.03,.62-.05,.31,0,.61,.02,.92,.03,1.51-.01,3.05-.06,4.57,0,.51,0,1.01,0,1.52-.01,.22,0,.43,.01,.64,.01,.43,.07,.77,.38,1.2,.48,.24,.05,.82,.12,.97,.28-.04,0-.07,.02-.11,.03-.06,0-.12,.02-.19,.03-.21,0-.42,0-.62-.01-.19-.03-.38-.06-.57-.09-.19,0-.38,0-.57-.01-.11,0-.26-.02-.35,.03-.17,0-.52-.04-.65,.02-.13,0-.29-.02-.4,.03-.19,0-.44-.04-.6,.02-.3,0-1.06-.07-1.27,.05-.14,0-.34-.05-.46,0-.18,0-.33-.04-.49-.05-.2,0-.4,0-.59,0-.14,0-.29-.02-.41,.02-.17,0-.37-.03-.51,.02-.18,0-.39-.03-.54,.03-.48,0-.92-.03-1.41-.03-.15,0-.34-.03-.46,.02-.1,0-.21,0-.3,.03-.09,0-.2,0-.27,.03-.44,0-.85-.05-1.27-.06-.47,0-.94,0-1.41,0-.18,0-.57-.07-.7,0-.38,0-.76,0-1.14,0-.14,0-.32-.02-.44,.02-.05,.01-.11,.02-.16,.03-.5,0-1.01,0-1.52-.01-.08-.02-.17-.03-.25-.05-.19,0-.38,0-.57-.01-.1,0-.25-.04-.35,0-.72,0-1.41-.03-2.12-.04v-.05Zm3.93-1.19c.29,0,.51-.13,.76-.18,.43-.08,.84-.16,1.27-.23,.28-.05,.59-.02,.89-.04,.41-.03,.83-.14,1.25-.17,.17-.01,.32-.04,.48-.04,.21,0,.39,0,.57-.06,.4,0,.8,0,1.19,.01,.25,.02,.5,.03,.76,.06,.18,.03,.36,.05,.54,.07,.27,0,.54,0,.81,.01,.13,.02,.25,.03,.38,.05,.18,0,.36,.01,.54,.02,.23,.04,.45,.08,.68,.12,.09,0,.18,0,.27,0,.1,.02,.19,.07,.28,.11,.12,.04,.24,.07,.37,.09,.5,.09,1.06,.09,1.56,.19,.02,0,.07,0,.08,.04-.04,.08-.86,0-1,.03-.12,.01-.23,.02-.35,.03-.23,0-.48-.03-.73-.04-.08,0-.2-.03-.27,0-.14,0-.31-.05-.43,0-.12,.02-.24,.03-.35,.05-.3,0-.8-.15-1.08,0-.34,0-.62-.04-.95-.07-.15-.01-.37-.05-.51,0-.16,0-.27,.04-.41,.04-.17,0-.33-.07-.49,0-.1,0-.2,.02-.27,.05-.71,0-1.42-.01-2.14-.01-.13-.02-.27-.03-.4-.05-.32,0-.65,0-.98-.01-.2,0-.73-.07-.87,0-.5,0-.96-.03-1.46-.04v-.03Zm37.05,26.43c-.04-.63-.19-1.26-.25-1.87-.07-.65-.12-1.3-.25-1.92-.36-1.71-.84-3.39-1.44-4.98-.09-.23-.22-.44-.31-.67-.2-.47-.42-.92-.65-1.37-.07-.13-.15-.26-.23-.39-.19-.39-.32-.82-.53-1.21-.13-.24-.28-.44-.43-.67-.12-.25-.23-.49-.34-.74-.44-.67-.88-1.33-1.33-1.99-.17-.2-.34-.39-.51-.59-.19-.24-.38-.49-.57-.74-.18-.18-.38-.33-.54-.54-.1-.12-.15-.24-.24-.36-.14-.15-.28-.31-.42-.46-.09-.08-.17-.16-.26-.24-.21-.25-.42-.5-.64-.74-.19-.18-.39-.37-.58-.55-.19-.19-.38-.38-.56-.57-.26-.2-.52-.4-.78-.6-.27-.24-.54-.47-.81-.71-.18-.13-.37-.23-.55-.35-.23-.17-.46-.34-.69-.5-.18-.12-.32-.26-.49-.39-.12-.07-.25-.15-.37-.23-.17-.12-.33-.24-.5-.36-.55-.34-1.14-.59-1.72-.89-.21-.13-.42-.27-.63-.4-.36-.18-.72-.36-1.08-.54-.3-.14-.6-.24-.91-.36-.15-.08-.29-.17-.45-.25-.11-.04-.23-.08-.34-.12-.18-.08-.36-.16-.54-.24-.57-.2-1.17-.35-1.75-.53-.28-.08-.57-.2-.84-.28-.62-.18-1.22-.27-1.86-.42-.41-.09-.83-.21-1.25-.28-.27-.04-.54-.07-.81-.11-.45-.09-.95-.17-1.42-.23-.18,0-.36,0-.54-.01-.13-.02-.25-.03-.38-.05-.24,0-.49,0-.73-.01-.55-.04-1.13-.08-1.71-.09-.23,.07-.54,.03-.78,.03h-.89c-.08,.01-.16,.03-.24,.04-.21,0-.42,0-.62,.01-.11,.03-.22,.05-.33,.08-.11,.01-.21,.03-.32,.04-.1,0-.21-.01-.3,.03-.06,0-.13,.02-.19,.02-.14,0-.28,0-.38,.05-.29,0-.72,.04-.95,.16-.06,0-.12,.02-.19,.02-.18,0-.43,.02-.57,.11-.48,0-.87,.2-1.31,.3-.23,.05-.5,.08-.7,.2-.19,0-.39,.05-.55,.13-.3,0-.56,.17-.82,.27-.16,.06-.34,.06-.48,.15-.31,0-.57,.17-.82,.28-.17,.07-.34,.14-.51,.22-.93,.39-1.84,.83-2.73,1.3-.15,.1-.3,.19-.45,.29-1.07,.54-2.13,1.14-3.08,1.91-.28,.2-.56,.4-.84,.6-.15,.13-.29,.26-.44,.39-.27,.2-.55,.37-.82,.59-.54,.46-1.05,.97-1.55,1.46-.3,.28-.61,.56-.92,.84-.11,.12-.21,.24-.31,.36-.14,.13-.28,.26-.42,.39-.22,.22-.37,.5-.59,.71-.19,.19-.37,.36-.54,.57-.07,.1-.15,.21-.23,.31-.33,.36-.64,.72-.92,1.11-.19,.3-.38,.59-.57,.89-.28,.36-.59,.81-.8,1.2-.06,.13-.12,.25-.19,.38-.18,.31-.37,.62-.56,.92-.16,.32-.27,.67-.43,.99-.07,.12-.15,.25-.22,.37-.16,.29-.29,.58-.46,.87-.08,.19-.15,.38-.23,.56-.1,.19-.19,.38-.28,.58-.07,.22-.15,.44-.22,.66-.09,.24-.18,.47-.28,.71-.45,1.48-.84,2.97-1.16,4.54-.03,.3-.05,.6-.08,.89-.04,.34-.16,.71-.19,1.05-.02,.26-.01,.57-.09,.81-.02,.21-.04,.41-.06,.62-.05,1.27,0,2.48,.02,3.71,.02,.59,.13,1.18,.18,1.76,.01,.26,.03,.51,.04,.76,.08,.79,.21,1.59,.34,2.38,.06,.2,.11,.4,.17,.6,.13,.62,.27,1.22,.45,1.82,.05,.14,.1,.27,.16,.41,.03,.14,.07,.28,.1,.42,.24,.66,.47,1.32,.7,1.98,.11,.25,.23,.49,.35,.74,.07,.16,.1,.34,.17,.51,.18,.42,.44,.8,.65,1.2,.17,.33,.37,.65,.54,.98,.05,.12,.1,.24,.15,.36,.06,.07,.12,.14,.17,.21,.06,.14,.13,.28,.19,.42,.16,.27,.35,.54,.55,.79,.12,.15,.21,.32,.34,.48,.16,.21,.35,.39,.5,.6,.12,.17,.23,.35,.35,.52,.22,.27,.44,.53,.66,.79,.18,.23,.37,.46,.55,.69,.23,.24,.46,.48,.69,.72,.19,.22,.35,.48,.56,.68,.31,.28,.62,.57,.9,.86,.15,.15,.3,.3,.46,.46,.25,.22,.54,.37,.78,.6,.23,.23,.47,.45,.7,.67,.17,.14,.34,.26,.51,.39,.21,.18,.39,.39,.61,.55,.27,.19,.53,.4,.81,.57,.19,.11,.39,.17,.57,.28,.21,.15,.42,.3,.63,.44,.21,.13,.44,.24,.66,.37,.8,.49,1.6,.91,2.44,1.31,.37,.18,.72,.4,1.12,.54,.36,.14,.72,.28,1.08,.42,.13,.04,.27,.07,.4,.11,.36,.14,.71,.27,1.06,.41,.1,.03,.19,.06,.29,.09,.31,.12,.61,.26,.93,.35,.39,.08,.77,.15,1.16,.23,.57,.12,1.17,.3,1.76,.39,.22,.02,.43,.03,.65,.05,.28,.04,.57,.11,.87,.13,.22,.01,.45,.03,.67,.05,.15,.02,.29,.04,.44,.07,.16,0,.31,.01,.46,.02,.36,.05,.71,.11,1.06,.16,.18,0,.36,.02,.54,.02,.11-.02,.22-.02,.33-.04,.32,0,.7,.04,1.03,.05,.2,0,.4,0,.6,0,.4,.02,.79-.06,1.16-.11,.17,0,.34-.01,.51-.02,.23-.03,.48-.07,.7-.09,.84-.07,1.65-.17,2.46-.33,.27-.07,.55-.15,.82-.21,.34-.07,.69-.14,1.03-.21,.18-.05,.34-.14,.5-.21,.28-.08,.55-.17,.83-.25,.12-.04,.24-.08,.36-.12,.2-.06,.38-.08,.59-.14,.41-.14,.81-.28,1.23-.43,.24-.12,.49-.23,.73-.35,.24-.09,.48-.2,.7-.31,.07-.04,.13-.08,.2-.12,.24-.12,.5-.23,.74-.36,.28-.16,.56-.32,.84-.48,.14-.07,.3-.11,.45-.19,.41-.22,.79-.5,1.18-.75,.34-.21,.68-.41,1.01-.62,.31-.22,.58-.48,.89-.7,.33-.23,.65-.47,.98-.71,.07-.06,.14-.13,.2-.2,.08-.04,.15-.08,.23-.13,.28-.21,.56-.46,.82-.7,.21-.2,.36-.41,.58-.61,.21-.19,.46-.37,.68-.57,.09-.09,.14-.18,.22-.26,.18-.18,.37-.34,.53-.53,.11-.14,.22-.28,.34-.42,.4-.38,.77-.81,1.1-1.25,.28-.33,.55-.66,.83-.98,.18-.26,.36-.52,.54-.77,.09-.1,.19-.2,.28-.3,.29-.41,.59-.82,.88-1.23,.09-.15,.14-.29,.23-.43,.06-.09,.13-.19,.19-.28,.06-.12,.11-.24,.17-.36,.2-.34,.38-.68,.57-1.03,.15-.27,.31-.53,.46-.8,.13-.27,.21-.55,.33-.82,.14-.28,.27-.57,.4-.85,.45-1.22,.9-2.45,1.26-3.7,.03-.15,.05-.3,.08-.45,.1-.46,.23-.94,.31-1.41,.03-.24,.06-.49,.09-.73,.07-.39,.15-.82,.2-1.22,.02-.32,.05-.65,.07-.97,.03-.13,.05-.25,.08-.38,.01-.27,.03-.54,.04-.81,.02-.14,.06-.26,.06-.41,0-.19,0-.38,0-.57,.09-1.22,.11-2.55,.04-3.76"/><path class="cls-1" d="M58.79,34.37c-.01,.08-.03,.16-.04,.24,0,.15,.05,.27,.04,.43,0,.17-.05,.29-.05,.46,0,.74-.01,1.48-.02,2.22,0,.13,.04,.23,.04,.35-.01,.13-.03,.27-.04,.41,.02,.12,.03,.23,.04,.35-.02,.1-.03,.2-.04,.3,0,.1,0,.2,0,.3-.01,.2-.05,.38-.05,.59,0,.32,.07,.58,.07,.89,0,.15-.04,.29-.04,.43,0,.1,.02,.2,.03,.3,0,.15-.02,.3-.03,.43,0,.05,.01,.11,.02,.16,.01,.18,.02,.36,.03,.54-.04,1.69-.02,3.5-.05,5.2,0,.62,0,1.24,0,1.87,0,.17,0,.34,.02,.51-.03,.7-.02,1.4-.03,2.11,0,.21-.06,.36-.06,.57,0,.18,.05,.31,.05,.49,0,.17-.04,.3-.05,.46,.01,.08,.02,.16,.03,.24-.01,.08-.02,.16-.03,.24,.01,.09,.02,.18,.03,.27,0,.24,0,.47,0,.7,0,.12,.01,.23,.02,.35-.01,.22-.02,.44-.03,.65,0,.61,.02,1.25-.08,1.84,0,.13-.02,.27-.03,.4-.05,.28-.18,.64-.32,.88-.32,.54-.87,.88-1.39,1.2-.29,.18-.54,.38-.85,.52-.35,.16-.72,.28-1.1,.4-.45,.14-.9,.33-1.36,.46-.16,.05-.32,.06-.48,.1-.48,.12-.97,.24-1.47,.32-.1,0-.21,.02-.32,.02-.32,.05-.65,.11-.98,.16-.37,.05-.74,.06-1.11,.09-.41,.03-.84,.12-1.25,.15-.34,.01-.69,.02-1.03,.03-.27,.02-.51,.09-.76,.13-.16,0-.32,.02-.48,.03-.65,.14-1.28,.31-1.93,.45-.35,.07-.69,.13-1.02,.23-.17,.07-.33,.14-.5,.21-.14,.05-.28,.1-.42,.14-.89,.48-1.77,1.1-2.36,1.96-.05,.09-.11,.17-.17,.26-.04,.04-.17,.13-.17,.18-.04,0-.06,.02-.06-.03-.12-.07-.16-.19-.25-.29-.27-.29-.48-.6-.78-.84-.25-.2-.52-.34-.79-.49-.13-.09-.27-.18-.4-.27-.25-.12-.5-.25-.75-.37-.34-.12-.68-.24-1.02-.37-.23-.09-.45-.15-.7-.22-.11-.04-.22-.08-.33-.12-.36-.07-.69-.11-1.05-.16-.13-.03-.26-.06-.38-.1-.15,0-.29,0-.44-.01-.28-.03-.56-.05-.84-.08-.26,0-.52-.01-.79-.02-.15-.03-.29-.06-.43-.1-.33-.01-.67-.03-1-.05-.71-.09-1.39-.21-2.08-.29-.32-.02-.65-.05-.98-.07-.34-.04-.68-.12-1-.18-.43-.07-.83-.12-1.24-.22-.55-.13-1.07-.38-1.58-.6-.73-.31-1.53-.77-1.97-1.5-.64-1.06-.65-2.41-.64-3.81,0-.19-.05-.33-.05-.51,0-.15,.05-.27,.05-.43,0-.16-.04-.28-.05-.43-.01-.34-.02-.68-.02-1,0-.25,.02-.53,.03-.79,.01-.09,.03-.18,.04-.27,0-.09-.02-.18-.03-.27,0-.23,0-.45,0-.68,0-.51,.06-.98,.06-1.51,0-1.18,.04-2.3,.07-3.46,0-.16-.01-.3-.02-.46,0-.34,0-.68,0-1.03,0-.33,.06-.6,.05-.92-.01-1.29-.03-2.62-.03-3.9,.02-.32,.04-.65,.05-.97-.01-.25-.02-.5-.03-.76,0-.71,.02-1.44,.03-2.14,0-.35-.01-.7-.02-1.06,.02-.23,.03-.47,.05-.7,.01-.47-.01-.92-.01-1.41,0-1.12,.03-2.17,.03-3.27,.02-.15,.04-.31,.06-.46,0-.08-.02-.16-.03-.25-.01-.25-.02-.5-.03-.76,0-.65,.02-1.31,.05-1.92,0-.36-.02-.72-.03-1.08,.02-.17,.04-.34,.06-.51,0-.17-.04-.35-.03-.54,0-.18,.05-.32,.05-.51,0-.71,.01-1.37,.03-2.06,0-.25,0-.51,0-.76,.02-.18,0-.35,0-.51,0-.18,.02-.36,.02-.54,0-.23-.09-.94,.07-1.08,.09-.09,.34-.05,.49-.05,.19-.07,.73-.02,.98-.02,.17-.07,.45-.02,.65-.02,.68,0,1.36,.03,2,.04,.14-.07,.4-.03,.57-.03,.17-.06,.43-.03,.62-.02,.08-.04,.2-.03,.3-.03,.17-.08,.44-.02,.62,0,.51,.03,.98,.07,1.49,.07,.2-.08,.62,0,.87,0,.23-.09,.7,0,.95,.02,.39,0,.78,0,1.17,0,.11-.05,.31-.02,.46-.02,.31,0,.61,0,.92,0,.17-.07,.45-.02,.65-.02,.09-.04,.22-.03,.32-.03,.34,0,.62,.06,.95,.06,.14-.05,.35-.03,.51-.03,.12-.04,.26,0,.38,0,.18,0,.36,0,.54,0,.25-.1,.86,0,1.14,.03,.2,0,.4,0,.6,0,.08-.05,.23,0,.33,0,.2,0,.42,0,.62,0,.77,.02,1.57,.02,2.38,.02,.09-.05,.23-.05,.35-.05,.05-.01,.11-.02,.16-.03,.27-.11,.8,.06,1.11,.06,.08,0,.16-.02,.25-.03,.07,0,.13-.02,.19-.03,.17-.07,.48-.02,.68-.02,.56,0,1.12,.01,1.68,.01,.22,0,.42,.06,.65,.06,.07-.03,.19-.03,.27-.03,.11-.05,.3-.02,.43-.02,.28,0,.56,0,.84,0,.07,0,.14-.02,.22-.03,.26-.1,.65,.03,.92-.05,.37,0,.71,.06,1.06,.08,.23,0,.47,0,.71,.01,.07-.01,.14-.02,.21-.03,.24-.09,.59,0,.84,.03,.32,0,.65,0,.97,.01,.12-.05,.58,0,.76,0,.63,0,1.26,0,1.89,.02,.18,.02,.36,.05,.54,.07,.13-.01,.26-.03,.38-.04,.08-.04,.2-.03,.3-.03,.35,0,.68,.02,1,.05,.5,0,1.01,.02,1.51,.02,.04-.02,.3-.05,.3,0h.03c0,.52-.01,.98,0,1.49,0,.5,.04,1.06,.02,1.57,0,.95,0,1.89-.02,2.84-.06,1.73,0,3.4,0,5.14,.01,.23,.03,.45,.04,.67,0,.3-.05,.56-.05,.87,.02,.13,.03,.25,.05,.38,.01,.39,.02,.79,.02,1.17-.01,.25-.02,.49-.04,.73m.71-9.87c.02-.27,.03-.54,.05-.82-.01-.27-.03-.54-.03-.81,0-.12,.01-.25,.02-.38,0-.38,0-.81-.01-1.19-.03-.6,0-1.19,0-1.81,0-.19,.04-.45-.06-.6-.01,0-.02-.02-.03-.02-.12-.05-.29-.03-.42-.03-.15,0-.29-.02-.44-.02-.21,.01-.43,.03-.65,.04-.45,0-.89-.06-1.32-.03-.27,.02-.55-.01-.84-.01-.15,.01-.3,.02-.46,.02-.15,0-.3-.02-.46-.02-.15,0-.29,.01-.43,.02-.17-.03-.34-.05-.52-.08-.24-.02-.52,.01-.76,.01-.17-.02-.34-.03-.52-.05-.24,0-.47,.04-.71,.04-.33,0-.72-.04-1.05-.05-.21,0-.42,.01-.62,.02-.19,0-.35-.06-.54-.06-.47-.01-.97,.04-1.41,0-.11,0-.22,.02-.33,.03-.5,.03-1.05,0-1.57,.01-.25,.02-.5,.03-.76,.05-1.17,.01-2.26-.02-3.41,.01-.2,.02-.4,.03-.6,.05-.42-.01-.85-.03-1.27-.05-.22,.01-.43,.02-.65,.03-.28-.03-.56-.05-.84-.07-.24,0-.49,0-.73,.01-.27,0-.55-.03-.81-.03-.37,0-.72,.07-1.08,.07-.42-.01-.85-.02-1.27-.03-.62,0-1.29,.03-1.92,.04-.22-.01-.43-.03-.65-.05-.46-.03-.94-.03-1.38-.04-.28,0-.56,.02-.86,.02-.24,0-.45-.05-.67-.05-.27,.02-.55,.03-.81,.04-.19,0-.38-.02-.57-.03-.66,0-1.34,0-1.98,.01-.53,0-1.03-.03-1.56-.03-.29,.02-.58,.03-.87,.05-.48,0-.96,0-1.44,0-.54,0-1.06,.08-1.57,0-.42-.06-.91-.01-1.3,.04-.05,0-.11,0-.11,.05-.07,.18-.03,.49-.03,.7,0,.27-.03,.52-.03,.78,0,.4,.01,.81,.02,1.19,0,.34-.03,.65-.03,1,0,.97,.02,1.92,.01,2.87-.01,.18-.02,.36-.03,.54,0,.28,.03,.54,.04,.81,0,.38,0,.76,0,1.13-.02,1.1-.02,2.26-.04,3.38-.03,.24-.04,.47-.07,.71,.02,.27,.03,.54,.04,.81,0,.13,0,.25-.01,.38,0,.63-.03,1.29-.03,1.9,0,.27,.02,.55,.02,.84-.03,.3-.06,.6-.09,.89,0,.25,.04,.49,.05,.73,0,.22-.02,.44-.03,.65,0,.37,.02,.74,.02,1.08,0,.17-.02,.34-.03,.51,0,.2,.04,.38,.05,.57,0,.23-.02,.45-.03,.67,0,.3,.03,.61,.02,.92-.03,.41-.07,.81-.1,1.22,0,.13,0,.25,0,.38,0,.26-.03,.53-.03,.81,.01,.25,.03,.51,.04,.76-.04,1.79-.07,3.58-.05,5.36,0,.41-.03,.84-.03,1.27,0,.66,0,1.32-.01,1.97,0,.15,.01,.29,.02,.44-.02,.65-.06,1.31-.08,1.97,.02,.17,.03,.34,.04,.51,0,.89,0,1.73,.16,2.54,.05,.18,.11,.35,.16,.53,.11,.35,.23,.69,.46,.98,.3,.38,.6,.81,.99,1.12,.05,.03,.11,.06,.16,.09,.11,.07,.23,.15,.34,.22,.16,.07,.32,.15,.48,.22,.24,.11,.47,.21,.71,.32,.24,.09,.49,.15,.74,.23,.45,.15,.92,.28,1.39,.36,.47,.08,.94,.09,1.43,.17,1.42,.23,2.87,.37,4.33,.52,.31,.03,.62,.02,.94,.04,.41,.05,.81,.1,1.22,.15,.42,.08,.83,.2,1.25,.28,.2,.05,.4,.1,.59,.14,.19,.04,.39,.06,.57,.13,.19,.07,.36,.18,.55,.26,.17,.06,.33,.12,.5,.19,.81,.35,1.58,.88,2.23,1.5,.22,.26,.44,.51,.66,.77,.1,.17,.21,.34,.31,.5,.02,.03,.04,.08,.08,.08v.03h.03c.32-.78,.71-1.58,1.35-2.17,.23-.22,.53-.31,.77-.51,.26-.22,.65-.56,1.01-.55,.19-.07,.37-.14,.56-.21,.24-.09,.48-.22,.77-.22,.07-.04,.16-.05,.24-.05,.11-.07,.3-.11,.43-.11,.06,0,.11-.02,.16-.03,.07-.04,.16-.05,.24-.05,.07-.04,.18-.06,.27-.06,.09-.05,.21-.05,.32-.05,.09-.06,.23-.05,.36-.05,.07,0,.14-.02,.22-.02,.09-.05,.21-.05,.32-.05,.08-.01,.16-.02,.24-.03,.06,0,.11-.01,.16-.03,.05,0,.11-.02,.16-.03,.07,0,.15-.01,.22-.02,.15-.06,.37-.03,.54-.03,.06,0,.11-.02,.16-.02,.09-.05,.22-.02,.32-.02,.16-.1,.39-.03,.57-.03,.07,0,.14-.02,.21-.02,.16-.08,.43-.06,.63-.05,.08-.04,.2-.05,.3-.05,.09-.05,.21-.05,.32-.05,.07,0,.14-.02,.22-.03,.11-.07,.29-.05,.43-.05,.07-.04,.18-.05,.27-.05,.13-.06,.33-.03,.49-.03,.13-.08,.56-.16,.73-.16,.07-.04,.18-.05,.27-.05,.06-.02,.12-.03,.18-.05,.19-.07,.35-.14,.58-.14,.12-.06,.28-.08,.43-.08,.14-.08,.37-.16,.55-.16,.08-.03,.16-.06,.24-.09,.32-.12,.65-.21,.97-.33,.34-.13,.68-.28,1.02-.42,.17-.06,.34-.12,.5-.19,.26-.14,.49-.35,.72-.54,.13-.1,.26-.18,.38-.3,.2-.2,.46-.33,.61-.58,.18-.29,.42-.77,.49-1.1,.02-.2,.05-.4,.07-.59,.03-.18,.07-.36,.1-.54,.02-.3-.02-.6-.01-.89,.01-.34,.03-.69,.05-1.03-.01-.1-.03-.2-.04-.3,0-.16,0-.32,.02-.49,.02-.59,.01-1.19,.01-1.76,0-.46-.02-.95-.02-1.43,0-.2,0-.4,0-.6,0-.11,.01-.22,.02-.32,0-.28-.03-.56-.04-.84,0-.52,.04-1.08,.05-1.6-.01-.75-.02-1.49-.03-2.25,.02-.2,.04-.4,.05-.6,0-.37,0-.74,.01-1.11,.01-.17,.04-.34,.05-.51,0-.32-.05-.6-.05-.92,0-.79,.05-1.54,.08-2.33,.01-.29-.06-.57-.06-.84,.02-.2,.03-.39,.05-.59,0-.12-.01-.24-.02-.35,0-.18,.02-.36,.03-.54-.02-.11-.03-.22-.04-.33-.01-.27-.02-.54-.03-.81,0-.55,.04-1.08,.05-1.62,0-.14-.01-.29-.02-.43,.02-.11,.03-.22,.04-.33,0-.2-.04-.38-.04-.59,0-.29,.03-.58,.04-.84,0-.22-.02-.45-.03-.67,.01-.11,.02-.22,.04-.32,0-.49-.05-1.04-.05-1.54,0-.28,.02-.57,.03-.87,.02-.13,.03-.25,.03-.38-.02-.35-.05-.7-.07-1.06,.01-.21,.03-.43,.05-.65,0-.29,0-.58,0-.86,.01-.23,.03-.47,.05-.7,0-.23-.05-.44-.04-.68,.02-.13,.03-.27,.05-.4-.02-.35-.05-.7-.07-1.06"/><path class="cls-1" d="M42.74,58.17c-.07-.26-.16-.5-.24-.76-.03-.09-.05-.18-.1-.26-.05-.07-.1-.09-.18-.11-.09,.07-.21,.12-.22,.24-.03,.2,.1,.43,.17,.6,.1,.25,.19,.52,.27,.78,.05,.16,.09,.33,.2,.47,.1,.13,.33,.28,.5,.2,.09-.04-.04-.24-.06-.29-.12-.27-.25-.58-.33-.87"/><path class="cls-1" d="M31.75,44.94h.03v-.03h.03c.09-.17,.18-.35,.27-.52,.08-.09,.17-.17,.26-.25,.09-.12,.18-.24,.27-.36,.06-.09,.18-.15,.22-.25,.11-.32,.06-.99,.06-1.38,0-.31,0-.63,0-.94,.02-.19,.03-.38,.04-.57,0-.4,0-.81,0-1.22-.02-.2-.03-.4-.05-.59-.01-.53,.06-1.09,.05-1.62-.02-.49,0-1.04,.02-1.52,0-.18-.02-.36-.02-.54,0-.15,.03-.31,.04-.46,0-.34,0-.69,0-1.03-.02-.18-.03-.36-.05-.54-.01-.27,0-.55,.04-.81,.02-.22,.05-.49,0-.7v.03c-.25,.1-.99,.94-1.07,1.19-.07,.24-.03,.66-.03,.94,0,.41-.05,.79-.07,1.19,0,.11-.01,.22-.02,.33,.02,.19,.03,.38,.05,.57,0,.34-.11,.63-.11,.97,.01,.21,.03,.42,.04,.62,0,.21-.01,.41-.02,.62,.01,.27,.03,.54,.04,.81,0,.45-.06,.89-.06,1.35,.01,.28,.03,.56,.05,.84,0,.25-.05,.51-.06,.76,0,.21,.06,.4,.04,.62-.01,.29-.07,.62-.06,.92,0,.51,.08,1.06,.08,1.57"/><path class="cls-1" d="M46.13,45.23s.02,0,.03,0c-.04-.3-.25-.53-.45-.74-.13-.14-.25-.27-.37-.41-.28-.21-.66-.39-1.02-.45-.22,0-.43,0-.65-.01-.13,.05-.29,.04-.43,.06-.26,.06-.51,.12-.76,.18-.71,.18-1.34,.49-1.98,.8-.24,.11-.44,.28-.65,.43-.19,.13-.35,.46-.6,.46-.18,0-.31-.2-.44-.3-.07-.05-.15-.09-.22-.14-.28-.23-.53-.47-.83-.65-.46-.27-.96-.34-1.5-.44-.16-.05-.33-.09-.49-.14-.85-.18-1.94-.18-2.64,.27-.16,.1-.28,.26-.42,.38-.26,.22-.37,.32-.5,.64-.04,.09-.1,.19-.1,.3,.11,.06,.26,.06,.4,.06,.14-.07,.37-.02,.54-.02,.48,0,.96,.03,1.44,.03,.13-.07,.33-.05,.49-.05,.34,0,.65,.03,.97,.03,.09-.05,.26-.03,.38-.02,.46,0,.85,.06,1.3,.06,.05,0,.09-.02,.14-.03,.19,.01,.38,.02,.57,.03,.06-.01,.12,.02,.16,.06,.08,.1,.05,.27,.07,.4,.08,.36,.39,.65,.79,.66,.5,0,.85-.43,.84-.91,0-.05-.04-.19,0-.19,.08-.09,.25-.11,.38-.11,.08,0,.16-.01,.24-.03,.08,0,.17,0,.25-.02,.14-.07,.52-.02,.7-.02,.08-.04,.18-.05,.27-.05,.17-.09,.43-.05,.65-.05,.06,0,.13-.02,.19-.03,.17-.09,.43,.03,.62,.03,.16-.09,.44-.05,.65-.05,.57,0,1.14,0,1.71,.01,.06,0,.27,.02,.27-.03"/><path class="cls-1" d="M34.15,33.47c.4,0,.71,.13,1.06,.23,.1,.02,.21,.04,.31,.06,.23,.06,.45,.15,.66,.24,.19,.07,.38,.14,.57,.21,.09,.05,.19,.1,.28,.15,.26,.12,.53,.25,.79,.37,.17,.07,1.07,.64,.97,.85-.03,.06-.13,.06-.19,.05-.16-.03-.28-.18-.42-.26-.15-.09-.31-.18-.47-.27-.84-.42-1.79-.67-2.71-.93-.26-.07-.61-.06-.83-.2-.19-.12-.19-.37-.03-.51m4.54,5.49s-.03,.01-.06,.02h-.03c-.19,.03-.95-.59-1.19-.7-.27-.13-.55-.23-.83-.34-.37-.15-.74-.31-1.17-.37-.16-.02-.32-.04-.48-.07-.22,0-.57,.04-.73-.09-.2-.16-.07-.59,.19-.59v-.03c1.2,.09,2.23,.63,3.2,1.18,.26,.15,.94,.56,1.08,.84,.01,.03,.07,.15,.01,.15m-.65,2.96c-.46-.22-.96-.4-1.46-.55-.17-.06-.35-.08-.53-.11-.26-.06-.54-.13-.82-.18-.3-.05-.62-.06-.91-.13-.03-.01-.07-.03-.1-.04-.25-.14-.25-.61,.1-.61v-.03c.22,0,.38,.06,.58,.1,.19,.04,.39,.06,.59,.11,.16,.06,.33,.12,.49,.18,.48,.16,.92,.32,1.38,.53,.11,.04,.22,.08,.32,.12,.26,.11,.63,.39,.81,.61,.07,.08,.19,.13,.19,.25-.23,.03-.45-.17-.63-.26m-4.69,.77c0,.24-.05,.48-.05,.73,.1,0,.2,0,.3,0,.07-.03,.18-.05,.27-.05,.07-.04,.18-.05,.27-.05,.06-.01,.13-.02,.19-.03,.26-.11,.96,.03,1.22,.07,.33,.06,.64,.04,.97,.11,.38,.08,.96,.3,1.29,.49,.12,.07,.78,.59,.84,.59v-.03c.17-.29,.16-.57,.21-.92,.05-.4,.07-.81,.08-1.24,.02-.62,.06-1.26,.06-1.9,0-.27-.01-.54-.02-.81,.03-.78,.02-1.54,.04-2.3,.03-1.19,.11-2.47,0-3.66-.04-.4,.01-.82-.21-1.12-.42-.57-1-.78-1.62-1.01-.17-.06-.33-.11-.5-.17-.19-.03-.37-.07-.56-.1-.29-.07-.62-.13-.92-.15-.43,0-.86,0-1.3-.01-.13,.06-.34,.04-.42,.17-.09,.13-.04,.62-.04,.81,0,.73-.04,1.46-.04,2.22,0,.44,0,.88,0,1.33-.03,.37-.05,.74-.07,1.11-.01,.26,.1,.5,.09,.78-.01,.54-.02,1.14-.03,1.7-.02,.24-.03,.47-.05,.7-.01,.48,.03,.93,.02,1.41-.02,.23-.04,.47-.05,.7,0,.23,.07,.42,.07,.62"/><path class="cls-1" d="M40.52,26.74c.11,0,.22-.09,.3-.14,.12-.09,.26-.2,.31-.34,.09-.25-.11-.59-.35-.67-.07,0-.15-.02-.23-.03,0,.17,.13,.25,.12,.43-.01,.15-.15,.19-.2,.31-.04,.09-.1,.42,.05,.44"/><path class="cls-1" d="M41.14,24.1c-.19-.07-.38-.12-.57-.19-.16-.07-.29-.16-.47-.2v.03c-.08,.03-.16,.07-.17,.16-.03,.22,.21,.28,.34,.39,.11,.1,.18,.32,.34,.34,.12,.02,.23-.13,.32-.19,.09-.06,.22-.11,.26-.23,.02-.04,0-.09-.04-.11"/><path class="cls-1" d="M39.94,27.98c.16,.1,.6,.02,.64-.18,.03-.16-.22-.29-.34-.32-.1,.07-.53,.36-.3,.5"/><path class="cls-1" d="M44.05,33.93c-.1,.07-.26,.1-.38,.14-.31,.09-.61,.18-.92,.28-.42,.13-.85,.29-1.25,.48-.28,.16-.55,.32-.83,.48-.04,.02-.42,.22-.42,.12h-.03c.03-.29,.36-.48,.59-.61,.11-.08,.22-.15,.32-.23,.28-.18,.57-.35,.86-.48,.31-.14,.64-.22,.96-.33,.11-.05,.22-.1,.33-.15,.15-.05,.29-.1,.44-.15,.11,0,.24-.01,.34,.02,.21,.07,.11,.33-.03,.43m-.04,6.62c-.22,.13-.51,.13-.78,.19-.23,.05-.46,.13-.7,.18-.81,.19-1.47,.51-2.16,.92-.09,.05-.31,.27-.4,.11-.06-.11,.11-.22,.17-.28,.27-.23,.54-.39,.83-.57,.32-.2,.65-.38,1-.52,.12-.06,.23-.13,.34-.19,.44-.17,.9-.28,1.35-.44,.13,0,.26,0,.37,.05,.22,.12,.16,.44-.03,.55m-3.78-2.21c.65-.6,1.5-.9,2.29-1.22,.25-.11,.55-.29,.84-.29,.1-.08,.33-.19,.46-.19v-.03c.16,.03,.28,.1,.28,.27,0,.15-.07,.28-.19,.36-.24,.15-.52,.18-.79,.27-.31,.1-.63,.22-.93,.31-.21,.06-.42,.11-.63,.19-.36,.15-.73,.34-1.07,.54-.12,.07-.24,.18-.39,.19-.04,0-.08,0-.1-.03-.13-.13,.15-.32,.23-.39m4.84-6.94c-.13-.06-.28-.03-.43-.04-.17-.01-.35-.04-.54-.05-.2,.07-.46,.05-.67,.09-1,.19-1.94,.33-2.8,.79-.21,.11-.44,.23-.61,.43-.12,.14-.13,.33-.15,.53-.08,.46-.07,.95-.09,1.46-.02,.25-.03,.5-.05,.76,0,.37,0,.74,0,1.11-.02,.14-.03,.29-.05,.43-.04,.34-.03,.72-.04,1.06-.02,.52,.01,1.05,.02,1.54,0,.48-.02,.99-.01,1.49,.01,.13,.02,.27,.04,.41-.01,.08-.02,.16-.03,.24,0,.23,.04,.45,.04,.7,0,.67-.02,1.52,.25,2.05,.01,.03,.1,.15,.1,.09,.3-.12,.57-.35,.84-.5,.25-.13,.52-.22,.77-.35,.3-.16,.46-.27,.85-.27,.11-.07,.44-.13,.6-.13,.06-.01,.12-.02,.19-.03,.05,0,.11-.02,.16-.02,.29-.14,.96-.01,1.25,.06,.15,.04,.29,.08,.43,.11,.07-.42,0-.89,0-1.3,.01-.23,.03-.47,.05-.7,0-.3-.02-.59-.02-.86,.02-.15,.04-.29,.05-.44,.02-.34,0-.66,.02-1,0-.19,.04-.4,.05-.59,0-.37,.02-.75,0-1.14-.02-.16-.03-.33-.05-.49,0-.68,.03-1.38,.04-2.03,0-.21-.01-.42-.02-.62,0-.52,0-1.02-.02-1.51-.03-.16-.06-.31-.09-.46-.02-.18,0-.38,.02-.57,0-.06,.02-.24-.06-.25"/><path class="cls-1" d="M39.37,26.44c-.07-.04-.14-.05-.23-.05-.07,.05-.16,.09-.19,.18-.04,.1-.02,.23-.02,.34,0,.21-.03,.37,.11,.52,.05,.06,.13,.07,.19,.11,.05,.03,.09,.1,.17,.09,.16-.04,.64-.35,.6-.55,0-.06-.56-.59-.63-.64"/><path class="cls-1" d="M46.46,37.98h-.05c-.09-.21-.05-.42-.05-.68,0-.32-.07-.65,.09-.92,.08,.02,.15,.04,.19,.12,.08,.18,.07,1.47-.17,1.47m-.41-3.33v.03c-.21-.04-.25-.21-.13-.38,.11,.06,.24,.35,.13,.35m-.07,3.95s-.17,.25-.17,.1c-.04-.08-.03-.21-.03-.3-.01-.25,0-.53-.01-.78,0-.35,0-.69,0-1.03,0-.28-.02-.57,.09-.79,.08,.04,.15,.11,.17,.2,.08,.3,.02,.64,.01,.97,0,.45,.11,1.23-.06,1.63m.96-4.17c0-.26-.05-.51-.07-.76,0-.14-.02-.27-.03-.41,0-.05,.02-.29-.03-.3v-.03h-.08c-.06,.53-.03,1.11-.04,1.68,0,.22-.1,.38-.12,.57,0,.11,0,.21,0,.32-.01,.1-.02,.2-.03,.3-.13,.02-.22-.01-.25-.14-.04-.18,.05-.33,.04-.51-.01-.12-.02-.24-.04-.35,0-.64,.05-1.32,.05-1.94-.02-.11-.02-.22-.04-.33-.02-.06-.03-.11-.04-.16-.03,0-.05,0-.08,0v.03h-.03c-.02,.46-.07,.87-.09,1.33-.02,.08-.03,.16-.05,.25h-.08c-.14-.36-.1-.83-.1-1.25,0-.22,.02-.46-.05-.65-.08,.15-.07,.3-.09,.48-.02,.22-.03,.48-.02,.71,.02,.24,.06,.51,.04,.76-.13,1.55-.06,3.07-.07,4.65-.01,.32-.02,.63-.02,.95-.02,.27-.07,.55-.07,.84,0,.39,.03,.81,.02,1.22,0,.38-.05,.82-.03,1.22,0,.05,.01,.19,.08,.19v.02h.03v-.02h.03c.07-.23,.05-.5,.06-.76,.01-.43,.07-.86,.06-1.3,0-.28-.06-.62,.03-.89,.02-.04,.05-.06,.1-.04,.11,.03,.13,.19,.14,.28,.05,.33,0,.65-.03,1,0,.27,0,.54,0,.81,0,.29-.02,.61,.01,.89,.02,.16-.02,.31,.03,.46,.03,.08,.04,.27,.17,.27,.03-.44,.05-.95,.05-1.4-.01-.22-.02-.43-.03-.65,.02-.22,.04-.43,.06-.65,.02-.14,.05-.29,.07-.44,0-.2-.06-.39-.09-.57-.04-.29-.03-.6-.03-.92,0-.17,0-.34,.05-.48,.01-.05,.09-.1,.09-.14h.02c.1,.09,.16,.17,.18,.3,.05,.33,.02,.74,0,1.08,0,.12-.05,.22-.05,.35,0,.3,.08,.62,.09,.93,0,.12-.01,.25-.02,.38,0,.55,0,1.04,0,1.6,0,.4,.03,.82,.07,1.2,0,.07-.02,.14-.03,.21h.11c.11-.23,.08-.52,.09-.81,.01-.3,.06-.66,.02-.97-.03-.21-.06-.42-.09-.63,0-.22,.08-.42,.08-.65,0-.34-.05-.64-.05-.97,.02-.35,.04-.7,.06-1.05,0-.27,0-.54,0-.81-.01-.11-.03-.22-.04-.32,0-.17,.05-.31,.05-.49,0-.28-.01-.56-.02-.84,0-.42,.03-.85,.03-1.3,0-.46,.04-.89,.03-1.33"/><path class="cls-1" d="M42.95,52.44c.08-.03,.19,0,.27,0,.23,0,.45,0,.68,0,.06-.01,.11-.02,.16-.03-.23-.34-.61-.64-.91-.94-.71-.72-1.45-1.41-2.15-2.13-.15-.15-.31-.29-.46-.43-.24-.25-.49-.51-.73-.76-.15-.15-.31-.34-.49-.43,0,.02,0,.04,0,.05-.12,.04-.2,.14-.29,.22-.28,.29-.56,.58-.84,.86-.82,.81-1.64,1.6-2.42,2.42-.12,.13-1.05,1.02-1.05,1.09,.62,.06,1.3,.03,1.95,.04,.23,.01,.45,.02,.67,.04,.14,.02,.27,.03,.41,.05,.02,.02,.03,.02,.03,.05-.12,.15-1.2,1.46-1.23,1.46v.05c.76,0,1.51,.04,2.28,.04,.03,0,.05-.02,.08-.03v-.03c-.1-.16-.21-.32-.31-.48-.19-.26-.42-.52-.56-.8-.03-.07-.08-.16-.04-.23,.14-.31,1.38-.14,1.73-.14,.17-.07,.6,.03,.79,.03,.35,.01,.75-.09,1.07,.03,.08,.02,.14,.09,.15,.17,.03,.25-.48,.94-.6,1.18-.04,.07-.11,.15-.11,.24h.03s0,.02,0,.03c.41,0,.83,0,1.25,0,.24,0,.47,0,.7,0,.03,0,.08-.01,.1-.05,.04-.16-.73-1.02-.86-1.2-.07-.09-.21-.23-.2-.34,.25-.12,.61-.08,.92-.07"/><path class="cls-1" d="M40.32,54.07c.17-.07,.81-1.01,.81-1.18-.14,0-.27,0-.41,0v.03c-.06,.03-.13,.07-.17,.13-.09,.1-.68,.96-.68,1.03h.03v.03c.14,0,.3,.02,.42-.03"/><path class="cls-1" d="M36.39,52.86c-.2,.2-1.19,.92-1.19,1.16,.17,0,.4,.03,.56-.03,.19-.08,1.05-.93,1.05-1.13-.14,0-.27,0-.41,0"/><path class="cls-1" d="M45.05,54.02c-.01-.49,.04-1.04-.4-1.28-.07,.35-.05,.75-.06,1.14,0,.57-.01,1.14-.02,1.68,0,.06,0,.3-.05,.3,0,0,0,.02,0,.02-.83,0-1.71-.04-2.57-.02-.38,.01-.78,.02-1.14,.02-.71,0-1.46-.05-2.16-.06-.53,0-1.01,.07-1.55,.07-.34,0-2.43-.17-2.54,.02-.03,.04,.01,.12,.03,.15,.19,.34,.51,.25,.91,.25,.08,0,.16-.02,.24-.02h.22c.22,0,.45,.02,.65,.03,.34,0,.68,0,1.03,.01,.1-.04,.23-.03,.35-.03,.15-.08,.61,0,.81,0,.06-.03,.16,0,.24,0,.36-.01,.72,.01,1.08,.01,.21-.09,.51,.01,.73,.03,.49,.03,.97,.04,1.46,.04,.14-.05,.35-.02,.52-.02,.16-.06,.43-.03,.62-.02,.44,0,.84-.02,1.27-.02,.05,0,.22-.02,.22,.03h.03v-.05c.1-.23,.02-.53,.04-.79,.02-.17,.03-.34,.05-.51,.01-.32,0-.67-.02-.97"/><path class="cls-1" d="M44.96,60.87c0-.17-.03-.31-.01-.46,0-.06,0-.35-.04-.35-.11-.06-.24-.06-.38-.06-.04,.05-.08,.07-.09,.14-.04,.18,0,.42-.02,.61-.02,.69,.02,1.41,0,2.09,.13-.02,.37-.05,.46-.16,.13-.19,.06-.86,.04-1.11-.01-.24,.03-.46,.03-.7"/><path class="cls-1" d="M52.9,61.3c-.49-.5-1.01-.98-1.5-1.48-.64-.65-1.25-1.35-1.9-1.99-.25-.24-.51-.45-.75-.69-.09-.12-.18-.22-.26-.34-.95-.99-2-1.9-2.92-2.9-.12,.37-.03,.84-.04,1.24-.01,.26-.02,.53-.03,.79,.01,.17,.04,.59-.03,.72-.12,.2-1.57,.2-1.89,.2-.14,0-.5-.02-.57,.07-.03,.03-.02,.1-.01,.15,.05,.42,.29,.79,.44,1.17,.09,.26,.2,.9,.38,1.08,.11,.1,.58,.06,.76,.06,.13-.06,.48-.02,.65-.02,.3-.1,.24,.48,.24,.65,0,.16,.01,.32,.02,.49,0,.32-.11,2.04,.07,2.18,.1,.08,.55,.04,.73,.04,.09-.05,.23-.05,.35-.05,.15-.07,.36-.05,.54-.05,.06,0,.13-.01,.19-.02,.15-.06,.38-.02,.57-.02,.06-.03,.38-.08,.38-.13,.11,.03,.2,.06,.33,.06,.08-.03,.2-.03,.3-.03,.2-.12,.52-.07,.78-.07,.06-.01,.12-.02,.19-.03,.12-.08,.33-.05,.49-.05,.06,0,.13-.02,.19-.03s.13-.02,.19-.02c.09-.05,.22-.05,.32-.06,.14-.02,.31-.05,.46-.09,.22-.04,.43-.14,.68-.14,.11-.07,.38-.13,.51-.13,.07-.04,.18-.06,.27-.06,.05-.04,.21-.09,.17-.18-.04-.12-.2-.23-.29-.32"/><path class="cls-1" d="M58.41,34.86c-.01-.11-.02-.22-.03-.33,0-.09,0-.18,.01-.27-.01-.19-.03-.38-.04-.57,.02-.33,.03-.65,.05-.97,0-.31-.03-.63-.04-.94,0-.62,.02-1.27-.01-1.87-.01-.25,.08-.73-.05-.92-.15,.24-.43,.41-.62,.63-.74,.82-1.56,1.58-2.36,2.35-.52,.54-1.04,1.09-1.56,1.63-.27,.26-.53,.51-.8,.77-.24,.24-.47,.48-.71,.73-.18,.17-.38,.31-.56,.5-.15,.18-.3,.35-.45,.53-.17,.17-.33,.33-.5,.5-.17,.17-.34,.35-.51,.52-.07,.06-.15,.13-.22,.19-.2,.19-.41,.39-.6,.59-.22,.22-.39,.46-.62,.69-.21,.2-.64,.48-.74,.74,0,.03,0,.05,0,.07,0,.09,1.35,1.44,1.54,1.62,1.04,1.02,2.09,2.05,3.13,3.07,.08,.09,.16,.19,.24,.28,.15,.15,.31,.29,.46,.44,.16,.16,.31,.37,.48,.54,1.07,1.08,2.16,2.19,3.24,3.28,.15,.15,1.01,1.09,1.12,1.09,.16,0,.06-.97,.06-1.14,0-.18,.02-.36,.03-.54,0-.13-.01-.27-.02-.41,.02-.13,.04-.25,.05-.38,0-.22-.06-.42-.04-.65,.02-.09,.03-.18,.04-.27,.04-.38,.05-.87,0-1.24-.03-.24-.05-.5-.03-.76,.01-.12,.05-.24,.05-.38-.01-.17-.03-.34-.03-.52,0-.23,.03-.48,.02-.73,0-.08-.02-.17-.03-.25,.02-.22,.04-.44,.05-.67-.02-.37-.05-.74-.07-1.11,0-.3,.07-.61,.07-.89,0-.2-.05-.41-.06-.62,0-.11,.01-.22,.02-.32,0-.33,0-.65,.01-.98l.05-.43c-.02-.26-.05-.52-.07-.78-.01-.52,0-1.02,.04-1.52,.02-.09,.02-.18,.04-.27"/><path class="cls-1" d="M44.51,21.44c-.09,.09-.11,.2-.17,.31-.07,.09-.14,.18-.21,.27-.13,.16-.33,.24-.45,.39-.11,.13-.13,.28-.27,.38-.28,.21-.47,.51-.65,.79-.04,.06-.09,.12-.13,.18-.02,.03-.07,.1-.02,.1,.04,.1,.13,.18,.19,.27,.16,.2,.31,.44,.34,.71,.03,.21,.05,.41,.08,.62,0,.24-.11,.42-.16,.63-.04,.15-.03,.31-.09,.45-.07,.1-.14,.21-.22,.31-.06,.12-.12,.24-.18,.35-.21,.3-.55,.46-.84,.65-.13,.08-.24,.19-.37,.26-.21,.1-.46,.14-.66,.27-.19,.13-.28,.32-.44,.48-.08,.08-.21,.12-.26,.22-.09,.16-.02,.32-.03,.5-.02,.1-.05,.2-.07,.3-.02,.19,.02,.38,.01,.57,0,.08-.02,.16-.03,.24h.03v.03h.03v-.03c.22-.15,.4-.39,.61-.58,.61-.59,1.21-1.21,1.82-1.81,.35-.35,.71-.69,1.07-1.04,.16-.19,.32-.38,.49-.57,.34-.32,.69-.65,1.01-.99,.12-.14,.24-.29,.36-.43,.11-.09,.21-.18,.32-.27,.19-.19,.39-.37,.58-.56,.53-.51,1-1.09,1.52-1.62,.13-.13,.28-.24,.41-.37,.58-.56,1.15-1.13,1.73-1.7,.3-.29,.69-.56,.95-.91,0-.02,.01-.03,.02-.04,.04,0,.03,0,.03-.03h-.03v-.03c-.22,.07-.55,.07-.81,.04-.07-.01-.15-.02-.22-.04-.21,0-.4,.07-.62,.07-.25,0-.5-.06-.73-.08-.21,0-.42,0-.62-.01-.12,.05-.24,.04-.38,.06-.28,.03-.58,.04-.89,.04-.15,0-.35-.03-.47,.03-.06,.06-.13,.12-.19,.17-.18,.19-.33,.37-.47,.58-.06,.08-.11,.17-.17,.25-.08,.08-.18,.11-.26,.17-.07,.07-.15,.14-.22,.21-.1,.08-.19,.12-.28,.21"/><path class="cls-1" d="M42.71,22.02c-.15,.2-.38,.33-.41,.59,0,.09,0,.18,0,.27,.03,0,.06,0,.08,0v-.03c.17-.19,.62-.59,.33-.84"/><path class="cls-1" d="M42.17,26.35s.14,.07,.14,.03c.17-.08,.28-.29,.28-.49h-.03c-.13,.12-.38,.26-.38,.46"/><path class="cls-1" d="M41.94,24.24c-.07,.07-.21,.15-.24,.25-.03,.08-.03,.95-.01,1.02,.03,.08,.07,.14,.16,.14,.09,0,.15-.06,.22-.11,.35-.26,.26-.59,.13-.93-.07-.18-.06-.31-.26-.37"/><path class="cls-1" d="M41.27,27.37c.11,.11,.46-.11,.46-.24,.02-.02,.03-.03,0-.03-.08-.12-.18-.13-.33-.14-.1,.1-.29,.25-.14,.4"/><path class="cls-1" d="M43.14,21.2c-.05,.13-.19,.34,0,.45,.06,.04,.16,.07,.24,.03,.13-.07,.23-.29,.32-.41,.18-.24,.95-1.19,1.23-1.19v-.08c-.22,0-.4-.04-.59-.06-.09,.09-.17,.17-.26,.25-.1,.14-.16,.28-.28,.41-.11,.08-.21,.17-.32,.25-.07,.04-.15,.07-.22,.11-.07,.06-.08,.16-.11,.24"/><path class="cls-1" d="M41.41,21.91c-.08,.07-.44,.62-.44,.7h.06c.17,.06,.41,0,.54-.11,.15-.12,.15-.31,.26-.45,.06-.06,.12-.11,.18-.17,.06-.06,.12-.13,.18-.2,.07-.05,.13-.1,.2-.15,.09-.1,.11-.23,.19-.34,.11-.14,.21-.29,.31-.43,.09-.15,.18-.3,.27-.45,.06-.11,.24-.25,.24-.38-.11,0-.22,0-.33,0-.13,.06-.26,.08-.36,.2-.09,.12-.12,.26-.23,.37-.13,.12-.33,.16-.42,.33-.07,.13-.07,.28-.11,.42-.04,.11-.15,.14-.2,.24-.05,.08-.04,.17-.09,.26-.06,.09-.17,.09-.24,.15"/><path class="cls-1" d="M39.93,22.23s0,.29,.04,.3v.03c.31-.06,.66-.5,.79-.77,.06-.13,.11-.26,.17-.39,.07-.12,.14-.24,.2-.36,.15-.33,.26-.67,.47-.97,.02-.02,.02-.05,.06-.05v-.05c-.14,0-.29,0-.43,0-.23,.12-.93,.01-1.04,.14-.11,.13-.05,.26-.1,.42-.04,.13-.17,.22-.2,.35-.05,.2,.07,.39,.07,.59,0,.16-.08,.26-.09,.41-.01,.14,.03,.23,.05,.35"/><path class="cls-1" d="M39.26,24.28c-.07,.04-.39,.37-.41,.44-.04,.16,.26,1.06,.46,1.04,.21-.02,.38-.19,.52-.33,.14-.14,.32-.25,.37-.44,.06-.22-.48-.65-.65-.7-.09-.01-.19-.02-.29-.03v.03"/><path class="cls-1" d="M38.92,26.11c.07-.31-.6-.81-.83-.91-.17,.16-.14,.2-.21,.42-.04,.08-.08,.15-.12,.23-.06,.25,.06,.57,.24,.72,.07,.07,.13,.14,.24,.13,.14,0,.28-.17,.39-.26,.1-.08,.27-.2,.29-.34"/><path class="cls-1" d="M38.44,27.56c-.07-.09-.1-.2-.19-.27-.05-.04-.11-.04-.17-.05-.34,.5,.1,.61,.51,.69,.03,.01,.13,.04,.13,0h.02c-.05-.16-.2-.23-.31-.36"/><path class="cls-1" d="M37.13,25.34c.1-.02,.21-.11,.28-.18,.35-.36,.08-.75-.26-.97v.03c-.08,.03-.27,.27-.27,.27,.03,.11,.07,.22,.07,.35,0,.17-.13,.56,.19,.51"/><path class="cls-1" d="M38.02,24.41c.21,.02,.92-.47,.77-.7-.05-.09-.19-.09-.28-.11-.28,.15-.5,.2-.83,.25-.06,.01-.11,.03-.17,.04v.08c.16,.13,.28,.41,.51,.44"/><path class="cls-1" d="M37.34,27.38c.13-.03,.53-.31,.51-.46-.02-.14-.49-.59-.62-.67-.05-.01-.1-.03-.15-.04-.13,.35-.04,.69,.09,1.01,.03,.08,.06,.19,.17,.16"/><path class="cls-1" d="M38.28,21.6c.14,.24,.53,1.29,.88,1.3v.03h.03c-.02-.26-.03-.52-.04-.78,.02-.42,.08-.84,.09-1.28,.02-.1,.03-.19,.05-.3-.02-.09-.04-.18-.06-.27,0-.12-.01-.24-.02-.35-.2,0-.64,0-.81-.06-.15,.05-.55-.02-.65,.08-.3,.32,.05,1.01,.25,1.29,.09,.13,.21,.21,.29,.35"/><path class="cls-1" d="M37.65,22.82c.07,.03,.19,.05,.27,0,.09-.05,.08-.24,.08-.34,0-.14-.02-.27-.07-.4-.07-.12-.14-.24-.22-.36-.11-.23-.24-.45-.34-.68-.15-.35-.28-.91-.67-1.1-.13-.06-.34-.04-.5-.04-.15,.09-.58,.09-.64,.26v.06c0,.13,1.95,2.54,2.09,2.6"/><path class="cls-1" d="M34.22,20.24c.13,.18,.33,.3,.46,.48,.12,.16,.17,.36,.31,.5,0,0,0,0,0,.01,.14,.13,.33,.15,.46,.28,.23,.22,.37,.52,.56,.77,.1,.13,.23,.17,.34,.28,.18,.18,.35,.36,.52,.53,.11,.08,.29,.14,.44,.14,.01-.03,0-.08,.05-.08-.09-.22-.26-.44-.44-.61-.09-.07-.17-.15-.26-.23-.04-.06-.09-.13-.13-.19-.12-.15-.24-.3-.36-.45-.13-.14-.27-.29-.41-.43-.11-.12-.15-.26-.24-.38-.17-.24-.36-.49-.57-.7-.15-.15-.27-.21-.47-.24-.1,.05-.32,.11-.29,.26,0,0,0,.01,0,.02,0,0,.01,.02,.02,.04"/><path class="cls-1" d="M29.09,20.77c.52,.49,.99,.99,1.5,1.5,.24,.25,.47,.51,.7,.76,.88,.86,1.76,1.72,2.64,2.59,.11,.13,.22,.25,.32,.38,.26,.27,.52,.53,.77,.79,.48,.5,1,.97,1.48,1.47,.25,.26,.49,.52,.73,.78,.34,.32,.67,.63,1.01,.94,.17,.16,.62,.71,.84,.71,.04-.26-.06-.6-.11-.84-.02-.1,0-.22,0-.33,0-.11-.04-.24-.09-.34-.07-.14-.23-.22-.33-.34-.11-.15-.21-.29-.32-.44-.16-.15-.39-.23-.57-.35-.14-.09-.28-.18-.42-.28-.1-.05-.2-.09-.3-.14-.11-.08-.15-.21-.26-.29-.1-.08-.25-.12-.33-.23-.11-.15-.15-.33-.23-.49-.06-.15-.12-.3-.19-.45-.04-.14-.07-.29-.11-.43-.02-.22,.03-.42,.07-.62,.02-.13,.04-.25,.06-.37,.08-.31,.25-.55,.47-.78,.06-.06,.18-.24,.27-.24-.09-.18-.23-.35-.39-.48-.08-.06-.16-.13-.25-.19-.14-.15-.23-.31-.37-.47-.24-.25-.51-.43-.75-.68-.2-.2-.38-.44-.57-.65-.29-.29-.57-.57-.87-.86-.18-.18-.39-.46-.63-.54-.2-.07-.45,.07-.65,.07-.1-.02-.2-.04-.3-.05h-.68c-.16,0-.32-.02-.49-.03-.21,0-.43,0-.62-.03-.24,.06-.57,.03-.84,.02-.38,0-.77,.02-1.14,.02,.09,.34,.65,.67,.91,.91"/><path class="cls-1" d="M36.33,25.31c0,.17-.06,.68,.2,.61,.39-.1,0-.54-.2-.61"/><path class="cls-1" d="M25.95,44.26c.28-.29,.56-.58,.84-.86,.43-.42,.86-.84,1.28-1.26,.31-.31,.61-.61,.92-.92,.13-.13,.21-.28,.33-.4,.37-.33,.95-.81,1.19-1.22,.04-.06,.08-.11,.12-.17,.12-.3-1.96-2.25-2.29-2.56-.52-.54-1.04-1.07-1.56-1.61-.54-.52-1.12-1-1.66-1.51-.1-.1-.15-.21-.25-.31-.23-.23-.47-.43-.7-.65-.13-.12-.22-.25-.33-.37-.31-.36-.67-.7-1.02-1.03-.16-.17-.32-.34-.48-.52-.46-.45-.93-.91-1.4-1.36-.21-.21-.43-.51-.71-.61,0,.32,0,.65,.01,.97-.01,.12-.03,.23-.04,.35-.01,.21,.03,.4,.03,.6-.01,.17-.02,.34-.03,.51,0,.14,.01,.29,.02,.43,0,.66-.02,1.36-.01,2.06,.01,.17,.03,.34,.04,.51-.02,.33-.04,.65-.06,.97-.02,.68,.01,1.35,.02,2.03-.01,.31-.03,.63-.05,.95-.02,.41,.03,.82,.01,1.25-.02,.18-.03,.38-.05,.57,0,.16,.02,.31,.02,.46,0,.51,0,1.03,0,1.54,.01,.18,.02,.36,.02,.54,0,.31-.02,.61-.03,.9,0,.19,.01,.39,.02,.59,0,.47-.02,.96-.03,1.41,0,.16,.01,.33,.02,.49,0,.47,0,.94,0,1.44-.01,.59-.03,1.19-.04,1.78,0,.2,0,.4,0,.59,0,.04,.07,.19,.07,.14h.03c.14-.22,.41-.42,.6-.62,.57-.56,1.14-1.11,1.71-1.67,.39-.37,.71-.8,1.1-1.17,.71-.65,1.42-1.34,2.12-1.99,.07-.08,.14-.17,.22-.24"/><path class="cls-1" d="M35.8,58.82c.15-.42,.32-.83,.48-1.23,.09-.24,.25-.56,.26-.82-.41,0-.81,.03-1.19,.04-.22,.01-.74-.01-.9-.1-.12-.07-.15-.19-.21-.29-.12-.17-.25-.34-.32-.53-.07-.2-.04-.44-.04-.67,0-.36,.01-.71,.04-1.05,.02-.22,.09-.84-.02-1.01-.18,.18-.36,.37-.54,.55-.61,.64-1.24,1.24-1.88,1.86-.46,.44-.87,.93-1.32,1.39-.73,.74-1.49,1.43-2.23,2.15-.12,.13-.24,.27-.36,.4-.15,.14-.29,.29-.44,.43-.29,.29-.61,.55-.9,.84-.19,.19-.38,.38-.56,.57-.21,.19-.49,.44-.63,.66-.02,.03,0,.02-.04,.02v.05h.03c.21,.11,.53,.11,.78,.15,.33,.06,.65,.12,.98,.18,.14,0,.29,.01,.43,.02,.1,.02,.2,.05,.3,.07,.23,.04,.45,.08,.68,.11,.27,.05,.55,.05,.84,.08,.62,.06,1.22,.19,1.87,.19,.1-.04,.27-.03,.38-.02,.28,.03,.56,.05,.84,.08,.15,.02,.29,.04,.44,.06,.19,0,.39-.05,.59-.02,.21,.03,.41,.13,.63,.13v-.03c.06-.05,.1-.12,.12-.19,.07-.31,.03-.77,.03-1.08,0-.72,0-1.44,.02-2.17,0-.06,0-.13,.06-.17,.14-.09,.92-.04,1.15-.04,.05,0,.11-.01,.16-.03,.11-.04,.22,.02,.3-.07,.11-.13,.16-.34,.23-.49"/><path class="cls-1" d="M38.36,64.19c.06-.02,.32,.03,.32-.02h.03c0-.44,.02-.84,.03-1.27,0-.44-.02-1.01,.16-1.35,.22-.41,.32-.7,.85-.76,.06-.01,.15-.01,.15-.08,.03-.3-.52-.38-.74-.38-.13,.05-.25,.06-.37,.13-.8,.45-.7,1.62-.71,2.49,0,.14,0,.49-.08,.57-.17,.17-2.04,.09-2.44,.09-.04,0-.03,0-.03,.03h-.03v.03h.03c.18,.11,.41,.15,.61,.23,.25,.11,.51,.3,.79,.33,.33,0,.66,0,1,0,.13,0,.26-.05,.41-.05"/><path class="cls-1" d="M40.32,63.77c-.04-.1-.12-.2-.14-.31,0-.47,0-.94-.01-1.41,0-.19,.05-.44-.01-.61-.02-.06-.08-.09-.13-.12-.17,.07-.35,.06-.48,.2-.13,.14-.18,.37-.21,.55-.03,.15-.07,.3-.1,.46-.02,.27,.01,.57,.02,.83,0,.13-.01,.25-.02,.38,.01,.13,.03,.26,.04,.38-.01,.13-.02,.27-.04,.41-.01,.05-.03,.11-.04,.16-.31,0-.63,.02-.95,.03-.1,.02-.2,.04-.3,.06-.04,0-.08,0-.08,.04h-.03v.03h.03v.03c.19,.1,.52,.28,.69,.43,.17,.18,.34,.37,.5,.55h.02c.16-.28,.4-.51,.63-.75,.1-.11,.19-.23,.28-.34,.18-.16,.43-.31,.55-.54,.01-.02,0-.02-.02-.02-.07-.15-.13-.3-.2-.46"/><path class="cls-1" d="M40.83,63.52c.02,.17,.11,.41,.23,.52,.03,.02,.04,.03,.04,0,.24-.11,.5-.23,.75-.34,.08-.04,.2-.12,.31-.12v-.06c-.3,0-.61-.03-.92-.03-.12,.04-.27,.03-.41,.03"/><path class="cls-1" d="M1.7,33.55c-.58-.18-.73-.58-.55-1.35l.19-.83,4.36,.98c.79,.18,.85,.44,.76,.85l.17,.04,.45-2.02-.17-.04c-.11,.49-.33,.58-1.02,.42l-4.39-.98,.19-.87c.2-.91,.59-1.02,1.09-1.02l.03-.11-1.31-.29-.04,.18c.11,.21,.12,.46,0,.95l-.67,3c-.05,.24-.12,.41-.17,.54-.07,.13-.14,.21-.23,.27l-.04,.17,1.31,.29,.03-.17Z"/><path class="cls-1" d="M4.1,24.94l3.28,1.6c.69,.34,.74,.6,.54,1l.16,.07,.93-1.9-.15-.08c-.22,.45-.5,.51-1.13,.2l-1.53-.74,1.4-2.87,1.52,.74c.7,.34,.76,.58,.55,1l.16,.07,.92-1.88-.16-.08c-.22,.45-.5,.49-1.13,.19l-3.28-1.6c-.62-.3-.76-.55-.54-1.01l-.16-.07-.92,1.88,.16,.08c.22-.45,.48-.49,1.12-.18l1.5,.73-1.4,2.87-1.5-.73c-.67-.33-.74-.6-.54-1.01l-.16-.08-.93,1.9,.16,.08c.23-.47,.5-.49,1.13-.19"/><path class="cls-1" d="M14.38,15.72l-.11,.13c.37,.76,.26,.95-.29,1.61l-.65,.79c-.21,.25-.36,.26-.58,.07l-1.61-1.34,.93-1.11c.39-.46,.49-.49,.96-.27l.11-.13-1.09-.91-.11,.13c.33,.39,.29,.55,.03,.86l-1.04,1.25-1.93-1.6,1.08-1.3c.41-.49,.58-.62,1.16-.31l.07-.09-.75-.63-2.7,3.25,.13,.11c.32-.39,.58-.38,1.14,.08l2.81,2.34c.6,.5,.58,.74,.28,1.1l.13,.11,2.7-3.25-.67-.9Z"/><path class="cls-1" d="M22.87,10.66c.68-.38,1.06-.95,1.23-1.8l.4,.71,1.26-.71-.09-.15c-.39,.22-.66,.19-1.03-.48l-1.79-3.18c-.35-.62-.31-.9,.12-1.14l-.08-.15-1.8,1.01,.09,.15c.42-.21,.67-.08,1,.51l1.73,3.07c-.04,.75-.4,1.34-.99,1.67-.86,.49-1.61,.17-2.06-.61l-1.45-2.58c-.37-.65-.28-.9,.14-1.13l-.08-.15-1.84,1.04,.09,.15c.4-.23,.66-.19,1.03,.49l1.42,2.51c.5,.88,1.49,1.47,2.73,.78"/><path class="cls-1" d="M32.72,.85l-.04-.17-1.72,.44,.04,.17c.49-.12,.74,.01,.93,.75l.85,3.32h-.02l-4.68-3.5-1.46,.37,.04,.17c.69-.11,.95,.2,1.11,.84l.85,3.32c.21,.82,.02,1.03-.45,1.15l.04,.17,1.72-.44-.05-.17c-.51,.13-.79-.02-.94-.6l-1.02-3.98h.02l5.27,3.9,.17-.04-1.19-4.61c-.17-.67-.05-.94,.5-1.08"/><path class="cls-1" d="M37.21,1.38l.18,3.65c.04,.75-.14,.94-.62,.96v.18l2.11-.11v-.17c-.5,.03-.68-.18-.72-.9l-.18-3.65c-.04-.7,.13-.94,.62-.96V.2l-2.12,.1v.18c.51-.03,.68,.16,.72,.9"/><path class="cls-1" d="M47.62,1.12l.02-.18-1.7-.23-.02,.17c.53,.07,.58,.4,.33,.87l-1.83,3.44-.92-3.94c-.11-.48,.12-.68,.53-.62l.02-.17-2.11-.28-.02,.17c.54,.09,.65,.38,.83,1.13l1.17,4.95,.16,.02,2.32-4.35c.4-.75,.77-1.04,1.21-.98"/><path class="cls-1" d="M51.74,8.04l-.96-.35c-.3-.11-.36-.25-.26-.52l.72-1.97,1.36,.5c.57,.21,.63,.3,.58,.81l.16,.06,.49-1.33-.16-.06c-.25,.44-.42,.46-.79,.32l-1.54-.56,.86-2.35,1.58,.58c.6,.22,.78,.34,.68,.99l.11,.04,.34-.92-3.97-1.45-.06,.16c.47,.18,.55,.42,.3,1.1l-1.26,3.44c-.27,.73-.51,.79-.94,.63l-.06,.16,3.97,1.45,.63-.93-.16-.06c-.59,.6-.81,.57-1.61,.27"/><path class="cls-1" d="M59.99,6.17l.51,.34c.75,.5,.94,1.28,.51,1.93-.37,.56-1.07,.91-1.89,.37l-.6-.39,1.47-2.24Zm-2.45,4.93c-.4-.26-.44-.55-.04-1.14l.88-1.34,.39,.26c.89,.59,.39,1.91,.57,3.62l1,.66,.09-.15c-.77-.59-.02-2.41-.54-3.6,.86,.26,1.44,0,1.8-.54,.43-.65,.32-1.63-.78-2.36l-2.01-1.32-.1,.15c.39,.26,.48,.48,.05,1.12l-2.02,3.06c-.43,.66-.7,.66-1.07,.41l-.09,.15,1.76,1.16,.1-.15Z"/><path class="cls-1" d="M62.69,15.1c.14,.14,.28,.72,.72,1.17,.65,.65,1.7,.66,2.36,.02,.28-.27,.47-.6,.47-1.18,0-1.19-.84-2.45-.07-3.21,.39-.38,.94-.31,1.37,.13,.42,.42,.61,1.09,.05,1.77l.12,.12,.98-.96-.12-.12c-.13,.07-.16,.07-.23,0-.16-.16-.2-.53-.64-.97-.67-.68-1.56-.71-2.2-.07-.33,.32-.52,.71-.52,1.22,0,.93,.76,2.38,.04,3.09-.46,.45-1.07,.39-1.57-.1-.36-.37-.73-1.25,.04-2.02l-.12-.12-1.13,1.11,.12,.12c.15-.07,.25-.07,.32,0"/><path class="cls-1" d="M66.63,19.54l-.14,.1,1.2,1.73,.14-.1c-.28-.4-.2-.67,.39-1.08l3-2.08c.58-.4,.86-.39,1.15,.01l.14-.1-1.2-1.73-.14,.1c.28,.41,.21,.66-.39,1.08l-3,2.08c-.61,.43-.87,.38-1.14-.01"/><path class="cls-1" d="M74.55,22.15l.35,.77-4.06,1.86c-.73,.34-.95,.16-1.12-.22l-.16,.07,.86,1.89,.16-.07c-.21-.46-.09-.66,.55-.95l4.09-1.87,.37,.81c.39,.85,.15,1.17-.25,1.47l.05,.1,1.22-.56-.08-.17c-.22-.1-.37-.29-.58-.76l-1.28-2.79c-.1-.22-.16-.4-.19-.53-.02-.15-.02-.25,.02-.36l-.07-.16-1.22,.56,.07,.16c.58-.21,.93,.02,1.26,.74"/><path class="cls-1" d="M78.23,32.26l-.17,.04c.1,.48-.32,.55-.83,.37l-1.64-.6,1.5-1.5c.3-.3,.53-.28,.67,.35l.17-.04-.48-2.24-.17,.03c.08,.46-.01,.65-.56,1.18l-1.64,1.63-1.8,.39c-.82,.18-.97-.06-1.06-.51l-.17,.04,.45,2.09,.17-.04c-.11-.49,.08-.67,.77-.82l1.8-.39,2.3,.86c.57,.21,.72,.34,.84,.77l.17-.04-.33-1.57Z"/><path class="cls-1" d="M1.79,50.4c-.36-1.27,.5-2.44,2.14-2.91,1.63-.47,2.97,.06,3.35,1.39,.33,1.16-.39,2.39-2.16,2.9-1.37,.39-2.93,.04-3.33-1.37m3.63,2.22c1.64-.47,2.55-2.16,2.07-3.83-.5-1.72-2.12-2.65-3.8-2.17-1.67,.48-2.6,2.17-2.12,3.85,.48,1.68,2.17,2.63,3.84,2.15"/><path class="cls-1" d="M9.29,54.47c.24,.43,.16,.68-.48,1.04l-3.17,1.81c-.63,.36-.89,.31-1.14-.12l-.15,.09,1.05,1.83,.15-.09c-.25-.43-.14-.68,.48-1.04l1.5-.86,.77,1.34c.2,.35,.09,.65-.26,.88l.08,.14,1.43-.82-.08-.14c-.44,.19-.71,.16-.93-.22l-.76-1.32,2.13-1.22,.74,1.3c.32,.55,.36,.72-.18,1.2l.06,.12,.91-.52-1.99-3.49-.15,.09Z"/><path class="cls-1" d="M16.46,64.14c.39,.32,.38,.58-.08,1.14l-2.32,2.83c-.49,.6-.74,.58-1.1,.29l-.11,.14,3.27,2.67,.9-.68-.13-.11c-.76,.37-.95,.27-1.61-.28l-.79-.65c-.25-.21-.26-.36-.08-.58l1.33-1.62,1.12,.92c.47,.38,.5,.49,.28,.95l.13,.11,.9-1.1-.13-.11c-.38,.34-.55,.29-.85,.04l-1.26-1.03,1.59-1.94,1.3,1.07c.5,.41,.62,.58,.32,1.16l.09,.07,.62-.76-3.27-2.67-.11,.13Z"/><path class="cls-1" d="M26.1,73.57c-.67,1.45-1.88,2-3.19,1.39l-.55-.25c-.49-.23-.61-.47-.23-1.3l1.81-3.93,1.01,.47c1.68,.78,1.73,2.35,1.14,3.62m-.91-3.76l-2.46-1.13-.07,.16c.45,.21,.51,.48,.22,1.13l-1.53,3.31c-.31,.66-.57,.76-.99,.56l-.07,.16,2.52,1.16c2.09,.97,3.51,.12,4.12-1.22,.64-1.38,.3-3.2-1.73-4.13"/><path class="cls-1" d="M31.23,72.18c.49,.11,.61,.33,.45,1.05l-.79,3.57c-.16,.73-.38,.87-.85,.76l-.04,.17,2.06,.45,.04-.17c-.48-.11-.6-.36-.45-1.05l.79-3.57c.15-.68,.37-.87,.85-.77l.04-.17-2.06-.45-.04,.17Z"/><path class="cls-1" d="M41.17,73v.18c.52,0,.72,.19,.73,.95l.04,3.42h-.02l-3.71-4.52-1.5,.02v.17c.7,.06,.87,.42,.88,1.08l.04,3.42c0,.85-.23,1.01-.72,1.01v.18l1.78-.02v-.18c-.53,0-.77-.2-.77-.8l-.05-4.11h.02l4.19,5.04h.17l-.05-4.76c0-.69,.17-.92,.75-.93v-.17l-1.77,.02Z"/><path class="cls-1" d="M50.2,77.19l-.46,.13c-.44,.12-.63-.03-.84-.79l-.46-1.66,.54-.15c.99-.28,1.78,.11,2.01,.94,.23,.83-.21,1.36-.78,1.52m-2.48-4.93l.57-.16c.91-.25,1.49,.13,1.69,.84,.2,.71-.18,1.32-1.01,1.55l-.58,.16-.66-2.4Zm2.25,2.03v-.02c.7-.47,.95-.97,.77-1.59-.2-.72-.98-1.21-2.34-.84l-2.13,.58,.04,.17c.47-.13,.69,0,.89,.72l.97,3.52c.19,.69,.08,.94-.39,1.07l.05,.17,2.6-.71c1.06-.3,1.67-1.03,1.43-1.88-.21-.76-.98-1.24-1.89-1.19"/><path class="cls-1" d="M60.83,71.39l-1.84-3.15c-.36-.61-.32-.89,.11-1.14l-.09-.15-1.78,1.04,.09,.15c.42-.22,.67-.09,1.01,.49l1.78,3.05c-.03,.75-.38,1.34-.96,1.68-.86,.5-1.61,.2-2.07-.58l-1.49-2.56c-.38-.65-.29-.9,.12-1.13l-.09-.15-1.83,1.07,.09,.15c.4-.23,.65-.2,1.05,.47l1.45,2.49c.51,.87,1.51,1.45,2.74,.73,.67-.39,1.05-.97,1.2-1.82l.41,.71,1.24-.73-.09-.15c-.39,.23-.65,.19-1.04-.47"/><path class="cls-1" d="M65.08,65.46l-.51,.51-1.91-1.88,.43-.44c.63-.64,1.43-.67,1.99-.12,.48,.48,.69,1.22,0,1.93m.75-.66c.42-.79,.28-1.42-.18-1.87-.56-.55-1.54-.62-2.47,.32l-1.68,1.71,.12,.13c.33-.34,.57-.37,1.12,.17l2.61,2.58c.56,.56,.52,.81,.2,1.13l.12,.12,1.48-1.5-.13-.12c-.34,.34-.62,.32-1.13-.18l-1.15-1.13,.33-.34c.75-.76,1.95-.01,3.67,.14l.84-.85-.13-.12c-.73,.64-2.37-.45-3.64-.17"/><path class="cls-1" d="M72.73,56.14l-.15-.09-1.23,2.02,.15,.09,.12-.19c.25-.41,.55-.42,1.17-.05l.54,.33c.45,.27,.24,.81,.03,1.16-.72,1.19-2.34,1.4-3.8,.51-1.38-.83-1.8-2.16-1.18-3.19,.42-.68,1.33-1.28,2.37-.83l.09-.14-1.48-.9-.1,.16c.09,.13,.09,.22,0,.38-.23,.38-.64,.51-1.07,1.22-.75,1.23-.57,3.19,1.2,4.26,1.15,.7,2.93,.78,4.27-1.42,.14-.23,.64-1.14,.73-1.47l-1.35-.82c-.43-.27-.59-.54-.29-1.03"/><path class="cls-1" d="M76.94,47.89l-3.51-1.01c-.67-.19-.85-.42-.71-.9l-.17-.05-.58,2.01,.17,.05c.14-.48,.38-.57,1.07-.37l1.6,.46-.89,3.06-1.6-.46c-.72-.21-.84-.46-.71-.91l-.17-.05-.59,2.03,.16,.05c.15-.5,.41-.57,1.08-.38l3.5,1.01c.75,.21,.83,.46,.71,.9l.17,.05,.59-2.03-.17-.05c-.14,.48-.4,.59-1.08,.39l-1.63-.47,.88-3.06,1.63,.47c.75,.21,.84,.44,.71,.89l.16,.05,.59-2.01-.17-.05c-.14,.48-.41,.57-1.08,.38"/><path class="cls-1" d="M2.38,40.07c0,.29,.23,.52,.51,.52s.52-.23,.52-.51-.23-.52-.51-.52c-.29,0-.51,.23-.52,.51"/><path class="cls-1" d="M76.68,40.08c0-.28-.23-.51-.51-.52-.28,0-.52,.23-.52,.51,0,.29,.23,.52,.51,.52,.28,0,.52-.23,.52-.52"/></g><g><path class="cls-1" d="M105.49,22.52h-1.64v8.32c0,.65,.08,1.09,.24,1.32,.16,.23,.47,.34,.93,.34v.31h-3.83v-.31c.48,0,.8-.13,.97-.39,.17-.26,.26-.7,.26-1.33v-8.27h-1.57c-.75,0-1.3,.12-1.64,.36-.34,.24-.53,.64-.58,1.19h-.32v-2.48h.32c.29,.27,.83,.41,1.62,.41h5.68c.82,0,1.39-.13,1.72-.41h.34v2.48h-.21c-.14-.6-.38-1-.72-1.22-.35-.22-.87-.33-1.56-.33Z"/><path class="cls-1" d="M117.87,30.78v-3.14h-5.9v3.14c0,.64,.09,1.09,.27,1.34,.18,.25,.51,.38,.98,.38v.31h-3.91v-.31c.47,0,.8-.13,.97-.38,.17-.26,.26-.7,.26-1.33v-6.75c0-.67-.09-1.12-.26-1.36-.18-.24-.5-.36-.96-.36v-.31h3.91v.31c-.47,0-.8,.13-.98,.39-.18,.26-.27,.71-.27,1.33v3.08h5.9v-3.08c0-.66-.08-1.12-.25-1.36-.17-.24-.49-.36-.96-.36v-.31h3.88v.31c-.46,0-.78,.13-.96,.38-.18,.25-.27,.7-.27,1.35v6.75c0,.65,.09,1.09,.27,1.34,.18,.25,.5,.37,.96,.37v.31h-3.88v-.31c.48,0,.8-.12,.96-.37,.16-.25,.24-.7,.24-1.35Z"/><path class="cls-1" d="M128.99,26.09h.32v2.63h-.32c-.12-.46-.26-.75-.42-.87-.17-.12-.53-.18-1.09-.18h-2.69v3.88c0,.27,.06,.46,.18,.57,.12,.11,.32,.17,.61,.17h1.89c.68,0,1.14-.04,1.4-.11,.26-.07,.48-.21,.65-.41,.18-.2,.37-.52,.57-.97h.32l-.5,2.02h-7.8v-.31c.49,0,.81-.12,.98-.37,.17-.25,.25-.69,.25-1.33v-6.77c0-.66-.09-1.11-.26-1.36-.17-.25-.49-.37-.97-.37v-.31h7.8v1.81h-.2c-.11-.52-.27-.86-.48-1.03-.21-.17-.65-.25-1.34-.25h-3.12v4.63h3.03c.41,0,.69-.07,.84-.22,.15-.15,.26-.43,.33-.84Z"/><path class="cls-1" d="M144.4,30.55v-6.51c0-.63-.08-1.07-.25-1.32-.17-.25-.47-.38-.9-.4v-.31h3.82v.31c-.46,0-.78,.13-.96,.38-.18,.25-.27,.7-.27,1.35v6.75c0,.63,.09,1.08,.26,1.33,.18,.26,.5,.38,.96,.38v.31h-2.67v-1.51c-1.02,1.19-2.22,1.78-3.61,1.78-1.14,0-2.04-.34-2.7-1.02-.66-.68-.98-1.58-.98-2.7v-5.32c0-.65-.08-1.09-.25-1.35-.17-.25-.49-.38-.97-.38v-.31h3.91v.31c-.49,0-.81,.12-.99,.37-.17,.25-.26,.69-.26,1.34v5.48c0,.89,.24,1.58,.73,2.09,.49,.51,1.16,.76,2.03,.76,1.29,0,2.32-.6,3.09-1.8Z"/><path class="cls-1" d="M156.79,22.3v-.31h3.27v.31c-.52,0-.89,.12-1.09,.37-.2,.25-.3,.69-.3,1.34v8.8h-.33l-7.67-9.41v7.6c0,.54,.11,.92,.33,1.15,.22,.23,.58,.35,1.09,.35v.31h-3.29v-.31c.52,0,.88-.14,1.06-.41,.18-.27,.28-.76,.28-1.45v-6.34c0-.68-.12-1.17-.37-1.47-.25-.3-.66-.48-1.23-.53v-.31h2.78l6.8,8.43v-6.33c0-.66-.09-1.13-.28-1.39-.19-.26-.53-.39-1.04-.39Z"/><path class="cls-1" d="M165.49,21.99v.31c-.46,0-.78,.13-.96,.38-.18,.25-.27,.7-.27,1.35v6.75c0,.65,.09,1.09,.27,1.34,.18,.25,.5,.37,.96,.37v.31h-3.89v-.31c.47,0,.8-.12,.97-.37,.17-.25,.26-.7,.26-1.35v-6.75c0-.67-.08-1.12-.25-1.36-.17-.24-.49-.36-.97-.36v-.31h3.89Z"/><path class="cls-1" d="M177.43,21.99v.33c-.79,0-1.45,.7-1.97,2.1l-3.19,8.54h-.31l-3.35-8.79c-.31-.81-.58-1.32-.81-1.54-.23-.21-.55-.32-.98-.34v-.31h3.93v.31c-.63,0-.95,.24-.95,.73,0,.16,.04,.34,.12,.54l2.65,6.99,2.51-6.75c.1-.29,.16-.54,.16-.75,0-.51-.32-.77-.97-.77v-.31h3.16Z"/><path class="cls-1" d="M185.36,26.09h.32v2.63h-.32c-.12-.46-.26-.75-.42-.87-.17-.12-.53-.18-1.09-.18h-2.69v3.88c0,.27,.06,.46,.18,.57s.32,.17,.61,.17h1.89c.68,0,1.14-.04,1.4-.11,.26-.07,.48-.21,.65-.41,.18-.2,.37-.52,.57-.97h.32l-.5,2.02h-7.8v-.31c.49,0,.81-.12,.98-.37,.17-.25,.25-.69,.25-1.33v-6.77c0-.66-.09-1.11-.26-1.36-.17-.25-.49-.37-.97-.37v-.31h7.8v1.81h-.2c-.11-.52-.27-.86-.48-1.03-.21-.17-.65-.25-1.34-.25h-3.12v4.63h3.03c.41,0,.69-.07,.84-.22,.15-.15,.26-.43,.33-.84Z"/><path class="cls-1" d="M191.74,27.8h-.88v2.98c0,.64,.09,1.09,.27,1.34,.18,.25,.5,.38,.96,.38v.31h-3.89v-.31c.48,0,.8-.13,.97-.38,.17-.25,.25-.7,.25-1.34v-6.79c0-.64-.08-1.08-.25-1.32-.17-.24-.49-.36-.98-.36v-.31h4.44c1.1,0,1.97,.27,2.63,.8,.66,.53,.98,1.21,.98,2.04,0,1.33-.74,2.21-2.23,2.66,.33,.21,.65,.5,.96,.86,.31,.37,.72,.97,1.22,1.82,.57,.94,1.01,1.56,1.33,1.86,.32,.29,.65,.45,.99,.48v.31h-2.21c-.46-.55-1.01-1.35-1.65-2.41-.69-1.12-1.23-1.83-1.62-2.14-.39-.31-.82-.46-1.3-.46Zm.26-5.4h-1.14v4.95h1.33c.79,0,1.42-.23,1.87-.68,.45-.46,.68-1.06,.68-1.81s-.25-1.32-.75-1.78c-.5-.45-1.16-.68-1.99-.68Z"/><path class="cls-1" d="M204.93,21.83h.3v2.54h-.32c-.07-.7-.33-1.25-.76-1.64-.43-.39-.98-.59-1.64-.59-.58,0-1.06,.15-1.41,.44-.36,.3-.54,.69-.54,1.18,0,.46,.15,.87,.44,1.25s.93,.86,1.92,1.45c1.14,.68,1.91,1.28,2.31,1.79,.39,.51,.59,1.1,.59,1.75,0,.85-.3,1.58-.9,2.18s-1.33,.9-2.17,.9c-.49,0-1.12-.13-1.88-.41-.31-.11-.51-.17-.6-.17-.18,0-.32,.14-.41,.42h-.32v-2.93h.32c0,.81,.27,1.45,.79,1.94,.52,.49,1.13,.73,1.82,.73,.66,0,1.18-.18,1.58-.53,.4-.35,.59-.82,.59-1.4,0-.44-.16-.86-.49-1.26-.33-.4-1.01-.92-2.04-1.55-.84-.52-1.41-.93-1.69-1.23-.28-.3-.49-.63-.63-.99-.13-.36-.2-.76-.2-1.19,0-.83,.27-1.5,.82-2.02,.54-.52,1.25-.78,2.13-.78,.48,0,1,.1,1.57,.29,.26,.09,.45,.13,.55,.13,.09,0,.14-.02,.18-.05,.03-.04,.06-.12,.1-.25Z"/><path class="cls-1" d="M211.53,21.99v.31c-.46,0-.78,.13-.96,.38-.18,.25-.27,.7-.27,1.35v6.75c0,.65,.09,1.09,.27,1.34,.18,.25,.5,.37,.96,.37v.31h-3.89v-.31c.47,0,.8-.12,.97-.37,.17-.25,.26-.7,.26-1.35v-6.75c0-.67-.08-1.12-.25-1.36-.17-.24-.49-.36-.97-.36v-.31h3.89Z"/><path class="cls-1" d="M220.13,22.52h-1.64v8.32c0,.65,.08,1.09,.24,1.32,.16,.23,.47,.34,.93,.34v.31h-3.83v-.31c.48,0,.8-.13,.97-.39,.17-.26,.26-.7,.26-1.33v-8.27h-1.57c-.75,0-1.3,.12-1.64,.36-.34,.24-.53,.64-.58,1.19h-.32v-2.48h.32c.29,.27,.83,.41,1.62,.41h5.68c.82,0,1.39-.13,1.72-.41h.34v2.48h-.21c-.14-.6-.38-1-.72-1.22-.35-.22-.87-.33-1.56-.33Z"/><path class="cls-1" d="M231.75,23.53l-2.44,3.84v3.41c0,.66,.08,1.11,.25,1.35,.17,.24,.48,.36,.94,.36v.31h-3.95v-.31c.54,0,.89-.13,1.07-.39,.18-.26,.26-.7,.26-1.33v-3.41l-2.31-3.59c-.38-.6-.69-.99-.93-1.17-.24-.18-.57-.29-1-.3v-.31h4.24v.31c-.74,0-1.12,.17-1.12,.51,0,.15,.07,.34,.22,.57l2.14,3.28,1.71-2.72c.25-.41,.38-.75,.38-1.04,0-.4-.24-.6-.72-.6v-.31h2.97v.31c-.4,.02-.71,.11-.93,.26-.22,.15-.48,.47-.8,.96Z"/><path class="cls-1" d="M240.19,26.39c.5,0,.95,.21,1.33,.64,.38,.42,.57,.92,.57,1.5,0,1-.38,2-1.14,3-.76,1-1.65,1.5-2.69,1.5-.58,0-1.05-.21-1.42-.62-.37-.41-.55-.94-.55-1.58,0-1.12,.4-2.14,1.21-3.06,.81-.92,1.7-1.38,2.68-1.38Zm-1.51,6.08c.61,0,1.15-.38,1.61-1.14,.46-.76,.7-1.66,.7-2.71,0-.47-.12-.87-.37-1.19-.25-.32-.55-.48-.92-.48-.59,0-1.12,.38-1.59,1.13-.47,.76-.7,1.64-.7,2.66,0,.53,.12,.95,.35,1.26s.54,.47,.93,.47Z"/><path class="cls-1" d="M246.75,26.6l-.06,.52h-1.31l-1.05,5.52c-.28,1.49-.58,2.57-.92,3.25-.34,.68-.81,1.2-1.41,1.57-.61,.37-1.26,.56-1.95,.56-.93,0-1.66-.17-2.2-.51l.29-1.32h.32c.2,.97,.75,1.45,1.65,1.45,.67,0,1.27-.24,1.78-.73,.51-.49,.93-1.62,1.27-3.4l1.2-6.39h-1.33l.06-.52h1.33l.47-2.29c.25-1.22,.65-2.06,1.21-2.52,.56-.46,1.22-.69,1.99-.69,.36,0,.79,.08,1.29,.25l.05-.23h.38l-.36,1.71h-.38c-.08-.9-.48-1.35-1.19-1.35-.91,0-1.53,.77-1.85,2.31l-.59,2.81h1.34Z"/><path class="cls-1" d="M259.78,26.09h.32v2.63h-.32c-.12-.46-.26-.75-.42-.87-.17-.12-.53-.18-1.09-.18h-2.69v3.88c0,.27,.06,.46,.18,.57,.12,.11,.32,.17,.61,.17h1.89c.68,0,1.14-.04,1.4-.11,.26-.07,.48-.21,.65-.41,.18-.2,.37-.52,.57-.97h.32l-.5,2.02h-7.8v-.31c.49,0,.81-.12,.98-.37,.17-.25,.25-.69,.25-1.33v-6.77c0-.66-.09-1.11-.26-1.36-.17-.25-.5-.37-.97-.37v-.31h7.8v1.81h-.2c-.11-.52-.27-.86-.48-1.03-.21-.17-.65-.25-1.34-.25h-3.12v4.63h3.03c.41,0,.69-.07,.84-.22,.15-.15,.26-.43,.33-.84Z"/><path class="cls-1" d="M262.73,32.82v-.31c.46,0,.78-.13,.96-.38,.18-.26,.27-.7,.27-1.33v-6.75c0-.65-.09-1.1-.27-1.35-.18-.25-.5-.38-.96-.38v-.31h5.01c1.85,0,3.33,.53,4.44,1.58,1.11,1.05,1.66,2.39,1.66,4.01s-.53,2.86-1.58,3.81c-1.05,.95-2.51,1.42-4.39,1.42h-5.14Zm4.72-10.41h-2.06v7.99c0,.77,.09,1.29,.28,1.58,.18,.28,.55,.42,1.11,.42h1.12c1.33,0,2.37-.43,3.14-1.29,.76-.86,1.14-2.03,1.14-3.51,0-1.58-.42-2.83-1.25-3.78s-1.99-1.42-3.47-1.42Z"/><path class="cls-1" d="M279.17,21.99v.31c-.46,0-.78,.13-.96,.38-.18,.25-.27,.7-.27,1.35v6.75c0,.65,.09,1.09,.27,1.34,.18,.25,.5,.37,.96,.37v.31h-3.89v-.31c.47,0,.8-.12,.97-.37,.17-.25,.26-.7,.26-1.35v-6.75c0-.67-.08-1.12-.25-1.36-.17-.24-.49-.36-.97-.36v-.31h3.89Z"/><path class="cls-1" d="M288.78,22.3v-.31h3.27v.31c-.52,0-.89,.12-1.09,.37-.2,.25-.3,.69-.3,1.34v8.8h-.33l-7.67-9.41v7.6c0,.54,.11,.92,.33,1.15,.22,.23,.58,.35,1.09,.35v.31h-3.29v-.31c.52,0,.88-.14,1.06-.41,.18-.27,.28-.76,.28-1.45v-6.34c0-.68-.12-1.17-.37-1.47-.25-.3-.66-.48-1.23-.53v-.31h2.78l6.8,8.43v-6.33c0-.66-.09-1.13-.28-1.39-.19-.26-.53-.39-1.04-.39Z"/><path class="cls-1" d="M298.23,32.82h-4.99v-.31c.46,0,.78-.12,.96-.37,.18-.25,.27-.7,.27-1.34v-6.75c0-.66-.08-1.11-.25-1.36-.17-.25-.49-.37-.97-.37v-.31h4.08c1.17,0,2.09,.24,2.76,.72,.67,.48,1.01,1.12,1.01,1.91,0,1.16-.73,1.98-2.18,2.45v.05c.82,.17,1.5,.53,2.02,1.09,.52,.56,.78,1.21,.78,1.94,0,.8-.32,1.44-.96,1.93-.64,.48-1.48,.73-2.53,.73Zm-2.33-10.41v4.59h1.12c.78,0,1.41-.2,1.87-.61,.46-.41,.69-.96,.69-1.66,0-.73-.23-1.3-.68-1.71-.45-.41-1.09-.61-1.92-.61h-1.08Zm1.03,5h-1.03v3.17c0,.7,.08,1.18,.23,1.43,.15,.26,.45,.38,.89,.38h.9c.63,0,1.14-.21,1.54-.63,.4-.42,.6-.99,.6-1.69,0-.81-.29-1.45-.86-1.94-.57-.49-1.33-.73-2.27-.73Z"/><path class="cls-1" d="M311.36,30.55v-6.51c0-.63-.08-1.07-.25-1.32-.17-.25-.47-.38-.9-.4v-.31h3.82v.31c-.46,0-.78,.13-.96,.38-.18,.25-.27,.7-.27,1.35v6.75c0,.63,.09,1.08,.26,1.33,.18,.26,.5,.38,.96,.38v.31h-2.67v-1.51c-1.02,1.19-2.22,1.78-3.61,1.78-1.14,0-2.04-.34-2.7-1.02-.66-.68-.98-1.58-.98-2.7v-5.32c0-.65-.08-1.09-.25-1.35-.17-.25-.49-.38-.97-.38v-.31h3.91v.31c-.49,0-.81,.12-.99,.37-.17,.25-.26,.69-.26,1.34v5.48c0,.89,.24,1.58,.73,2.09,.49,.51,1.16,.76,2.03,.76,1.29,0,2.32-.6,3.09-1.8Z"/><path class="cls-1" d="M319.16,27.8h-.88v2.98c0,.64,.09,1.09,.27,1.34,.18,.25,.5,.38,.96,.38v.31h-3.89v-.31c.48,0,.8-.13,.97-.38,.17-.25,.25-.7,.25-1.34v-6.79c0-.64-.08-1.08-.25-1.32-.17-.24-.49-.36-.98-.36v-.31h4.44c1.1,0,1.97,.27,2.63,.8,.66,.53,.98,1.21,.98,2.04,0,1.33-.74,2.21-2.23,2.66,.33,.21,.65,.5,.96,.86,.31,.37,.72,.97,1.22,1.82,.57,.94,1.01,1.56,1.33,1.86,.32,.29,.65,.45,.99,.48v.31h-2.21c-.46-.55-1.01-1.35-1.65-2.41-.69-1.12-1.23-1.83-1.62-2.14-.39-.31-.82-.46-1.3-.46Zm.26-5.4h-1.14v4.95h1.33c.79,0,1.42-.23,1.87-.68,.45-.46,.68-1.06,.68-1.81s-.25-1.32-.75-1.78c-.5-.45-1.16-.68-1.99-.68Z"/><path class="cls-1" d="M336.7,28.13v.31c-.48,0-.82,.11-1.03,.33-.21,.22-.31,.6-.31,1.13v2.91c-.25,.07-.72,.13-1.42,.18-.69,.06-1.23,.08-1.61,.08-2,0-3.56-.49-4.67-1.48-1.12-.98-1.67-2.28-1.67-3.89,0-1.13,.24-2.14,.73-3.05,.49-.9,1.17-1.62,2.05-2.15,.88-.53,1.81-.79,2.79-.79,.59,0,1.23,.1,1.93,.31,.44,.13,.78,.19,1.01,.19,.31,0,.51-.12,.61-.36h.34v3.19h-.3c-.12-.89-.52-1.6-1.2-2.13-.68-.53-1.48-.8-2.39-.8-1.14,0-2.08,.46-2.81,1.37-.73,.91-1.1,2.09-1.1,3.54,0,1.59,.42,2.9,1.27,3.95,.85,1.05,1.91,1.57,3.19,1.57,1.21,0,1.82-.39,1.82-1.16v-1.17c0-.67-.09-1.13-.26-1.4-.18-.26-.48-.4-.93-.4h-.42v-.31h4.38Z"/><path class="cls-1" d="M346.14,30.78v-3.14h-5.9v3.14c0,.64,.09,1.09,.27,1.34,.18,.25,.51,.38,.98,.38v.31h-3.91v-.31c.47,0,.8-.13,.97-.38,.17-.26,.26-.7,.26-1.33v-6.75c0-.67-.09-1.12-.26-1.36-.18-.24-.5-.36-.96-.36v-.31h3.91v.31c-.47,0-.8,.13-.98,.39-.18,.26-.27,.71-.27,1.33v3.08h5.9v-3.08c0-.66-.08-1.12-.25-1.36-.17-.24-.49-.36-.96-.36v-.31h3.88v.31c-.46,0-.78,.13-.96,.38-.18,.25-.27,.7-.27,1.35v6.75c0,.65,.09,1.09,.27,1.34,.18,.25,.5,.37,.96,.37v.31h-3.88v-.31c.48,0,.8-.12,.96-.37,.16-.25,.24-.7,.24-1.35Z"/></g><g><path class="cls-1" d="M98.31,59.82v-16.88h2.31v14.75h8.41v2.13h-10.73Z"/><path class="cls-1" d="M110.63,45.29v-2.35h2.06v2.35h-2.06Zm0,14.53v-12.27h2.06v12.27h-2.06Z"/><path class="cls-1" d="M115.89,59.82v-16.88h2.02v6.31c.47-.7,1.04-1.22,1.71-1.58,.67-.36,1.42-.53,2.26-.53,1.63,0,2.93,.6,3.92,1.79,.99,1.19,1.48,2.79,1.48,4.79s-.49,3.54-1.46,4.72-2.28,1.76-3.91,1.76c-.86,0-1.62-.16-2.26-.47-.65-.31-1.22-.8-1.74-1.46v1.55h-2.02Zm1.95-6.22c0,1.53,.31,2.7,.94,3.53,.63,.82,1.52,1.24,2.68,1.24s2.02-.4,2.68-1.2c.65-.8,.98-1.9,.98-3.3,0-1.55-.31-2.75-.95-3.59s-1.53-1.27-2.69-1.27-2.13,.38-2.73,1.15c-.61,.77-.91,1.92-.91,3.44Z"/><path class="cls-1" d="M129.79,59.82v-12.27h1.99v2.2c.33-.83,.77-1.44,1.33-1.85s1.25-.61,2.07-.61c.15,0,.26,0,.33,0s.14,.01,.21,.03v2.18c-.05,0-.11-.01-.18-.02s-.17,0-.31,0c-1.1,0-1.94,.3-2.52,.9-.58,.6-.87,1.47-.87,2.62v6.83h-2.06Z"/><path class="cls-1" d="M145.17,58.18c-.64,.67-1.32,1.18-2.05,1.51-.72,.34-1.49,.5-2.3,.5-1.25,0-2.23-.33-2.93-.98-.7-.65-1.05-1.56-1.05-2.71s.35-1.99,1.04-2.62,1.74-1.04,3.16-1.23c.36-.04,.84-.09,1.46-.16,1.05-.11,1.69-.21,1.93-.31,.24-.09,.39-.21,.47-.36,.08-.15,.11-.47,.11-.97,0-.63-.23-1.1-.69-1.41-.46-.31-1.15-.47-2.07-.47s-1.68,.19-2.16,.57c-.49,.38-.73,.95-.73,1.7h-1.95v-.09c0-1.24,.44-2.22,1.31-2.93,.87-.72,2.07-1.08,3.6-1.08,1.64,0,2.85,.31,3.63,.92,.78,.62,1.16,1.58,1.16,2.88v6.14c0,.53,.06,.87,.17,1.02s.32,.23,.62,.23c.06,0,.14,0,.22-.02,.09-.01,.19-.03,.32-.05v1.59c-.25,.07-.47,.12-.66,.14-.19,.03-.36,.04-.53,.04-.69,0-1.2-.15-1.55-.45s-.52-.75-.52-1.35v-.07Zm-.19-4.61c-.55,.3-1.49,.53-2.83,.7-.47,.06-.83,.11-1.07,.15-.75,.12-1.29,.34-1.62,.66s-.49,.79-.49,1.4,.19,1.08,.57,1.41c.38,.33,.93,.49,1.64,.49,1.11,0,2.02-.28,2.73-.84,.71-.56,1.07-1.27,1.07-2.14v-1.83Z"/><path class="cls-1" d="M150.33,59.82v-12.27h1.99v2.2c.33-.83,.77-1.44,1.33-1.85s1.25-.61,2.07-.61c.15,0,.26,0,.33,0s.14,.01,.21,.03v2.18c-.05,0-.11-.01-.18-.02s-.17,0-.31,0c-1.1,0-1.94,.3-2.52,.9-.58,.6-.87,1.47-.87,2.62v6.83h-2.06Z"/><path class="cls-1" d="M165.89,47.55h2.3l-5.17,14.18c-.49,1.34-.98,2.21-1.48,2.62-.5,.41-1.21,.62-2.15,.62-.21,0-.41-.02-.61-.05-.2-.03-.41-.08-.61-.14v-1.97c.21,.06,.41,.11,.61,.14,.2,.03,.4,.05,.6,.05,.4,0,.72-.08,.96-.24,.24-.16,.43-.42,.56-.77l.54-1.46-4.65-12.97h2.3l3.4,9.92,3.4-9.92Z"/></g></svg>